<svg width="51" height="51" viewBox="0 0 51 51" fill="none" xmlns="http://www.w3.org/2000/svg">
<g clip-path="url(#clip0_1_130)">
<path d="M46.42 11.2C47.42 12.91 47.68 14.66 46.93 15.11C46.18 15.56 44.73 14.54 43.7 12.85C42.67 11.16 42.44 9.42002 43.18 9.00002C43.92 8.58002 45.38 9.50002 46.42 11.2Z" fill="#FEFFD0" stroke="black" stroke-width="0.25" stroke-miterlimit="10"/>
<path d="M3.32 22.75C3.32 24.75 2.52 26.33 1.64 26.32C0.760001 26.31 0.0800011 24.71 0.130001 22.74C0.180001 20.77 0.920001 19.17 1.8 19.17C2.68 19.17 3.37 20.76 3.32 22.75Z" fill="#FEFFD0" stroke="black" stroke-width="0.25" stroke-miterlimit="10"/>
<path d="M45.43 34.66C47.33 37.32 45.43 41.79 41.31 44.66C37.19 47.53 32.31 47.66 30.41 45C28.51 42.34 30.34 37.9 34.48 35C38.62 32.1 43.54 32 45.43 34.66Z" fill="#FEFFD0" stroke="black" stroke-width="0.25" stroke-miterlimit="10"/>
<path d="M36 12.81C35.936 12.9794 35.8411 13.1353 35.72 13.27C34.9 14.15 32.72 14.27 30.53 13.55C28.34 12.83 26.69 11.39 26.62 10.2C26.6096 10.0311 26.63 9.86166 26.68 9.69999C27.13 8.41999 29.57 8.08999 32.15 8.94999C34.73 9.80999 36.4 11.53 36 12.81Z" fill="#C4A08B"/>
<path d="M35.68 13.27C34.86 14.15 32.68 14.27 30.49 13.55C28.3 12.83 26.65 11.39 26.58 10.2C27.8551 9.63964 29.2638 9.45574 30.64 9.67C33.27 10 35.3 11.55 35.68 13.27Z" fill="#FFD0B5"/>
<path d="M36 12.81C35.936 12.9794 35.8411 13.1353 35.72 13.27C34.9 14.15 32.72 14.27 30.53 13.55C28.34 12.83 26.69 11.39 26.62 10.2C26.6096 10.0311 26.63 9.86166 26.68 9.69999C27.13 8.41999 29.57 8.08999 32.15 8.94999C34.73 9.80999 36.4 11.53 36 12.81Z" stroke="black" stroke-miterlimit="10"/>
<path d="M28.64 1.32C27.8744 0.665717 26.9233 0.267131 25.92 0.180003C24.19 2.80142e-06 22.7 0.440003 22.39 1.27C17.1276 1.86575 12.1903 4.11729 8.29 7.7C7.24016 8.19137 6.2881 8.86899 5.48 9.7C3.77 11.4 2.81 13.25 3.35 13.83L3.42 13.88C1.47955 17.3907 0.46759 21.3387 0.480002 25.35C0.52048 30.8785 2.43729 36.2294 5.91644 40.5261C9.39559 44.8228 14.2308 47.8106 19.63 49L19.7 49.09C20.548 49.736 21.584 50.0871 22.65 50.09C23.6677 50.2482 24.7093 50.1093 25.65 49.69L25.78 49.59C39.27 49.33 50.11 38.59 50.11 25.35C50.0545 19.422 47.8461 13.7162 43.8963 9.2954C39.9464 4.8746 34.5244 2.04016 28.64 1.32Z" fill="#FEFFD0" stroke="black" stroke-width="0.25" stroke-miterlimit="10"/>
<path d="M27.63 23.59C27.6306 23.9054 27.5587 24.2167 27.42 24.5C27.0252 25.1352 26.4645 25.6506 25.7984 25.9907C25.1323 26.3308 24.386 26.4827 23.64 26.43C21.44 26.43 19.64 25.16 19.64 23.59C19.667 23.1244 19.8174 22.6743 20.0758 22.286C20.3341 21.8976 20.691 21.5849 21.11 21.38C21.8759 20.9499 22.7416 20.7292 23.62 20.74C25.85 20.74 27.63 22 27.63 23.59Z" fill="#C4A08B"/>
<path d="M27.44 24.22C27.445 24.3133 27.445 24.4067 27.44 24.5C27.0452 25.1352 26.4845 25.6506 25.8184 25.9907C25.1523 26.3308 24.406 26.4827 23.66 26.43C21.46 26.43 19.66 25.16 19.66 23.59C19.6871 23.1244 19.8374 22.6743 20.0958 22.286C20.3541 21.8976 20.711 21.5849 21.13 21.38C21.781 21.1153 22.4772 20.9794 23.18 20.98C25.53 21 27.44 22.43 27.44 24.22Z" fill="#FFD0B5"/>
<path d="M27.63 23.59C27.6306 23.9054 27.5587 24.2167 27.42 24.5C27.0252 25.1352 26.4645 25.6506 25.7984 25.9907C25.1323 26.3308 24.386 26.4827 23.64 26.43C21.44 26.43 19.64 25.16 19.64 23.59C19.667 23.1244 19.8174 22.6743 20.0758 22.286C20.3341 21.8976 20.691 21.5849 21.11 21.38C21.8759 20.9499 22.7416 20.7292 23.62 20.74C25.85 20.74 27.63 22 27.63 23.59Z" stroke="black" stroke-width="0.25" stroke-miterlimit="10"/>
<path d="M25.43 48.62C25.428 48.7062 25.4001 48.7898 25.35 48.86C25.2994 48.941 25.231 49.0093 25.15 49.06C24.3618 49.4759 23.4573 49.6167 22.58 49.46C21.6394 49.449 20.7356 49.0932 20.04 48.46C19.9621 48.3555 19.9168 48.2302 19.91 48.1C19.96 47.48 21.22 47.1 22.74 47.26C24.26 47.42 25.48 48 25.43 48.62Z" fill="#FFDFCC"/>
<path d="M25.43 48.62C25.428 48.7062 25.4001 48.7898 25.35 48.86C24.4513 48.9887 23.5388 48.9887 22.64 48.86C21.6986 48.7432 20.779 48.4906 19.91 48.11C19.96 47.49 21.22 47.11 22.74 47.27C24.26 47.43 25.48 48 25.43 48.62Z" fill="#FFD0B5"/>
<path d="M25.43 48.62C25.4195 48.711 25.3889 48.7986 25.3405 48.8764C25.2921 48.9542 25.227 49.0204 25.15 49.07C24.3624 49.4878 23.4561 49.6253 22.58 49.46C21.6394 49.449 20.7356 49.0932 20.04 48.46C19.9514 48.3459 19.9054 48.2044 19.91 48.06C19.96 47.44 21.22 47.06 22.74 47.22C24.26 47.38 25.48 48 25.43 48.62Z" stroke="black" stroke-width="0.25" stroke-miterlimit="10"/>
<path d="M9.13 34.06C10.51 36.77 10.6 39.42 9.34 39.97C8.08 40.52 6 38.79 4.59 36.1C3.18 33.41 3.12 30.76 4.36 30.19C5.6 29.62 7.75 31.34 9.13 34.06Z" fill="#FFDFCC"/>
<path d="M41.69 38.55C39.8 42.74 35.54 44.88 32.2 43.35C28.86 41.82 27.72 37.23 29.6 33.09C31.48 28.95 35.7 26.78 39.04 28.27C42.38 29.76 43.59 34.37 41.69 38.55Z" fill="#C4A08B"/>
<path d="M42.55 35.43C42.4314 36.5124 42.1411 37.569 41.69 38.56C39.8 42.74 35.54 44.88 32.2 43.35C28.86 41.82 27.72 37.23 29.6 33.09C29.9081 32.4068 30.2904 31.7596 30.74 31.16C33.6 29.03 36.89 28.41 39.39 29.87C40.324 30.4755 41.0986 31.2967 41.6486 32.2643C42.1986 33.232 42.5077 34.3178 42.55 35.43Z" fill="#FFD0B5"/>
<path d="M42.55 35.43C42.4314 36.5124 42.1411 37.569 41.69 38.56C39.8 42.74 35.54 44.88 32.2 43.35C28.86 41.82 27.72 37.23 29.6 33.09C29.9081 32.4068 30.2904 31.7596 30.74 31.16C32.88 28.31 36.26 27.03 39.04 28.27C41.56 29.39 42.87 32.29 42.55 35.43Z" stroke="black" stroke-width="0.25" stroke-miterlimit="10"/>
<path d="M9.77001 39.65C8.08237 38.7806 6.69037 37.4304 5.77001 35.77C4.69863 34.1064 4.22274 32.1289 4.42001 30.16C5.67001 29.68 7.76001 31.4 9.11001 34.06C10.33 36.41 10.56 38.72 9.77001 39.65Z" fill="#FFD0B5"/>
<path d="M9.77 39.65C9.6544 39.7896 9.50692 39.8994 9.34 39.97C8.08 40.52 6 38.79 4.59 36.1C3.18 33.41 3.12 30.76 4.36 30.19H4.44C5.69 29.71 7.78 31.43 9.13 34.09C10.33 36.41 10.56 38.72 9.77 39.65Z" stroke="black" stroke-width="0.25" stroke-miterlimit="10"/>
<path d="M28.46 3.05C28.33 4.05 26.93 4.62 25.34 4.4C23.75 4.18 22.57 3.24 22.7 2.29C22.83 1.34 24.2 0.730001 25.79 0.930001C27.38 1.13 28.58 2.09 28.46 3.05Z" fill="#C4A08B"/>
<path d="M28.38 3.33001C28.05 4.12001 26.77 4.59001 25.38 4.40001C24.8567 4.37494 24.3479 4.22015 23.8992 3.94959C23.4506 3.67902 23.0763 3.30116 22.81 2.85001C23.15 2.05001 24.42 1.59001 25.81 1.78001C26.3333 1.80509 26.8421 1.95987 27.2908 2.23044C27.7394 2.501 28.1137 2.87886 28.38 3.33001Z" fill="#FFD0B5"/>
<path d="M28.45 3.05001C28.4421 3.14653 28.4184 3.24111 28.38 3.33001C28.05 4.12001 26.77 4.59001 25.38 4.40001C24.8567 4.37494 24.3479 4.22015 23.8992 3.94959C23.4506 3.67902 23.0763 3.30116 22.81 2.85001C22.7374 2.67285 22.7133 2.47958 22.74 2.29001C22.7608 2.13451 22.8122 1.98466 22.8911 1.84908C22.9701 1.7135 23.075 1.59487 23.2 1.50001C23.5737 1.24107 23.9949 1.05833 24.4393 0.962241C24.8837 0.866153 25.3427 0.858598 25.79 0.94001C26.2876 0.967064 26.7726 1.10612 27.209 1.3468C27.6453 1.58748 28.0217 1.92357 28.31 2.33001C28.4392 2.54633 28.4888 2.80103 28.45 3.05001V3.05001Z" stroke="black" stroke-width="0.25" stroke-miterlimit="10"/>
<path d="M8.08 12.28C6.58 13.77 4.92 14.51 4.37 13.93C3.82 13.35 4.6 11.7 6.09 10.22C7.58 8.74001 9.23 8.00001 9.78 8.55001C10.33 9.10001 9.58 10.78 8.08 12.28Z" fill="#C4A08B"/>
<path d="M7.32 12.9L7.09 13.14C5.91 14.02 4.81 14.37 4.38 13.93C3.95 13.49 4.61 11.69 6.1 10.21C6.50302 9.8011 6.94513 9.43268 7.42 9.11C8.18 8.7 8.82 8.59 9.13 8.87C9.73 9.41 8.92 11.22 7.32 12.9Z" fill="#FFD0B5"/>
<path d="M8.08 12.28C7.76442 12.5867 7.43047 12.8739 7.08 13.14C5.9 14.02 4.8 14.37 4.37 13.93C3.94 13.49 4.6 11.69 6.09 10.21C6.49618 9.80061 6.94166 9.43216 7.42 9.11001V9.11001C8.42 8.41001 9.42 8.16002 9.78 8.55002C10.34 9.11002 9.58 10.78 8.08 12.28Z" stroke="black" stroke-width="0.25" stroke-miterlimit="10"/>
<path d="M12.52 22.66C11.83 23.9 10.76 24.66 10.13 24.28C9.5 23.9 9.56 22.67 10.26 21.43C10.96 20.19 12.02 19.43 12.64 19.81C13.26 20.19 13.22 21.42 12.52 22.66Z" fill="#B1B392"/>
<path d="M33.4 17C33.4743 17.0982 33.5284 17.2102 33.5591 17.3294C33.5898 17.4487 33.5965 17.5729 33.5788 17.6947C33.5611 17.8166 33.5194 17.9337 33.4561 18.0394C33.3928 18.145 33.3091 18.237 33.21 18.31C33.0256 18.4787 32.7848 18.5722 32.535 18.5722C32.2851 18.5722 32.0443 18.4787 31.86 18.31C31.7859 18.2126 31.7321 18.1015 31.7015 17.983C31.6709 17.8645 31.6643 17.7412 31.682 17.6201C31.6997 17.4991 31.7414 17.3828 31.8045 17.278C31.8677 17.1732 31.9512 17.0821 32.05 17.01C32.2331 16.84 32.4732 16.7447 32.7231 16.7428C32.9729 16.741 33.2144 16.8327 33.4 17Z" fill="#B1B392"/>
<path d="M35.73 10C35.9251 10.1867 36.0804 10.411 36.1865 10.6593C36.2926 10.9077 36.3473 11.1749 36.3473 11.445C36.3473 11.7151 36.2926 11.9823 36.1865 12.2307C36.0804 12.479 35.9251 12.7033 35.73 12.89C35.2819 13.2097 34.7284 13.3454 34.1833 13.2691C33.6382 13.1928 33.1431 12.9104 32.8 12.48C32.6064 12.2934 32.4525 12.0698 32.3473 11.8223C32.2421 11.5749 32.1879 11.3088 32.1879 11.04C32.1879 10.7712 32.2421 10.5051 32.3473 10.2577C32.4525 10.0102 32.6064 9.78657 32.8 9.6C33.2468 9.27919 33.7997 9.14186 34.3447 9.21627C34.8897 9.29068 35.3855 9.57116 35.73 10Z" fill="#B1B392"/>
<path d="M35.89 12.76L35.74 12.89C35.292 13.2097 34.7384 13.3454 34.1933 13.2691C33.6482 13.1928 33.1531 12.9104 32.81 12.48C32.5801 12.233 32.408 11.938 32.306 11.6163C32.2039 11.2947 32.1746 10.9544 32.22 10.62L32.36 10.49C32.8072 10.1679 33.3614 10.0308 33.9073 10.1071C34.4531 10.1835 34.9484 10.4675 35.29 10.9C35.5234 11.145 35.6986 11.4394 35.8025 11.7615C35.9064 12.0835 35.9363 12.4248 35.89 12.76Z" fill="#FFD0B5"/>
<path d="M35.89 12.76L35.74 12.89C35.292 13.2097 34.7384 13.3454 34.1933 13.2691C33.6482 13.1928 33.1531 12.9104 32.81 12.48C32.5801 12.233 32.408 11.938 32.306 11.6163C32.2039 11.2947 32.1746 10.9544 32.22 10.62C32.2918 10.2319 32.4927 9.87953 32.79 9.62001C33.2376 9.2962 33.7927 9.1571 34.3401 9.23158C34.8875 9.30606 35.3852 9.58839 35.73 10.02C36.0907 10.3761 36.3067 10.8533 36.3362 11.3593C36.3658 11.8653 36.2068 12.3643 35.89 12.76V12.76Z" stroke="black" stroke-width="0.25" stroke-miterlimit="10"/>
<path d="M42 18.48C42.1951 18.6667 42.3504 18.891 42.4565 19.1393C42.5626 19.3877 42.6173 19.655 42.6173 19.925C42.6173 20.1951 42.5626 20.4623 42.4565 20.7107C42.3504 20.959 42.1951 21.1833 42 21.37C41.554 21.6932 41.0005 21.832 40.4548 21.7575C39.9091 21.683 39.4131 21.4009 39.07 20.97C38.8749 20.7833 38.7196 20.559 38.6135 20.3107C38.5074 20.0623 38.4527 19.7951 38.4527 19.525C38.4527 19.255 38.5074 18.9877 38.6135 18.7394C38.7196 18.491 38.8749 18.2667 39.07 18.08C39.5168 17.7592 40.0697 17.6219 40.6147 17.6963C41.1597 17.7707 41.6555 18.0512 42 18.48Z" fill="#B1B392"/>
<path d="M42.6 20C42.6067 20.2584 42.5565 20.5151 42.4528 20.7519C42.3491 20.9887 42.1945 21.1997 42 21.37C41.554 21.6932 41.0005 21.832 40.4548 21.7575C39.909 21.683 39.413 21.4009 39.07 20.97C38.8745 20.7447 38.7189 20.4877 38.61 20.21C38.6005 19.9507 38.6485 19.6925 38.7505 19.454C38.8525 19.2154 39.006 19.0023 39.2 18.83C39.6496 18.5097 40.2048 18.3737 40.7516 18.45C41.2983 18.5262 41.7952 18.8089 42.14 19.24C42.3356 19.4652 42.4912 19.7223 42.6 20Z" fill="#FFD0B5"/>
<path d="M42.6 20C42.6067 20.2584 42.5565 20.5151 42.4528 20.7519C42.3491 20.9887 42.1945 21.1997 42 21.37C41.554 21.6932 41.0005 21.832 40.4548 21.7575C39.9091 21.683 39.4131 21.4009 39.07 20.97C38.8745 20.7447 38.719 20.4877 38.61 20.21C38.4475 19.8581 38.3977 19.4645 38.4675 19.0832C38.5374 18.7019 38.7233 18.3515 39 18.08C39.4476 17.7562 40.0027 17.6171 40.5501 17.6916C41.0975 17.766 41.5952 18.0484 41.94 18.48C42.335 18.8912 42.5692 19.4306 42.6 20V20Z" stroke="black" stroke-width="0.25" stroke-miterlimit="10"/>
<path d="M22.33 37.14C22.4896 37.288 22.6183 37.4661 22.7087 37.664C22.7991 37.862 22.8495 38.0758 22.857 38.2933C22.8644 38.5108 22.8287 38.7277 22.752 38.9313C22.6753 39.135 22.5591 39.3214 22.41 39.48C22.0405 39.7263 21.5905 39.8211 21.153 39.7448C20.7156 39.6685 20.3242 39.4269 20.06 39.07C19.8994 38.9242 19.7693 38.7481 19.6772 38.5517C19.5851 38.3553 19.5329 38.1426 19.5236 37.9259C19.5143 37.7092 19.5481 37.4928 19.623 37.2892C19.6979 37.0857 19.8125 36.899 19.96 36.74C20.3314 36.4914 20.7839 36.3944 21.2245 36.4688C21.6652 36.5432 22.0607 36.7833 22.33 37.14Z" fill="#B1B392"/>
<path d="M20.11 3.51001C20.54 4.26001 19.43 5.67001 17.63 6.67001C15.83 7.67001 14.02 7.87001 13.63 7.12001C13.24 6.37001 14.25 5.00001 16.05 4.00001C17.85 3.00001 19.67 2.76001 20.11 3.51001Z" fill="#B1B392"/>
</g>
<defs>
<clipPath id="clip0_1_130">
<rect width="50.25" height="50.25" fill="white"/>
</clipPath>
</defs>
</svg>
