<svg width="50" height="50" viewBox="0 0 50 50" fill="none" xmlns="http://www.w3.org/2000/svg">
<g clip-path="url(#clip0_1_176)">
<path d="M25 50C38.8071 50 50 38.8071 50 25C50 11.1929 38.8071 0 25 0C11.1929 0 0 11.1929 0 25C0 38.8071 11.1929 50 25 50Z" fill="url(#paint0_linear_1_176)"/>
<path d="M23.53 45.71C35.7797 45.71 45.71 35.6588 45.71 23.26C45.71 10.8612 35.7797 0.809998 23.53 0.809998C11.2803 0.809998 1.35 10.8612 1.35 23.26C1.35 35.6588 11.2803 45.71 23.53 45.71Z" fill="#E33953"/>
<path d="M44 17.51C44 16.7621 43.7029 16.0448 43.174 15.516C42.6452 14.9871 41.9279 14.69 41.18 14.69C40.947 14.6891 40.715 14.7193 40.49 14.78C39.2309 10.8882 36.7793 7.49111 33.4823 5.07C30.1854 2.64889 26.2103 1.32645 22.12 1.28999C11.4 1.28999 2.71 10.29 2.71 21.48C2.66135 25.6583 3.91482 29.7481 6.29639 33.1815C8.67795 36.615 12.0694 39.2218 16 40.64C15.94 40.848 15.9097 41.0635 15.91 41.28C15.9204 41.8983 16.1624 42.4902 16.588 42.9387C17.0137 43.3872 17.5921 43.6598 18.209 43.7025C18.8259 43.7452 19.4364 43.555 19.9198 43.1694C20.4033 42.7838 20.7245 42.2309 20.82 41.62C21.25 41.62 21.68 41.67 22.11 41.67C26.1895 41.6657 30.1577 40.3394 33.42 37.89C33.8146 38.2935 34.2882 38.6113 34.8113 38.8233C35.3344 39.0354 35.8956 39.1371 36.4598 39.1222C37.024 39.1073 37.579 38.9761 38.0902 38.7368C38.6013 38.4974 39.0575 38.1551 39.4303 37.7313C39.803 37.3075 40.0842 36.8113 40.2563 36.2738C40.4284 35.7362 40.4877 35.169 40.4304 34.6075C40.3731 34.046 40.2005 33.5024 39.9234 33.0107C39.6463 32.519 39.2706 32.0898 38.82 31.75C40.6003 28.6207 41.5311 25.0802 41.52 21.48C41.52 21.09 41.52 20.7 41.52 20.32C42.2041 20.2326 42.833 19.8992 43.2893 19.3822C43.7457 18.8651 43.9983 18.1996 44 17.51Z" fill="#DA3658"/>
<path d="M41 16.58C41.0013 16.3266 40.9527 16.0753 40.8569 15.8407C40.7611 15.606 40.6201 15.3925 40.4418 15.2124C40.2635 15.0322 40.0515 14.8889 39.8178 14.7907C39.5842 14.6925 39.3335 14.6413 39.08 14.64C38.1058 11.6829 36.3999 9.02011 34.1208 6.89898C31.8418 4.77785 29.0635 3.26725 26.0442 2.50757C23.0249 1.74789 19.8625 1.76378 16.851 2.55376C13.8395 3.34373 11.0765 4.88217 8.81888 7.02609C6.56124 9.17001 4.88218 11.8498 3.93775 14.8166C2.99331 17.7833 2.81415 20.9406 3.4169 23.9951C4.01966 27.0496 5.38477 29.9022 7.38538 32.2877C9.38599 34.6733 11.9572 36.5144 14.86 37.64C14.8448 37.803 14.8448 37.967 14.86 38.13C14.863 38.6933 15.0692 39.2366 15.4406 39.6602C15.812 40.0837 16.3237 40.3591 16.8818 40.4357C17.4399 40.5123 18.0068 40.385 18.4786 40.0772C18.9504 39.7693 19.2953 39.3017 19.45 38.76C20.1571 38.8404 20.8683 38.8805 21.58 38.88C25.2088 38.8877 28.7583 37.8194 31.78 35.81C32.1126 36.167 32.5136 36.4536 32.9592 36.6525C33.4047 36.8515 33.8857 36.9588 34.3736 36.9682C34.8615 36.9775 35.3463 36.8887 35.7991 36.7069C36.252 36.5252 36.6637 36.2542 37.0097 35.9102C37.3557 35.5662 37.6291 35.1561 37.8135 34.7043C37.9979 34.2525 38.0895 33.7683 38.083 33.2803C38.0765 32.7924 37.972 32.3108 37.7756 31.8641C37.5793 31.4174 37.2951 31.0147 36.94 30.68C38.9556 27.6395 40.0208 24.0679 40 20.42C40.0008 19.7216 39.9607 19.0237 39.88 18.33C40.2141 18.1755 40.4971 17.9287 40.6956 17.6186C40.894 17.3085 40.9997 16.9481 41 16.58Z" fill="url(#paint1_linear_1_176)"/>
<path d="M34.28 36.4C36.0031 36.4 37.4 35.0031 37.4 33.28C37.4 31.5569 36.0031 30.16 34.28 30.16C32.5569 30.16 31.16 31.5569 31.16 33.28C31.16 35.0031 32.5569 36.4 34.28 36.4Z" fill="#DA5B68"/>
<path d="M26.29 19.17C29.3938 19.17 31.91 16.6538 31.91 13.55C31.91 10.4462 29.3938 7.92999 26.29 7.92999C23.1862 7.92999 20.67 10.4462 20.67 13.55C20.67 16.6538 23.1862 19.17 26.29 19.17Z" fill="#DA5B68"/>
<path d="M11.43 18.73C13.3409 18.73 14.89 17.1809 14.89 15.27C14.89 13.3591 13.3409 11.81 11.43 11.81C9.5191 11.81 7.97 13.3591 7.97 15.27C7.97 17.1809 9.5191 18.73 11.43 18.73Z" fill="#DA5B68"/>
<path d="M20.08 28.89C20.8422 28.89 21.46 28.2722 21.46 27.51C21.46 26.7479 20.8422 26.13 20.08 26.13C19.3178 26.13 18.7 26.7479 18.7 27.51C18.7 28.2722 19.3178 28.89 20.08 28.89Z" fill="#DA5B68"/>
<path d="M24.71 35.65C25.1408 35.65 25.49 35.3008 25.49 34.87C25.49 34.4392 25.1408 34.09 24.71 34.09C24.2792 34.09 23.93 34.4392 23.93 34.87C23.93 35.3008 24.2792 35.65 24.71 35.65Z" fill="#DA5B68"/>
<path d="M29.93 28.68C30.1454 28.68 30.32 28.5054 30.32 28.29C30.32 28.0746 30.1454 27.9 29.93 27.9C29.7146 27.9 29.54 28.0746 29.54 28.29C29.54 28.5054 29.7146 28.68 29.93 28.68Z" fill="#DA5B68"/>
<path d="M31.59 24.6C32.7388 24.6 33.67 23.6688 33.67 22.52C33.67 21.3713 32.7388 20.44 31.59 20.44C30.4412 20.44 29.51 21.3713 29.51 22.52C29.51 23.6688 30.4412 24.6 31.59 24.6Z" fill="#DA5B68"/>
<path d="M9.02 28.88C10.351 28.88 11.43 27.801 11.43 26.47C11.43 25.139 10.351 24.06 9.02 24.06C7.68899 24.06 6.61 25.139 6.61 26.47C6.61 27.801 7.68899 28.88 9.02 28.88Z" fill="#DA5B68"/>
<path d="M13.42 8.73C13.8618 8.73 14.22 8.37183 14.22 7.93C14.22 7.48818 13.8618 7.13 13.42 7.13C12.9782 7.13 12.62 7.48818 12.62 7.93C12.62 8.37183 12.9782 8.73 13.42 8.73Z" fill="#DA5B68"/>
<path d="M17.21 39.68C18.1544 39.68 18.92 38.9144 18.92 37.97C18.92 37.0256 18.1544 36.26 17.21 36.26C16.2656 36.26 15.5 37.0256 15.5 37.97C15.5 38.9144 16.2656 39.68 17.21 39.68Z" fill="#DA5B68"/>
<path d="M39.09 17.73C39.7693 17.73 40.32 17.1793 40.32 16.5C40.32 15.8207 39.7693 15.27 39.09 15.27C38.4107 15.27 37.86 15.8207 37.86 16.5C37.86 17.1793 38.4107 17.73 39.09 17.73Z" fill="#DA5B68"/>
</g>
<defs>
<linearGradient id="paint0_linear_1_176" x1="7.66" y1="7.48" x2="42.83" y2="43.02" gradientUnits="userSpaceOnUse">
<stop stop-color="#E39C72"/>
<stop offset="0.57" stop-color="#DD5467"/>
</linearGradient>
<linearGradient id="paint1_linear_1_176" x1="9.25" y1="8.70001" x2="31.08" y2="29.5" gradientUnits="userSpaceOnUse">
<stop stop-color="#E39C72"/>
<stop offset="0.28" stop-color="#E29771"/>
<stop offset="0.6" stop-color="#E1896E"/>
<stop offset="0.94" stop-color="#DE7269"/>
<stop offset="1" stop-color="#DD6E68"/>
</linearGradient>
<clipPath id="clip0_1_176">
<rect width="50" height="50" fill="white"/>
</clipPath>
</defs>
</svg>
