<svg width="50" height="50" viewBox="0 0 50 50" fill="none" xmlns="http://www.w3.org/2000/svg">
<g clip-path="url(#clip0_1_194)">
<path d="M4.78 9.21C7.74 5.06 10.45 6 13.32 8C16.19 10 16.12 15 13.17 19.14C10.22 23.28 3.91 25.55 1 23.54C-1.91 21.53 1.82 13.36 4.78 9.21Z" fill="#38A811"/>
<path d="M15.78 43.87C18.78 39.72 26.43 30.74 29.3 32.75C32.17 34.76 31.72 39.51 29.15 43.9C26.42 48.55 22.67 51.84 18.68 48.9C15.87 46.78 12.83 48 15.78 43.87Z" fill="#38A811"/>
<path d="M33.17 35.53C36.17 31.39 43.82 22.4 46.69 24.41C49.56 26.42 51.16 30.57 48.58 35C45.86 39.64 40.06 43.54 36.07 40.57C33.26 38.44 30.22 39.68 33.17 35.53Z" fill="#38A811"/>
<path d="M9.8 25.41H9.89C10.33 25.32 20.68 23.16 22.89 29.41C23.2202 30.4148 23.3294 31.4791 23.21 32.53C23.0217 34.4602 22.4475 36.3329 21.5216 38.037C20.5957 39.741 19.337 41.2417 17.82 42.45C16.3705 43.6515 14.7448 44.6228 13 45.33L12.64 45.47C12.28 45.26 11.93 45.04 11.59 44.82C11.5846 44.7936 11.5846 44.7664 11.59 44.74C4.85 40.02 1.59 30.74 1.59 30.65H1.48H1.43C1.35 30.35 1.28 30.05 1.21 29.75L1.65 29.31C3.56 27.3 9.17 25.6 9.8 25.41Z" fill="#AAFFFB"/>
<path d="M9.15 27C10.8354 26.6688 12.5539 26.5379 14.27 26.61C17.79 26.79 20.05 28.05 20.82 30.26C21.0936 31.1183 21.1856 32.0242 21.09 32.92C20.9067 34.7024 20.3701 36.4303 19.5116 38.0031C18.6532 39.5758 17.49 40.9617 16.09 42.08C14.7583 43.2065 13.265 44.1268 11.66 44.81H11.6C11.5946 44.7836 11.5946 44.7564 11.6 44.73C4.86 40.01 1.6 30.73 1.6 30.64H1.48H1.43C3.22 28.76 8.91 27.06 9.15 27Z" fill="#196100"/>
<path d="M9.19 27.1C10.3636 26.87 11.5545 26.7395 12.75 26.71C16.39 26.6 21.45 27.41 20.96 32.9C20.777 34.949 20.0899 36.9209 18.96 38.64C17.1183 41.3029 14.5544 43.3845 11.57 44.64C4.79 39.89 1.57 30.58 1.57 30.58C3.31 28.85 9.19 27.1 9.19 27.1Z" fill="#37D900"/>
<path d="M24.21 -9.38773e-07C27.476 -0.139049 30.7375 0.363773 33.81 1.48L34.48 1.74L34.55 1.91C41.2392 6.03536 46.3975 12.2331 49.24 19.56L49.51 19.62C49.62 20.18 49.71 20.73 49.79 21.29C50.2692 24.9578 49.9068 28.6866 48.7303 32.1934C47.5538 35.7003 45.5942 38.8932 43 41.53C43 41.53 33.25 42.14 29.5 36.79C25.75 31.44 21.5 21.12 20.91 17.92C20.32 14.72 20.16 9.21 21.27 5.56C21.8353 3.51544 22.8385 1.61827 24.21 -9.38773e-07Z" fill="#76ACD6"/>
<path d="M29.47 32.27C30.979 31.9245 32.557 32.0394 34 32.6C36.34 33.41 39.79 35.6 43 41.53L42.46 42.06L42.17 42.26C40.98 43.07 39.8 43.81 38.62 44.48H38.56C35.8695 46.0325 33.024 47.2994 30.07 48.26H29.93H29.8L29.45 48.37C29.4526 48.3933 29.4526 48.4167 29.45 48.44H29.2L28.63 48.52C27.2353 48.2322 25.9348 47.6002 24.8467 46.6815C23.7586 45.7628 22.9175 44.5867 22.4 43.26C22.2339 42.8511 22.1001 42.4298 22 42C21.36 37.9 25 34.89 27.43 33.37C28.0727 32.9584 28.7407 32.5877 29.43 32.26L29.47 32.27Z" fill="#AAFFFB"/>
<path d="M29.51 36.79C29.04 36.11 28.51 35.36 28.08 34.55C27.4199 34.96 26.7885 35.4144 26.19 35.91C23.83 37.91 22.76 40.13 23.1 42.34C23.1688 42.7785 23.2759 43.2102 23.42 43.63C24.87 47.8 29.57 48.52 29.62 48.52C29.6464 48.5249 29.6736 48.5249 29.7 48.52V48.4C34.1103 47.0143 38.2748 44.9422 42.04 42.26C42.0993 42.2727 42.1607 42.2727 42.22 42.26L42.17 42.16L41.84 41.57C39.23 41.52 32.48 41 29.51 36.79Z" fill="#196100"/>
<path d="M29.45 32.28C28.7607 32.6077 28.0927 32.9784 27.45 33.39C27.67 33.79 27.9 34.17 28.12 34.55C28.7041 34.1831 29.3084 33.8492 29.93 33.55C31.2636 33.2517 32.6558 33.3561 33.93 33.85C36 34.58 39.03 36.5 41.93 41.55C42.62 41.55 43.04 41.55 43.04 41.55C39.82 35.65 36.37 33.43 34.04 32.62C32.604 32.0602 31.0337 31.9418 29.53 32.28H29.45Z" fill="#8BD1CE"/>
<path d="M33.93 33.85C32.6558 33.3561 31.2636 33.2517 29.93 33.55C29.3084 33.8492 28.7041 34.1831 28.12 34.55C28.6 35.36 29.12 36.11 29.55 36.79C32.55 41.03 39.27 41.52 41.94 41.55C39 36.5 36 34.58 33.93 33.85Z" fill="#1D3615"/>
<path d="M31.53 1.99999C32.2032 1.89747 32.8707 1.76062 33.53 1.58999L33.79 1.50999L34.46 1.76999L34.53 1.93999C41.2216 6.05434 46.3867 12.2412 49.24 19.56L49.51 19.62C49.62 20.18 49.71 20.73 49.79 21.29C49.1463 23.0325 48.2317 24.6625 47.08 26.12C45.8866 27.7374 44.2775 29.0014 42.4235 29.7779C40.5695 30.5544 38.5398 30.8143 36.55 30.53C31 29.8 26.86 26 24.61 19.52C24.082 17.9654 23.6676 16.3746 23.37 14.76C22.73 11.38 22.09 5.43999 25.07 3.75999C26.6 2.86999 29.34 2.37999 31.53 1.99999Z" fill="#8BD1CE"/>
<path d="M32.22 2.25999C32.925 2.15609 33.623 2.00915 34.31 1.81999L34.48 1.75999L34.55 1.92999C41.2358 6.05022 46.3938 12.2405 49.24 19.56L49.51 19.62L49.3 19.87C48.7181 21.5923 47.8344 23.1974 46.69 24.61C45.6116 26.0683 44.1603 27.2093 42.4887 27.9131C40.8171 28.617 38.9868 28.8577 37.19 28.61C32 27.93 28.29 24.48 26.19 18.35C25.6804 16.8413 25.2827 15.2971 25 13.73C24.53 11.24 23.69 5.28999 26.16 3.87999C27.49 3.09999 30.22 2.61999 32.22 2.25999Z" fill="#1D3615"/>
<path d="M49.23 19.7C49.23 19.7 46.23 29.7 37.23 28.48C28.23 27.26 25.88 17.82 25.09 13.71C24.3 9.6 24.21 5.12 26.19 4C28.17 2.88 33.19 2.35 34.42 1.95C41.1031 6.15893 46.2863 12.371 49.23 19.7Z" fill="#38A811"/>
<path d="M16 6.60001C18 7.45001 19.72 10 20.46 12C20.46 12.05 20.46 12.09 20.51 12.13C20.6993 12.6528 20.8236 13.1969 20.88 13.75C21.0124 14.6486 21.2301 15.5326 21.53 16.39C21.94 17.68 22.26 18.7 21.92 19.49C21.8194 19.7003 21.6764 19.8876 21.5 20.04C21.0988 20.4045 20.6557 20.7201 20.18 20.98C19.5707 21.3563 18.9239 21.6679 18.25 21.91C16.7322 22.1223 15.1906 22.0987 13.68 21.84H13.19C11.949 21.8014 10.7213 21.5721 9.55 21.16C8.78934 20.8127 8.10849 20.3123 7.55 19.69L7.45 19.57L7.39 19.42C7.39 19.42 7.3 19.21 7.19 18.89C6.70124 17.4951 6.41827 16.0365 6.35 14.56C6.24284 13.5449 6.38961 12.5191 6.77711 11.5748C7.16462 10.6305 7.78071 9.79724 8.57 9.15001L9.47 8.46001C12.2 6.38001 13.34 5.51001 16 6.60001Z" fill="#AAFFFB"/>
<path d="M29.93 33.69C29.93 33.69 36.13 31.74 41.75 41.57L42.11 42.22C41.27 42.8 40.43 43.35 39.58 43.87C37.1767 45.3552 34.6388 46.6107 32 47.62C31.25 47.9 30.49 48.15 29.72 48.39C28.9091 48.2545 28.1214 48.0054 27.38 47.65C26.298 47.193 25.3517 46.4656 24.632 45.5374C23.9122 44.6093 23.4432 43.5117 23.27 42.35C22.79 39.35 25.07 36.91 27.1 35.42C27.48 35.14 27.85 34.9 28.19 34.68C28.7483 34.3132 29.3295 33.9825 29.93 33.69Z" fill="#37D900"/>
<path d="M29.93 33.69C29.93 33.69 36.13 31.74 41.75 41.57L42.11 42.22C41.27 42.8 40.43 43.35 39.58 43.87C37.1767 45.3552 34.6388 46.6107 32 47.62C30.85 47.31 29.9 46.92 29.75 46.44C29.33 45.11 27.57 43.44 27.43 41.88C27.29 40.32 26.37 38.42 26.99 36.5C27.0997 36.1478 27.1371 35.777 27.1 35.41C27.48 35.13 27.85 34.89 28.19 34.67C28.7485 34.3066 29.3297 33.9793 29.93 33.69Z" fill="#14F400"/>
<path d="M29.93 33.69C29.93 33.69 36.13 31.74 41.75 41.57C38.99 41.57 32.42 40.98 29.51 36.81C29.05 36.17 28.6 35.44 28.14 34.67C28.7147 34.3047 29.3126 33.9774 29.93 33.69Z" fill="#38A811"/>
<path d="M20.76 16.92C21.0155 17.5563 21.1511 18.2344 21.16 18.92C21.06 18.55 20.98 18.22 20.92 17.92C20.86 17.62 20.81 17.27 20.76 16.92Z" fill="#76ACD6"/>
<path d="M21.16 18.9C21.25 19.24 21.37 19.63 21.5 20.04C21.6764 19.8876 21.8194 19.7003 21.92 19.49C22.26 18.7 21.92 17.68 21.53 16.39C21.2301 15.5326 21.0124 14.6486 20.88 13.75C20.8236 13.1969 20.6993 12.6528 20.51 12.13C20.51 12.13 20.51 12.05 20.46 12C20.4446 13.645 20.5449 15.2891 20.76 16.92C21.0131 17.55 21.1487 18.2211 21.16 18.9Z" fill="#8BD1CE"/>
<path d="M10 9.17L9.09 9.86C6.09 12.11 7.54 17.1 8.09 18.57C8.13968 18.7337 8.1998 18.894 8.27 19.05C8.72404 19.5708 9.28288 19.99 9.91 20.28C10.9968 20.6497 12.1326 20.8553 13.28 20.89H13.76C15.1596 21.1074 16.5817 21.1411 17.99 20.99C18.66 20.79 20.85 19.62 21.1 19.06C21.1318 18.9869 21.152 18.9093 21.16 18.83C21.06 18.46 20.98 18.13 20.92 17.83C20.86 17.53 20.81 17.18 20.76 16.83L20.68 16.57C20.3654 15.6842 20.1377 14.7699 20 13.84C19.946 13.3554 19.8353 12.8788 19.67 12.42C19 10.49 17.4 8.15 15.67 7.42C13.47 6.53 12.74 7.09 10 9.17Z" fill="#196100"/>
<path d="M21.16 18.9C21.1511 18.2144 21.0155 17.5363 20.76 16.9C20.76 17.25 20.87 17.59 20.92 17.9C20.97 18.21 21.06 18.53 21.16 18.9Z" fill="#1D3615"/>
<path d="M15.57 7.53C17.74 8.43 19.67 11.81 19.87 13.85C20.07 15.89 21.34 18.26 20.98 19.08C20.7124 19.4353 20.3713 19.7286 19.98 19.94L19.73 20.1C19.1783 20.4352 18.5956 20.7165 17.99 20.94C16.5983 21.091 15.1928 21.0574 13.81 20.84L12.43 20.71C11.5986 20.6588 10.7795 20.4836 10 20.19C9.37785 19.9094 8.81972 19.5044 8.36 19C8.03923 18.1664 7.79162 17.3065 7.62 16.43C7.35081 15.1899 7.32703 13.9092 7.55 12.66C7.75012 11.6015 8.33416 10.6542 9.19 10C10.04 9.35 10.72 8.82 11.29 8.4C13.07 7.06 13.84 6.82 15.57 7.53Z" fill="#37D900"/>
<path d="M24.31 28.56V28.49C24.197 28.2758 24.138 28.0372 24.138 27.795C24.138 27.5528 24.197 27.3142 24.31 27.1C24.22 26.92 24.14 26.74 24.06 26.56C23.8253 26.8499 23.6796 27.2015 23.6406 27.5724C23.6015 27.9433 23.6708 28.3176 23.84 28.65V28.72C24.1 29.46 25.01 29.72 25.56 29.83C25.47 29.64 25.37 29.45 25.28 29.25C25.0768 29.2154 24.8841 29.1353 24.7161 29.0159C24.5482 28.8964 24.4094 28.7406 24.31 28.56Z" fill="#AAFFFB"/>
<path d="M24.29 28.49V28.56C24.3924 28.7442 24.5359 28.9022 24.7093 29.0219C24.8828 29.1416 25.0815 29.2196 25.29 29.25L25.22 29.1C25.0541 29.0664 24.8979 28.9959 24.7629 28.8938C24.6279 28.7916 24.5175 28.6605 24.44 28.51C24.3325 28.3196 24.2695 28.1074 24.2557 27.8892C24.2418 27.671 24.2775 27.4525 24.36 27.25L24.3 27.1C24.1855 27.3134 24.1247 27.5516 24.123 27.7938C24.1212 28.036 24.1786 28.275 24.29 28.49Z" fill="#196100"/>
<path d="M24.43 28.51C24.5075 28.6605 24.6179 28.7916 24.7529 28.8938C24.8879 28.9959 25.0441 29.0664 25.21 29.1C24.91 28.48 24.63 27.86 24.35 27.25C24.2675 27.4525 24.2318 27.671 24.2457 27.8892C24.2595 28.1074 24.3225 28.3196 24.43 28.51Z" fill="#37D900"/>
<path d="M26.53 29.88C27.0416 29.7958 27.5006 29.5161 27.81 29.1C27.9098 28.9366 27.9707 28.7524 27.9881 28.5616C28.0054 28.3709 27.9787 28.1788 27.91 28L27.78 27.72L27.62 27.41C27.4833 27.0445 27.2671 26.714 26.9869 26.4425C26.7067 26.1709 26.3696 25.9651 26 25.84C25.07 25.48 24.66 25.58 24.22 26.28C24.1624 26.3771 24.0989 26.4706 24.03 26.56C24.11 26.74 24.19 26.92 24.28 27.1C24.3248 27.0115 24.3784 26.9278 24.44 26.85C24.5127 26.7507 24.5794 26.6472 24.64 26.54C24.93 26.08 25.07 26.01 25.81 26.3C26.1235 26.4055 26.4089 26.581 26.6445 26.8132C26.8801 27.0454 27.0598 27.3281 27.17 27.64L27.33 27.96C27.37 28.0217 27.4004 28.0891 27.42 28.16C27.4669 28.2708 27.4868 28.3911 27.4781 28.511C27.4694 28.631 27.4323 28.7471 27.37 28.85C27.1459 29.1435 26.8156 29.3374 26.45 29.39C26.2875 29.4131 26.1225 29.4131 25.96 29.39C25.7268 29.3608 25.4961 29.314 25.27 29.25C25.36 29.45 25.46 29.64 25.55 29.83L25.91 29.88C26.1158 29.907 26.3242 29.907 26.53 29.88Z" fill="#8BD1CE"/>
<path d="M24.55 26.92C25.01 26.29 24.89 26.07 25.78 26.42C26.67 26.77 26.78 27.09 27.23 28.01C27.68 28.93 26.67 29.23 26.44 29.27C26.2941 29.2908 26.1459 29.2908 26 29.27C25.7316 29.2454 25.4668 29.1918 25.21 29.11L25.28 29.26C25.5062 29.324 25.7368 29.3708 25.97 29.4C26.1325 29.4231 26.2975 29.4231 26.46 29.4C26.8256 29.3474 27.1559 29.1535 27.38 28.86C27.4423 28.7571 27.4794 28.641 27.4881 28.521C27.4968 28.4011 27.4769 28.2808 27.43 28.17C27.4104 28.0991 27.38 28.0317 27.34 27.97L27.18 27.65C27.0698 27.3381 26.8901 27.0554 26.6545 26.8232C26.4189 26.591 26.1335 26.4155 25.82 26.31C25.08 26.02 24.94 26.09 24.65 26.55C24.5894 26.6572 24.5227 26.7607 24.45 26.86C24.3884 26.9378 24.3348 27.0215 24.29 27.11L24.35 27.26C24.4057 27.1406 24.4727 27.0267 24.55 26.92Z" fill="#1D3615"/>
<path d="M26.44 29.27C26.67 29.27 27.73 28.94 27.23 28.01C26.73 27.08 26.67 26.77 25.78 26.42C24.89 26.07 25.01 26.29 24.55 26.92C24.4732 27.0236 24.4063 27.134 24.35 27.25C24.63 27.86 24.91 28.48 25.21 29.1C25.4668 29.1818 25.7316 29.2354 26 29.26C26.1455 29.2841 26.2936 29.2875 26.44 29.27Z" fill="#38A811"/>
<path d="M7.86 27.53C8.65 27.26 9.19 27.1 9.19 27.1C10.3636 26.87 11.5545 26.7395 12.75 26.71C15.1794 28.9351 17.0061 31.7388 18.06 34.86C18.4883 36.0886 18.803 37.3539 19 38.64C17.5054 40.8422 15.5067 42.6558 13.17 43.93C12.6661 44.2121 12.145 44.4626 11.61 44.68C4.83 39.93 1.61 30.62 1.61 30.62C2.78 29.38 6 28.16 7.86 27.53Z" fill="#14F400"/>
<path d="M7.86 27.53C8.88046 29.712 9.78832 31.945 10.58 34.22C11.689 37.3853 12.5515 40.6317 13.16 43.93C12.656 44.2121 12.135 44.4626 11.6 44.68C4.82 39.93 1.6 30.62 1.6 30.62C2.78 29.38 6 28.16 7.86 27.53Z" fill="#6FFF3D"/>
<path d="M11.29 8.36L11.56 8.44C12.56 8.7 12.62 9.36 12.85 10.01C13.08 10.66 13.65 10.9 14.61 11.37C15.57 11.84 16.48 10.18 17.26 10.65C18.04 11.12 18.93 13.87 19.26 15.65C19.5221 17.122 19.6493 18.6149 19.64 20.11C19.0883 20.4452 18.5056 20.7265 17.9 20.95C16.5083 21.101 15.1028 21.0674 13.72 20.85L12.34 20.72C11.5386 20.6569 10.7504 20.4784 10 20.19C9.37785 19.9094 8.81972 19.5044 8.36 19C8.03923 18.1664 7.79162 17.3065 7.62 16.43C7.35081 15.19 7.32703 13.9092 7.55 12.66C7.75012 11.6015 8.33416 10.6542 9.19 10C10 9.31 10.72 8.78 11.29 8.36Z" fill="#14F400"/>
<path d="M7.55 12.66C9.13 12.75 10.93 12.93 10.93 12.93C10.93 12.93 17.57 16.01 13.71 19.32C13.47 19.52 12.96 20.09 12.39 20.71C11.5721 20.6549 10.7668 20.4797 10 20.19C9.37785 19.9094 8.81972 19.5044 8.36 19C8.03923 18.1664 7.79162 17.3065 7.62 16.43C7.35081 15.19 7.32703 13.9092 7.55 12.66Z" fill="#6FFF3D"/>
</g>
<defs>
<clipPath id="clip0_1_194">
<rect width="50" height="50" fill="white"/>
</clipPath>
</defs>
</svg>
