<svg width="50" height="50" viewBox="0 0 50 50" fill="none" xmlns="http://www.w3.org/2000/svg">
<g clip-path="url(#clip0_1_42)">
<path d="M39.24 46.2C35.625 48.4746 31.4837 49.7766 27.2174 49.9799C22.9512 50.1831 18.7048 49.2806 14.89 47.36L14.14 47C10.2392 44.9379 6.91268 41.9378 4.46 38.27L4.4 38.19C3.92 37.47 3.48 36.73 3.08 35.99C2.68 35.25 2.42 34.69 2.14 34.04C2.08 33.92 2.03 33.79 1.98 33.67C1.30475 32.0593 0.795456 30.384 0.459999 28.67C-0.523781 23.9706 -0.0681292 19.0837 1.76749 14.6472C3.60311 10.2107 6.73345 6.43051 10.75 3.79999C22.1 -3.51001 37.67 -6.67572e-06 45.54 11.75C53.41 23.5 50.59 38.88 39.24 46.2Z" fill="#F3953B"/>
<path d="M23.53 47.51C14.32 44.31 8.87 34.36 10.13 24.14C10.3047 22.7612 10.5957 21.3997 11 20.07C11.8868 16.9746 13.4542 14.1165 15.5875 11.7047C17.7208 9.29284 20.3661 7.3882 23.33 6.13C27.4539 4.43012 32.058 4.30203 36.27 5.77C46.71 9.4 52.27 21.68 48.8 33.21C45.33 44.74 34 51.14 23.53 47.51Z" fill="#CB7F29"/>
<path d="M49.3268 31.0547C50.9371 22.1583 45.9955 13.8156 38.2893 12.4207C30.5831 11.0258 23.0306 17.107 21.4203 26.0033C19.81 34.8996 24.7517 43.2423 32.4578 44.6372C40.164 46.0321 47.7165 39.951 49.3268 31.0547Z" fill="#C1661E"/>
<path opacity="0.5" d="M48.44 21.29C48.44 21.29 35.24 13 10.13 24.14C10.3047 22.7612 10.5957 21.3997 11 20.07C11.8868 16.9746 13.4542 14.1165 15.5875 11.7047C17.7208 9.29284 20.3661 7.3882 23.33 6.13C27.84 6.68 44.57 9.34001 48.44 21.29Z" fill="#D29C2E"/>
<path opacity="0.65" d="M14.14 47C10.2392 44.9379 6.91268 41.9378 4.46 38.27L4.4 38.19C3.92 37.47 3.48 36.73 3.08 35.99C2.68 35.25 2.42 34.69 2.14 34.04C2.24 33.97 2.03 33.79 1.98 33.67C2.12 30.98 3.29 20.56 12.8 14.67C12.77 14.72 -0.110001 30.49 14.14 47Z" fill="#96581C"/>
</g>
<defs>
<clipPath id="clip0_1_42">
<rect width="50" height="50" fill="white"/>
</clipPath>
</defs>
</svg>
