<svg width="50" height="50" viewBox="0 0 50 50" fill="none" xmlns="http://www.w3.org/2000/svg">
<g clip-path="url(#clip0_1_316)">
<path d="M16.66 1C14.8507 1.46561 13.1514 2.28468 11.66 3.41C9.92 4.92 2.38 13.89 0.320001 18.48C0.0793278 18.9875 -0.0302976 19.5472 0.00114705 20.1079C0.0325917 20.6687 0.204103 21.2126 0.500001 21.69L0.650001 21.89C1.07 22.39 0.650001 25.17 0.650001 27.49C0.657111 28.6083 0.573503 29.7253 0.400001 30.83C0.395119 30.8799 0.395119 30.9301 0.400001 30.98C0.280001 31.85 -0.189999 35.51 1.61 36.79C3.41 38.07 5.46 39.27 6.3 40.69C7 41.89 7.84 44.58 14.81 48C17.3972 49.2876 20.2612 49.9195 23.15 49.84C24.2 49.84 25.43 49.84 26.76 49.84C28.35 49.92 29.76 49.93 30.88 49.91C33.1926 49.886 35.4415 49.1491 37.32 47.8C40.4108 45.5164 43.0008 42.6236 44.93 39.3C49.93 30.96 49.37 33.21 49.93 28.37C50.1518 26.126 49.8996 23.8604 49.19 21.72C48.553 19.6633 48.0946 17.5555 47.82 15.42C47.6594 13.9872 47.3852 12.5694 47 11.18C46.17 8.9 35 0.13 32.49 0C30.3304 0.0212884 28.1776 0.245609 26.06 0.67C26.06 0.67 17.38 0.81 16.66 1Z" fill="#19A6B8"/>
<path d="M0.320001 18.48C0.0793278 18.9875 -0.0302976 19.5472 0.00114705 20.1079C0.0325917 20.6687 0.204103 21.2126 0.500001 21.69L0.650001 21.89C1.07 22.39 0.650001 25.17 0.650001 27.49C0.657111 28.6083 0.573503 29.7253 0.400001 30.83C0.395119 30.8799 0.395119 30.9301 0.400001 30.98C0.280001 31.85 -0.189999 35.51 1.61 36.79C3.41 38.07 5.46 39.27 6.3 40.69C7 41.89 7.84 44.58 14.81 48C17.3972 49.2876 20.2612 49.9195 23.15 49.84C24.2 49.84 25.43 49.84 26.76 49.84C28.35 49.92 29.76 49.93 30.88 49.91C33.1926 49.886 35.4415 49.1491 37.32 47.8C40.4108 45.5164 43.0008 42.6236 44.93 39.3C47.04 35.77 48.15 34.14 48.78 33.07C48.67 33.33 7.24 8.41999 7.22 8.39999C4.54 11.7 1.51 15.82 0.320001 18.48Z" fill="#2EA5B1"/>
<path d="M48.67 27.34C48.34 25.68 48.53 25.57 48.24 24.53C47.9631 23.7018 47.7393 22.8567 47.57 22C47.29 20.49 47.67 20.18 46.81 17.41C45.95 14.64 46.67 16.27 46.48 14.7C46.29 13.13 46.48 13.29 46.1 12.43C45.72 11.57 40.5 7.17999 35.94 3.99999C34.67 3.12999 35.14 2.09999 32.23 1.36999C29.32 0.639989 28.58 2.11999 26.15 1.65999C23.72 1.19999 24.08 1.97999 21.86 2.02999C19.64 2.07999 16.86 2.48999 15.33 3.81999C13.8 5.14999 10.74 8.55999 10.7 8.60999C10.7 8.60999 7.76 14 7.4 16.73C7.17699 18.4796 7.17699 20.2504 7.4 22C7.47 23.65 7.18 23.41 7.86 25.45C8.54 27.49 8.26 27.82 8.96 30.14C9.66 32.46 11 32.22 11.83 34.8C12.66 37.38 15 34.57 15 36.53C15 38.49 17.91 38.37 18.55 38.87C19.19 39.37 15.43 43.15 17.13 44C18.83 44.85 24.7 44.82 27.95 45.66C31.2 46.5 36.95 45.4 38.12 45.33C39.29 45.26 41.28 42.13 42.21 41.42C43.14 40.71 48.81 33.27 48.81 33.27C49.028 32.0728 49.1252 30.8566 49.1 29.64C49.15 27.45 49 29 48.67 27.34Z" fill="#1C6B77"/>
<path d="M39 19.29C35.34 8.06001 25.46 1.25001 17 4.08001C8.54 6.91001 4.5 18.3 8.16 29.54C8.75115 31.3394 9.52169 33.0748 10.46 34.72C12.24 33.4 12 32.27 12 32.27C12 32.27 13.64 30 14.3 30.85C14.96 31.7 14.96 31.4 15.12 32.27C15.28 33.14 16.99 32.7 15.12 34.06C13.25 35.42 16.25 33.86 13.25 35.41C12.6409 35.7228 12.005 35.9805 11.35 36.18C16.06 43.27 23.55 46.97 30.22 44.75C38.74 41.92 42.67 30.52 39 19.29Z" fill="#138297"/>
<path d="M9.54 35.31C7.35 36.54 9.06 36.86 11.35 36.18C11.04 35.71 10.75 35.18 10.46 34.72C10.1668 34.937 9.85948 35.1341 9.54 35.31Z" fill="#207A87"/>
<path d="M15.12 34.06C16.99 32.7 15.27 33.13 15.12 32.27C14.97 31.41 14.27 32.27 13.61 31.4C12.95 30.53 12.02 32.27 12.02 32.27C12.02 32.27 12.24 33.4 10.46 34.72C10.75 35.22 11.04 35.72 11.35 36.18C12.005 35.9805 12.6409 35.7228 13.25 35.41C16.25 33.86 13.25 35.41 15.12 34.06Z" fill="#0A6977"/>
<path d="M33.65 32.63C33.65 32.63 38.17 34.37 40.09 33.95C42.01 33.53 42.09 32.17 43.31 30.61C43.78 30.02 43.57 29.12 45.08 28.68C46.59 28.24 43.51 24.78 43.51 24.78L33.65 32.63Z" fill="#144C54"/>
<path d="M34.64 8.78C34.64 8.78 27.79 10.32 27.53 15C27.42 17.1 26.14 17.71 25.67 18.93C25.3861 19.8444 24.9536 20.7059 24.39 21.48C23.65 22.54 23.65 25.61 23.87 26.69C24.0948 27.7484 24.6951 28.6897 25.56 29.34C26.56 30.34 27.32 30.41 29.78 31.11C32.24 31.81 32.37 32.45 34 32.7C35.2686 32.9399 36.5775 32.8519 37.8026 32.4441C39.0276 32.0363 40.1282 31.3224 41 30.37L34.64 8.78Z" fill="#3DAAB2"/>
<path d="M30.67 44.44C30.3471 44.8596 29.9927 45.2541 29.61 45.62C28.2821 47.0462 26.4793 47.9388 24.54 48.13C22.28 48.13 17.22 47.98 15.35 46.96C13.6989 45.8657 12.2843 44.4511 11.19 42.8C11.1245 41.8278 11.1245 40.8522 11.19 39.88C11.19 39.88 11.86 38.59 14.56 38.88C14.8913 38.9263 15.2255 38.9496 15.56 38.95C18.61 38.95 20.3 37.18 21.78 37.47C23.42 37.78 28.25 39.2 29.03 39.83C29.81 40.46 32.05 42.63 30.67 44.44Z" fill="#59BBCE"/>
<path d="M30.31 44.56C29 46.27 26.65 48 24.67 48C21.35 48 17.27 47.71 15.78 46.9C14.268 45.8731 12.9565 44.5785 11.91 43.08C11.8658 42.2473 11.8658 41.4127 11.91 40.58C12.1718 40.3611 12.4748 40.197 12.8012 40.0974C13.1276 39.9977 13.4706 39.9646 13.81 40C14.0742 39.9979 14.3382 40.0146 14.6 40.05C14.968 40.0982 15.3388 40.1216 15.71 40.12C17.1578 40.0816 18.5816 39.741 19.89 39.12C20.4242 38.8562 20.9988 38.6838 21.59 38.61C21.663 38.5996 21.737 38.5996 21.81 38.61C23.0363 38.8812 24.2478 39.215 25.44 39.61C26.5951 39.9098 27.7148 40.3322 28.78 40.87C29.08 41.09 31.45 43.07 30.31 44.56Z" fill="#15424D"/>
<path d="M25.92 42.64C25.6595 43.3924 25.2321 44.0761 24.67 44.64C24.3382 44.9036 23.9555 45.0956 23.5459 45.204C23.1363 45.3124 22.7087 45.3349 22.29 45.27C21.1566 44.9008 19.9864 44.656 18.8 44.54C17.8 44.54 15.8 45.06 14.86 44.54C13.92 44.02 14.34 43.54 13.86 42.85C13.38 42.16 13.86 40.05 13.86 40.05C14.1242 40.0479 14.3882 40.0646 14.65 40.1C15.018 40.1482 15.3888 40.1716 15.76 40.17C17.2078 40.1316 18.6316 39.791 19.94 39.17C20.4742 38.9062 21.0488 38.7338 21.64 38.66C21.713 38.6496 21.787 38.6496 21.86 38.66C23.0863 38.9312 24.2978 39.265 25.49 39.66L25.95 40.45C26.0679 41.1761 26.0578 41.9173 25.92 42.64Z" fill="#002931"/>
<path d="M4 36.84H3.79C3.41 36.72 1.6 35.72 1.39 35.18C1.35079 35.0769 1.35079 34.9631 1.39 34.86C1.42899 34.501 1.42899 34.1389 1.39 33.78V33.64L1.46 33.53C1.47544 33.3938 1.47544 33.2562 1.46 33.12C1.38323 32.7176 1.44676 32.3011 1.64 31.94C1.72614 31.8277 1.83893 31.7388 1.96815 31.6811C2.09737 31.6235 2.23894 31.5991 2.38 31.61C2.59281 31.6151 2.80426 31.6454 3.01 31.7C3.55798 31.8277 4.112 31.9278 4.67 32C5.85 32.2 6.67 32.33 6.67 33.12C6.6883 33.3065 6.72515 33.4908 6.78 33.67C6.92587 33.9809 6.95669 34.3334 6.86696 34.6649C6.77722 34.9963 6.57277 35.2852 6.29 35.48L5.91 35.78C5.38001 36.2983 4.72026 36.6645 4 36.84Z" fill="#299781"/>
<path d="M1.61 33.71C1.91 33.26 1.01 31.48 2.93 31.98C4.85 32.48 6.39 32.37 6.43 33.15C6.47 33.93 7.07 34.55 6.17 35.22C5.27 35.89 4.38 36.68 3.87 36.51C3.36 36.34 1.53 35.22 1.61 34.94C1.65633 34.5313 1.65633 34.1187 1.61 33.71Z" fill="#167280"/>
<path d="M11.64 18.14L11 18.68H10.88H10.75C10.4235 18.7665 10.0877 18.8135 9.75 18.82C9.29201 18.8521 8.83779 18.7181 8.4705 18.4427C8.10321 18.1672 7.84743 17.7687 7.75 17.32C7.75 17.32 7.78 21 13 21C15.0571 20.9862 17.1099 20.8123 19.14 20.48C19.0397 18.231 18.6292 16.0066 17.92 13.87C15.7402 15.1618 13.6428 16.5878 11.64 18.14Z" fill="#358891"/>
<path d="M17.71 13.27C17.3839 12.3841 16.9894 11.5248 16.53 10.7C16.32 10.34 16.12 9.99001 15.91 9.70001C14.61 9.89001 12.51 12.07 11.27 14.04C11.0582 14.3841 10.8997 14.7584 10.8 15.15C10.7019 15.5864 10.6929 16.0381 10.7737 16.478C10.8544 16.9179 11.0233 17.337 11.27 17.71C11.27 17.71 12.96 16.38 15.01 14.99C16.01 14.33 16.95 13.78 17.73 13.34L17.71 13.27Z" fill="#0F363F"/>
<path d="M16 5.52C18.2002 5.48984 20.3996 5.62355 22.58 5.92C24.15 6.31 25.37 5.92 25.87 7.3C26.03 7.72 25.98 7.88 26.21 8.78C26.5147 9.6678 26.5735 10.6215 26.38 11.54C26.09 12.73 24.71 17.91 21.23 19.6" fill="#1C6B77"/>
<path d="M23.48 11.67C23.24 7.29001 21.68 6.67001 21.68 6.67001C22.0015 6.90975 22.2535 7.23073 22.41 7.60001C22.5133 7.86087 22.5642 8.13949 22.56 8.42001C22.56 11.95 20.17 12.74 20.06 12.77C19.3139 13.0753 18.5919 13.4363 17.9 13.85C18.6092 15.9866 19.0197 18.211 19.12 20.46C20.1981 20.2866 21.1957 19.7827 21.975 19.0177C22.7542 18.2528 23.2767 17.2647 23.47 16.19C23.6269 14.6876 23.6302 13.1731 23.48 11.67Z" fill="#247275"/>
<path d="M22.52 7.76999C22.3688 7.39759 22.1158 7.07529 21.79 6.83999C20.57 5.89999 18.25 5.70999 16.1 5.70999C15.1097 5.66594 14.1198 5.80493 13.18 6.11999C13.09 6.11999 12.88 6.28999 12.88 6.28999C12.39 6.47999 10.69 7.19999 9.19 10.09C8.08648 12.0442 7.58874 14.2823 7.76 16.52C7.76374 16.8843 7.81073 17.2468 7.9 17.6C7.99435 18.0407 8.24225 18.4334 8.59945 18.7082C8.95664 18.983 9.39988 19.1218 9.85 19.1C10.1886 19.0961 10.5251 19.0456 10.85 18.95H10.98H11.11L11.74 18.41C13.7372 16.8169 15.8276 15.3443 18 14C18.6919 13.5892 19.414 13.2315 20.16 12.93C20.27 12.93 22.65 12.1 22.65 8.56999C22.6593 8.29739 22.6151 8.02562 22.52 7.76999ZM20 12.34C20 12.34 19.15 12.73 17.83 13.47C17.06 13.9 16.13 14.47 15.12 15.12C13.12 16.51 11.38 17.84 11.38 17.84L10.82 18.31C9.24 18.79 8.49 18.09 8.17 17.41C8.05201 17.1682 7.97754 16.9076 7.95 16.64C7.78331 14.3865 8.25097 12.1314 9.3 10.13C10.9 6.99999 12.88 6.40999 12.88 6.40999C13.79 5.62999 19.35 5.51999 21.33 7.20999C21.5456 7.37303 21.7215 7.58279 21.8445 7.82353C21.9675 8.06426 22.0343 8.32973 22.04 8.59999C22.05 11.69 20 12.34 20 12.34Z" fill="#1298B3"/>
<path d="M22.41 7.57001C22.2535 7.20073 22.0015 6.87974 21.68 6.64001C20.45 5.71001 18.13 5.52001 15.98 5.52001C14.9938 5.47732 14.0081 5.61283 13.07 5.92001L12.77 6.09001C12.24 6.30001 10.53 7.00001 9 9.91001C7.9106 11.8724 7.42365 14.1124 7.6 16.35C7.63128 16.6879 7.6915 17.0224 7.78 17.35C7.87743 17.7987 8.13321 18.1972 8.5005 18.4727C8.86779 18.7481 9.32201 18.8821 9.78 18.85C10.1177 18.8435 10.4535 18.7965 10.78 18.71H10.91H11.03L11.67 18.17C13.6649 16.6014 15.7557 15.1586 17.93 13.85C18.6219 13.4363 19.3439 13.0753 20.09 12.77C20.2 12.77 22.59 11.95 22.59 8.42001C22.5888 8.12735 22.5275 7.83805 22.41 7.57001ZM19.88 12.14C19.88 12.14 19.02 12.54 17.71 13.27C16.93 13.71 16 14.27 14.99 14.92C12.94 16.31 11.25 17.64 11.25 17.64L10.7 18.12C9.11 18.59 8.36 17.89 8.04 17.21C7.92424 16.9674 7.84988 16.7071 7.82 16.44C7.65305 14.1897 8.12077 11.9377 9.17 9.94001C10.78 6.84001 12.76 6.21001 12.76 6.21001C13.66 5.44001 19.22 5.33001 21.2 7.01001C21.4156 7.17305 21.5915 7.38281 21.7145 7.62355C21.8375 7.86428 21.9043 8.12974 21.91 8.40001C21.93 11.5 19.88 12.14 19.88 12.14Z" fill="#59BBCE"/>
<path d="M21.22 7.00001C19.22 5.32001 13.68 5.43001 12.78 6.20001C14.0312 7.12671 15.0936 8.28417 15.91 9.61001C16.5548 9.54134 17.2052 9.54134 17.85 9.61001H18.14C18.4189 9.66163 18.6847 9.7679 18.9223 9.92272C19.16 10.0775 19.3646 10.2778 19.5245 10.512C19.6843 10.7463 19.7963 11.0098 19.8539 11.2875C19.9115 11.5652 19.9135 11.8515 19.86 12.13C19.86 12.13 21.91 11.49 21.91 8.38001C21.9052 8.11309 21.8407 7.85063 21.7213 7.61185C21.6019 7.37307 21.4306 7.16402 21.22 7.00001Z" fill="#115965"/>
<path d="M15.89 9.63C15.0736 8.30416 14.0112 7.1467 12.76 6.22C12.76 6.22 10.76 6.85 9.17 9.95C8.12077 11.9477 7.65305 14.1997 7.82 16.45C7.84988 16.7171 7.92424 16.9774 8.04 17.22C8.36 17.9 9.11 18.6 10.7 18.13L11.25 17.65C11.0033 17.277 10.8344 16.8579 10.7537 16.418C10.6729 15.9781 10.6819 15.5264 10.78 15.09C10.8816 14.7053 11.04 14.3379 11.25 14C12.49 12 14.59 9.85 15.89 9.66V9.63Z" fill="#196C7B"/>
<path d="M18.16 9.61999H17.87C17.2252 9.55131 16.5748 9.55131 15.93 9.61999C16.14 9.92999 16.34 10.28 16.55 10.62C17.0094 11.4448 17.4039 12.304 17.73 13.19C19.04 12.46 19.9 12.06 19.9 12.06C19.9845 11.5068 19.8501 10.9425 19.5252 10.4869C19.2003 10.0313 18.7105 9.72028 18.16 9.61999Z" fill="#0F363F"/>
<path d="M43.77 25.2C42.09 22.5 40.14 21.08 40.14 19.82C40.14 18.56 41.07 16.51 40.14 13.74C39.21 10.97 39.53 9.45001 36.89 8.82001C36.1013 8.64466 35.2839 8.64328 34.4947 8.81598C33.7055 8.98868 32.9633 9.33131 32.32 9.82001C32.0206 10.0907 31.74 10.3813 31.48 10.69L31.39 10.81C31.49 10.92 31.6 11.06 31.74 11.2C32.0425 10.7878 32.3769 10.4 32.74 10.04C33.6839 9.39165 34.7953 9.03044 35.94 9.00001C36.2768 9.00178 36.6123 9.04204 36.94 9.12001C38.7 9.54001 38.94 10.45 39.47 12.28C39.61 12.76 39.76 13.28 39.94 13.84C40.4007 15.3121 40.4491 16.8823 40.08 18.38C40.0185 18.8206 39.9918 19.2653 40 19.71C40 20.71 40.7 21.51 41.66 22.66C42.3831 23.5098 43.0511 24.405 43.66 25.34C44.52 26.7 44.04 27.12 42.88 28.13C42.2163 28.6699 41.6307 29.2992 41.14 30C40.9777 30.244 40.7666 30.4517 40.52 30.61C40.5264 30.6732 40.5264 30.7368 40.52 30.8C40.8206 30.5826 41.0783 30.3114 41.28 30C42.69 27.79 45.28 27.61 43.77 25.2Z" fill="#59BBCE"/>
<path d="M33 12.81L33.24 12.72C33.7919 12.5868 34.3687 12.5978 34.9151 12.7519C35.4615 12.906 35.9591 13.1981 36.36 13.6C36.8629 14.5664 37.1237 15.6405 37.12 16.73C36.9511 17.8738 36.9511 19.0362 37.12 20.18C37.98 20.7856 38.7024 21.5659 39.24 22.47C39.3089 23.6583 39.1873 24.85 38.88 26C38.98 26.19 39.12 26.41 39.31 26.7C40.09 27.91 39.83 28.32 40.2 29.24C40.3778 29.691 40.4858 30.1664 40.52 30.65C40.7666 30.4917 40.9777 30.284 41.14 30.04C41.6246 29.3405 42.2034 28.7112 42.86 28.17C44.02 27.17 44.5 26.74 43.64 25.38C43.0311 24.4449 42.3631 23.5498 41.64 22.7C40.64 21.55 39.98 20.7 39.98 19.75C39.9994 19.2895 40.0562 18.8313 40.15 18.38C40.5233 16.8687 40.4714 15.2836 40 13.8C39.82 13.24 39.67 12.72 39.53 12.24C39 10.41 38.74 9.49999 37 9.07999C36.6723 9.00202 36.3368 8.96176 36 8.95999C34.8279 8.97486 33.6865 9.33676 32.72 9.99999C32.3569 10.36 32.0225 10.7478 31.72 11.16C32.12 11.65 32.58 12.22 33 12.81Z" fill="#196C7B"/>
<path d="M34.17 19.64C34.7435 20.3674 35.3866 21.0373 36.09 21.64C36.87 22.43 37.34 22.64 37.65 23.4C37.8014 23.8702 38.0096 24.3202 38.27 24.74C38.59 25.26 38.57 25.37 38.88 25.92C39.1865 24.7834 39.3113 23.6056 39.25 22.43C38.7124 21.5259 37.99 20.7456 37.13 20.14C36.9611 18.9962 36.9611 17.8338 37.13 16.69C37.1337 15.6005 36.8729 14.5264 36.37 13.56C35.9691 13.1581 35.4715 12.866 34.9251 12.7119C34.3787 12.5578 33.8019 12.5468 33.25 12.68L33.01 12.77C33.5505 13.4377 33.9456 14.2108 34.17 15.04C34.37 16.65 33.34 18.54 34.17 19.64Z" fill="#0F363F"/>
<path d="M40.37 30.61C39.3451 31.1895 38.1757 31.4636 37 31.4C35.9751 31.4319 34.9544 31.255 34 30.88C33.26 30.5133 32.4433 29.2967 31.55 27.23L31.45 26.99C31.09 26.13 30.71 25.13 30.32 23.99C29.9362 22.3454 29.9362 20.6346 30.32 18.99C30.499 17.9798 30.5893 16.9559 30.59 15.93C30.5837 15.535 30.53 15.1422 30.43 14.76C30.4244 14.6734 30.4244 14.5866 30.43 14.5C30.4246 13.2862 30.8498 12.1099 31.63 11.18C31.5 11.04 31.5 10.93 31.4 10.82C30.59 11.82 29.48 13.35 29.87 14.91C30.47 17.43 28.76 21.19 29.77 24.17C30.11 25.17 30.48 26.17 30.89 27.17C31.73 29.17 32.71 30.9 33.76 31.43C34.8461 31.8253 36.0069 31.973 37.1574 31.8623C38.3079 31.7516 39.4192 31.3852 40.41 30.79C40.41 30.79 40.38 30.73 40.37 30.61Z" fill="#1298B3"/>
<path d="M40.52 30.61C39.5034 31.1829 38.3455 31.4568 37.18 31.4C36.1553 31.4292 35.1351 31.2523 34.18 30.88C33.45 30.51 32.63 29.29 31.74 27.23L31.64 26.99C31.28 26.13 30.9 25.13 30.51 23.99C30.1262 22.3454 30.1262 20.6346 30.51 18.99C30.684 17.9792 30.7743 16.9557 30.78 15.93C30.7638 15.5358 30.7103 15.1441 30.62 14.76C30.6096 14.6737 30.6096 14.5864 30.62 14.5C30.6094 13.2853 31.0352 12.1072 31.82 11.18C31.68 11.04 31.57 10.9 31.47 10.79C30.66 11.79 29.67 13.35 30.06 14.91C30.67 17.43 28.95 21.19 29.97 24.17C30.31 25.17 30.68 26.17 31.09 27.17C31.93 29.17 32.91 30.9 33.95 31.43C35.0361 31.8253 36.1969 31.973 37.3474 31.8623C38.4979 31.7516 39.6092 31.3852 40.6 30.79C40.5797 30.7274 40.5529 30.667 40.52 30.61Z" fill="#59BBCE"/>
<path d="M39.31 26.66C39.12 26.37 38.98 26.15 38.88 25.96C38.88 26.18 38.81 26.39 38.78 26.56C38.63 27.66 34.57 29.19 32.54 27.56C32.251 27.3321 31.9393 27.1344 31.61 26.97L31.71 27.21C32.6 29.27 33.42 30.49 34.15 30.86C35.1051 31.2323 36.1253 31.4091 37.15 31.38C38.3155 31.4367 39.4734 31.1629 40.49 30.59C40.4558 30.1064 40.3478 29.631 40.17 29.18C39.83 28.28 40.09 27.87 39.31 26.66Z" fill="#0E5A65"/>
<path d="M30.54 14.51C30.5296 14.5964 30.5296 14.6836 30.54 14.77C30.6303 15.1541 30.6838 15.5458 30.7 15.94C30.7 15.79 31.47 13.5 32.97 12.81C32.54 12.22 32.08 11.65 31.7 11.19C30.9296 12.1228 30.5182 13.3004 30.54 14.51Z" fill="#0E5A65"/>
<path d="M38.78 26.56C38.78 26.39 38.84 26.18 38.88 25.96C38.57 25.41 38.59 25.3 38.27 24.78C38.0096 24.3602 37.8014 23.9102 37.65 23.44C37.34 22.68 36.87 22.44 36.09 21.68C35.3866 21.0773 34.7435 20.4074 34.17 19.68C33.34 18.58 34.37 16.68 34.17 15.12C33.9478 14.2759 33.549 13.4886 33 12.81C31.5 13.5 30.77 15.81 30.73 15.94C30.7276 16.9654 30.6406 17.9889 30.47 19C30.0862 20.6446 30.0862 22.3554 30.47 24C30.86 25.14 31.24 26.14 31.6 27C31.9293 27.1644 32.241 27.3621 32.53 27.59C34.57 29.19 38.63 27.66 38.78 26.56Z" fill="#032C35"/>
<path d="M49.17 21.8C48.533 19.7433 48.0746 17.6355 47.8 15.5C47.6502 14.0408 47.3826 12.5961 47 11.18C46.17 8.9 35 0.13 32.49 0C30.3304 0.0212884 28.1776 0.245609 26.06 0.67C26.06 0.67 17.38 0.8 16.66 1.01C14.8507 1.47561 13.1514 2.29468 11.66 3.42C10.0709 4.98648 8.58762 6.65683 7.22 8.42C7.22 8.42 10.59 5.02 12.22 3.64C13.85 2.26 17 1.88 19.4 1.82C21.8 1.76 21.74 1.99 24.4 2.46C27.06 2.93 27.4 0.97 30.53 1.7C33.66 2.43 33.38 2.93 34.76 3.8C39.76 6.97 45.42 11.34 45.83 12.21C46.24 13.08 46.04 12.93 46.25 14.5C46.46 16.07 45.68 14.45 46.61 17.23C47.54 20.01 47.13 20.32 47.45 21.84C47.6276 22.7129 47.8683 23.5718 48.17 24.41C48.48 25.46 48.28 25.56 48.64 27.24C49 28.92 48.08 27.56 48.52 29.67C48.8444 30.7998 48.9363 31.9837 48.79 33.15C49.66 31.68 49.61 31.24 49.92 28.45C50.1385 26.2053 49.883 23.9397 49.17 21.8Z" fill="#41D6E1"/>
<path d="M10.3 24.88C11.0235 24.88 11.61 24.289 11.61 23.56C11.61 22.831 11.0235 22.24 10.3 22.24C9.57651 22.24 8.99 22.831 8.99 23.56C8.99 24.289 9.57651 24.88 10.3 24.88Z" fill="#136470"/>
<path d="M19.73 22.85C19.56 21.85 18.6 20.85 19.73 21.01C20.86 21.17 21.43 20.12 22.31 20.75C23.19 21.38 22.98 20.85 23.31 22.32C23.64 23.79 23.13 24.5 22.51 24.88C21.89 25.26 21.78 24.78 20.9 25.28C20.02 25.78 19.53 26.57 19.22 25.57C19.1201 25.2182 19.1185 24.8458 19.2155 24.4931C19.3124 24.1405 19.5042 23.8212 19.77 23.57C19.92 23.42 19.73 22.85 19.73 22.85Z" fill="#1E4E57"/>
<path d="M17.51 37.34C17.51 37.34 19.65 31.84 23.05 31.91C26.45 31.98 26 35.41 27 36.18C28 36.95 28.46 38.18 26.48 38.18C24.5 38.18 23.57 36.65 22.24 36.63C20.91 36.61 20.13 36.45 19.12 37.08C18.11 37.71 18.07 37.47 17.71 37.47C17.35 37.47 17.51 37.34 17.51 37.34Z" fill="#084F59"/>
<path d="M43.36 33.43C43.36 33.43 43.36 32.83 43.88 32.8C44.4 32.77 44.88 32.8 45.04 33.12C45.1184 33.7872 44.9855 34.4623 44.66 35.05C44.35 35.47 43.53 36.05 43.1 36.53C42.67 37.01 42.1 37.99 41.9 37.17C41.7 36.35 41.72 35.86 42.24 35.43C42.6267 35.0372 42.8908 34.5403 43 34C43.0826 33.7888 43.2048 33.5953 43.36 33.43Z" fill="#14869A"/>
<path d="M45.54 31.91C45.7112 31.91 45.85 31.6593 45.85 31.35C45.85 31.0407 45.7112 30.79 45.54 30.79C45.3688 30.79 45.23 31.0407 45.23 31.35C45.23 31.6593 45.3688 31.91 45.54 31.91Z" fill="#14869A"/>
</g>
<defs>
<clipPath id="clip0_1_316">
<rect width="50" height="50" fill="white"/>
</clipPath>
</defs>
</svg>
