<svg width="50" height="50" viewBox="0 0 50 50" fill="none" xmlns="http://www.w3.org/2000/svg">
<g clip-path="url(#clip0_1_266)">
<path d="M50 25C50 31.6304 47.3661 37.9893 42.6777 42.6777C37.9893 47.3661 31.6304 50 25 50C24.25 50 23.51 50 22.78 49.9C19.4775 49.6051 16.2666 48.6562 13.3343 47.1086C10.402 45.561 7.80689 43.4455 5.69996 40.8854C3.59303 38.3252 2.0164 35.3715 1.06187 32.1963C0.10734 29.021 -0.206032 25.6875 0.139999 22.39C0.2691 21.0998 0.503209 19.8222 0.839999 18.57C2.40012 12.7044 6.04083 7.60675 11.0829 4.22796C16.125 0.84917 22.2241 -0.579948 28.2423 0.207222C34.2606 0.994393 39.7869 3.94409 43.7904 8.50601C47.7938 13.0679 50.001 18.9305 50 25Z" fill="#8B9EFF"/>
<path d="M9.81001 16.11L7.88 27.21L12.25 39.75V46.51L16.12 38.6L14.83 31.01L19.91 23.63L16.05 13.68L9.81001 16.11Z" fill="#A6CEFF"/>
<path d="M39.35 45.48C35.1475 48.4309 30.1351 50.0097 25 50C24.25 50 23.51 50 22.78 49.9L26.9 43.05L22.78 35.52L20.78 28.33L23.84 20L29.69 12.86L28.83 25L33.45 37L39.35 45.48Z" fill="#A6CEFF"/>
<path d="M6.59 19.93L4.05 26.61L2.69 36.29C0.516517 31.9998 -0.369099 27.1723 0.139999 22.39L1.33 21.13L6.16 13.68L6.59 19.93Z" fill="#A6CEFF"/>
<path d="M35.28 14.54L33.77 22.09L35.92 30.09L38.5 36.29L46.55 37.68L41.4 35.42V30.49L45.14 23.25L41.4 8.77L35.28 14.54Z" fill="#A6CEFF"/>
<path d="M48.09 15.35C48.5057 16.2507 48.7351 17.2261 48.7643 18.2176C48.7935 19.2092 48.622 20.1964 48.26 21.12C46.99 24.34 45.78 26.46 45.26 24.64C43.9 20.05 40.03 14.64 39.6 19.11C39.17 23.58 36.38 29.87 34.45 25.86C32.52 21.85 30.65 17.33 27.71 25.28C24.77 33.23 23.13 27.43 21.34 23.49C19.55 19.55 17.75 22.7 17.75 22.7C17.75 22.7 17.47 23.42 14.6 29.01C11.73 34.6 10.95 28.43 10.95 28.43C10.95 28.43 10.95 14.25 9.09 14.68C7.23 15.11 6.51 17.47 6.51 17.47C6.51 17.47 3.21 25.21 1.85 23.56C1.46 23.08 1.29 21.47 1.25 19.43C2.56799 14.4581 5.38752 10.0137 9.32407 6.70291C13.2606 3.39218 18.1226 1.37627 23.2469 0.930105C28.3712 0.483944 33.5084 1.62925 37.9579 4.20983C42.4074 6.79041 45.9526 10.6807 48.11 15.35H48.09Z" fill="#919191"/>
<path d="M47 22.21C46.06 24.21 45.23 25.21 44.81 23.78C43.45 19.19 39.58 13.78 39.15 18.25C38.72 22.72 36 29 34 25C32 21 30.2 16.47 27.26 24.42C24.32 32.37 22.68 26.57 20.89 22.63C19.65 19.92 18.42 20.57 17.77 21.23C17.5328 21.4883 17.3372 21.7818 17.19 22.1C16.95 22.62 16.19 24.1 14.19 28.1C11.73 32.9 10.8 29.01 10.59 27.83C10.558 27.6484 10.5413 27.4644 10.54 27.28C10.54 25.4 10.39 13.37 8.68 13.77C6.97 14.17 6.3 16 6.13 16.46C6.10888 16.5431 6.0787 16.6235 6.04 16.7C5.59 17.7 2.7 24.17 1.44 22.65C1.08 22.22 0.910004 20.83 0.860004 19.03C0.843364 18.6923 0.883936 18.3542 0.980004 18.03C2.34164 13.329 5.05321 9.13099 8.77846 5.95665C12.5037 2.78232 17.0788 0.771257 21.9363 0.172848C26.7939 -0.425562 31.7202 0.415005 36.1045 2.59031C40.4888 4.76562 44.1381 8.17998 46.6 12.41C46.8746 12.8773 47.112 13.3655 47.31 13.87C47.8225 15.2094 48.0592 16.6385 48.006 18.0716C47.9527 19.5048 47.6105 20.9123 47 22.21Z" fill="#E6E6E6"/>
<path d="M47.47 17.57C47.47 16.57 47.39 15.35 47.31 14.1C47.1098 13.6029 46.8725 13.1215 46.6 12.66C44.7925 9.65449 42.378 7.05901 39.5107 5.03936C36.6434 3.0197 33.3864 1.62028 29.9478 0.930474C26.5091 0.24067 22.9644 0.275653 19.54 1.03319C16.1156 1.79072 12.8868 3.25416 10.06 5.33001L9.84 5.49001V5.57001C8.93 6.49001 6 9.64001 5.26 11.29C4.81848 12.2444 4.50574 13.2532 4.33 14.29C4.33 14.29 3.54 16.37 4.58 16.29C5.62 16.21 7.3 12.84 9.58 12.84C9.63275 13.2871 9.73677 13.7267 9.89 14.15C11.59 18.58 11.02 26.51 11.56 28.15C11.93 29.24 12.28 31.46 17.22 20.81C17.22 20.81 18.89 17.63 21.03 21.22C23.17 24.81 23.7 27.56 24.55 27.89C25.03 28.08 26.06 25.77 27.72 22.34C29.38 18.91 30.41 18.7 31.22 19.39C32.03 20.08 34.3 25.86 35.44 25.86C36.19 25.86 36.86 24.96 37.9 22.35C38.3 21.35 38.77 17.27 38.99 16.66C39.21 16.05 39.7 15.03 41.91 17.36C42.9541 18.6461 43.8623 20.0369 44.62 21.51C44.8389 22.118 45.0193 22.7393 45.16 23.37C45.29 23.69 45.67 24.27 46.07 22.81C46.47 21.35 47.58 21.67 47.47 17.57Z" fill="white"/>
</g>
<defs>
<clipPath id="clip0_1_266">
<rect width="50" height="50" fill="white"/>
</clipPath>
</defs>
</svg>
