<svg width="50" height="50" viewBox="0 0 50 50" fill="none" xmlns="http://www.w3.org/2000/svg">
<g clip-path="url(#clip0_1_431)">
<path d="M49.91 24.94C49.9186 29.5275 48.6551 34.0275 46.26 37.94C45.09 37.34 45.57 38.44 45.38 38.74C45.19 39.04 44.48 39.14 45.04 39.74C41.5734 44.4325 36.5749 47.7649 30.91 49.16C30.1 47.84 29.82 48.6 29.4 48.68C28.98 48.76 28.4 48.49 28.5 49.68C27.3238 49.8446 26.1377 49.9281 24.95 49.93C18.7967 49.9871 12.8518 47.7028 8.32 43.54C9 42.87 7.67 42.41 7.32 42.03C6.97 41.65 6.83 40.44 5.71 40.8C1.95165 36.3776 -0.0769015 30.7432 3.38117e-06 24.94C-0.00145139 23.0385 0.21326 21.143 0.640003 19.29C1.75 19.1 1.35 18.68 1.46 18.29C1.57 17.9 2.46 17.61 1.23 17.18C2.51621 13.267 4.74934 9.7324 7.73084 6.89046C10.7124 4.04851 14.3499 1.98728 18.32 0.890004C19.2 1.76 19.73 1.11 20.25 1C20.77 0.890004 21.64 1.28 21.58 0.230004C25.053 -0.242014 28.5865 0.0215191 31.951 1.0035C35.3156 1.98548 38.4361 3.66396 41.11 5.93C40.85 7.19 41.54 6.98 41.82 7.23C42.1 7.48 42.33 8.14 42.82 7.49C47.3807 12.1516 49.927 18.4185 49.91 24.94Z" fill="url(#paint0_linear_1_431)"/>
<path d="M14.82 38C14.82 38 18.66 37.25 27.46 49.78C27.46 49.78 28.25 49.7 28.46 49.66C28.46 49.66 28.55 49.5 28.65 49.28L27.49 46.17L25.37 44.29L23.07 41.45L20.41 38.45L18.3 37.7L16.23 37.29L14.82 38Z" fill="#903F3A"/>
<path d="M19.06 1.61002C19.06 1.61002 19.24 1.34002 21.6 1.11002C21.6 1.11002 22.66 4.49002 22.99 6.42002C23.3008 7.671 23.3008 8.97903 22.99 10.23C22.8261 11.8144 22.7826 13.409 22.86 15C22.86 15 22.93 15.85 24.17 15.75C25.41 15.65 35.25 15.75 35.25 15.75C36.0283 15.5244 36.7529 15.1434 37.38 14.63C38.5 13.74 38.92 13.38 39.25 12.37C39.58 11.36 40.79 8.57002 41.05 7.58002C41.12 7.33002 41.19 6.97002 41.19 6.97002C41.19 6.97002 42.6 7.70002 42.57 8.25002C42.1464 9.82742 41.5738 11.361 40.86 12.83C40.17 14.24 40.63 14.37 39.51 15.09C38.39 15.81 37.41 16.33 37.19 16.56C36.97 16.79 36.5 16.56 36.76 17.94C37.02 19.32 36.92 19.38 37.12 20.4C37.3015 21.1513 37.412 21.918 37.45 22.69C37.45 23.31 37.58 27.44 37.58 28.69C37.58 29.94 37.48 30.82 37.51 31.21C37.5074 31.579 37.6069 31.9415 37.7975 32.2574C37.9881 32.5733 38.2624 32.8303 38.59 33C39.59 33.49 41.02 34.9 41.84 35.33C42.66 35.76 45.58 37.76 45.58 37.76C46.13 38.26 45.14 39.63 44.94 39.61C44.74 39.59 40 36 39.05 35C38.1 34 36.59 32.9 36.59 32.9C36.59 32.9 36.59 32.57 36.43 30.8C36.27 29.03 36.2 28.48 35.81 28.12C35.6327 27.916 35.4101 27.7564 35.1601 27.654C34.91 27.5515 34.6394 27.5091 34.37 27.53C33.71 27.59 32.86 27.99 32.24 28.08C31.62 28.17 31.05 28.51 29.61 28.9C28.5173 29.3058 27.3652 29.5288 26.2 29.56C24.8437 29.6692 23.479 29.602 22.14 29.36C21.2208 29.1459 20.313 28.8856 19.42 28.58C19.42 28.58 19.32 28.15 18.73 28.77C18.2383 29.4205 17.8967 30.1718 17.73 30.97C17.5393 31.5835 17.3856 32.208 17.27 32.84C17.1503 33.6389 17.2049 34.4542 17.43 35.23C17.66 35.56 18.12 36.05 18.71 36.74C19.2931 37.4936 20.0919 38.0517 21 38.34C21.9506 38.5909 22.8482 39.011 23.65 39.58C24.24 40.11 24.21 40.37 24.8 41C25.2302 41.4873 25.6151 42.0128 25.95 42.57C26.34 43.13 29.26 47.22 29.78 47.88L30.43 48.72L28.79 49.08L28.37 48.25C28.1587 47.2009 27.6319 46.2413 26.86 45.5C26.0157 44.9157 25.2639 44.2078 24.63 43.4C24.1712 42.6851 23.6455 42.0154 23.06 41.4C22.21 40.4 22.34 40.19 21.29 39.4C20.478 38.7456 19.5377 38.2686 18.53 38C17.22 37.54 16.7 36.89 15.53 37.61C14.36 38.33 14.41 38.07 13.82 38.72C13.23 39.37 13 39 12 40C11 41 11.28 40.53 10.56 41.25C9.83999 41.97 9.68999 41.96 9.37999 42.43C9.16107 42.7301 8.88598 42.9848 8.56999 43.18C8.56999 43.18 7.77999 43.05 6.56999 41.18L7.63999 40.95C8.85938 40.8637 10.0049 40.3336 10.86 39.46C11.549 38.6197 12.3157 37.8463 13.15 37.15C14.15 36.3 14.73 36.69 15.05 35.77C15.37 34.85 15.91 34.77 15.51 33.61C15.2946 33.2385 15.1871 32.8143 15.1995 32.3851C15.2118 31.9558 15.3436 31.5385 15.58 31.18C16.1 30.18 16.58 30.18 16.82 28.89C17.06 27.6 17.74 27.38 17.02 26.79C16.3 26.2 16.69 26.2 16.1 25.61C15.558 25.0201 14.9144 24.5324 14.2 24.17C13.2 23.65 12.82 24.17 12.43 23.17C12.04 22.17 12.37 21.79 11.51 21.47C10.65 21.15 10.07 20.29 9.21999 20.15C8.36999 20.01 8.03999 19.56 6.91999 19.56C5.79999 19.56 5.41999 19.11 4.16999 19.17C2.91999 19.23 3.11999 19.08 2.16999 19.17H1.39999C1.39999 19.17 1.46999 18.11 1.94999 17.84H2.16999C3.16762 17.9253 4.16975 17.9453 5.16999 17.9C5.94999 17.9 6.67999 17.12 7.58999 17.71C8.49999 18.3 7.98999 18.49 9.58999 18.82C10.5663 18.9577 11.4844 19.3665 12.24 20C12.76 20.46 12.63 20.86 13.48 20.92C14.33 20.98 15.39 21.05 16.24 21.05C16.8305 21.0313 17.4212 21.0817 18 21.2C18.84 21.33 19.24 21.66 19.7 21.27C20.16 20.88 20.09 20.88 20.48 19.76C20.87 18.64 21.01 17.93 21.2 17.4C21.39 16.87 21.14 16.88 21.4 16.03C21.7136 15.2152 21.8034 14.3313 21.66 13.47C21.53 12.09 21.27 11.9 21.53 11.05C21.7141 10.6135 21.806 10.1437 21.8 9.67002C21.93 8.49002 22.12 8.88002 21.93 7.77002C21.8046 6.86051 21.4876 5.98796 21 5.21002C20.35 3.90002 20.48 3.84002 20 3.05002C19.7025 2.5461 19.3683 2.0648 19 1.61002H19.06Z" fill="url(#paint1_radial_1_431)" stroke="#BF7910" stroke-width="0.5" stroke-miterlimit="10"/>
<path d="M34.65 21.33C34.65 22.17 34.4 24.67 34.4 24.67C34.4 24.67 34.31 24.67 34.06 25.1C33.8875 25.423 33.623 25.6875 33.3 25.86L33.22 25.91C32.9743 26.0536 32.7125 26.1677 32.44 26.25C31.8934 26.4785 31.3233 26.6462 30.74 26.75C30.04 26.86 29.87 26.83 28.65 26.97C27.5056 27.2343 26.3219 27.2818 25.16 27.11C23.57 26.83 22.25 27.75 21.78 26.75C21.5787 26.3441 21.4308 25.9139 21.34 25.47C21.2436 24.9863 21.2167 24.4913 21.26 24C21.26 23.81 21.26 23.6 21.33 23.38C21.4527 22.1141 21.6768 20.8601 22 19.63C22.28 19.13 22.56 18.35 22.73 18.1L23.18 17.46H23.34L33.62 17.85C33.78 17.85 33.89 17.74 33.98 18.07C34.0625 18.4094 34.1661 18.7434 34.29 19.07C34.3609 19.3454 34.4078 19.6265 34.43 19.91C34.5885 20.3662 34.663 20.8473 34.65 21.33Z" fill="#7C5B3C"/>
<path d="M20.38 25C20.32 25.32 20.45 25.45 20.22 25.7C20.155 25.7932 20.0648 25.866 19.96 25.91C19.8575 25.9281 19.7525 25.9281 19.65 25.91H19.4C18.84 25.91 18.63 25.97 18.21 25.75C17.7935 25.586 17.4156 25.3374 17.1 25.02C16.9464 24.733 16.7471 24.473 16.51 24.25C16.0383 23.8233 15.6427 23.3194 15.34 22.76C15.3623 22.7021 15.3623 22.6379 15.34 22.58C15.28 22.46 15.21 22.33 15.45 22.4C16.2 22.59 16.35 22.29 16.78 22.4C17.21 22.51 17.78 22.18 18.24 22.4C18.6404 22.6 19.0635 22.7511 19.5 22.85C19.6276 22.8583 19.7508 22.8995 19.8577 22.9696C19.9646 23.0397 20.0515 23.1363 20.11 23.25C20.28 23.54 20.32 23.47 20.35 23.77C20.38 24.07 20.35 24.21 20.35 24.45C20.404 24.6283 20.4143 24.8169 20.38 25Z" fill="#7C5B3C"/>
<path d="M10.25 45.26L12.27 44.6H14.87L16.56 43.63L15.25 41.4L13.96 40.07L15.28 38.02L14.38 40.01L15.95 41.5L17.82 44.05L21.49 45.31L26.61 48.58L21.29 45.56L17.83 44.38L16.58 44.19L15.31 44.66L14.4 45.1L12.31 44.82L10.25 45.26Z" fill="#D48612"/>
<path d="M26.61 42.84L31.39 43.81H37.19L40.17 42.77L37.22 43.95L36.96 44.41L37.38 44.76L40.37 45.05L36.94 44.92L35.21 44.34L32.36 44.19L31.47 44.9L30.67 47.16L31.14 44.86L31.75 44.14L26.61 42.84Z" fill="#D48612"/>
<path d="M19.22 36.72L24.02 37.74L27.42 37.61L32.63 36.72L34.63 34.39L36.69 33.35L34.85 34.6L33.32 37.41L34.17 38.02L37.49 38.71L39.12 37.53L39.37 35.72V37.86L37.8 39.19L34.08 38.32L31.48 37.29L28.4 37.5L27.28 39.52L24.8 40.43L26.95 39.25L27.77 37.76L24.02 38.2L19.22 36.72Z" fill="#D48612"/>
<path d="M28.56 30L28.45 32.18C28.4461 32.2418 28.4547 32.3038 28.4753 32.3622C28.4959 32.4207 28.5281 32.4743 28.57 32.52L31.07 35.44C31.1017 35.4784 31.1387 35.5121 31.18 35.54L32.12 36.13C32.2176 36.1898 32.333 36.2135 32.4463 36.197C32.5595 36.1806 32.6634 36.125 32.74 36.04L34.41 34.18C34.4585 34.1226 34.5203 34.078 34.59 34.05L36.59 33.27L36.4 33.14C36.3443 33.1033 36.2974 33.0546 36.2628 32.9975C36.2282 32.9404 36.2068 32.8764 36.2 32.81L35.78 29.54C35.7539 29.2338 35.6345 28.943 35.4377 28.7069C35.241 28.4708 34.9765 28.3008 34.68 28.22C34.498 28.189 34.312 28.189 34.13 28.22C33.29 28.32 29.98 29.28 28.92 29.59C28.8261 29.615 28.7417 29.6673 28.6776 29.7403C28.6135 29.8133 28.5726 29.9037 28.56 30Z" fill="#B7621D"/>
<path d="M33.8 28.42C34.0351 28.3672 34.2783 28.3621 34.5154 28.4051C34.7524 28.448 34.9784 28.5381 35.18 28.67C35.4667 29.0009 35.6417 29.4139 35.68 29.85C35.6832 29.8676 35.6811 29.8856 35.674 29.902C35.6669 29.9184 35.6551 29.9322 35.6401 29.9419C35.6251 29.9515 35.6076 29.9565 35.5898 29.9562C35.572 29.9558 35.5546 29.9502 35.54 29.94L33.62 28.7C33.62 28.7 33 28.58 33.8 28.42Z" fill="#9FC700"/>
<path d="M36.47 33.72L35.2 34.61C35.1424 34.6557 35.0919 34.7096 35.05 34.77L33.83 36.93C33.7737 37.0309 33.7549 37.1485 33.7768 37.2619C33.7988 37.3754 33.8601 37.4774 33.95 37.55L34.22 37.76C34.2777 37.809 34.3463 37.8433 34.42 37.86L37.15 38.44C37.2154 38.4545 37.2831 38.4549 37.3487 38.4411C37.4142 38.4273 37.476 38.3997 37.53 38.36L38.76 37.51C38.8177 37.4697 38.8662 37.4177 38.9023 37.3574C38.9385 37.2971 38.9616 37.2298 38.97 37.16L39.1 35.89C39.108 35.8139 39.0976 35.7369 39.0698 35.6656C39.0419 35.5943 38.9974 35.5306 38.94 35.48L37.09 33.77C37.0075 33.6929 36.9013 33.646 36.7887 33.6369C36.6762 33.6278 36.5638 33.6571 36.47 33.72Z" fill="#B7621D"/>
<path d="M36.8 33.71L35.8 34.43C35.7855 34.4412 35.7737 34.4556 35.7656 34.4721C35.7575 34.4885 35.7533 34.5066 35.7533 34.525C35.7533 34.5433 35.7575 34.5614 35.7656 34.5779C35.7737 34.5944 35.7855 34.6088 35.8 34.62C36.3384 34.7505 36.8871 34.8342 37.44 34.87C37.67 34.87 37.72 34.61 37.72 34.55L37.52 34.31L36.8 33.71Z" fill="#9FC700"/>
<path d="M38.34 39.3L39.63 38.35C39.6897 38.3088 39.7383 38.2534 39.7715 38.1889C39.8046 38.1243 39.8213 38.0525 39.82 37.98V37.34C39.8175 37.252 39.8403 37.1651 39.8858 37.0896C39.9312 37.0142 39.9973 36.9533 40.0763 36.9144C40.1553 36.8754 40.2438 36.8599 40.3313 36.8698C40.4188 36.8797 40.5017 36.9144 40.57 36.97L44.23 39.83C44.2987 39.8803 44.3509 39.9499 44.38 40.03C44.45 40.21 44.53 40.52 44.33 40.55C44.13 40.58 43.86 41.37 42.02 42.83C41.9535 42.8836 41.8733 42.9176 41.7885 42.9282C41.7038 42.9388 41.6177 42.9256 41.54 42.89L39.54 42C39.4498 41.9593 39.3734 41.8933 39.32 41.81L38.21 39.9C38.154 39.8015 38.1363 39.6859 38.1603 39.5751C38.1843 39.4644 38.2483 39.3664 38.34 39.3Z" fill="#B7621D"/>
<path d="M48.78 17.8C48.78 17.8 49.08 18.85 49.18 19.35L49.57 21.35L49.83 23.18V25.87L49.18 29.34L49.22 28L49.49 26.07C49.49 26.07 49.43 24.76 49.43 24.62C49.4398 24.087 49.3962 23.5543 49.3 23.03C49.1884 22.6268 49.1082 22.2156 49.06 21.8L48.16 23.55L47.16 25.94C47.0743 26.8973 46.8866 27.8426 46.6 28.76C46.35 28.92 42.8 30.76 42.8 30.76L38.25 32.48L42.62 30.72L45.45 29.25L46.17 28.54C46.17 28.54 46.31 28.2 46.39 27.96C46.5234 27.5786 46.6271 27.1874 46.7 26.79C46.7 26.57 46.7 25.87 46.7 25.72C46.7126 25.4749 46.796 25.2387 46.94 25.04C47.1157 24.8509 47.27 24.643 47.4 24.42C47.46 24.27 47.54 23.93 47.6 23.73C47.6494 23.4576 47.7404 23.1946 47.87 22.95C48.03 22.68 48.33 22.06 48.39 21.95C48.469 21.5437 48.5224 21.1329 48.55 20.72C48.55 20.66 46.62 19.43 46.55 19.41L45.1 19.01L42.78 18.21L39.42 18.45L37.83 18.04L39.56 18.27C39.56 18.27 42.56 17.9 42.64 17.92C43.2503 18.0557 43.8488 18.2396 44.43 18.47C45.0204 18.6857 45.6252 18.8594 46.24 18.99L48.58 19.67C48.64 19.67 48.8 19.35 48.8 19.35C48.8 19.35 48.8 18.93 48.8 18.87C48.8 18.81 48.78 17.8 48.78 17.8Z" fill="#D48612"/>
<path d="M38.34 18.59L39.77 19.11C39.8454 19.1299 39.9246 19.1299 40 19.11L42.83 18.74C42.9121 18.7197 42.9979 18.7197 43.08 18.74L44.99 19.56L47.04 20.2H47.12L47.48 20.39C47.5847 20.4474 47.6648 20.5411 47.7053 20.6534C47.7459 20.7657 47.744 20.889 47.7 21L47.33 21.87C47.33 21.87 47.33 21.87 47.33 21.92C46.9861 22.4831 46.7076 23.0837 46.5 23.71C46.4297 24.1209 46.3157 24.5232 46.16 24.91C46.1334 24.9785 46.0917 25.0401 46.038 25.0903C45.9844 25.1405 45.9201 25.178 45.85 25.2L42.8 26.15L39.96 26.75C39.8807 26.7649 39.7993 26.7649 39.72 26.75L38.36 26.32C38.2767 26.3041 38.1993 26.266 38.1359 26.2096C38.0725 26.1533 38.0256 26.0808 38 26V21.72C38.0047 21.7003 38.0047 21.6797 38 21.66L37.7 19.18C37.7 19.18 37.7 19.18 37.7 19.12V19C37.7064 18.9269 37.7295 18.8562 37.7675 18.7934C37.8055 18.7306 37.8574 18.6773 37.9193 18.6377C37.9811 18.5981 38.0511 18.5732 38.1241 18.5649C38.197 18.5567 38.2709 18.5652 38.34 18.59Z" fill="#B7621D"/>
<path d="M46 25.7L45.36 25.99H45.3L43.66 26.35L41.88 26.83L39.88 27.32C39.8271 27.33 39.7729 27.33 39.72 27.32L38.44 26.85C38.3971 26.8363 38.3517 26.8325 38.3071 26.8388C38.2625 26.845 38.2199 26.8613 38.1825 26.8862C38.145 26.9112 38.1137 26.9443 38.0907 26.983C38.0678 27.0218 38.0539 27.0652 38.05 27.11V27.17C38.0354 27.2155 38.0354 27.2645 38.05 27.31L38.4 27.99L38.48 28.17C38.4925 28.1966 38.499 28.2256 38.499 28.255C38.499 28.2844 38.4925 28.3134 38.48 28.34C38.4365 28.7502 38.3214 29.1496 38.14 29.52C37.98 29.6 38.08 30.69 38 30.99C37.9777 31.1258 37.9868 31.265 38.0266 31.3968C38.0665 31.5285 38.1361 31.6494 38.23 31.75L38.38 31.9C38.4169 31.9343 38.4625 31.958 38.5117 31.9685C38.561 31.9791 38.6122 31.9761 38.66 31.96L41.32 31.09L42.51 30.63L45 29.39H45.06L45.91 28.64C45.9573 28.5943 45.9888 28.5348 46 28.47L46.09 27.89C46.09 27.77 46.17 27.6 46.18 27.52C46.19 27.44 46.26 26.93 46.3 26.52C46.3185 26.3614 46.3486 26.2043 46.39 26.05C46.403 25.9887 46.3965 25.9249 46.3714 25.8675C46.3463 25.8102 46.3038 25.7621 46.25 25.73C46.1736 25.6884 46.0841 25.6777 46 25.7Z" fill="#B7621D"/>
<path d="M40.27 19.59L42.8 19.14L44.59 19.59L46.24 20.3L47.24 20.88C47.24 20.88 47.45 20.88 47.31 21.16C47.17 21.44 46 21.36 46 21.36L42.73 20.55L40.27 20.44C40.27 20.44 39.76 20.35 39.77 20.17C39.78 19.99 39.86 19.65 39.96 19.67C40.067 19.6602 40.1716 19.6332 40.27 19.59Z" fill="#9FC700"/>
<path d="M37.55 17C38.5841 16.5127 39.5631 15.9159 40.47 15.22C40.4979 15.1458 40.5478 15.0818 40.6131 15.0367C40.6783 14.9916 40.7557 14.9674 40.835 14.9674C40.9143 14.9674 40.9917 14.9916 41.0569 15.0367C41.1222 15.0818 41.1721 15.1458 41.2 15.22L41.4 15.77C41.4099 15.8113 41.4306 15.8493 41.46 15.88L42.28 17C42.3092 17.0399 42.3327 17.0837 42.35 17.13V17.33C42.3785 17.4268 42.3684 17.5309 42.3218 17.6204C42.2752 17.7099 42.1957 17.7779 42.1 17.81L41.69 17.95H41.59L39.83 18H38.83C38.7524 18.0018 38.676 17.9809 38.61 17.94L37.53 17.2L37.55 17Z" fill="#B7621D"/>
<path d="M41.16 14.44C41.1183 14.3472 41.0968 14.2467 41.0968 14.145C41.0968 14.0433 41.1183 13.9428 41.16 13.85C41.36 13.3 41.77 12.2 41.8 12.15C41.83 12.1 42.24 11.06 42.24 11.06C42.24 11.06 42.69 9.83002 42.77 9.70002C42.865 9.39146 42.9418 9.07759 43 8.76002C43.0428 8.60026 43.1378 8.45943 43.27 8.36002L44.36 9.76002L45.36 10.89L46.06 11.89V11.95L46.51 12.75V12.81L46.95 13.81C46.9554 13.8263 46.9554 13.8438 46.95 13.86L47.03 14.08C47.063 14.1672 47.078 14.2601 47.0742 14.3533C47.0703 14.4464 47.0475 14.5378 47.0073 14.6219C46.9672 14.706 46.9103 14.7811 46.8403 14.8427C46.7703 14.9042 46.6886 14.9509 46.6 14.98L46.06 15.17L44.82 15.68C44.6985 15.7097 44.5716 15.7097 44.45 15.68L43.23 15.5H43.16L42.16 15.25C42.0465 15.2273 41.9421 15.1716 41.86 15.09L41.31 14.59C41.2613 14.5413 41.2177 14.4877 41.18 14.43L41.16 14.44Z" fill="#B7621D"/>
<path d="M42.12 15.5L42.74 15.78C42.7828 15.7895 42.8272 15.7895 42.87 15.78H43.6C43.6491 15.7796 43.6976 15.7912 43.7412 15.8138C43.7848 15.8365 43.8222 15.8695 43.85 15.91L44.01 16.13C44.0353 16.1678 44.0528 16.2103 44.0614 16.255C44.0699 16.2996 44.0695 16.3455 44.06 16.39L43.93 16.84L43.68 17.49C43.6529 17.5619 43.6 17.6212 43.5316 17.6563C43.4632 17.6914 43.3843 17.6998 43.31 17.68L42.97 17.58C42.9231 17.5659 42.8799 17.5416 42.8436 17.5087C42.8073 17.4758 42.7787 17.4353 42.76 17.39L42.55 16.79C42.5311 16.7237 42.4883 16.6668 42.43 16.63L42 16.42L41.9 16.32L41.68 15.93C41.6744 15.8936 41.6744 15.8565 41.68 15.82C41.6729 15.7648 41.6807 15.7087 41.7027 15.6576C41.7247 15.6065 41.7601 15.5623 41.8051 15.5295C41.8501 15.4968 41.9031 15.4768 41.9585 15.4716C42.0139 15.4664 42.0697 15.4762 42.12 15.5Z" fill="#B7621D"/>
<path d="M43.97 15.78L44.64 15.88L44.77 16L44.64 16.15L44.33 16.24L44.09 16.16L43.89 15.78H43.97Z" fill="#B7621D"/>
<path d="M44.94 16C44.9349 15.9439 44.9489 15.8876 44.9797 15.8404C45.0106 15.7932 45.0565 15.7578 45.11 15.74L46.22 15.39L47.22 15.08L47.43 15.01C47.4873 14.9921 47.5491 14.9953 47.6042 15.0192C47.6593 15.043 47.7039 15.0859 47.73 15.14L47.91 15.54L48.16 16.06L48.38 16.64L48.51 17.26L48.6 17.73V18.26L48.49 18.99C48.4864 19.0226 48.4761 19.0541 48.4599 19.0826C48.4436 19.1111 48.4217 19.1359 48.3955 19.1556C48.3692 19.1753 48.3392 19.1894 48.3073 19.197C48.2754 19.2047 48.2423 19.2057 48.21 19.2L46.85 19L45.43 18.61L44.54 18.27L44.08 18.07C44.0274 18.05 43.9845 18.0107 43.96 17.96L43.9 17.86C43.8799 17.8232 43.8693 17.782 43.8693 17.74C43.8693 17.6981 43.8799 17.6568 43.9 17.62L44.03 17.39V17.33L44.18 16.77C44.1724 16.7473 44.1724 16.7227 44.18 16.7L44.39 16.38C44.4128 16.3477 44.4426 16.321 44.4773 16.3019C44.5119 16.2828 44.5505 16.2719 44.59 16.27H44.68C44.7133 16.2701 44.7462 16.2633 44.7767 16.25C44.8072 16.2367 44.8346 16.2173 44.8572 16.1928C44.8798 16.1684 44.897 16.1395 44.9078 16.108C44.9186 16.0765 44.9228 16.0432 44.92 16.01L44.94 16Z" fill="#B7621D"/>
<path d="M39.07 32.52L41.93 31.82L44.08 30.77L46.2 29.59L46.83 28.87L47.04 27.87C47.04 27.8567 47.0453 27.844 47.0546 27.8347C47.064 27.8253 47.0767 27.82 47.09 27.82C47.1033 27.82 47.116 27.8253 47.1253 27.8347C47.1347 27.844 47.14 27.8567 47.14 27.87L47.53 28.87L47.33 30.11C47.4853 30.4599 47.6728 30.7947 47.89 31.11C48.01 31.2 48.68 31.87 48.6 32.04C48.5052 32.4618 48.4384 32.8894 48.4 33.32L47.89 34.72L47.33 36.17L46.68 37.01C46.6721 37.0136 46.6636 37.0155 46.655 37.0155C46.6464 37.0155 46.6378 37.0136 46.63 37.01L44.9 36.6L42.8 35.36L41.62 34.66L40 33.35L39.06 32.61C39.0519 32.6051 39.0454 32.5979 39.0412 32.5894C39.037 32.5808 39.0353 32.5713 39.0364 32.5618C39.0374 32.5524 39.0411 32.5434 39.0471 32.536C39.0531 32.5286 39.061 32.5231 39.07 32.52Z" fill="#B7621D"/>
<path d="M47.21 27.34L47.34 26C47.3514 25.922 47.3787 25.8471 47.42 25.78L47.87 25.11C47.8987 25.0603 47.919 25.0063 47.93 24.95L48.1 24.18V24.1L48.38 23.41C48.3748 23.3869 48.3748 23.363 48.38 23.34L48.65 22.89C48.6538 22.8601 48.6538 22.8299 48.65 22.8L48.85 22.24L48.97 22.57C48.9747 22.5998 48.9747 22.6302 48.97 22.66L49.06 23.23C49.0657 23.2564 49.0657 23.2836 49.06 23.31V24.8C49.0551 24.8264 49.0551 24.8535 49.06 24.88L49.15 25.47L49.22 26.01C49.2302 26.0493 49.2302 26.0906 49.22 26.13L49.14 26.7L49.05 27.1V27.28C49.0557 27.3231 49.0557 27.3668 49.05 27.41L48.83 27.94C48.8026 27.9968 48.7691 28.0505 48.73 28.1L48.29 28.53C48.2203 28.5987 48.1316 28.6449 48.0353 28.6628C47.9391 28.6806 47.8397 28.6692 47.75 28.63C47.6598 28.5893 47.5834 28.5233 47.53 28.44L47.38 28.18C47.3744 28.1435 47.3744 28.1064 47.38 28.07L47.19 27.45C47.1929 27.4127 47.1996 27.3759 47.21 27.34Z" fill="#B7621D"/>
<path d="M49.24 29.36L49.38 29.69H49.61C49.8324 28.4715 49.9627 27.238 50 26L49.74 27.17L49.62 28.05L49.52 28.55L49.24 29.36Z" fill="#B7621D"/>
<path d="M24.52 17.74H24.59L25.67 18L26.82 18.21L28.89 18.54L30.71 19.39L31.17 20.23L31.73 20.39L32.41 20.14L32.84 19.82L33.29 19.52H33.55H33.72H34.02H34.09L33.73 19.59L33.33 19.66L33.19 19.75L33.02 19.83L32.7 20L32.51 20.16L32.39 20.27L32.13 20.42L31.95 20.56V20.79L31.86 20.99L31.93 21.28L31.99 21.53L32.08 21.87L32.17 22.13C32.1766 22.2165 32.1766 22.3035 32.17 22.39L32.01 22.58V22.87V24.16L32.31 24.41H32.76L33.36 24.73L33.73 24.95L33.88 25.12L33.61 24.95L33.27 24.89L32.78 24.67L32.5 24.6L32.14 24.46L31.94 24.34L31.62 24.21V23.62L31.73 22.9V22.28L31.65 21.82L30.88 21.53L30.26 21.77L29.53 21.95L29.04 22.17L28.81 22.48L28.23 22.82L27.08 24.16L26.32 24.89L25.45 25.35L24.25 26.56L23.88 26.28L24.25 26.38L24.39 26.22L24.66 25.9L24.93 25.63L25.27 25.1L25.6 25H25.81L26.17 24.63C26.17 24.63 26.42 24.35 26.47 24.31C26.52 24.27 26.88 23.89 26.88 23.89L27.25 23.34L28.25 22.59L28.72 22.27L29.04 21.94C29.3061 21.7924 29.5879 21.675 29.88 21.59C30.1338 21.5319 30.3768 21.434 30.6 21.3C30.7265 21.1306 30.8369 20.9498 30.93 20.76L30.85 20.44L30.55 19.61L29.67 19.28L29 18.75L28 18.56H27.44L26.6 18.46L26.24 18.2H25.76L25.44 18H25L24.52 17.74Z" fill="#B7621D"/>
<path d="M24 17.88H24.54L24.85 18.16H25.33L25.78 18.35H26.27L26.58 18.62C26.58 18.62 27.02 18.73 27.29 18.77C27.5653 18.8045 27.8425 18.8212 28.12 18.82C28.2633 18.8592 28.401 18.9164 28.53 18.99C28.64 19.06 28.7 19.05 28.8 19.15C28.9109 19.2449 29.0459 19.3072 29.19 19.33C29.36 19.33 29.19 19.38 29.55 19.54C29.91 19.7 30.23 19.71 30.3 19.78C30.37 19.85 30.3 19.86 30.47 20.08C30.64 20.3 30.54 20.19 30.66 20.48C30.78 20.77 30.39 21.27 30.39 21.27L29.3 21.63L28.58 21.9L28.32 22.41C28.0456 22.487 27.7806 22.5944 27.53 22.73C27.4343 22.9018 27.3203 23.0628 27.19 23.21C27.04 23.36 26.58 23.7 26.46 23.86C26.34 24.02 25.6 24.6 25.53 24.74C25.46 24.88 24.53 25.43 24.53 25.52C24.53 25.61 24.33 25.74 24.12 25.92C24.0648 25.9664 23.9985 25.9978 23.9276 26.0111C23.8568 26.0245 23.7836 26.0194 23.7153 25.9962C23.647 25.9731 23.5858 25.9328 23.5375 25.8792C23.4893 25.8255 23.4557 25.7604 23.44 25.69C22.8703 23.2393 22.8703 20.6907 23.44 18.24C23.4729 18.1217 23.5481 18.0196 23.6514 17.9533C23.7546 17.8869 23.8787 17.8608 24 17.88Z" fill="#CC7707"/>
<path d="M38.66 12.07L37.89 13.33L36.58 14.14C36.2948 14.4417 35.9944 14.7287 35.68 15C35.68 15 33.68 15.06 33.28 15C32.88 14.94 28 15 27.5 15H23.59C23.4651 14.5474 23.4045 14.0795 23.41 13.61C23.4278 13.3336 23.4278 13.0564 23.41 12.78C23.5156 12.3229 23.6664 11.8774 23.86 11.45L26.17 10.51L26.35 10.44L28.68 9.51001H30.29L31.78 9.68001L32.52 10.48L33.88 11.48L34.93 12.48L36.46 12.15L38.66 12.07Z" fill="#B7621D"/>
<path d="M33.29 25.86L33.21 25.91C32.9624 26.0473 32.7009 26.1579 32.43 26.24C31.8811 26.4717 31.3073 26.6394 30.72 26.74C30.03 26.85 29.86 26.83 28.63 26.97C27.485 27.2292 26.3021 27.2767 25.14 27.11C23.55 26.83 22.24 27.75 21.76 26.74C21.5617 26.3329 21.4139 25.903 21.32 25.46L21.25 24C21.25 24 21.61 22 21.64 21.59C21.6678 21.1809 21.7178 20.7736 21.79 20.37C21.79 20.3 22 19.66 22 19.66C22 19.66 22.65 18.1 23.4 17.78C23.4 17.78 22.27 20.29 23.03 26.21C23 26.23 25.59 27.83 33.29 25.86Z" fill="#CB8209"/>
<path d="M24.82 17.69C25.1272 17.8153 25.4452 17.9124 25.77 17.98C25.83 17.98 26.4 17.98 26.72 18.09C27.04 18.2 27.96 18.28 28.21 18.36C28.46 18.44 29.26 18.5 29.33 18.55C29.4 18.6 30.33 19.04 30.5 19.16C30.7 19.3169 30.8724 19.5062 31.01 19.72C31.2288 19.9345 31.4824 20.1103 31.76 20.24C32.0374 20.2048 32.3019 20.1018 32.53 19.94C32.65 19.83 32.77 19.65 32.86 19.61C33.0308 19.5063 33.2162 19.4287 33.41 19.38C33.57 19.38 33.75 19.38 33.8 19.38C33.8592 19.2343 33.8832 19.0767 33.87 18.92C33.87 18.78 33.78 18.42 33.62 18.34C33.4316 18.2286 33.2301 18.1413 33.02 18.08C32.8181 18.0246 32.6094 17.9977 32.4 18C32.09 18 31.88 17.95 31.4 17.92L27.68 17.78C27.44 17.78 26.81 17.67 26.41 17.67C25.8806 17.6268 25.3482 17.6335 24.82 17.69Z" fill="#CC7707"/>
<path d="M33.69 19.73L33.28 19.81C33.2166 19.8282 33.156 19.8551 33.1 19.89L32.64 20.23C32.64 20.23 32.64 20.23 32.64 20.28L32.33 20.59L32.2 20.76V20.86L32 21V21.25C32.0093 21.3099 32.0297 21.3675 32.06 21.42L32.3 21.8C32.3494 21.8882 32.3704 21.9895 32.36 22.09L32.3 22.56C32.3043 22.5999 32.3043 22.6401 32.3 22.68L32.09 23.17C32.0805 23.2296 32.0805 23.2904 32.09 23.35V23.78C32.0808 23.8262 32.0808 23.8738 32.09 23.92C32.1195 24.0079 32.176 24.0842 32.2514 24.1381C32.3268 24.1919 32.4173 24.2206 32.51 24.22H32.61C32.7095 24.2177 32.8061 24.2535 32.88 24.32L33.02 24.42L33.1 24.47C33.25 24.54 33.67 24.74 33.66 24.79C33.65 24.84 33.76 24.79 33.87 24.79C33.9691 24.7782 34.0611 24.7322 34.13 24.66C34.2082 24.5872 34.2548 24.4867 34.26 24.38L34.52 20.99C34.5332 20.924 34.5332 20.856 34.52 20.79C34.409 20.5152 34.3122 20.2348 34.23 19.95C34.1824 19.8538 34.1011 19.7782 34.0017 19.7377C33.9022 19.6972 33.7913 19.6945 33.69 19.73Z" fill="#CC7707"/>
<path d="M28 19.36L28.29 19.44C28.5918 19.5804 28.9067 19.6909 29.23 19.77C29.56 19.7638 29.8863 19.8394 30.18 19.99C30.36 20.15 30.84 20.65 30.56 20.71C30.1519 20.7604 29.7412 20.7871 29.33 20.79C29.25 20.79 28.91 20.67 28.41 20.61C27.91 20.55 27.34 20.33 27.32 20.19C27.3091 20.0502 27.3091 19.9098 27.32 19.77C27.3303 19.6945 27.3574 19.6224 27.3993 19.5587C27.4412 19.4951 27.4967 19.4417 27.562 19.4024C27.6272 19.3631 27.7004 19.3388 27.7762 19.3315C27.852 19.3242 27.9285 19.3339 28 19.36Z" fill="#9FC700"/>
<path d="M29.09 18.29H29.22L29.72 18.52L30.28 18.75C30.4058 18.8426 30.52 18.95 30.62 19.07L30.68 19.12C30.7922 19.2067 30.896 19.3038 30.99 19.41C30.99 19.47 31.09 19.67 31.15 19.68C31.21 19.69 31.39 19.68 31.45 19.68C31.536 19.6956 31.624 19.6956 31.71 19.68V19.47C31.71 19.35 31.83 19.35 31.71 19.23C31.59 19.11 31.61 19.09 31.51 18.98C31.41 18.87 31.51 18.85 31.25 18.66C30.99 18.47 31.07 18.48 30.91 18.42L30.22 18.17H30.15C29.9545 18.1337 29.7634 18.0767 29.58 18C29.44 17.92 29.44 17.85 29.16 17.86H28.91C28.8138 17.86 28.7195 17.8873 28.6381 17.9386C28.5567 17.9899 28.4915 18.0632 28.45 18.15L29.09 18.29Z" fill="#9FC700"/>
<path d="M22.71 1.11001L23.85 4.55001C23.85 4.55001 24.32 8.66001 24.28 8.86001C24.24 9.06001 26.38 9.50001 26.38 9.50001L30.11 8.86001C30.11 8.86001 31.21 6.57001 31.21 6.40001C31.21 6.23001 31.05 3.30001 31.05 3.18001C31.05 3.06001 30.93 1.65001 30.93 1.65001C30.93 1.65001 28.23 0.59001 22.71 1.11001Z" fill="#B66119"/>
<path d="M33.28 2.14001L32.45 3.46001L32 6.83001L31.77 9.00001L34.31 10.77L35.31 11.66L39.01 10.93L39.46 9.24001L40 7.73001L40.19 6.00001C40.19 6.00001 38.36 4.11001 33.28 2.14001Z" fill="#B66119"/>
<path d="M38.66 12.07L37.69 13.01L35.98 14.12L34.27 13.76L31.03 13.29L28.26 11.35L27.33 10.97L26.55 10.66L26.16 10.5L26.34 10.43L28.67 9.51001H30.28L31.77 9.67001L32.51 10.47L33.87 11.44L34.92 12.4L36.45 12.07H38.66Z" fill="#CC7707"/>
<path d="M31.77 1.92999L31.58 3.82999C31.58 3.82999 31.71 5.36999 31.68 5.48999C31.581 5.95227 31.5076 6.41964 31.46 6.88999C31.2957 7.39381 31.0952 7.88509 30.86 8.35999L30.4 9.07999H29.34L26.84 9.68999H26L24.82 9.89999L23.6 10.38L23.16 11.38V11.99L23.34 12.67C23.34 12.67 23.34 12.12 23.34 12.06V11.73L23.62 11.4L24.03 10.59L25.24 10.21L26.41 10.15L27.68 9.74999L29.19 9.33999L30.6 9.25999L31.8 9.46999L32.15 9.79999L32.48 10.29L33.05 10.67L33.74 11.15C33.74 11.15 34.46 11.63 34.53 11.71L34.95 12.17L36.57 11.88L37.45 12.02C37.45 12.02 38.45 11.49 38.45 11.46C38.6612 11.4642 38.8718 11.4842 39.08 11.52L39.53 10.45L39.07 11.33H38.4L37.82 11.64L37.31 11.94L36.68 11.52C36.1867 11.7195 35.6784 11.88 35.16 12C34.99 12 34.65 11.52 34.65 11.52L33.96 10.78L33 10.41L32.35 9.49999L31.6 8.99999L31.53 8.37999L31.64 7.50999L31.77 6.68999L32.01 5.68999L32.15 3.92999L31.9 3.29999L31.77 1.92999Z" fill="#D48612"/>
<path d="M33.73 12.51L32.65 12.39L31.2 11.18L30.31 10.74L29.31 10.45H28.66H28.06H26.9L27.34 10.33L29.06 9.92001L30.4 10L31.4 10.12L31.78 10.77C31.78 10.77 32.38 11.2 32.48 11.25C32.762 11.4113 33.0326 11.5918 33.29 11.79C33.39 11.92 33.73 12.51 33.73 12.51Z" fill="#9FC700"/>
<path d="M18.08 1.92999C18.08 1.92999 12.7 3.33999 10.94 6.31999L13.21 9.49999L16.16 11.64L19.72 14L20.51 11V9.49999L21.22 8.05999C20.5777 5.8336 19.5115 3.75217 18.08 1.92999Z" fill="#B6611A"/>
<path d="M2.48999 17C2.48999 17 5.22999 9.38 9.99999 7.09L11.51 9.5L12.08 10.5L15.25 12.1V15L14.17 17.44L12.56 18.92L11.51 18.79L9.81999 18.34L8.81999 17.78L8.19999 16.78L6.26999 16.46L3.26999 17.41L2.48999 17Z" fill="#AF5923"/>
<path d="M20.4 16.01L19.77 17.12L19.22 18.94L19.13 19.69L19 20.79L17.11 20.25H14.9L13.33 20.06L15.02 17.88L16.47 15.47V13.29L18 13.97L19.22 15.02L20.4 16.01Z" fill="#B86415"/>
<path d="M10.42 6.23999L10.72 6.76999L11.83 8.19999L13.35 9.91999L15.25 11.36L16.08 12.26L17.13 12.81L18.38 13.39L19.19 14.13L20.07 14.54L20.8 14.92L20.94 15.77L20.48 15L19.67 14.7L18.86 14.44L18.54 13.81C18.54 13.81 17.78 13.43 17.72 13.43C17.66 13.43 16.65 13 16.65 13H16.19V13.86L16.29 14.86L16.04 15.73L15.21 16.55L15 17C14.9143 17.2875 14.8073 17.5683 14.68 17.84C14.4761 18.2203 14.249 18.5876 14 18.94C13.7673 19.0854 13.5466 19.2493 13.34 19.43L12.43 19.73L13.24 19.21L13.84 18.81L13.98 18.24L14.06 17.8L14.42 17.46L14.79 16.89C14.79 16.89 14.95 16.41 14.99 16.35C15.064 16.1752 15.1544 16.0077 15.26 15.85C15.4153 15.6763 15.5589 15.4926 15.69 15.3C15.69 15.3 15.79 14.64 15.83 14.5C15.8963 14.1947 15.9231 13.8821 15.91 13.57C15.91 13.43 15.71 12.74 15.69 12.67C15.67 12.6 15.26 11.84 15.26 11.84L14 11L12.77 10.48L12.21 9.85999L11.83 8.85999L11.24 8.39999L10.62 7.56999L10.42 6.23999Z" fill="#D48612"/>
<path d="M19.22 19.89C19.2244 19.9199 19.2244 19.9502 19.22 19.98C19.2172 19.9501 19.2172 19.92 19.22 19.89Z" fill="url(#paint2_linear_1_431)"/>
<path d="M20.4 16L19.77 17.11L19.22 18.93L19.13 19.68L18.44 18.19C17.29 15.72 16.44 15.46 16.44 15.46V13.29L18 14L19.22 15L20.4 16Z" fill="#CC7707"/>
<path d="M17.82 16.17L18.58 16.49C18.58 16.49 18.92 16.85 19.26 16.61L19.89 16.17C19.89 16.17 20.01 15.95 19.99 15.89C19.8743 15.8062 19.7318 15.768 19.5897 15.7827C19.4476 15.7975 19.316 15.8642 19.22 15.97C18.91 16.29 18.78 16.35 18.62 16.24C18.46 16.13 18.22 15.93 18 15.99L17.78 16.05C17.78 16.05 17.67 16.1 17.82 16.17Z" fill="#9FC700"/>
<path d="M5.39001 19.89L8.00001 22.72L8.90001 24.9C9.41087 25.8314 9.87152 26.7894 10.28 27.77C10.28 27.99 10.45 30.77 10.45 30.77C10.5277 31.8319 10.5277 32.8981 10.45 33.96C10.35 34.34 9.67001 34.85 9.45001 35.43C9.30764 35.7005 9.14728 35.961 8.97001 36.21C8.37007 36.7632 7.70915 37.2463 7.00001 37.65L6.79001 37.76L4.79001 38.76L8.79001 36.85L10.34 34.85L10.86 33.69L12.08 33H13L13.37 33.37C13.563 33.6595 13.7113 33.9764 13.81 34.31L14.34 34.89C14.34 34.89 14.55 34.74 14.34 34.31C14.13 33.88 13.34 32.8 13.34 32.8L11.93 32.43C11.93 32.43 10.85 32.52 10.8 32.25C10.7578 31.9784 10.731 31.7046 10.72 31.43V30.22L10.52 28.6L10.15 26.25L9.29001 23.48C9.21001 23.25 9.01001 22.23 9.23001 22.16L9.45001 21.63C9.45001 21.63 9.53001 21.52 9.77001 21.26C10.01 21 10.22 21.1 10.22 21.1L9.68001 21L9.42001 21.3L9.22001 21.48L9.10001 21.77L9.00001 22.1V22.45V22.82L9.16001 23.94C9.16001 23.94 9.37001 24.4 9.53001 24.84C9.63001 25.1 9.74001 25.46 9.74001 25.46L9.27001 24.94L8.88001 24.15C8.82362 23.926 8.78022 23.699 8.75001 23.47C8.71246 23.2301 8.63826 22.9974 8.53001 22.78C8.43316 22.5602 8.32296 22.3464 8.20001 22.14C8.05841 22.0605 7.93018 21.9593 7.82001 21.84C7.76001 21.73 7.58001 21.49 7.58001 21.49L7.15001 21.24L6.93001 21.05L6.67001 20.79L5.39001 19.89Z" fill="#9FC700"/>
<path d="M16.86 27.23L16.6 27.88L16.08 29.33L15.25 30.16L14.82 31.31V32.67L15.12 33.84L14.82 34.29L14.4 33.93L13.85 32.94L13.33 32.23L11.68 32.01L11.22 31.27L10.94 29.53V28.38L10.89 28.04L10.71 26.89L10.25 25.84L9.98 24.39L9.44 22.91L9.61 22.31L9.98 21.46L11.19 21.76L11.46 23.03L12.07 24.03L13.33 24.39L14.06 24.7L14.82 25.18L15.68 25.96L16.08 26.72L16.47 26.97L16.86 27.23Z" fill="#9E4C2A"/>
<path d="M16.86 27.23L16.6 27.88L16.08 29.33L15.25 30.16L14.82 31.31V32.67L15.12 33.84L14.82 34.29L14.4 33.93L13.85 32.93L13.33 32.22L11.68 32L11.22 31.27L10.94 29.52V28.38V28.04C12.8334 28.0565 14.7119 27.7032 16.47 27L16.86 27.23Z" fill="#CC7707"/>
<path d="M16 27.33L15.5 27.73L15.57 28.08L15.5 28.66L15.44 28.94C15.44 28.94 16 28.94 16.09 28.6C16.1381 28.4012 16.2193 28.2119 16.33 28.04L16.51 27.7L16.58 27.38L16.47 27.18L16 27.33Z" fill="#9FC700"/>
<path d="M19.64 26H19.4C18.84 26 18.63 26.06 18.21 25.84C17.7935 25.676 17.4156 25.4274 17.1 25.11C16.9464 24.823 16.7471 24.563 16.51 24.34C16.0383 23.9133 15.6427 23.4094 15.34 22.85C15.3623 22.7921 15.3623 22.7279 15.34 22.67L15.63 22.99C16.6257 24.1139 17.7936 25.0725 19.09 25.83C19.2617 25.9191 19.448 25.9766 19.64 26Z" fill="#CB8209"/>
<path d="M19.08 25.81C18.99 25.81 17.68 25.53 15.62 22.97C16.6157 24.0939 17.7836 25.0525 19.08 25.81Z" fill="#9FC700"/>
<path d="M0.830018 20.47L2.00002 19.94L3.33002 19.89H4.63002L5.63002 20.65C5.63002 20.65 6.63002 22.1 6.72002 22.22L7.72002 23.12L8.29002 24.94L8.96002 25.94L9.70002 27.75L9.14002 29.17L5.31002 30.11L2.40002 30.61L0.920018 30.41C0.232207 27.1353 0.201615 23.7566 0.830018 20.47Z" fill="#9E4C2A"/>
<path d="M0.890015 30.63L2.46001 31.03L4.09001 30.63L6.75001 30L8.26002 29.73L9.05001 29.42L9.77001 29.94V30.84L9.95001 32.84L9.61001 34.04L8.87001 35.4L7.87001 36.58L5.87001 37.58L4.42001 38.15C2.72456 35.9213 1.52139 33.3582 0.890015 30.63Z" fill="#B7621D"/>
</g>
<defs>
<linearGradient id="paint0_linear_1_431" x1="18.48" y1="42.97" x2="33.04" y2="2.43" gradientUnits="userSpaceOnUse">
<stop stop-color="#7C2C3C"/>
<stop offset="0.59" stop-color="#96452B"/>
<stop offset="1" stop-color="#A35123"/>
</linearGradient>
<radialGradient id="paint1_radial_1_431" cx="0" cy="0" r="1" gradientUnits="userSpaceOnUse" gradientTransform="translate(5.33999 32.034) scale(23.204 23.204)">
<stop stop-color="#F1FF05"/>
<stop offset="0.05" stop-color="#F0FF08"/>
<stop offset="0.1" stop-color="#EEFF13"/>
<stop offset="0.14" stop-color="#EBFF25"/>
<stop offset="0.18" stop-color="#E6FF3D"/>
<stop offset="0.21" stop-color="#E1FF54"/>
<stop offset="0.28" stop-color="#E3FA50"/>
<stop offset="0.35" stop-color="#EAEC45"/>
<stop offset="0.43" stop-color="#F6D633"/>
<stop offset="0.48" stop-color="#FFC425"/>
<stop offset="0.56" stop-color="#FFBC23"/>
<stop offset="0.67" stop-color="#FFA61D"/>
<stop offset="0.81" stop-color="#FF8213"/>
<stop offset="0.97" stop-color="#FF5105"/>
<stop offset="1" stop-color="#FF4502"/>
</radialGradient>
<linearGradient id="paint2_linear_1_431" x1="19.3209" y1="21.6864" x2="19.3219" y2="21.6862" gradientUnits="userSpaceOnUse">
<stop stop-color="#7C2C3C"/>
<stop offset="0.59" stop-color="#96452B"/>
<stop offset="1" stop-color="#A35123"/>
</linearGradient>
<clipPath id="clip0_1_431">
<rect width="50" height="49.89" fill="white"/>
</clipPath>
</defs>
</svg>
