<svg width="50" height="50" viewBox="0 0 50 50" fill="none" xmlns="http://www.w3.org/2000/svg">
<g clip-path="url(#clip0_1_231)">
<path d="M50 25C50 29.9445 48.5338 34.778 45.7867 38.8893C43.0397 43.0005 39.1352 46.2048 34.5671 48.097C29.9989 49.9892 24.9723 50.4843 20.1227 49.5196C15.2732 48.555 10.8186 46.174 7.32233 42.6777C3.82602 39.1814 1.445 34.7268 0.480372 29.8773C-0.484259 25.0277 0.0108244 20.0011 1.90302 15.4329C3.79521 10.8648 6.99952 6.96029 11.1107 4.21326C15.222 1.46622 20.0555 3.17814e-08 25 3.17814e-08C28.2871 -0.0145596 31.5446 0.622146 34.5843 1.87336C37.624 3.12457 40.3858 4.9655 42.7101 7.28987C45.0345 9.61424 46.8754 12.376 48.1266 15.4157C49.3779 18.4554 50.0146 21.7129 50 25Z" fill="#DEBA21"/>
<path d="M49.34 24.92C49.34 29.7142 47.9184 34.4008 45.2548 38.387C42.5913 42.3733 38.8055 45.4802 34.3763 47.3148C29.947 49.1495 25.0731 49.6295 20.371 48.6942C15.6689 47.7589 11.3498 45.4503 7.95974 42.0603C4.56971 38.6702 2.26107 34.3511 1.32577 29.649C0.390463 24.9469 0.870496 20.073 2.70516 15.6437C4.53983 11.2145 7.64673 7.42869 11.633 4.76517C15.6192 2.10164 20.3058 0.679993 25.1 0.679993C31.5256 0.69057 37.685 3.24782 42.2286 7.79141C46.7722 12.335 49.3294 18.4944 49.34 24.92Z" fill="#FFD73A"/>
<path opacity="0.1" d="M49.34 24.92C49.3421 28.133 48.7065 31.3145 47.47 34.28C31.61 21.55 13.56 19.05 1.56001 19.11C2.97401 13.3544 6.44768 8.31628 11.3243 4.94808C16.201 1.57988 22.1426 0.115026 28.026 0.830443C33.9094 1.54586 39.3269 4.39197 43.2542 8.83072C47.1815 13.2695 49.3466 18.9933 49.34 24.92Z" fill="#FF0000"/>
<path d="M15.73 3.99999C15.9931 3.5061 16.3569 3.07291 16.7978 2.7284C17.2388 2.3839 17.7471 2.13575 18.29 1.99999C19.93 1.57999 21.29 0.849994 23.35 1.12999C25.6232 1.3939 27.822 2.10416 29.82 3.21999C31.61 4.42999 33.57 6.29999 32.37 7.72999C31.17 9.15999 30.54 9.96999 28.37 10.46C26.2 10.95 24.31 12.46 21.94 11.84C19.57 11.22 15.24 10.41 14.94 8.62999C14.7692 7.08524 15.0324 5.52346 15.7 4.11999L15.73 3.99999Z" fill="#9F9C00"/>
<path d="M15.73 3.59C15.9931 3.09611 16.3569 2.66291 16.7978 2.31841C17.2388 1.9739 17.7471 1.72575 18.29 1.59C19.93 1.17 21.29 0.449998 23.35 0.719998C25.6248 0.983095 27.8243 1.69701 29.82 2.82C31.61 4.02 33.57 5.9 32.37 7.33C31.17 8.76 30.54 9.56 28.37 10.05C26.2 10.54 24.31 12.1 21.94 11.43C19.57 10.76 15.24 10.01 14.94 8.22C14.7692 6.67525 15.0324 5.11346 15.7 3.71L15.73 3.59Z" fill="#FDFC72"/>
<path d="M30.29 6.00001C29.95 6.85001 30.36 7.32001 29.15 8.00001C27.94 8.68001 27.54 9.17001 26 9.23001C24.46 9.29001 21.52 10.23 20 9.50001C18.48 8.77001 17.23 8.16001 17.2 7.00001C17.1792 6.667 17.1792 6.33301 17.2 6.00001C17.2789 5.21257 17.6349 4.47875 18.2045 3.92932C18.7741 3.37989 19.5202 3.05056 20.31 3.00001H20.48C21.88 3.00001 22.62 2.10001 24.26 2.73001C25.12 3.06001 26.02 3.33001 26.84 3.60001C27.5273 3.79964 28.1963 4.05723 28.84 4.37001C30 4.91001 30.62 5.12001 30.29 6.00001Z" fill="#67B2C6"/>
<path d="M26.84 3.54001C23.06 3.21001 22.38 2.83001 19.91 3.76001C18.85 4.16001 18.12 5.30001 17.23 6.01001C17.3058 5.22555 17.6565 4.49315 18.2201 3.94232C18.7837 3.39149 19.524 3.05771 20.31 3.00001H20.48C21.88 3.00001 22.62 2.10001 24.26 2.73001C25.12 3.00001 26 3.27001 26.84 3.54001Z" fill="#02917A"/>
<path d="M9.78 17C9.69223 16.848 9.64603 16.6755 9.64603 16.5C9.64603 16.3245 9.69223 16.152 9.78 16C10.1129 15.4299 10.5349 14.9168 11.03 14.48C11.6 14.13 11.68 13.61 12.85 13.61C14.02 13.61 15.29 12.85 15.67 13.48C16.05 14.11 15.85 14.31 15.81 14.88C15.77 15.45 16.23 15.88 14.81 16.96C14.1036 17.5507 13.3197 18.0419 12.48 18.42C12.2362 18.5574 11.9515 18.6036 11.6767 18.5505C11.402 18.4974 11.155 18.3484 10.98 18.13C10.7153 17.812 10.4013 17.5385 10.05 17.32C9.93501 17.2372 9.84226 17.1273 9.78 17Z" fill="#9F9C00"/>
<path d="M9.75 16.66C9.66223 16.508 9.61603 16.3355 9.61603 16.16C9.61603 15.9845 9.66223 15.812 9.75 15.66C10.0765 15.0738 10.499 14.5464 11 14.1C11.57 13.76 11.65 13.24 12.82 13.24C13.99 13.24 15.25 12.48 15.63 13.11C16.01 13.74 15.82 13.93 15.77 14.51C15.72 15.09 16.19 15.51 14.77 16.58C14.0728 17.1627 13.2947 17.641 12.46 18C12.2173 18.1385 11.9333 18.1864 11.6587 18.1351C11.384 18.0838 11.1364 17.9367 10.96 17.72C10.6796 17.4313 10.3557 17.1883 10 17C9.88795 16.9233 9.79268 16.8247 9.72 16.71L9.75 16.66Z" fill="#FDFC72"/>
<path d="M15 13.51C15.0846 13.6288 15.1403 13.7656 15.1629 13.9097C15.1855 14.0537 15.1742 14.2011 15.13 14.34C15.05 14.6 14.89 14.72 14.98 14.87C15.07 15.02 15.5 15 15.17 15.31C14.9425 15.5436 14.6873 15.7484 14.41 15.92C14.1195 16.0414 13.8358 16.1782 13.56 16.33C13.01 16.66 13.09 16.75 12.56 17.05C12.03 17.35 12.01 17.51 11.68 17.4C11.5501 17.3769 11.4323 17.3094 11.3466 17.2091C11.2609 17.1088 11.2126 16.9819 11.21 16.85C11.1503 16.7198 11.0835 16.5929 11.01 16.47L10.9 16.33C10.8205 16.2307 10.7772 16.1072 10.7772 15.98C10.7772 15.8528 10.8205 15.7293 10.9 15.63C11.0103 15.4851 11.1306 15.3481 11.26 15.22C11.67 14.85 11.89 14.48 12.13 14.33C12.4427 14.157 12.7855 14.045 13.14 14C13.68 13.9 13.74 13.92 14.14 13.84C14.54 13.76 14.64 13.45 14.79 13.42C14.94 13.39 14.94 13.42 15 13.51Z" fill="#67B2C6"/>
<path d="M14.84 13.4C14.6457 13.6051 14.4195 13.7774 14.17 13.91C12.75 14.17 10.53 15.91 10.99 16.47L10.88 16.33C10.8005 16.2307 10.7572 16.1072 10.7572 15.98C10.7572 15.8528 10.8005 15.7293 10.88 15.63C10.9903 15.4851 11.1106 15.3481 11.24 15.22C11.65 14.85 11.87 14.48 12.11 14.33C12.4288 14.1546 12.7786 14.0425 13.14 14C13.68 13.9 13.74 13.92 14.14 13.84C14.54 13.76 14.69 13.43 14.84 13.4Z" fill="#02917A"/>
<path d="M4.46 33.28C3.8721 32.7072 3.19705 32.2313 2.46 31.87C1.46 31.5 1.3 29.26 1.3 28.64C1.3 28.02 0.710003 25.31 1.3 24C1.89 22.69 3.75 19.89 4 19.89C4.41089 19.7427 4.855 19.7143 5.28131 19.808C5.70762 19.9018 6.09883 20.1139 6.41 20.42C7.84 21.5 9.89 22.3 10.41 22.84C10.93 23.38 13.03 23.73 12.34 28.01C11.65 32.29 14.07 33.01 13.98 34.35C13.89 35.69 12.64 36.41 11.66 37.21C10.8604 37.7545 9.94089 38.0976 8.98 38.21C8.98 38.21 6.43 39 5.98 38.28C5.53 37.56 4.37 36.71 4.73 35.8C4.88386 34.9515 4.79013 34.0766 4.46 33.28Z" fill="#9F9C00"/>
<path d="M4 33.28C3.39696 32.7028 2.70473 32.2267 1.95 31.87C0.940002 31.5 0.760002 29.26 0.760002 28.64C0.760002 28.02 0.170002 25.31 0.760002 24C1.35 22.69 3.26 19.89 3.53 19.89C3.94089 19.7427 4.385 19.7143 4.81131 19.808C5.23762 19.9018 5.62883 20.1139 5.94 20.42C7.37 21.5 9.42 22.3 9.94 22.84C10.46 23.38 12.56 23.73 11.87 28.01C11.18 32.29 13.6 33.01 13.51 34.35C13.42 35.69 12.17 36.41 11.19 37.21C10.3904 37.7545 9.47089 38.0976 8.51 38.21C8.51 38.21 5.96 39 5.51 38.28C5.06 37.56 3.88 36.71 4.24 35.8C4.40335 34.9544 4.32004 34.0796 4 33.28Z" fill="#FDFC72"/>
<path d="M10.32 35.19C9.93516 35.5246 9.52751 35.832 9.10001 36.11L9.00001 36.2L8.81001 36.32C8.30001 36.63 8.02001 36.54 7.88001 36.42C7.69054 36.2655 7.49 36.1251 7.28001 36C7.03971 35.8612 6.81508 35.6969 6.61001 35.51C6.45857 35.3623 6.33344 35.1898 6.24001 35C6.18092 34.8051 6.10043 34.6172 6.00001 34.44C5.94436 34.3362 5.87727 34.2389 5.80001 34.15C5.68001 34.01 5.80001 33.89 5.66001 33.42C5.66363 33.3601 5.66363 33.3 5.66001 33.24C5.52001 32.63 5.57001 32.75 5.38001 32.51C5.30811 32.4318 5.23129 32.3584 5.15001 32.29C4.86697 32.0545 4.59973 31.8006 4.35001 31.53C4.29604 31.4664 4.24595 31.3996 4.20001 31.33C3.99712 31.0143 3.74763 30.7311 3.46001 30.49C3.10449 30.1796 2.7704 29.8455 2.46001 29.49C2.07001 29.06 2.25001 28.35 2.03001 27.82C1.85335 27.2291 1.75913 26.6167 1.75001 26C1.72486 25.8679 1.72486 25.7322 1.75001 25.6C1.82001 25.29 1.98001 24.95 2.10001 24.44C2.18076 24.1428 2.33559 23.871 2.55001 23.65C2.87057 23.315 3.14927 22.9422 3.38001 22.54C3.94001 21.54 3.49001 21.61 5.13001 22.02C5.97604 22.1849 6.78986 22.4854 7.54001 22.91C8.10288 23.1647 8.57906 23.5783 8.91001 24.1C9.42319 24.8268 9.79313 25.6447 10 26.51C10.09 27.35 10.08 28.06 10.11 28.73C10.14 29.4 10.21 30.53 10.37 31.65C10.53 32.77 10.93 33.36 10.97 33.99C10.9802 34.2301 10.9251 34.4684 10.8107 34.6797C10.6962 34.891 10.5266 35.0674 10.32 35.19Z" fill="#67B2C6"/>
<path d="M9.00001 36.2L8.81001 36.32C8.30001 36.63 8.02001 36.54 7.88001 36.42C7.69054 36.2655 7.49 36.1251 7.28001 36C7.03971 35.8612 6.81508 35.6969 6.61001 35.51C6.45857 35.3623 6.33344 35.1898 6.24001 35C6.18092 34.805 6.10043 34.6172 6.00001 34.44C5.94436 34.3362 5.87727 34.2389 5.80001 34.15C5.68001 34.01 5.80001 33.89 5.66001 33.42C5.66363 33.36 5.66363 33.2999 5.66001 33.24C5.52001 32.63 5.57001 32.75 5.38001 32.51C5.30811 32.4318 5.23129 32.3583 5.15001 32.29C4.86697 32.0545 4.59973 31.8006 4.35001 31.53C4.29604 31.4664 4.24595 31.3996 4.20001 31.33C3.99712 31.0143 3.74763 30.7311 3.46001 30.49C3.10449 30.1796 2.7704 29.8455 2.46001 29.49C2.07001 29.06 2.25001 28.35 2.03001 27.82C1.85335 27.2291 1.75913 26.6167 1.75001 26C1.72486 25.8678 1.72486 25.7321 1.75001 25.6C1.82001 25.29 1.98001 24.95 2.10001 24.44C2.18076 24.1428 2.33559 23.871 2.55001 23.65V25.48C2.51234 25.8551 2.57085 26.2337 2.72001 26.58C2.91151 27.0477 3.05557 27.5335 3.15001 28.03C3.09497 28.2775 3.13045 28.5364 3.25001 28.76C3.45001 29.13 3.59001 29.3 3.79001 29.64C3.99001 29.98 3.69001 29.64 4.09001 30.27C4.49001 30.9 4.39001 30.71 4.76001 31.21C5.14981 31.6369 5.58581 32.0193 6.06001 32.35C6.16001 32.45 6.46001 32.51 6.33001 32.85C6.20001 33.19 6.00001 33.45 6.10001 33.69C6.23293 33.9923 6.4117 34.2722 6.63001 34.52C6.92802 34.8062 7.20853 35.1101 7.47001 35.43C7.72242 35.7191 8.04668 35.9364 8.41001 36.06L9.00001 36.2Z" fill="#02917A"/>
<path d="M20 24.86C20.1177 24.8307 20.2208 24.7596 20.29 24.66C20.8813 23.7324 21.6134 22.9024 22.46 22.2C23.13 21.93 24.61 20.79 25.95 21.33C26.5146 21.6415 27.0121 22.0617 27.4137 22.5663C27.8153 23.0708 28.1131 23.6499 28.29 24.27C28.42 24.88 29.43 24.99 27.42 26.48C25.41 27.97 24.7 27.96 23.82 28.76C22.94 29.56 23.18 30 22 30.3C21.4214 30.4377 20.8186 30.4377 20.24 30.3C20.1626 30.2797 20.0908 30.2421 20.03 30.19C19.73 29.92 18.64 28.95 18.64 28.72C18.4237 27.9765 18.4732 27.1809 18.78 26.47C19.15 25.85 19.45 25.32 19.61 25.05C19.6424 24.9899 19.688 24.938 19.7435 24.8981C19.7989 24.8583 19.8627 24.8316 19.93 24.82L20 24.86Z" fill="#9F9C00"/>
<path d="M20 25C20.1177 24.9707 20.2208 24.8996 20.29 24.8C20.884 23.8744 21.6157 23.0448 22.46 22.34C23.13 22.07 24.61 20.93 25.95 21.47C26.516 21.7822 27.0143 22.2038 27.416 22.7102C27.8177 23.2166 28.1148 23.7978 28.29 24.42C28.42 25.02 29.43 25.13 27.42 26.62C25.41 28.11 24.7 28.1 23.82 28.9C22.94 29.7 23.18 30.13 22 30.4C21.4214 30.5377 20.8186 30.5377 20.24 30.4C20.1626 30.3797 20.0908 30.3421 20.03 30.29C19.73 30.02 18.64 29.05 18.64 28.82C18.4237 28.0765 18.4732 27.2809 18.78 26.57C19.15 25.95 19.45 25.42 19.61 25.15C19.658 25.0953 19.7186 25.0531 19.7865 25.027C19.8545 25.0009 19.9277 24.9916 20 25Z" fill="#FDFC72"/>
<path d="M27.37 25C27.19 25.45 27.37 25.13 26.47 25.62C25.57 26.11 26.07 26.01 25 26.62C24.4671 26.8595 23.9851 27.199 23.58 27.62C23.32 27.83 23.16 27.72 23.02 27.93C22.9376 28.0824 22.8834 28.2484 22.86 28.42C22.68 29.27 22.64 29.36 22.04 29.49C21.44 29.62 21.12 29.94 20.67 29.58C20.22 29.22 19.29 29.22 19.46 28.11V27.97C19.4839 27.7242 19.5662 27.4876 19.7 27.28C19.8836 27.1037 20.0357 26.8974 20.15 26.67C20.26 26.42 20.39 26.14 20.51 25.91C20.7629 25.3238 21.2218 24.8506 21.8 24.58C22.56 24.18 22.56 23.73 23.14 23.46C23.72 23.19 23.68 22.66 24.35 22.84C24.791 22.9521 25.2224 23.0992 25.64 23.28C26.31 23.55 26.64 23.42 26.81 24C26.98 24.58 27.55 24.55 27.37 25Z" fill="#67B2C6"/>
<path d="M23 27.86C22.9176 28.0124 22.8634 28.1784 22.84 28.35C22.66 29.2 22.62 29.29 22.02 29.42C21.42 29.55 21.1 29.87 20.65 29.51C20.2 29.15 19.27 29.15 19.44 28.04V27.9L20 28.39C20 28.39 19.95 28.57 20.53 28.75C21.11 28.93 20.66 28.97 21.11 28.93C21.3428 28.9135 21.5703 28.8524 21.78 28.75C21.906 28.6641 22.04 28.5905 22.18 28.53C22.3009 28.4624 22.4065 28.3705 22.49 28.26L23 27.86Z" fill="#02917A"/>
<path d="M14.27 41.64C14.7349 41.2521 15.2719 40.9599 15.85 40.78C17.4207 40.2191 18.951 39.5509 20.43 38.78C21.77 38.24 21.58 37.57 23.52 37.97C25.46 38.37 25.02 37.84 28.89 38.31C30.6948 38.4701 32.4799 38.805 34.22 39.31C34.22 39.31 36.7 41.05 36.22 41.79C34.5315 43.494 32.4507 44.7576 30.16 45.47C27.38 46.28 24.78 46.61 23.57 46.88C22.36 47.15 21.2 47.88 20.07 47.08C18.94 46.28 18.32 45.67 17.42 45.54C16.5699 45.4547 15.7462 45.1961 15 44.78C14.5482 44.4786 14.2153 44.0294 14.0584 43.5094C13.9015 42.9894 13.9303 42.431 14.14 41.93L14.27 41.65V41.64Z" fill="#9F9C00"/>
<path d="M14.17 42.05C14.6378 41.6687 15.174 41.3802 15.75 41.2C17.3211 40.64 18.8514 39.9718 20.33 39.2C21.67 38.67 21.48 38 23.42 38.4C25.36 38.8 24.92 38.27 28.79 38.74C30.5957 38.8936 32.3814 39.2286 34.12 39.74C34.12 39.74 36.6 41.48 36.12 42.22C34.4085 43.9179 32.3073 45.171 30 45.87C27.22 46.67 24.62 47.01 23.41 47.28C22.2 47.55 21.04 48.28 19.91 47.48C18.78 46.68 18.16 46.07 17.26 45.94C16.4329 45.8484 15.6314 45.5971 14.9 45.2C14.4389 44.9041 14.0962 44.4557 13.9318 43.9331C13.7673 43.4104 13.7915 42.8467 14 42.34L14.13 42.05H14.17Z" fill="#FDFC72"/>
<path d="M33.74 42.61L33.31 43.03C32.43 43.82 32.13 43.57 30.96 44.03C29.62 44.53 28.87 44.22 26.96 44.75C25.5388 45.2038 24.0683 45.4858 22.58 45.59C21.3827 45.7982 20.1525 45.7054 19 45.32C18 44.92 17.87 44.92 17.4 44.75C16.9762 44.5682 16.5652 44.3577 16.17 44.12C16.17 44.12 15.31 43.64 15.32 43.12C15.3068 43.0574 15.3068 42.9926 15.32 42.93C15.482 42.5725 15.7705 42.2876 16.13 42.13C16.8236 41.7785 17.5505 41.4971 18.3 41.29C19.74 40.85 20.51 40.08 21.38 39.95C22.3176 39.5739 23.3502 39.5039 24.33 39.75C25.4326 40.0461 26.5511 40.2798 27.68 40.45C28.7277 40.484 29.7766 40.4506 30.82 40.35C31.58 40.35 32.25 40.35 32.76 40.4C33.0127 40.4073 33.2582 40.4859 33.4681 40.6268C33.678 40.7677 33.8438 40.9651 33.9463 41.1962C34.0488 41.4274 34.0838 41.6827 34.0473 41.9329C34.0108 42.1831 33.9043 42.4178 33.74 42.61Z" fill="#67B2C6"/>
<path d="M33.29 43.05C32.41 43.84 32.11 43.59 30.94 44.05C29.6 44.55 28.85 44.24 26.94 44.77C25.5188 45.2238 24.0483 45.5058 22.56 45.61C21.3676 45.8084 20.1446 45.7087 19 45.32C18 44.92 17.87 44.92 17.4 44.75C16.9762 44.5682 16.5652 44.3577 16.17 44.12C16.17 44.12 15.31 43.64 15.32 43.12C15.7093 43.3236 16.118 43.4878 16.54 43.61C17.01 43.61 17.14 43.75 17.68 44.08C18.22 44.41 18.15 44.42 19.15 44.48C20.15 44.54 19.55 44.42 20.76 44.48C21.7763 44.6929 22.8349 44.5518 23.76 44.08C25.22 43.41 25.01 42.92 26.15 43.08C26.9655 43.141 27.7845 43.141 28.6 43.08C29.4785 43.0073 30.3615 43.0073 31.24 43.08C31.9228 43.1342 32.6091 43.1241 33.29 43.05Z" fill="#02917A"/>
<path d="M33.17 31.1C33.089 30.7297 33.0948 30.3457 33.1867 29.9779C33.2786 29.6102 33.4543 29.2687 33.7 28.98L34.42 28.13C34.6204 27.8879 34.8605 27.6816 35.13 27.52C36 27 37.87 25.82 38.55 26C39.44 26.2 40.86 25.83 41.17 26C41.48 26.17 41.65 26 41.92 26.49C42.0501 26.6439 42.1481 26.8223 42.2082 27.0146C42.2684 27.207 42.2894 27.4094 42.27 27.61C42.2947 28.0804 42.2337 28.5514 42.09 29C41.91 29.5 43.34 28.89 41.32 30.61C39.9498 31.7861 38.5069 32.875 37 33.87C36.38 34.26 32.26 36.36 31.95 36.23C31.6478 36.0583 31.3631 35.8573 31.1 35.63C30.9485 35.5164 30.8323 35.3621 30.765 35.1851C30.6978 35.0081 30.6822 34.8156 30.72 34.63C30.8715 33.8357 31.2831 33.1144 31.89 32.58L32.3 32.23C32.4359 32.2244 32.5688 32.1892 32.6896 32.1266C32.8103 32.0641 32.9159 31.9759 32.9988 31.8681C33.0818 31.7604 33.1401 31.6358 33.1697 31.5031C33.1992 31.3704 33.1994 31.2328 33.17 31.1Z" fill="#9F9C00"/>
<path d="M33.44 31.37C33.3573 30.9913 33.3649 30.5984 33.4622 30.2232C33.5595 29.8479 33.7437 29.5008 34 29.21L34.71 28.36C34.915 28.1224 35.1543 27.9168 35.42 27.75C36.27 27.22 38.17 26.09 38.86 26.24C39.75 26.44 41.16 26.07 41.47 26.24C41.78 26.41 41.96 26.24 42.23 26.73C42.3604 26.8834 42.4578 27.062 42.5163 27.2547C42.5748 27.4474 42.5931 27.65 42.57 27.85C42.5984 28.3304 42.5373 28.8119 42.39 29.27C42.21 29.77 43.64 29.16 41.63 30.88C40.2516 32.0726 38.795 33.1717 37.27 34.17C36.65 34.57 32.52 36.67 32.21 36.54C31.9093 36.3658 31.6248 36.165 31.36 35.94C31.2103 35.8252 31.0961 35.6704 31.0306 35.4934C30.9651 35.3165 30.9511 35.1246 30.99 34.94C31.1475 34.1621 31.5591 33.4585 32.16 32.94L32.56 32.59C32.7067 32.5894 32.8512 32.5542 32.9816 32.4871C33.1121 32.42 33.2248 32.323 33.3106 32.2041C33.3965 32.0851 33.4529 31.9475 33.4754 31.8025C33.4979 31.6576 33.4858 31.5094 33.44 31.37Z" fill="#FDFC72"/>
<path d="M41.84 28.13C41.71 28.55 41.52 28.42 41.57 28.93C41.57 29.17 41.57 29.33 41.63 29.44C41.69 29.55 41.63 29.44 41.63 29.5C41.6495 29.5889 41.6495 29.6811 41.63 29.77C41.5437 30.0052 41.3909 30.2102 41.19 30.36C40.8 30.65 40.57 30.89 40.06 31.29C39.55 31.69 39.06 32.04 38.68 32.29C38.3 32.54 37.16 33.29 36.94 33.39H36.86C36.6 33.5 35.07 34.14 34.86 34.28C34.65 34.42 34.06 34.65 33.73 34.8C33.6594 34.8324 33.5827 34.8491 33.505 34.8491C33.4273 34.8491 33.3506 34.8324 33.28 34.8L33.12 34.73C33.0338 34.6938 32.9583 34.6362 32.9006 34.5628C32.8429 34.4893 32.8048 34.4023 32.79 34.31C32.79 34.13 32.64 33.21 33.43 33.01C33.9991 32.9268 34.5386 32.7034 35 32.36C35.0897 32.222 35.1439 32.064 35.1578 31.9C35.1718 31.7361 35.145 31.5712 35.08 31.42C34.92 31.12 34.65 30.89 34.68 30.48C34.7717 30.0761 34.9378 29.6929 35.17 29.35C35.1984 29.3003 35.2357 29.2563 35.28 29.22C35.5724 28.9435 35.9108 28.7202 36.28 28.56C36.78 28.41 37 28.33 37.68 28.11C38.36 27.89 38.06 27.76 38.9 27.7C39.74 27.64 39.6 27.42 40.35 27.45C41.1 27.48 40.94 27.31 41.35 27.45C41.76 27.59 42 27.71 41.84 28.13Z" fill="#67B2C6"/>
<path d="M41.63 29.44C41.63 29.44 41.63 29.44 41.63 29.5C41.6495 29.5889 41.6495 29.6811 41.63 29.77C41.5437 30.0052 41.3909 30.2102 41.19 30.36C40.8 30.65 40.57 30.89 40.06 31.29C39.55 31.69 39.06 32.04 38.68 32.29C38.3 32.54 37.16 33.29 36.94 33.39H36.86C36.6 33.5 35.07 34.14 34.86 34.28C34.65 34.42 34.06 34.65 33.73 34.8C33.6594 34.8324 33.5827 34.8491 33.505 34.8491C33.4274 34.8491 33.3506 34.8324 33.28 34.8L33.12 34.73C33.0338 34.6938 32.9583 34.6362 32.9006 34.5627C32.8429 34.4893 32.8048 34.4023 32.79 34.31C33.3299 34.1648 33.8554 33.9706 34.36 33.73C36.36 32.73 37.65 32.55 38.7 31.73C39.5075 31.2328 40.2733 30.6709 40.99 30.05C41.1882 29.8314 41.4021 29.6275 41.63 29.44Z" fill="#02917A"/>
<path d="M32.56 14.21C32.7913 13.9272 32.9215 13.5752 32.93 13.21C32.9033 12.8145 32.9618 12.418 33.1016 12.0471C33.2413 11.6761 33.459 11.3395 33.74 11.06C34.74 10.32 33.44 8.90999 35.9 9.31999C37.4966 9.45004 39.023 10.0328 40.3 11C41.07 11.6 42.3 12.75 42.76 13.15C42.8597 13.2379 42.9472 13.3388 43.02 13.45L44.85 16.24C45.2474 16.8746 45.4134 17.6271 45.32 18.37C45.2649 19.2626 45.1038 20.1455 44.84 21C44.8127 21.0809 44.7959 21.1649 44.79 21.25C44.79 21.48 44.49 22.09 42.34 22.6C40.5421 23.0953 38.6999 23.4135 36.84 23.55C36.01 23.55 34.74 23.86 33.74 23.55C32.9357 23.1778 32.1071 22.8604 31.26 22.6C31.06 22.7 29.38 22.89 29.32 21.6C29.26 20.31 28.98 19.2 29.05 18.33C29.1899 17.5823 29.4357 16.8583 29.78 16.18C29.9319 15.85 30.1885 15.5793 30.51 15.41L32.05 14.6C32.2474 14.497 32.4211 14.3539 32.56 14.18V14.21Z" fill="#9F9C00"/>
<path d="M32.91 13.56C33.1434 13.2791 33.2708 12.9252 33.27 12.56C33.2445 12.1623 33.3045 11.7637 33.4459 11.3911C33.5874 11.0185 33.807 10.6806 34.09 10.4C35.09 9.66 33.78 8.26 36.24 8.66C37.838 8.79014 39.3667 9.36904 40.65 10.33C41.42 10.94 42.65 12.08 43.11 12.48C43.2123 12.5691 43.3001 12.6737 43.37 12.79L45.2 15.57C45.5974 16.2047 45.7634 16.9571 45.67 17.7C45.6165 18.5993 45.4554 19.489 45.19 20.35C45.1795 20.433 45.1795 20.517 45.19 20.6C45.19 20.83 44.89 21.44 42.74 21.95C40.9412 22.4565 39.0946 22.7749 37.23 22.9C36.41 22.85 35.14 23.21 34.14 22.9C33.3144 22.5523 32.4697 22.2518 31.61 22C31.41 22.1 29.73 22.29 29.67 21C29.61 19.71 29.33 18.6 29.4 17.72C29.5399 16.9723 29.7857 16.2483 30.13 15.57C30.2819 15.24 30.5385 14.9693 30.86 14.8L32.4 14C32.5974 13.897 32.7711 13.754 32.91 13.58V13.56Z" fill="#FDFC72"/>
<path d="M43.77 20.06C43.7452 20.1483 43.7452 20.2417 43.77 20.33C43.82 20.48 43.77 20.75 43.04 20.89C42.3626 21.0799 41.6634 21.1807 40.96 21.19C40.22 21.19 38.48 21.27 38.25 21.29H38.19L35.85 21.75H34.74C34.68 21.7492 34.6208 21.7364 34.5659 21.7123C34.5109 21.6883 34.4613 21.6535 34.42 21.61L33.66 20.8C33.6293 20.7593 33.5877 20.7281 33.54 20.71C33.1264 20.5068 32.6708 20.404 32.21 20.41C31.8735 20.4067 31.5378 20.4436 31.21 20.52C31.1227 20.5448 31.0298 20.5406 30.9451 20.5082C30.8603 20.4757 30.7884 20.4167 30.74 20.34C30.6916 20.2695 30.6671 20.1854 30.67 20.1C30.7372 19.686 30.7372 19.264 30.67 18.85C30.7287 18.2329 30.8735 17.627 31.1 17.05C31.2106 16.6815 31.398 16.3407 31.65 16.05C32.0016 15.6221 32.4462 15.2801 32.95 15.05C33.0616 14.994 33.1789 14.9504 33.3 14.92C33.69 14.86 33.49 14.99 34.1 14.59C34.3141 14.453 34.5063 14.2845 34.67 14.09C34.7198 14.0295 34.7525 13.9569 34.7648 13.8795C34.7771 13.8022 34.7686 13.7229 34.74 13.65C34.6734 13.4879 34.6362 13.3152 34.63 13.14V12.45C34.625 12.4035 34.625 12.3565 34.63 12.31V12.13C34.6497 11.9428 34.69 11.7584 34.75 11.58C34.8032 11.4421 34.8667 11.3083 34.94 11.18L35.08 10.94C35.1196 10.8806 35.1706 10.8296 35.23 10.79C35.6126 10.5565 36.0518 10.4321 36.5 10.43C36.7802 10.4294 37.0581 10.4803 37.32 10.58L37.46 10.63H37.56C38.1095 10.7112 38.6447 10.8694 39.15 11.1C39.4073 11.2041 39.6578 11.3243 39.9 11.46C40.3991 11.7389 40.8111 12.1509 41.09 12.65C41.2279 12.9192 41.4067 13.1655 41.62 13.38C41.9071 13.5657 42.1693 13.7876 42.4 14.04C42.7045 14.4645 42.9627 14.9205 43.17 15.4C43.6588 16.1401 44.0425 16.9444 44.31 17.79C44.3888 18.2043 44.3179 18.6331 44.11 19C43.9789 19.3474 43.8654 19.7012 43.77 20.06Z" fill="#67B2C6"/>
<path d="M44.13 19L43.53 18.17C43.3912 17.8941 43.2774 17.6063 43.19 17.31C43.06 16.82 42.92 16.92 42.42 16.08C41.92 15.24 41.92 15.78 40.42 14.65C38.92 13.52 39.95 14.24 39.42 13.38C38.89 12.52 38.88 12.77 38.54 12.01C38.5084 11.9117 38.4564 11.8212 38.3872 11.7445C38.3181 11.6678 38.2335 11.6067 38.139 11.5651C38.0445 11.5235 37.9422 11.5024 37.839 11.5033C37.7357 11.5041 37.6338 11.5269 37.54 11.57H36.24C35.79 11.57 34.75 11.57 34.76 11.57C34.8132 11.4321 34.8767 11.2984 34.95 11.17L35.09 10.93C35.1296 10.8706 35.1806 10.8196 35.24 10.78C35.6226 10.5465 36.0618 10.4221 36.51 10.42C36.7902 10.4194 37.0682 10.4703 37.33 10.57L37.47 10.62H37.57C38.1195 10.7012 38.6547 10.8594 39.16 11.09C39.4173 11.1941 39.6678 11.3143 39.91 11.45C40.4091 11.7289 40.8211 12.1409 41.1 12.64C41.2379 12.9092 41.4167 13.1555 41.63 13.37C41.9172 13.5558 42.1793 13.7776 42.41 14.03C42.7145 14.4545 42.9727 14.9105 43.18 15.39C43.6688 16.1301 44.0525 16.9344 44.32 17.78C44.4043 18.1963 44.3369 18.629 44.13 19Z" fill="#02917A"/>
<path opacity="0.2" d="M43.52 40.9C41.2549 43.5053 38.4625 45.6 35.3276 47.0457C32.1926 48.4914 28.7864 49.2551 25.3343 49.2863C21.8822 49.3175 18.4628 48.6154 15.3022 47.2266C12.1416 45.8379 9.3118 43.7939 7 41.23L7.54 40.51C14.78 30.89 27.72 20.76 43.05 40.31L43.52 40.9Z" fill="#F5FF25"/>
</g>
<defs>
<clipPath id="clip0_1_231">
<rect width="50" height="50" fill="white"/>
</clipPath>
</defs>
</svg>
