<svg width="50" height="50" viewBox="0 0 50 50" fill="none" xmlns="http://www.w3.org/2000/svg">
<g clip-path="url(#clip0_1_13)">
<path d="M25 50C38.8071 50 50 38.8071 50 25C50 11.1929 38.8071 0 25 0C11.1929 0 0 11.1929 0 25C0 38.8071 11.1929 50 25 50Z" fill="#B7D970"/>
<path d="M39.16 10.81C39.1625 15.2648 37.9746 19.6394 35.7192 23.4811C33.4638 27.3228 30.2229 30.4921 26.3317 32.661C22.4405 34.8299 18.0404 35.9196 13.5868 35.8175C9.13313 35.7154 4.78766 34.425 1 32.08C0.324753 29.7811 -0.0121145 27.396 7.88161e-07 25C-0.000302713 20.5482 1.18814 16.1771 3.44251 12.3383C5.69689 8.49956 8.93542 5.33239 12.8235 3.1641C16.7115 0.99581 21.108 -0.0949491 25.5587 0.00453574C30.0093 0.104021 34.3527 1.39014 38.14 3.73C38.8176 6.0289 39.1611 8.41331 39.16 10.81Z" fill="#D7FF84"/>
<path d="M39.23 8.57H39.06C39.12 9.3 39.16 10.04 39.16 10.79C39.16 11.3 39.16 11.79 39.16 12.31H39.28C39.5391 12.3289 39.7993 12.2942 40.0444 12.208C40.2894 12.1218 40.5141 11.986 40.7043 11.8092C40.8946 11.6323 41.0463 11.4181 41.1501 11.1799C41.2538 10.9418 41.3074 10.6848 41.3074 10.425C41.3074 10.1652 41.2538 9.90825 41.1501 9.67009C41.0463 9.43194 40.8946 9.21774 40.7043 9.04085C40.5141 8.86397 40.2894 8.7282 40.0444 8.64202C39.7993 8.55585 39.5391 8.52112 39.28 8.54L39.23 8.57Z" fill="#A8C465"/>
<path d="M39.06 8.59C38.5974 8.6379 38.169 8.85558 37.8575 9.20096C37.546 9.54634 37.3736 9.99492 37.3736 10.46C37.3736 10.9251 37.546 11.3736 37.8575 11.719C38.169 12.0644 38.5974 12.2821 39.06 12.33C39.06 11.83 39.06 11.33 39.06 10.81C39.16 10.06 39.12 9.32 39.06 8.59Z" fill="#E1E691"/>
<path d="M5.62 30.84C7.41493 30.84 8.87 29.4521 8.87 27.74C8.87 26.0279 7.41493 24.64 5.62 24.64C3.82508 24.64 2.37 26.0279 2.37 27.74C2.37 29.4521 3.82508 30.84 5.62 30.84Z" fill="#E1E691"/>
<path d="M12.6288 9.25546C13.9598 8.21406 14.6994 6.93613 14.2808 6.40112C13.8622 5.86611 12.4439 6.27661 11.1129 7.31801C9.78187 8.3594 9.04222 9.63733 9.46082 10.1723C9.87942 10.7073 11.2978 10.2968 12.6288 9.25546Z" fill="#E1E691"/>
<path d="M23.44 47.3C25.9695 47.3 28.02 45.9121 28.02 44.2C28.02 42.4879 25.9695 41.1 23.44 41.1C20.9105 41.1 18.86 42.4879 18.86 44.2C18.86 45.9121 20.9105 47.3 23.44 47.3Z" fill="#A8C465"/>
<path d="M47.3048 33.7743C48.7913 30.8251 48.6051 27.733 46.8888 26.868C45.1725 26.0029 42.5762 27.6924 41.0896 30.6416C39.6031 33.5909 39.7894 36.6829 41.5056 37.548C43.2219 38.4131 45.8182 36.7235 47.3048 33.7743Z" fill="#A8C465"/>
</g>
<defs>
<clipPath id="clip0_1_13">
<rect width="50" height="50" fill="white"/>
</clipPath>
</defs>
</svg>
