<svg width="50" height="51" viewBox="0 0 50 51" fill="none" xmlns="http://www.w3.org/2000/svg">
<g clip-path="url(#clip0_1_84)">
<path d="M49.63 25.15C49.63 25.57 49.63 25.98 49.63 26.38C49.413 30.8322 48.0151 35.1464 45.58 38.88C42.9538 42.8839 39.233 46.0493 34.86 48C33.5889 48.5589 32.2746 49.0137 30.93 49.36C27.0716 50.3381 23.0344 50.3724 19.16 49.46C17.0298 48.9456 14.9758 48.1556 13.05 47.11C9.46714 45.1451 6.42053 42.3319 4.17686 38.9168C1.93319 35.5016 0.560859 31.5885 0.18 27.52C0.11 26.74 0.0699997 26 0.0699997 25.15C0.0713653 23.2001 0.299566 21.2571 0.75 19.36C1.36153 16.7577 2.39161 14.272 3.8 12C5.28313 9.59155 7.16298 7.45136 9.36 5.66998C9.71 5.38998 10.07 5.11998 10.44 4.84998C13.5661 2.58278 17.185 1.08862 21 0.489979C22.274 0.295078 23.5611 0.198127 24.85 0.199979C29.9744 0.188799 34.973 1.78735 39.14 4.76998C40.2048 5.52596 41.208 6.36526 42.14 7.27998C46.6216 11.677 49.2848 17.5994 49.6 23.87C49.62 24.29 49.63 24.72 49.63 25.15Z" fill="#411210"/>
<path opacity="0.45" d="M49.63 25.15C49.63 25.57 49.63 25.98 49.63 26.38C49.413 30.8322 48.0151 35.1464 45.58 38.88C42.9538 42.8839 39.233 46.0493 34.86 48C33.5889 48.5589 32.2746 49.0137 30.93 49.36C27.0716 50.3381 23.0344 50.3724 19.16 49.46C17.0298 48.9456 14.9758 48.1556 13.05 47.11C9.46714 45.1451 6.42053 42.3319 4.17686 38.9168C1.93319 35.5016 0.560859 31.5885 0.18 27.52C0.11 26.74 0.0699997 26 0.0699997 25.15C0.0713653 23.2001 0.299566 21.2571 0.75 19.36C1.36153 16.7577 2.39161 14.272 3.8 12C5.28313 9.59155 7.16298 7.45136 9.36 5.66998C9.71 5.38998 10.07 5.11998 10.44 4.84998C13.5661 2.58278 17.185 1.08862 21 0.489979C22.274 0.295078 23.5611 0.198127 24.85 0.199979C29.9744 0.188799 34.973 1.78735 39.14 4.76998C40.2048 5.52596 41.208 6.36526 42.14 7.27998C46.6216 11.677 49.2848 17.5994 49.6 23.87C49.62 24.29 49.63 24.72 49.63 25.15Z" fill="#D03000"/>
<g opacity="0.63">
<path opacity="0.63" d="M42.17 7.36C40.3395 8.71742 38.2332 9.65621 36 10.11C33.7925 10.6013 31.5412 10.8694 29.28 10.91C27.0572 10.9336 24.8489 11.2703 22.72 11.91C21.6856 12.2347 20.7196 12.7465 19.87 13.42C19.0609 14.0951 18.4666 14.9918 18.16 16V15.88V15.93V16C17.7152 18.2107 17.9488 20.5043 18.83 22.58C19.6384 24.738 20.5974 26.8365 21.7 28.86C22.77 30.86 23.95 32.86 25.15 34.86C25.74 35.86 26.37 36.86 26.94 37.86C27.5093 38.8851 28.0234 39.94 28.48 41.02H28.39C27.25 39.02 25.9 37.11 24.56 35.18C23.22 33.25 21.98 31.28 20.82 29.24C19.6434 27.1879 18.6657 25.0281 17.9 22.79C17.0163 20.5183 16.8454 18.0313 17.41 15.66V15.78V15.8V15.74C17.776 14.6 18.472 13.5942 19.41 12.85C20.3375 12.1397 21.3886 11.6074 22.51 11.28C24.7073 10.6719 26.9804 10.3823 29.26 10.42C31.5211 10.4456 33.779 10.2446 36 9.82C38.1945 9.42931 40.2767 8.5623 42.1 7.28L42.17 7.36Z" fill="white"/>
</g>
<g opacity="0.71">
<path opacity="0.71" d="M11.26 23.54L8.89 19.44C8.04379 18.0876 7.48235 16.5768 7.24 15C7.00115 13.4065 7.05878 11.7825 7.41 10.21C7.75593 8.63044 8.31788 7.1061 9.08 5.67998V5.59998L9.16 5.53998L10.24 4.67998L10.18 4.72998C10.9653 4.13302 11.7981 3.60125 12.67 3.13998C13.5361 2.67189 14.4352 2.26749 15.36 1.92998C17.2185 1.21918 19.1741 0.794355 21.16 0.669983V0.769983C19.3101 1.25125 17.5037 1.88681 15.76 2.66998C14.89 3.04998 14.07 3.51998 13.24 3.96998C12.41 4.41998 11.63 4.96998 10.85 5.48998L10.91 5.42998L9.84 6.20998L9.95 6.07998C8.30257 8.69224 7.56106 11.7743 7.84 14.85C8.01746 16.3871 8.49301 17.8749 9.24 19.23L11.38 23.42L11.26 23.54Z" fill="white"/>
</g>
<path d="M0.75 30.48C1.17 34.71 4.04 38.48 8.35 39.23C11.22 39.59 14.27 38.51 15.35 35.62C15.8385 34.4925 15.9264 33.2317 15.5989 32.0473C15.2714 30.863 14.5484 29.8264 13.55 29.11C12.518 28.3804 11.2578 28.0467 10 28.17C9.3787 28.2466 8.79582 28.5118 8.33 28.93C8.1608 29.0436 8.03571 29.2119 7.97565 29.4066C7.91558 29.6014 7.92418 29.8108 8 30C8.72 31.45 10.9 33.54 8.75 34.44C8.45304 34.6279 8.11183 34.7342 7.76073 34.7482C7.40962 34.7622 7.06101 34.6835 6.75 34.52C4.6 33.26 4.6 30.52 5.5 28.74C7.5 25.55 11.97 25.32 14.94 27.35C15.81 27.94 16.67 28.55 17.57 29.1C25.8585 34.1739 34.8432 38.011 44.24 40.49" stroke="white" stroke-miterlimit="10"/>
<path d="M4.92 9.99999V9.91999H5V9.84999L5.09 9.72999L5.28 9.48999L5.67 8.99999C5.93 8.68999 6.2 8.36999 6.48 8.06999C7.05517 7.43243 7.66616 6.82812 8.31 6.25999C8.93324 5.70739 9.58407 5.18672 10.26 4.69999C10.93 4.19999 11.66 3.76999 12.37 3.32999L12.27 3.38999H12.34C17.0085 0.716858 22.3996 -0.420128 27.75 0.13999C30.4623 0.342721 33.1038 1.10182 35.51 2.36999C37.8863 3.64994 39.9812 5.39449 41.67 7.49999L41.21 7.26999L41.59 7.37999L41.68 7.49999C42.5285 8.57464 43.2406 9.75026 43.8 11L43.56 11.18C42.56 10.33 41.56 9.52999 40.49 8.76999L41 8.99999H40.85L40.53 8.77999C38.5623 7.33986 36.4431 6.11927 34.21 5.13999C32.0209 4.15192 29.7399 3.38154 27.4 2.83999C25.007 2.35831 22.5513 2.27048 20.13 2.57999C17.6788 2.88278 15.2881 3.55718 13.04 4.57999L13.14 4.51999H13.07C12.36 4.85999 11.63 5.19999 10.95 5.59999C10.27 5.99999 9.58 6.43999 8.95 6.90999C8.32 7.37999 7.56 7.90999 7 8.43999C6.69 8.69999 6.39 8.96999 6.09 9.24999L5.66 9.67999L5.44 9.88999L5.34 9.99999V10.06C5.34 10.06 5.4 9.91999 5.34 9.97999L4.92 9.99999Z" fill="white"/>
<path d="M27.23 7.59C27.14 7.33 27.61 6.96 28.79 7.17C31.14 7.6 31.04 8.17 31.36 8.67C31.54 9.58 30.08 9.98 28.18 10C27.83 10 27.46 10 27.08 10C24.31 9.65 21.56 9.16 19.75 7.95C19.54 7.8 19.35 7.66 19.18 7.52C16.71 5.52 18.35 3.76 22.6 3.28C29.21 2.54 37.6 5.37 40.32 8.37V8.42C43.13 11.57 39.32 13.67 33.19 13.98C30.5135 14.1019 27.8316 13.9376 25.19 13.49C23.6231 13.241 22.0708 12.9072 20.54 12.49H20.49C18.1411 11.8567 15.8803 10.9329 13.76 9.74C13.1425 9.35749 12.5542 8.92965 12 8.46C11.0309 7.75971 10.2481 6.8327 9.72 5.76C9.72 5.69 9.72 5.63 9.65 5.57V5.5C9.64532 5.47018 9.64532 5.43981 9.65 5.41" stroke="white" stroke-miterlimit="10"/>
<path d="M21.25 17C22.2182 17.3454 23.2262 17.5672 24.25 17.66C27.82 18.02 35.03 18.3 40.18 15.54C47.27 11.75 40.09 23.77 35.67 24.35C31.25 24.93 23.16 22.82 20.9 19.11C19.39 16.66 20.41 16.72 21.25 17Z" stroke="white" stroke-miterlimit="10"/>
<path d="M8.56 44.1C8.56 44.1 15.19 40.28 19.24 38.53C21.1366 37.7035 23.207 37.3552 25.2697 37.5156C27.3323 37.676 29.324 38.3402 31.07 39.45C34.67 41.62 40.32 44.63 40.32 44.63" stroke="white" stroke-miterlimit="10"/>
<path d="M48.47 17.59C48.47 17.65 48.4 17.7 48.37 17.75C48.09 18.22 47.85 18.65 47.64 19.03C47.51 19.26 47.41 19.47 47.32 19.66C45.89 22.71 42.32 26.53 36.15 27.91C35.8 27.98 35.44 28.06 35.08 28.11C30.6396 28.7498 26.1119 28.3702 21.84 27C21.29 26.84 20.76 26.67 20.25 26.48L19.86 26.34C19.15 26.07 18.47 25.78 17.86 25.48C13.1776 23.3571 9.47507 19.5367 7.5 14.79V14.73L7.38 14.41C6.65896 12.6876 6.21676 10.8614 6.07 9V9" stroke="white" stroke-miterlimit="10"/>
<path opacity="0.33" d="M50 25.17C49.87 25.59 49.74 25.99 49.6 26.38C49.383 30.8322 47.9851 35.1464 45.55 38.88C37.22 44.1 28.55 38.33 26.77 36.25C24.77 33.89 23.34 29.07 20.53 26.65C20.3053 26.4661 20.0604 26.3085 19.8 26.18C17.99 25.27 14.46 24.67 11.16 23.27C9.71726 22.6899 8.36909 21.8978 7.16 20.92C6.05285 20.0106 5.16306 18.8651 4.55575 17.5674C3.94843 16.2698 3.63897 14.8527 3.65 13.42C3.64017 12.9422 3.69057 12.4651 3.8 12C5.28313 9.59155 7.16298 7.45136 9.36 5.66998C9.71 5.38998 10.07 5.11998 10.44 4.84998C12.3675 3.777 14.3732 2.85104 16.44 2.07998C18 1.48998 19.51 0.999979 21 0.489979C22.274 0.295078 23.5611 0.198127 24.85 0.199979C29.9744 0.188799 34.973 1.78735 39.14 4.76998C39.82 5.76998 40.54 6.76998 41.26 7.87998C44.45 12.71 47.82 18.55 49.59 23.88C49.74 24.31 49.88 24.74 50 25.17Z" fill="url(#paint0_linear_1_84)"/>
<g opacity="0.63">
<path opacity="0.63" d="M45.63 38.83C44.1934 39.7797 42.6083 40.4827 40.94 40.91C39.2301 41.2714 37.4699 41.3289 35.74 41.08C33.9935 40.869 32.2996 40.3439 30.74 39.53C29.9675 39.1194 29.2373 38.6337 28.56 38.08C27.867 37.5488 27.2628 36.9109 26.77 36.19L26.85 36.12C28.196 37.117 29.6482 37.9622 31.18 38.64C32.6772 39.354 34.246 39.9071 35.86 40.29C37.5059 40.628 39.1987 40.672 40.86 40.42C42.5228 40.1291 44.1251 39.5612 45.6 38.74L45.63 38.83Z" fill="white"/>
</g>
<path opacity="0.33" d="M17.78 15.82C16.96 18.45 17.78 21.98 19.78 26.18C21.5577 29.7823 23.5826 33.2572 25.84 36.58C26.7984 37.9974 27.6668 39.4736 28.44 41C29.8094 43.5789 30.6556 46.403 30.93 49.31C27.0716 50.2881 23.0344 50.3224 19.16 49.41L20 48.12C21 46.45 21 44.12 20.27 41.5C18.79 35.9 14.42 28.82 11.21 23.27C10.12 21.39 9.21 19.69 8.5 18.27C8.01081 17.2164 7.6741 16.0985 7.5 14.95C7.0543 11.7354 7.70987 8.46453 9.36 5.66998C9.71 5.38998 10.07 5.11998 10.44 4.84998C13.5661 2.58278 17.185 1.08862 21 0.489979C22.274 0.295078 23.5611 0.198127 24.85 0.199979C29.9744 0.188799 34.973 1.78735 39.14 4.76998C40.2048 5.52596 41.208 6.36526 42.14 7.27998C41.87 7.47998 41.58 7.68998 41.27 7.87998C38.83 9.42998 35 10.53 29.48 10.61C22.38 10.71 18.82 12.61 17.8 15.82H17.78Z" fill="#FF6B45"/>
<path opacity="0.33" d="M50 25.17C49.87 25.59 49.74 25.99 49.6 26.38C47.82 31.38 44.77 33.89 39.6 30.6C25.6 21.6 39.87 15.94 29.43 10.6C27.6865 9.74672 25.869 9.05386 24 8.52998C19.43 7.16998 16.07 7.09998 13.61 7.80998C9.7 8.91998 8.06 12 7.42 15C7.02465 16.9749 6.94365 18.9998 7.18 21C7.23 21.42 7.27 21.65 7.27 21.65C7.27 21.65 14.19 32 14.29 41C14.3283 42.4103 14.1427 43.8178 13.74 45.17C13.52 45.89 13.29 46.5566 13.05 47.17C11.465 46.2784 9.9828 45.2153 8.63 44C9.92 41.35 8.63 36.2 3.63 28.45C3.34028 27.9832 3.07978 27.499 2.85 27C1.74827 24.5882 1.03932 22.0157 0.75 19.38C1.35948 16.7708 2.38962 14.2782 3.8 12C5.28313 9.59155 7.16298 7.45136 9.36 5.66998C9.71 5.38998 10.07 5.11998 10.44 4.84998C13.5661 2.58278 17.185 1.08862 21 0.489979C22.274 0.295078 23.5611 0.198127 24.85 0.199979C29.9744 0.188799 34.973 1.78735 39.14 4.76998C40.2048 5.52596 41.208 6.36526 42.14 7.27998C46.6216 11.677 49.2848 17.5994 49.6 23.87C49.74 24.31 49.88 24.74 50 25.17Z" fill="#FF6B45"/>
<path opacity="0.33" d="M50 25.17C49.87 25.59 49.74 25.99 49.6 26.38C49.4596 29.4879 48.7335 32.5414 47.46 35.38C43.4328 35.1169 39.6285 33.4378 36.72 30.64C34.72 28.29 33.29 23.46 30.47 21.04C28.63 19.46 22.15 19.04 17.78 15.83C16.4889 14.9341 15.4348 13.7378 14.7084 12.3443C13.982 10.9507 13.605 9.4015 13.61 7.82998C13.6415 6.72952 13.9087 5.64861 14.3934 4.66015C14.8782 3.6717 15.5692 2.79868 16.42 2.09998L17.16 1.43998C18.4128 1.02214 19.6969 0.704475 21 0.489979C22.274 0.295078 23.5611 0.198127 24.85 0.199979C29.9744 0.188799 34.973 1.78735 39.14 4.76998C40.2048 5.52596 41.208 6.36526 42.14 7.27998C46.6216 11.677 49.2848 17.5994 49.6 23.87C49.74 24.31 49.88 24.74 50 25.17Z" fill="url(#paint1_linear_1_84)"/>
<path opacity="0.33" d="M34.86 48C33.5889 48.5589 32.2746 49.0137 30.93 49.36C27.0716 50.3381 23.0344 50.3724 19.16 49.46C17.0298 48.9456 14.9758 48.1556 13.05 47.11C9.46714 45.1451 6.42053 42.332 4.17686 38.9168C1.93319 35.5016 0.560857 31.5885 0.179998 27.52C1.04485 27.236 1.9418 27.0614 2.85 27C3.92736 26.8963 5.01312 27.0755 6 27.52C12.6 30.63 10.67 37.68 14.32 40.95C14.5584 41.1622 14.8124 41.3561 15.08 41.53C17.03 42.75 18.45 42.18 20.25 41.53C22.8264 40.3702 25.7356 40.1819 28.44 41C29.9072 41.4262 31.3277 41.9991 32.68 42.71C33.1744 42.9092 33.624 43.2052 34.0024 43.5806C34.3808 43.956 34.6804 44.4033 34.8835 44.8961C35.0866 45.389 35.1891 45.9174 35.1851 46.4504C35.181 46.9834 35.0705 47.5103 34.86 48Z" fill="#FF6B45"/>
<path d="M0.179998 27.5C2.06284 26.7398 4.16716 26.7398 6.05 27.5C7.89953 28.3515 9.41007 29.7986 10.34 31.61C11.1563 33.4404 11.8251 35.3331 12.34 37.27C12.5712 38.2108 12.9991 39.0921 13.5954 39.8556C14.1918 40.6192 14.9431 41.2478 15.8 41.7C16.6783 42.0875 17.6694 42.1338 18.58 41.83C19.51 41.56 20.42 41.14 21.39 40.83C23.3276 40.1973 25.399 40.0937 27.39 40.53C29.3535 41.0075 31.2414 41.7546 33 42.75C33.9218 43.2271 34.6343 44.0286 35 45C35.2797 45.9887 35.2306 47.0416 34.86 48C35.1698 47.0581 35.1698 46.0418 34.86 45.1C34.4554 44.2146 33.7454 43.5046 32.86 43.1C31.1108 42.1811 29.2432 41.5081 27.31 41.1C25.3933 40.6713 23.3963 40.7681 21.53 41.38C20.59 41.67 19.67 42.07 18.68 42.38C17.6705 42.6955 16.5798 42.6242 15.62 42.18C14.6799 41.7315 13.8758 41.0412 13.29 40.18C12.7093 39.3093 12.2736 38.3502 12 37.34C11.5225 35.409 10.8904 33.5196 10.11 31.69C9.23443 29.9089 7.78744 28.4725 6 27.61C4.14732 26.84 2.06821 26.8185 0.199998 27.55L0.179998 27.5Z" fill="white"/>
<path opacity="0.45" d="M49.56 25.24C49.56 25.66 49.56 26.07 49.56 26.48C49.41 29.5866 48.6843 32.6383 47.42 35.48C46.0423 38.6081 44.0298 41.4158 41.5101 43.7254C38.9905 46.035 36.0185 47.796 32.7826 48.8969C29.5467 49.9978 26.1175 50.4145 22.7121 50.1207C19.3067 49.8269 15.9995 48.8289 13 47.19C9.41861 45.2237 6.37206 42.4119 4.12549 38.9994C1.87893 35.5869 0.500437 31.677 0.109999 27.61C-6.70552e-07 26.83 -6.7252e-07 26 -6.7252e-07 25.24C-0.0100744 20.5911 1.28206 16.0322 3.73 12.08C5.20867 9.67405 7.0893 7.53974 9.29 5.77C9.64 5.48 10 5.21 10.37 4.94C12.4176 3.45603 14.6851 2.30204 17.09 1.52C18.3646 1.09724 19.6725 0.782791 21 0.579998C22.2509 0.388631 23.5145 0.291691 24.78 0.289998C29.9037 0.28353 34.9008 1.88163 39.07 4.86C42.1445 7.05372 44.682 9.91555 46.4919 13.2305C48.3018 16.5455 49.3371 20.2275 49.52 24C49.55 24.38 49.56 24.81 49.56 25.24Z" fill="#D03000"/>
</g>
<defs>
<linearGradient id="paint0_linear_1_84" x1="9.08" y1="20.08" x2="43.07" y2="20.87" gradientUnits="userSpaceOnUse">
<stop stop-color="white"/>
<stop offset="1" stop-color="#FF6B45"/>
</linearGradient>
<linearGradient id="paint1_linear_1_84" x1="13.61" y1="17.78" x2="50" y2="17.78" gradientUnits="userSpaceOnUse">
<stop stop-color="#FF6B45"/>
<stop offset="1" stop-color="white"/>
</linearGradient>
<clipPath id="clip0_1_84">
<rect width="50" height="50.2" fill="white"/>
</clipPath>
</defs>
</svg>
