<svg width="50" height="50" viewBox="0 0 50 50" fill="none" xmlns="http://www.w3.org/2000/svg">
<g clip-path="url(#clip0_1_50)">
<path d="M50 25C50.0007 28.962 49.0597 32.8675 47.2546 36.3945C45.4494 39.9214 42.8319 42.9688 39.6177 45.2855C36.4035 47.6021 32.6847 49.1216 28.7679 49.7188C24.8511 50.3159 20.8485 49.9736 17.09 48.72C16.256 47.4382 14.959 46.5282 13.47 46.18C12.7718 45.979 12.046 45.8913 11.32 45.92C6.68522 42.8881 3.18841 38.403 1.37849 33.1687C-0.431434 27.9344 -0.452004 22.2473 1.32001 17C3.02001 16.61 4.23001 15.6 4.18001 14.48C4.14843 14.1493 4.03499 13.8317 3.84993 13.5559C3.66486 13.28 3.41401 13.0546 3.12001 12.9C5.34124 8.88132 8.62633 5.55201 12.6149 3.27724C16.6036 1.00248 21.1416 -0.12986 25.7313 0.00443355C30.3211 0.138727 34.7852 1.53446 38.6339 4.03855C42.4827 6.54263 45.5675 10.0583 47.55 14.2L47.37 14.34C46.7747 14.8241 46.3246 15.4631 46.069 16.1865C45.8135 16.91 45.7625 17.69 45.9218 18.4405C46.081 19.1911 46.4442 19.8832 46.9714 20.4407C47.4986 20.9981 48.1695 21.3993 48.91 21.6C49.1127 21.6583 49.3202 21.6984 49.53 21.72H49.79C49.9315 22.8076 50.0016 23.9033 50 25Z" fill="#FFECE1"/>
<path d="M49.59 25C49.5867 28.8939 48.6594 32.7315 46.8843 36.1973C45.1092 39.6632 42.5371 42.6583 39.3793 44.9366C36.2214 47.215 32.568 48.7114 28.7193 49.3031C24.8705 49.8947 20.9364 49.5647 17.24 48.34C16.4235 47.0799 15.1515 46.1842 13.69 45.84C13.0006 45.6472 12.2854 45.5629 11.57 45.59C7.00396 42.6078 3.55729 38.194 1.77092 33.0413C-0.0154403 27.8885 -0.0403821 22.2885 1.70001 17.12C3.38001 16.74 4.57001 15.74 4.52001 14.64C4.48691 14.3239 4.37893 14.0202 4.20502 13.7541C4.03111 13.488 3.79629 13.2672 3.52001 13.11C5.70505 9.15981 8.93531 5.88735 12.8568 3.65121C16.7783 1.41508 21.2396 0.301582 25.752 0.432748C30.2643 0.563915 34.6535 1.93468 38.4384 4.39483C42.2234 6.85498 45.2581 10.3096 47.21 14.38L47.03 14.53C46.447 15.0068 46.0067 15.635 45.7572 16.3456C45.5077 17.0563 45.4589 17.8219 45.6159 18.5585C45.7729 19.2951 46.1298 19.9742 46.6474 20.5213C47.165 21.0684 47.8233 21.4624 48.55 21.66C48.7493 21.7182 48.9535 21.7584 49.16 21.78H49.41C49.5364 22.8486 49.5965 23.924 49.59 25Z" fill="#6FBBC4"/>
<path d="M37.7113 44.4938C39.8548 43.2145 40.7895 40.8318 39.7988 39.1719C38.8082 37.5121 36.2674 37.2036 34.1238 38.483C31.9802 39.7623 31.0456 42.145 32.0362 43.8049C33.0269 45.4647 35.5677 45.7732 37.7113 44.4938Z" fill="#D7F0EE"/>
<path d="M37.855 44.7311C39.9938 43.4546 40.9682 41.1473 40.0313 39.5775C39.0944 38.0078 36.6011 37.7701 34.4623 39.0466C32.3234 40.3231 31.349 42.6305 32.2859 44.2002C33.2228 45.77 35.7161 46.0077 37.855 44.7311Z" fill="#1B403D"/>
<path d="M37.7257 44.5274C39.8645 43.2509 40.8389 40.9436 39.902 39.3738C38.9652 37.8041 36.4718 37.5664 34.333 38.8429C32.1942 40.1194 31.2198 42.4268 32.1566 43.9965C33.0935 45.5662 35.5869 45.804 37.7257 44.5274Z" fill="#1C5955"/>
<path d="M36.9431 43.208C38.8163 42.0899 39.7498 40.2033 39.0281 38.994C38.3063 37.7846 36.2026 37.7106 34.3294 38.8286C32.4561 39.9467 31.5226 41.8333 32.2444 43.0426C32.9661 44.252 35.0698 44.326 36.9431 43.208Z" fill="#2A867F"/>
<path d="M49.32 25C49.3209 29.7847 47.9259 34.4657 45.306 38.4694C42.686 42.473 38.9549 45.6254 34.57 47.54C34.94 46.87 35.22 46.33 35.57 45.61C36.5374 45.5336 37.4696 45.2137 38.28 44.68C40.42 43.41 41.35 41.02 40.36 39.36C40.36 39.36 40.36 39.36 40.3 39.29L40.25 39.18C40.25 39.18 40.25 39.18 40.19 39.11C40.1627 39.0713 40.1326 39.0345 40.1 39C39.7143 38.389 39.1036 37.9543 38.4 37.79C39.1854 34.7436 39.681 31.6297 39.88 28.49C42.71 28.06 44.88 26.39 45.38 24.05C45.4699 23.5238 45.4699 22.9862 45.38 22.46C45.18 19.8 42.71 17.32 39.28 16.46C38.4992 11.5612 36.9003 6.82856 34.55 2.46001C40.0201 4.84483 44.4424 9.12858 47 14.52C46.3446 15.0621 45.8702 15.7912 45.64 16.61C45.3548 17.6615 45.4977 18.7832 46.0374 19.7296C46.5772 20.676 47.4698 21.3701 48.52 21.66C48.7193 21.7182 48.9235 21.7584 49.13 21.78C49.2642 22.848 49.3277 23.9237 49.32 25Z" fill="#5B99A1"/>
<path d="M15.6031 12.2778C16.7667 11.5448 17.2493 10.2194 16.6812 9.31758C16.113 8.41571 14.7092 8.27883 13.5457 9.01184C12.3821 9.74484 11.8995 11.0702 12.4676 11.972C13.0358 12.8739 14.4396 13.0108 15.6031 12.2778Z" fill="#D7F0EE"/>
<path d="M15.3988 11.9732C16.5576 11.2431 17.0628 9.96185 16.527 9.11139C15.9912 8.26093 14.6174 8.16332 13.4586 8.89339C12.2997 9.62345 11.7946 10.9047 12.3303 11.7552C12.8661 12.6057 14.2399 12.7033 15.3988 11.9732Z" fill="#1B403D"/>
<path d="M15.4804 12.0921C16.6393 11.362 17.1444 10.0808 16.6087 9.23029C16.0729 8.37982 14.6991 8.28222 13.5402 9.01228C12.3813 9.74235 11.8762 11.0236 12.412 11.8741C12.9478 12.7246 14.3216 12.8222 15.4804 12.0921Z" fill="#1C5955"/>
<path d="M15.4995 12.1781C16.5229 11.54 17.0203 10.4899 16.6105 9.83271C16.2007 9.17549 15.0389 9.16 14.0155 9.79811C12.9921 10.4362 12.4947 11.4863 12.9045 12.1435C13.3143 12.8007 14.4761 12.8162 15.4995 12.1781Z" fill="#2A867F"/>
<path d="M10.6421 38.8008C11.7933 37.9059 11.2317 35.2576 9.38774 32.8856C7.54382 30.5135 5.11585 29.316 3.96472 30.2109C2.81358 31.1057 3.37519 33.754 5.21911 36.1261C7.06304 38.4981 9.49101 39.6956 10.6421 38.8008Z" fill="#D7F0EE"/>
<path d="M10.3561 39.0263C11.4418 38.1823 10.8272 35.5752 8.98326 33.2032C7.13933 30.8311 4.76438 29.5924 3.67866 30.4364C2.59293 31.2804 3.20756 33.8875 5.05148 36.2596C6.8954 38.6316 9.27035 39.8703 10.3561 39.0263Z" fill="#1B403D"/>
<path d="M10.5109 38.9095C11.5966 38.0655 10.982 35.4584 9.13804 33.0864C7.29412 30.7143 4.91917 29.4756 3.83344 30.3196C2.74771 31.1636 3.36235 33.7707 5.20627 36.1428C7.05019 38.5148 9.42514 39.7535 10.5109 38.9095Z" fill="#1C5955"/>
<path d="M10.5519 38.014C11.3891 37.3632 10.7598 35.1531 9.1464 33.0775C7.53297 31.002 5.54635 29.847 4.70916 30.4978C3.87197 31.1486 4.50124 33.3588 6.11467 35.4343C7.7281 37.5098 9.71472 38.6648 10.5519 38.014Z" fill="#2A867F"/>
<path d="M32.3088 6.06805C32.7195 3.92553 30.5548 1.70997 27.4739 1.11947C24.393 0.528972 21.5625 1.78714 21.1519 3.92967C20.7413 6.07219 22.9059 8.28775 25.9868 8.87825C29.0677 9.46875 31.8982 8.21058 32.3088 6.06805Z" fill="#D7F0EE"/>
<path d="M32.3359 6.30381C32.7466 4.16129 30.5467 1.93899 27.4224 1.34017C24.2981 0.741357 21.4325 1.99278 21.0219 4.13531C20.6112 6.27783 22.8111 8.50013 25.9354 9.09895C29.0596 9.69776 31.9253 8.44634 32.3359 6.30381Z" fill="#1B403D"/>
<path d="M32.2733 6.17651C32.6839 4.03399 30.5192 1.81843 27.4383 1.22793C24.3574 0.637431 21.527 1.8956 21.1163 4.03812C20.7057 6.18065 22.8704 8.39621 25.9513 8.98671C29.0322 9.57721 31.8626 8.31904 32.2733 6.17651Z" fill="#1C5955"/>
<path d="M31.6178 5.66891C31.9879 3.73792 30.0542 1.74442 27.2987 1.21629C24.5433 0.688171 22.0095 1.82542 21.6394 3.7564C21.2693 5.68739 23.203 7.68089 25.9585 8.20901C28.7139 8.73714 31.2477 7.59989 31.6178 5.66891Z" fill="#2A867F"/>
<path d="M44.8877 23.6761C45.4532 20.7254 42.4732 17.6743 38.2315 16.8613C33.9898 16.0484 30.0928 17.7813 29.5273 20.7321C28.9617 23.6828 31.9418 26.7339 36.1835 27.5468C40.4251 28.3598 44.3221 26.6268 44.8877 23.6761Z" fill="#D7F0EE"/>
<path d="M44.9289 24.0041C45.4944 21.0534 42.466 17.993 38.1647 17.1686C33.8633 16.3442 29.918 18.0679 29.3524 21.0186C28.7869 23.9694 31.8153 27.0297 36.1166 27.8541C40.418 28.6785 44.3633 26.9548 44.9289 24.0041Z" fill="#1B403D"/>
<path d="M44.8594 23.8238C45.4249 20.8731 42.4448 17.822 38.2032 17.009C33.9615 16.1961 30.0645 17.929 29.499 20.8798C28.9334 23.8305 31.9135 26.8816 36.1552 27.6945C40.3968 28.5075 44.2938 26.7745 44.8594 23.8238Z" fill="#1C5955"/>
<path d="M43.9647 23.1379C44.4751 20.4746 41.8066 17.7249 38.0042 16.9961C34.2019 16.2673 30.7058 17.8355 30.1953 20.4988C29.6849 23.162 32.3534 25.9118 36.1557 26.6406C39.958 27.3693 43.4542 25.8011 43.9647 23.1379Z" fill="#2A867F"/>
<path d="M25.5524 35.7746C27.74 33.9655 27.5333 30.1045 25.0907 27.1508C22.648 24.1971 18.8945 23.2692 16.7069 25.0783C14.5193 26.8874 14.726 30.7484 17.1686 33.7021C19.6113 36.6558 23.3648 37.5837 25.5524 35.7746Z" fill="#D7F0EE"/>
<path d="M25.3736 36.0269C27.5612 34.2178 27.3288 30.3258 24.8545 27.3338C22.3802 24.3418 18.6009 23.3829 16.4133 25.192C14.2257 27.0011 14.4582 30.8931 16.9325 33.8851C19.4068 36.8771 23.186 37.836 25.3736 36.0269Z" fill="#1B403D"/>
<path d="M25.4527 35.8577C27.6403 34.0486 27.4336 30.1876 24.991 27.2339C22.5483 24.2802 18.7948 23.3523 16.6072 25.1614C14.4196 26.9705 14.6263 30.8315 17.0689 33.7852C19.5116 36.7389 23.2651 37.6668 25.4527 35.8577Z" fill="#1C5955"/>
<path d="M25.2475 34.8504C27.2223 33.2172 27.0513 29.7508 24.8656 27.1078C22.6799 24.4648 19.3071 23.6461 17.3323 25.2792C15.3575 26.9123 15.5285 30.3788 17.7142 33.0218C19.8999 35.6648 23.2727 36.4835 25.2475 34.8504Z" fill="#2A867F"/>
<path d="M10.3255 21.9099C11.7321 21.3985 12.5802 20.1802 12.2197 19.1889C11.8593 18.1975 10.4268 17.8084 9.02022 18.3198C7.61361 18.8312 6.76552 20.0495 7.12596 21.0408C7.4864 22.0322 8.91887 22.4213 10.3255 21.9099Z" fill="#D7F0EE"/>
<path d="M10.2837 21.8096C11.7111 21.2906 12.576 20.0663 12.2155 19.0749C11.8551 18.0835 10.4058 17.7005 8.97843 18.2195C7.55106 18.7385 6.68614 19.9628 7.04658 20.9542C7.40702 21.9456 8.85633 22.3285 10.2837 21.8096Z" fill="#1B403D"/>
<path d="M10.303 21.8691C11.7096 21.3577 12.5577 20.1395 12.1972 19.1481C11.8368 18.1567 10.4043 17.7677 8.99773 18.2791C7.59112 18.7905 6.74303 20.0087 7.10347 21.0001C7.46391 21.9915 8.89638 22.3806 10.303 21.8691Z" fill="#1C5955"/>
<path d="M10.3621 21.8505C11.6234 21.392 12.3812 20.2923 12.0547 19.3944C11.7283 18.4964 10.4411 18.1402 9.17986 18.5988C7.91858 19.0574 7.16077 20.157 7.48725 21.055C7.81372 21.9529 9.10084 22.3091 10.3621 21.8505Z" fill="#2A867F"/>
</g>
<defs>
<clipPath id="clip0_1_50">
<rect width="50" height="50" fill="white"/>
</clipPath>
</defs>
</svg>
