<svg width="51" height="51" viewBox="0 0 51 51" fill="none" xmlns="http://www.w3.org/2000/svg">
<g clip-path="url(#clip0_1_168)">
<path d="M25.48 49.7C38.884 49.7 49.75 38.8563 49.75 25.48C49.75 12.1037 38.884 1.26001 25.48 1.26001C12.0761 1.26001 1.21002 12.1037 1.21002 25.48C1.21002 38.8563 12.0761 49.7 25.48 49.7Z" fill="#FF3B22" stroke="black" stroke-width="0.25" stroke-miterlimit="10"/>
<path d="M46.3 37.37C43.1509 42.7209 38.1022 46.6896 32.1589 48.4859C26.2157 50.2822 19.814 49.7743 14.2283 47.0634C8.64258 44.3525 4.2827 39.6375 2.01668 33.857C-0.249349 28.0765 -0.255294 21.6547 2.00002 15.87L2.36002 16.43L2.44002 16.55C3.35493 17.8847 4.35712 19.1575 5.44002 20.36C6.60739 21.642 7.84602 22.8573 9.15002 24C10.6385 25.3056 12.2011 26.5243 13.83 27.65C16.6736 29.5839 19.6858 31.2574 22.83 32.65C23.98 33.16 25.1 33.65 26.26 34.09C27.8067 34.6633 29.3567 35.16 30.91 35.58H30.98C35.9509 37.0281 41.1292 37.6332 46.3 37.37Z" fill="#FF4C36"/>
<path d="M25.18 50.13C22.3965 50.1266 19.6327 49.6637 17 48.76C16.955 48.7438 16.9139 48.7183 16.8794 48.6851C16.8449 48.6519 16.8178 48.6119 16.7999 48.5675C16.7819 48.5231 16.7736 48.4755 16.7753 48.4277C16.7771 48.3799 16.7889 48.3329 16.81 48.29C18.31 45.29 20.21 41.29 20.74 38.57C20.8177 38.3056 20.8346 38.0271 20.7896 37.7553C20.7446 37.4834 20.6388 37.2252 20.48 37C20.1437 36.7064 19.7482 36.4884 19.3204 36.3607C18.8925 36.2331 18.4423 36.1987 18 36.26C16.0251 36.3636 14.0736 36.7371 12.2 37.37C11.6429 37.6103 11.0463 37.7459 10.44 37.77C10.0215 37.8122 9.60329 37.6879 9.27578 37.424C8.94827 37.1601 8.73783 36.7779 8.69001 36.36C8.63001 36.03 8.59001 35.62 8.55001 35.19C8.35001 33.13 8.08001 30.31 5.69001 30.31H5.28001C3.92866 30.6106 2.64621 31.1636 1.50001 31.94C1.45599 31.9666 1.40638 31.9825 1.35513 31.9865C1.30388 31.9904 1.25241 31.9824 1.20481 31.963C1.15722 31.9436 1.11482 31.9133 1.081 31.8746C1.04718 31.8359 1.02287 31.7898 1.01001 31.74H1.00001C-0.745232 25.3408 0.110279 18.5111 3.38001 12.74C3.40908 12.6902 3.45068 12.6489 3.50069 12.6202C3.55069 12.5915 3.60735 12.5764 3.66501 12.5764C3.72267 12.5764 3.77932 12.5915 3.82933 12.6202C3.87933 12.6489 3.92094 12.6902 3.95001 12.74H4.00001C4.45295 13.4954 4.84743 14.2844 5.18001 15.1C5.95001 16.97 7.09001 17.92 8.57001 17.92C9.42846 17.8479 10.2613 17.5917 11.0119 17.1689C11.7625 16.7462 12.4133 16.1667 12.92 15.47C13.61 14.06 13.92 11.91 13.12 10.47C12.7589 9.97244 12.2729 9.57909 11.7109 9.32973C11.149 9.08038 10.5312 8.98388 9.92001 9.05C8.96061 9.05684 8.02082 8.77838 7.22001 8.25C7.18405 8.21902 7.1552 8.18065 7.13543 8.13751C7.11565 8.09437 7.10542 8.04746 7.10542 8C7.10542 7.95254 7.11565 7.90564 7.13543 7.8625C7.1552 7.81935 7.18405 7.78098 7.22001 7.75C11.0291 3.82468 16.0162 1.25106 21.4226 0.420707C26.8289 -0.409645 32.3585 0.548723 37.17 3.15C37.2291 3.18051 37.2773 3.22869 37.3077 3.28783C37.3382 3.34698 37.3495 3.41415 37.34 3.48C36.82 7.56 37.34 8.76 37.71 9.11C39.6999 11.0109 41.2761 13.302 42.34 15.84C42.77 16.97 41.82 18.93 40.72 21.2C39.62 23.47 38.37 26.04 38.97 27.2C39.0843 27.3882 39.242 27.5463 39.4299 27.6611C39.6178 27.7759 39.8304 27.8441 40.05 27.86C41.0777 28.0326 42.1179 28.1195 43.16 28.12C45.3963 28.1065 47.6167 27.7421 49.74 27.04C49.7925 27.023 49.8483 27.0193 49.9025 27.0294C49.9567 27.0396 50.0075 27.0631 50.0503 27.0979C50.0931 27.1327 50.1264 27.1777 50.1474 27.2287C50.1683 27.2797 50.176 27.3352 50.17 27.39C49.9604 29.7241 49.4218 32.0168 48.57 34.2C48.5407 34.2771 48.4827 34.34 48.4082 34.3754C48.3336 34.4108 48.2483 34.416 48.17 34.39C47.0856 34.0854 46.068 33.58 45.17 32.9C44.6507 32.4309 43.9797 32.1646 43.28 32.15C42.9442 32.1583 42.6096 32.1951 42.28 32.26C41.9399 32.3258 41.6174 32.4622 41.3332 32.6602C41.049 32.8583 40.8095 33.1137 40.63 33.41C38.95 36.02 40.11 42.07 40.69 44.55V44.79L40.56 44.89C36.1665 48.3128 30.7494 50.1584 25.18 50.13ZM26 38.2C25.93 38.2 25.73 38.48 25.6 39.07C25.4384 39.6718 25.4296 40.3044 25.5746 40.9104C25.7195 41.5164 26.0136 42.0765 26.43 42.54C27.3659 43.2375 28.5139 43.5907 29.68 43.54C31.82 43.54 34.13 42.68 34.92 41.54C35.1858 40.7063 35.1432 39.8049 34.8 39C34.6779 38.6357 34.462 38.3099 34.1742 38.0554C33.8863 37.8009 33.5365 37.6266 33.16 37.55C33.0403 37.5373 32.9197 37.5373 32.8 37.55C32.7218 37.5261 32.6382 37.5261 32.56 37.55C32.49 37.63 32.56 37.97 32.56 38.19C32.6309 38.4421 32.6497 38.706 32.6153 38.9656C32.5809 39.2252 32.494 39.475 32.36 39.7C32.0515 40.0432 31.6206 40.2515 31.16 40.28H31.1C30.87 40.28 30.64 40.28 30.42 40.28C29.6532 40.2797 28.8947 40.1205 28.1925 39.8124C27.4903 39.5043 26.8595 39.054 26.34 38.49L26.29 38.43C26.2137 38.3365 26.1264 38.2526 26.03 38.18L26 38.2ZM16.92 23.77C16.5727 23.7812 16.2317 23.8664 15.92 24.02C15.3689 24.3034 14.9269 24.761 14.6628 25.3217C14.3988 25.8824 14.3275 26.5146 14.46 27.12C14.88 29.3 17.12 35 22 35C23.5847 34.9432 25.1278 34.4782 26.48 33.65C29.75 31.82 30.26 30.65 30.12 29.94C29.81 28.41 26 27.46 22.54 27.08C22.0781 27.0271 21.6317 26.881 21.2278 26.6507C20.8239 26.4204 20.4708 26.1106 20.19 25.74C19.6132 24.9897 18.8612 24.3923 18 24C17.6611 23.8454 17.2925 23.7669 16.92 23.77ZM6.74001 21C6.67824 20.9801 6.61178 20.9801 6.55001 21C6.1476 21.1086 5.80033 21.3637 5.57644 21.7153C5.35255 22.0668 5.26821 22.4894 5.34001 22.9C5.71001 24.5 7.04001 26.53 7.58001 26.53C7.58001 26.53 7.67001 26.48 7.71001 26.39C8.02899 25.8521 8.40809 25.3522 8.84001 24.9C9.47001 24.18 10.26 23.27 10.19 22.73C10.1795 22.6494 10.1505 22.5723 10.1055 22.5047C10.0604 22.4371 10.0003 22.3807 9.93001 22.34C8.95075 21.7149 7.87189 21.2617 6.74001 21ZM27.16 17.39C26.45 17.91 24.71 19.48 24.79 20.75C24.8255 21.0424 24.9363 21.3205 25.1116 21.5572C25.2869 21.7938 25.5207 21.9809 25.79 22.1C28.2037 23.2816 30.8435 23.9296 33.53 24H33.59C34.7252 23.8524 35.7655 23.2895 36.51 22.42C36.6892 22.11 36.7942 21.7626 36.8167 21.4053C36.8393 21.0479 36.7788 20.6901 36.64 20.36C35.37 16.54 33.95 14.61 32.42 14.61C31.982 14.6248 31.5565 14.7597 31.19 15C28.62 16.53 27.38 17.24 27.16 17.36V17.39ZM15.86 20.17C15.9194 20.1824 15.9807 20.1824 16.04 20.17C17.21 20.17 19.9 18.54 20.45 17.84C20.486 17.7979 20.5104 17.7473 20.5209 17.6929C20.5314 17.6386 20.5277 17.5825 20.51 17.53C20.2 16.65 18.64 14.53 17.66 14.53C17.6138 14.5203 17.5662 14.5203 17.52 14.53C16.7 14.75 16.7 16.53 16.77 17.09V17.21L16.71 17.31C16.195 18.139 15.8991 19.0853 15.85 20.06L15.86 20.17ZM23.68 5.17C22.9966 5.20023 22.3264 5.36815 21.7095 5.66371C21.0926 5.95927 20.5418 6.37637 20.09 6.89C20.0133 6.96978 19.9569 7.06686 19.9255 7.17303C19.8942 7.2792 19.8889 7.39134 19.91 7.5C19.9299 7.60475 19.9748 7.70313 20.041 7.78673C20.1072 7.87032 20.1926 7.93664 20.29 7.98C22.7359 8.82806 25.3116 9.24097 27.9 9.2C28.6051 9.2087 29.3092 9.14165 30 9C30.0524 8.98751 30.1011 8.96274 30.142 8.92775C30.183 8.89276 30.215 8.84854 30.2355 8.79874C30.256 8.74894 30.2644 8.69497 30.26 8.6413C30.2555 8.58762 30.2384 8.53577 30.21 8.49C28.6935 6.67272 26.5544 5.48553 24.21 5.16C24.0335 5.15076 23.8566 5.15076 23.68 5.16V5.17Z" fill="#3B73B0" stroke="black" stroke-width="0.25" stroke-miterlimit="10"/>
<path d="M49.33 27.51C46.2954 28.4635 43.0803 28.6963 39.94 28.19C35.31 27.38 42.94 18.46 41.94 15.96C40.9011 13.4634 39.3512 11.2118 37.39 9.35001C36.56 8.54001 36.6 6.08001 36.9 3.65001C36.906 3.5859 36.8931 3.52145 36.8629 3.46459C36.8327 3.40773 36.7865 3.36095 36.73 3.33001C32.0561 0.869519 26.7188 -0.0344465 21.4953 0.749787C16.2719 1.53402 11.4353 3.96549 7.69002 7.69001C7.65604 7.72588 7.63056 7.76893 7.61544 7.81597C7.60032 7.86301 7.59597 7.91285 7.60268 7.9618C7.6094 8.01075 7.62703 8.05757 7.65426 8.0988C7.68149 8.14003 7.71763 8.17462 7.76002 8.20001C8.42866 8.54202 9.16899 8.72024 9.92002 8.72001C14.71 8.82001 14.32 13.32 13.18 15.64C12.5 17 7.18002 21.02 4.83002 15.25C4.58609 14.6289 4.30903 14.0214 4.00002 13.43C3.97095 13.3802 3.92934 13.3389 3.87934 13.3102C3.82933 13.2815 3.77268 13.2664 3.71502 13.2664C3.65736 13.2664 3.6007 13.2815 3.5507 13.3102C3.50069 13.3389 3.45909 13.3802 3.43002 13.43C3.04002 14.16 2.68002 14.91 2.36002 15.68C0.32504 20.6124 -0.0608132 26.0704 1.26002 31.24C1.272 31.288 1.29495 31.3326 1.32709 31.3703C1.35923 31.408 1.39966 31.4377 1.44522 31.457C1.49077 31.4764 1.5402 31.485 1.58962 31.482C1.63904 31.4791 1.6871 31.4647 1.73002 31.44C2.79952 30.7514 3.98556 30.2634 5.23002 30C8.93002 29.58 8.67002 34.31 9.01002 36.3C9.35002 38.29 11.88 37.13 12.07 37.05C12.46 36.92 21.99 33.76 21.07 38.63C20.1646 41.9184 18.8933 45.0949 17.28 48.1C17.257 48.1405 17.2434 48.1856 17.2402 48.2321C17.2371 48.2785 17.2444 48.3251 17.2617 48.3683C17.279 48.4116 17.3058 48.4504 17.3401 48.4818C17.3745 48.5133 17.4154 48.5366 17.46 48.55C21.2981 49.8045 25.3841 50.1041 29.3641 49.4228C33.3441 48.7414 37.0978 47.0997 40.3 44.64C39.6759 42.1413 39.3602 39.5755 39.36 37C39.45 34.48 40.14 32.34 42.14 31.94C45.03 31.36 44.73 32.94 47.92 33.94C47.9983 33.966 48.0837 33.9608 48.1582 33.9254C48.2327 33.89 48.2907 33.8271 48.32 33.75C49.0452 31.8354 49.5224 29.8358 49.74 27.8C49.7375 27.7518 49.724 27.7047 49.7007 27.6624C49.6773 27.6201 49.6447 27.5836 49.6053 27.5557C49.5658 27.5278 49.5205 27.5092 49.4729 27.5013C49.4252 27.4934 49.3764 27.4964 49.33 27.51ZM37 20.22C38.11 23.56 34 24.22 33.65 24.3C30.8978 24.2499 28.1904 23.5943 25.72 22.38C22.49 20.56 26.72 17.32 27.04 17.11C27.2 17.03 28.41 16.34 31.04 14.71C33.88 12.94 35.79 16.73 37 20.22ZM19.85 6.66001C20.3911 6.03136 21.0744 5.54097 21.8432 5.22963C22.612 4.91829 23.444 4.795 24.27 4.87001C27.45 5.28001 30.36 7.52001 30.77 8.87001C31.13 10.01 23.13 9.68001 20.15 8.30001C19.9982 8.23507 19.8649 8.13355 19.7619 8.00452C19.6589 7.87549 19.5894 7.72297 19.5597 7.56056C19.53 7.39815 19.5409 7.23091 19.5916 7.07377C19.6423 6.91663 19.731 6.77448 19.85 6.66001ZM16.39 17.26C16.4099 17.1982 16.4099 17.1318 16.39 17.07C16.39 16.6 16.26 14.55 17.39 14.25C18.52 13.95 20.67 16.76 20.83 17.63C20.99 18.5 15.52 21.56 15.48 20.11C15.5312 19.0972 15.8448 18.1151 16.39 17.26ZM8.00002 26.54C7.35002 27.86 5.44002 24.8 5.00002 23C4.89324 22.5575 4.94977 22.0913 5.1592 21.6871C5.36864 21.283 5.71691 20.9679 6.14002 20.8L6.54002 20.63C6.5991 20.6152 6.66093 20.6152 6.72002 20.63C7.93111 20.9152 9.08444 21.4056 10.13 22.08C10.9 22.64 10.44 23.49 9.74002 24.37C9.10229 25.0451 8.52038 25.7708 8.00002 26.54ZM35.2 41.76C33.84 43.64 28.61 44.81 26.2 42.76C24.4 41.24 25.26 37.23 26.2 37.91C26.332 38.0137 26.4526 38.131 26.56 38.26C27.1127 38.8905 27.8097 39.3781 28.5915 39.6811C29.3733 39.984 30.2168 40.0935 31.05 40H31.13C33.7 39.67 30.85 36.85 33.22 37.26C35.59 37.67 35.7 41.07 35.2 41.76ZM14.28 27.87C14.2104 27.6468 14.1536 27.4197 14.11 27.19C13.9612 26.5117 14.0414 25.8032 14.3381 25.1753C14.6349 24.5474 15.1314 24.0356 15.75 23.72C16.1201 23.5313 16.5296 23.4328 16.945 23.4328C17.3604 23.4328 17.77 23.5313 18.14 23.72C19.0338 24.1185 19.8166 24.7296 20.42 25.5C20.6738 25.8362 20.9937 26.117 21.36 26.3251C21.7263 26.5332 22.1313 26.6642 22.55 26.71C26.85 27.18 35.44 28.95 26.61 33.9L26.34 34.05C18.71 38.14 15.21 31.15 14.28 27.87Z" fill="#73B6FF"/>
<path d="M49.33 27.51C46.2954 28.4635 43.0803 28.6963 39.94 28.19C35.31 27.38 42.94 18.46 41.94 15.96C40.9011 13.4634 39.3512 11.2118 37.39 9.35001C36.56 8.54001 36.6 6.08001 36.9 3.65001C36.906 3.5859 36.8931 3.52145 36.8629 3.46459C36.8327 3.40773 36.7865 3.36095 36.73 3.33001C32.0561 0.869519 26.7188 -0.0344465 21.4953 0.749787C16.2719 1.53402 11.4353 3.96549 7.69002 7.69001C7.65604 7.72588 7.63055 7.76893 7.61544 7.81597C7.60032 7.86301 7.59596 7.91285 7.60268 7.9618C7.6094 8.01075 7.62703 8.05757 7.65426 8.0988C7.68149 8.14003 7.71763 8.17462 7.76002 8.20001C8.42865 8.54202 9.16899 8.72024 9.92002 8.72001C14.71 8.82001 14.32 13.32 13.18 15.64C12.5 17 7.18002 21.02 4.83002 15.25C4.58609 14.6289 4.30902 14.0214 4.00002 13.43C3.97095 13.3802 3.92934 13.3389 3.87934 13.3102C3.82933 13.2815 3.77268 13.2664 3.71502 13.2664C3.65736 13.2664 3.6007 13.2815 3.5507 13.3102C3.50069 13.3389 3.45908 13.3802 3.43002 13.43C3.04002 14.16 2.68002 14.91 2.36002 15.68C3.45563 17.5021 4.72128 19.2164 6.14002 20.8L6.54002 20.63C6.5991 20.6152 6.66093 20.6152 6.72002 20.63C7.93111 20.9152 9.08444 21.4056 10.13 22.08C10.9 22.64 10.44 23.49 9.74002 24.37C11.1779 25.6345 12.6943 26.8068 14.28 27.88C14.2104 27.6568 14.1536 27.4297 14.11 27.2C13.9612 26.5217 14.0414 25.8132 14.3381 25.1853C14.6349 24.5574 15.1314 24.0456 15.75 23.73C16.1201 23.5413 16.5296 23.4428 16.945 23.4428C17.3604 23.4428 17.77 23.5413 18.14 23.73C19.0338 24.1285 19.8165 24.7396 20.42 25.51C20.6738 25.8462 20.9937 26.127 21.36 26.3351C21.7263 26.5432 22.1312 26.6742 22.55 26.72C26.85 27.19 35.44 28.96 26.61 33.91L26.34 34.06C30.5228 35.6175 34.8947 36.6095 39.34 37.01C39.43 34.49 40.12 32.35 42.12 31.95C45.01 31.37 44.71 32.95 47.9 33.95C47.9783 33.976 48.0637 33.9708 48.1382 33.9354C48.2127 33.9 48.2707 33.8371 48.3 33.76C49.0252 31.8454 49.5024 29.8458 49.72 27.81C49.7182 27.7631 49.7061 27.7171 49.6846 27.6754C49.663 27.6337 49.6326 27.5972 49.5954 27.5686C49.5581 27.5399 49.5151 27.5198 49.4692 27.5097C49.4234 27.4996 49.3758 27.4997 49.33 27.51ZM15.53 20.11C15.5661 19.1017 15.8624 18.12 16.39 17.26C16.4099 17.1982 16.4099 17.1318 16.39 17.07C16.39 16.6 16.26 14.55 17.39 14.25C18.52 13.95 20.67 16.76 20.83 17.63C20.99 18.5 15.57 21.56 15.53 20.11ZM20.15 8.27001C20.0038 8.20344 19.8757 8.10262 19.7767 7.97608C19.6777 7.84954 19.6107 7.701 19.5812 7.54305C19.5518 7.38509 19.5609 7.22237 19.6076 7.06866C19.6544 6.91495 19.7376 6.77478 19.85 6.66001C20.3911 6.03136 21.0744 5.54097 21.8432 5.22963C22.612 4.91829 23.444 4.795 24.27 4.87001C27.45 5.28001 30.36 7.52001 30.77 8.87001C31.13 10 23.13 9.65001 20.15 8.27001ZM33.61 24.27C30.8578 24.2199 28.1504 23.5644 25.68 22.35C22.45 20.53 26.68 17.29 27 17.08C27.16 17 28.37 16.31 31 14.68C33.86 12.94 35.77 16.73 36.94 20.22C38.11 23.71 34 24.24 33.61 24.3V24.27Z" fill="#68A2E6"/>
</g>
<defs>
<clipPath id="clip0_1_168">
<rect width="50.25" height="50.25" fill="white"/>
</clipPath>
</defs>
</svg>
