<svg width="50" height="50" viewBox="0 0 50 50" fill="none" xmlns="http://www.w3.org/2000/svg">
<g clip-path="url(#clip0_1_357)">
<path d="M45.16 25.35C45.1585 24.6519 45.1218 23.9544 45.05 23.26C47.35 20.97 50.99 16.92 49.75 15.26C48.51 13.6 44.47 13.96 41.75 14.31C40.6617 12.7422 39.3513 11.3409 37.86 10.15C38 7.70999 37.74 5.41999 36.49 4.99999C35.24 4.57999 33.49 5.57999 31.78 6.81999C29.7109 6.1445 27.5465 5.80684 25.37 5.81999C25.08 5.81999 24.8 5.81999 24.51 5.81999C22.77 2.99999 20.07 -0.590013 18.25 0.0799874C16.03 0.889987 15.15 6.25999 14.86 8.76999C12.6665 10.134 10.758 11.9101 9.24 14C6.86 13.79 4.65 13.94 4.14 15.14C3.55 16.53 4.75 18.81 6.14 20.77C5.77394 22.2691 5.58928 23.8068 5.59 25.35V25.62C3.44 27.78 -1.19 32.84 0.280001 34.67C1.49 36.17 5.56 35.84 8.38 35.4C9.3436 36.9871 10.5251 38.4312 11.89 39.69C13.14 43.26 15.67 49.17 18.89 49.9C22.31 50.68 25.73 46.9 27.26 44.84C31.1139 44.4797 34.778 42.9987 37.8 40.58C40.89 41.37 44.29 41.77 45.68 40.31C48.13 37.74 45.43 31.38 44.68 29.72C45.0035 28.286 45.1646 26.8201 45.16 25.35Z" fill="#B08DEB"/>
<path d="M44.58 25C44.5788 24.3119 44.5421 23.6243 44.47 22.94C46.71 20.66 50.24 16.67 49 15C47.76 13.33 43.88 13.71 41.2 14.06C40.1529 12.5324 38.8897 11.1649 37.45 9.99997C37.59 7.59997 37.38 5.33997 36.16 4.93997C34.94 4.53997 33.22 5.50997 31.58 6.72997C29.5761 6.05537 27.4743 5.71746 25.36 5.72997H24.53C22.83 2.99997 20.22 -0.580027 18.44 0.0799731C16.29 0.869973 15.44 6.16997 15.15 8.63997C13.0129 9.98636 11.1611 11.7396 9.7 13.8C7.38 13.58 5.24 13.74 4.7 14.92C4.13 16.28 5.3 18.53 6.63 20.47C6.28351 21.9547 6.11566 23.4754 6.13 25C6.13 25.09 6.13 25.18 6.13 25.27C4.06 27.38 -0.429996 32.36 1 34.16C2.17 35.64 6.12 35.31 8.86 34.88C9.79295 36.4397 10.9409 37.8603 12.27 39.1C13.49 42.62 15.94 48.45 19.03 49.16C22.35 49.93 25.67 46.16 27.15 44.16C30.9125 43.8199 34.4899 42.3723 37.43 40C40.43 40.77 43.74 41.17 45.09 39.73C47.46 37.2 44.84 30.93 44.09 29.29C44.4108 27.8824 44.5751 26.4437 44.58 25Z" fill="#8B51EB"/>
<path d="M9.84 34.2C9.84 34.2 23.62 40.04 33.84 33.08C44.06 26.12 43.94 21.92 43.94 21.92C43.94 21.92 48.53 18.5 47 16.18C45.47 13.86 41 14.67 41 14.67C39.0283 12.099 36.4884 10.0192 33.5791 8.59313C30.6698 7.16711 27.47 6.4336 24.23 6.45C24.23 6.45 21.62 0.59 18.82 1.84C16.82 2.73 15.91 3.67 15.82 9.24C13.3864 10.3122 11.3779 12.1624 10.11 14.5C10.11 14.5 1.71 14.44 7.83 19.76C7.83 19.76 6.4 23.45 6.92 25.6C6.88 25.6 -2.62 34 9.84 34.2Z" fill="#6C2ED0"/>
<path d="M38 13C37.5865 12.3439 37.1001 11.7367 36.55 11.19C37.09 8.10998 36.3 6.04998 35.24 5.62998C34.38 5.27998 32.32 7.20998 31.34 8.20998C28.9604 7.63596 26.4876 7.56177 24.0779 7.99208C21.6681 8.42238 19.3739 9.34785 17.34 10.71C11.54 14.37 8.39 20.37 8.93 25.71C7.64 26.58 3.76 29.41 5.11 30.9C5.97 31.84 9.65 32.56 12.91 33.03C17.43 36.61 24.91 36.64 31.14 32.66C38.73 27.84 41.78 19 38 13Z" fill="#5200D0"/>
<path d="M19.32 14.92C20.0932 16.0706 21.1792 16.9762 22.45 17.53C22.45 17.53 21.98 10.74 25.45 5.53C21.24 5 19.32 14.92 19.32 14.92Z" fill="#B182FE"/>
<path d="M26.44 5.78999C26.1253 5.63592 25.7875 5.53457 25.44 5.48999C21.99 10.74 22.44 17.49 22.44 17.49C26.68 19.35 32.02 17.18 32.02 17.18C32.02 17.18 31.33 8.14999 26.44 5.78999Z" fill="#6C2ED0"/>
<path d="M35.65 13.59C35.0199 14.1386 34.5616 14.8573 34.33 15.66C36.8267 15.277 39.3809 15.6423 41.67 16.71C41.66 14.13 35.65 13.59 35.65 13.59Z" fill="#B182FE"/>
<path d="M41.56 17.34C41.6336 17.1381 41.6708 16.9248 41.67 16.71C39.3809 15.6423 36.8267 15.2769 34.33 15.66C33.53 18.36 35.18 21.47 35.18 21.47C35.18 21.47 40.51 20.47 41.56 17.34Z" fill="#6C2ED0"/>
<path d="M15.36 16.16C15.36 16.16 1.17 16.72 2.43 20.27C3.69 23.82 14.3 26.79 14.3 26.79C15.7209 23.4355 16.0905 19.7289 15.36 16.16Z" fill="#6C2ED0"/>
<path d="M15.72 19.74L2.43 20.27C1.17 16.72 15.36 16.16 15.36 16.16C15.6016 17.3379 15.7222 18.5375 15.72 19.74Z" fill="#B182FE"/>
<path d="M15.72 19.74L2.43 20.27C2.43 20.27 2.62 16.67 15.72 19.74Z" fill="#6C2ED0"/>
<path d="M33.73 28.88C33.73 28.88 37.82 38.51 34.88 38.71C31.94 38.91 26.47 32.71 26.47 32.71C28.4627 30.7498 30.9871 29.4181 33.73 28.88Z" fill="#6C2ED0"/>
<path d="M31.06 29.68L34.88 38.68C37.82 38.48 33.73 28.85 33.73 28.85C32.8157 29.0412 31.9216 29.3192 31.06 29.68Z" fill="#B182FE"/>
<path d="M31.06 29.68L34.88 38.68C34.88 38.68 37.39 37.53 31.06 29.68Z" fill="#6C2ED0"/>
<path d="M14.87 33.08C14.87 33.08 14.03 40.44 16.38 42.88C18.73 45.32 24.64 33.57 24.64 33.57C24.64 33.57 17.37 31.64 14.87 33.08Z" fill="#6C2ED0"/>
<path d="M24.64 33.57C24.64 33.57 18.73 45.33 16.38 42.88C16.38 42.88 19.45 41.13 21.28 32.88C23.15 33.18 24.64 33.57 24.64 33.57Z" fill="#B182FE"/>
<path d="M17.9 25.59C18.9659 25.59 19.83 25.0662 19.83 24.42C19.83 23.7738 18.9659 23.25 17.9 23.25C16.8341 23.25 15.97 23.7738 15.97 24.42C15.97 25.0662 16.8341 25.59 17.9 25.59Z" fill="#5C85FF"/>
<path d="M17.9 25.46C18.9659 25.46 19.83 25.0347 19.83 24.51C19.83 23.9853 18.9659 23.56 17.9 23.56C16.8341 23.56 15.97 23.9853 15.97 24.51C15.97 25.0347 16.8341 25.46 17.9 25.46Z" fill="#012594"/>
<path d="M17.9 26.01C18.9659 26.01 19.83 25.5175 19.83 24.91C19.83 24.3025 18.9659 23.81 17.9 23.81C16.8341 23.81 15.97 24.3025 15.97 24.91C15.97 25.5175 16.8341 26.01 17.9 26.01Z" fill="#FFF500"/>
<path d="M25.84 21.03C26.3039 21.03 26.68 20.8016 26.68 20.52C26.68 20.2383 26.3039 20.01 25.84 20.01C25.3761 20.01 25 20.2383 25 20.52C25 20.8016 25.3761 21.03 25.84 21.03Z" fill="#5C85FF"/>
<path d="M25.84 20.97C26.3039 20.97 26.68 20.7864 26.68 20.56C26.68 20.3336 26.3039 20.15 25.84 20.15C25.3761 20.15 25 20.3336 25 20.56C25 20.7864 25.3761 20.97 25.84 20.97Z" fill="#012594"/>
<path d="M25.84 21.21C26.3039 21.21 26.68 20.9951 26.68 20.73C26.68 20.4649 26.3039 20.25 25.84 20.25C25.3761 20.25 25 20.4649 25 20.73C25 20.9951 25.3761 21.21 25.84 21.21Z" fill="#FFF500"/>
<path d="M35.17 28.33C35.6339 28.33 36.01 27.833 36.01 27.22C36.01 26.6069 35.6339 26.11 35.17 26.11C34.7061 26.11 34.33 26.6069 34.33 27.22C34.33 27.833 34.7061 28.33 35.17 28.33Z" fill="#5C85FF"/>
<path d="M35.17 28.2C35.6339 28.2 36.01 27.797 36.01 27.3C36.01 26.8029 35.6339 26.4 35.17 26.4C34.7061 26.4 34.33 26.8029 34.33 27.3C34.33 27.797 34.7061 28.2 35.17 28.2Z" fill="#012594"/>
<path d="M35.17 28.73C35.6339 28.73 36.01 28.2599 36.01 27.68C36.01 27.1001 35.6339 26.63 35.17 26.63C34.7061 26.63 34.33 27.1001 34.33 27.68C34.33 28.2599 34.7061 28.73 35.17 28.73Z" fill="#FFF500"/>
<path d="M25 30.57C25.7511 30.57 26.36 30.073 26.36 29.46C26.36 28.8469 25.7511 28.35 25 28.35C24.2489 28.35 23.64 28.8469 23.64 29.46C23.64 30.073 24.2489 30.57 25 30.57Z" fill="#5C85FF"/>
<path d="M25 30.44C25.7511 30.44 26.36 30.037 26.36 29.54C26.36 29.0429 25.7511 28.64 25 28.64C24.2489 28.64 23.64 29.0429 23.64 29.54C23.64 30.037 24.2489 30.44 25 30.44Z" fill="#012594"/>
<path d="M25 30.98C25.7511 30.98 26.36 30.5099 26.36 29.93C26.36 29.3501 25.7511 28.88 25 28.88C24.2489 28.88 23.64 29.3501 23.64 29.93C23.64 30.5099 24.2489 30.98 25 30.98Z" fill="#FFF500"/>
<path d="M33.61 12.8C34.3611 12.8 34.97 12.303 34.97 11.69C34.97 11.077 34.3611 10.58 33.61 10.58C32.8589 10.58 32.25 11.077 32.25 11.69C32.25 12.303 32.8589 12.8 33.61 12.8Z" fill="#5C85FF"/>
<path d="M33.61 12.67C34.3611 12.67 34.97 12.2671 34.97 11.77C34.97 11.2729 34.3611 10.87 33.61 10.87C32.8589 10.87 32.25 11.2729 32.25 11.77C32.25 12.2671 32.8589 12.67 33.61 12.67Z" fill="#012594"/>
<path d="M33.61 13.2C34.3611 13.2 34.97 12.7299 34.97 12.15C34.97 11.5701 34.3611 11.1 33.61 11.1C32.8589 11.1 32.25 11.5701 32.25 12.15C32.25 12.7299 32.8589 13.2 33.61 13.2Z" fill="#FFF500"/>
<path d="M31.85 22.67C32.3857 22.67 32.82 22.0163 32.82 21.21C32.82 20.4037 32.3857 19.75 31.85 19.75C31.3143 19.75 30.88 20.4037 30.88 21.21C30.88 22.0163 31.3143 22.67 31.85 22.67Z" fill="#5C85FF"/>
<path d="M31.85 22.5C32.3857 22.5 32.82 21.9717 32.82 21.32C32.82 20.6683 32.3857 20.14 31.85 20.14C31.3143 20.14 30.88 20.6683 30.88 21.32C30.88 21.9717 31.3143 22.5 31.85 22.5Z" fill="#012594"/>
<path d="M31.85 23.19C32.3857 23.19 32.82 22.5766 32.82 21.82C32.82 21.0634 32.3857 20.45 31.85 20.45C31.3143 20.45 30.88 21.0634 30.88 21.82C30.88 22.5766 31.3143 23.19 31.85 23.19Z" fill="#FFF500"/>
<path d="M18.28 17.62C19.379 17.62 20.27 17.2931 20.27 16.89C20.27 16.4868 19.379 16.16 18.28 16.16C17.181 16.16 16.29 16.4868 16.29 16.89C16.29 17.2931 17.181 17.62 18.28 17.62Z" fill="#5C85FF"/>
<path d="M18.28 17.53C19.379 17.53 20.27 17.2658 20.27 16.94C20.27 16.6141 19.379 16.35 18.28 16.35C17.181 16.35 16.29 16.6141 16.29 16.94C16.29 17.2658 17.181 17.53 18.28 17.53Z" fill="#012594"/>
<path d="M18.28 17.88C19.379 17.88 20.27 17.5711 20.27 17.19C20.27 16.8089 19.379 16.5 18.28 16.5C17.181 16.5 16.29 16.8089 16.29 17.19C16.29 17.5711 17.181 17.88 18.28 17.88Z" fill="#FFF500"/>
<path d="M7.58 15.52C8.56307 15.52 9.36 15.1663 9.36 14.73C9.36 14.2937 8.56307 13.94 7.58 13.94C6.59694 13.94 5.8 14.2937 5.8 14.73C5.8 15.1663 6.59694 15.52 7.58 15.52Z" fill="white"/>
<path d="M17.4799 4.02029C17.6497 3.36136 17.4443 2.73877 17.0211 2.62969C16.5979 2.52061 16.1171 2.96636 15.9473 3.62529C15.7775 4.28422 15.9829 4.90681 16.4061 5.01589C16.8293 5.12497 17.3101 4.67922 17.4799 4.02029Z" fill="white"/>
<path d="M16.8338 6.7133C16.9355 6.32317 16.784 5.94592 16.4954 5.87069C16.2068 5.79547 15.8904 6.05075 15.7887 6.44088C15.687 6.83101 15.8385 7.20826 16.1271 7.28349C16.4157 7.35871 16.7321 7.10343 16.8338 6.7133Z" fill="white"/>
<path d="M23.64 42.58C24.8164 42.58 25.77 42.1099 25.77 41.53C25.77 40.9501 24.8164 40.48 23.64 40.48C22.4636 40.48 21.51 40.9501 21.51 41.53C21.51 42.1099 22.4636 42.58 23.64 42.58Z" fill="#FFF500"/>
<path d="M41.1813 29.716C41.3359 29.0432 41.1209 28.4196 40.701 28.3231C40.2812 28.2266 39.8155 28.6939 39.6609 29.3667C39.5063 30.0395 39.7214 30.6632 40.1412 30.7596C40.561 30.8561 41.0267 30.3889 41.1813 29.716Z" fill="#FFF500"/>
<path d="M36.7185 37.2411C36.7547 37.0851 36.4658 36.8846 36.0731 36.7934C35.6804 36.7022 35.3326 36.7547 35.2964 36.9107C35.2601 37.0667 35.5491 37.2671 35.9418 37.3584C36.3345 37.4496 36.6822 37.3971 36.7185 37.2411Z" fill="#FFF500"/>
<path d="M27.82 37.81C28.1182 37.81 28.36 37.5682 28.36 37.27C28.36 36.9717 28.1182 36.73 27.82 36.73C27.5218 36.73 27.28 36.9717 27.28 37.27C27.28 37.5682 27.5218 37.81 27.82 37.81Z" fill="#FFF500"/>
</g>
<defs>
<clipPath id="clip0_1_357">
<rect width="50" height="50" fill="white"/>
</clipPath>
</defs>
</svg>
