<svg width="50" height="50" viewBox="0 0 50 50" fill="none" xmlns="http://www.w3.org/2000/svg">
<g clip-path="url(#clip0_1_24)">
<path d="M25 50C38.8071 50 50 38.8071 50 25C50 11.1929 38.8071 0 25 0C11.1929 0 0 11.1929 0 25C0 38.8071 11.1929 50 25 50Z" fill="#C2FFB3"/>
<path d="M11.84 11.24C12.7844 11.24 13.55 10.4744 13.55 9.52999C13.55 8.58558 12.7844 7.81999 11.84 7.81999C10.8956 7.81999 10.13 8.58558 10.13 9.52999C10.13 10.4744 10.8956 11.24 11.84 11.24Z" fill="#AAE09D"/>
<path d="M10.64 37.53C12.7994 37.53 14.55 35.7794 14.55 33.62C14.55 31.4606 12.7994 29.71 10.64 29.71C8.48057 29.71 6.73 31.4606 6.73 33.62C6.73 35.7794 8.48057 37.53 10.64 37.53Z" fill="#AAE09D"/>
<path d="M41.0586 15.6742C43.0971 13.6357 42.0017 9.23521 38.612 5.84546C35.2222 2.45571 30.8217 1.36033 28.7832 3.39887C26.7447 5.43741 27.8401 9.8379 31.2298 13.2277C34.6196 16.6174 39.02 17.7128 41.0586 15.6742Z" fill="#AAE09D"/>
<path d="M37.3201 40.5613C41.319 36.5623 42.3669 31.1266 39.6606 28.4202C36.9543 25.7139 31.5185 26.7618 27.5196 30.7608C23.5206 34.7597 22.4727 40.1955 25.1791 42.9018C27.8854 45.6081 33.3211 44.5602 37.3201 40.5613Z" fill="#AAE09D"/>
</g>
<defs>
<clipPath id="clip0_1_24">
<rect width="50" height="50" fill="white"/>
</clipPath>
</defs>
</svg>
