<svg width="50" height="50" viewBox="0 0 50 50" fill="none" xmlns="http://www.w3.org/2000/svg">
<g clip-path="url(#clip0_1_3)">
<path d="M50.0009 25.0007C50.0165 28.8283 49.1502 32.6081 47.4692 36.0469C47.0074 36.9912 46.482 37.9031 45.8969 38.7764C42.7534 43.5434 38.0711 47.089 32.6304 48.8223C27.1897 50.5555 21.3192 50.3717 15.9976 48.3015C10.676 46.2312 6.22467 42.3996 3.38561 37.4453C0.546551 32.4909 -0.508729 26.7132 0.395669 21.0752C1.30007 15.4371 4.10951 10.2793 8.3557 6.46156C12.6019 2.64377 18.0283 0.396634 23.7304 0.0946965C29.4326 -0.207241 35.066 1.45427 39.6916 4.80227C44.3172 8.15028 47.6557 12.9825 49.1504 18.4935C49.4983 19.7903 49.7398 21.1132 49.8723 22.4492C49.9613 23.3096 50.0009 24.1502 50.0009 25.0007Z" fill="#64AEFF"/>
<path d="M36.877 44.5016C36.877 45.1048 35.9573 46.3113 34.6123 47.7551C30.8096 49.3311 26.6768 49.9449 22.5801 49.542C18.4835 49.1392 14.5494 47.7321 11.1265 45.4456C7.70355 43.1591 4.89738 40.0636 2.95658 36.4335C1.01578 32.8033 0.000262938 28.7505 0 24.6341C0.00494374 20.6431 1.02594 16.7191 2.96677 13.2318C4.77666 14.4382 6.40219 15.9006 7.79272 17.5732C7.79272 17.5732 10.0079 25.3857 14.4383 26.4735C18.8687 27.5613 38.746 21.3212 33.6234 31.7049C28.5008 42.0886 36.877 42.4248 36.877 44.5016Z" fill="#754C24"/>
<path d="M36.877 44.8378C36.877 45.4509 35.9573 46.6574 34.6123 48.0914C29.8523 50.0626 24.5996 50.5157 19.5723 49.3887C14.545 48.2617 9.98844 45.6096 6.52548 41.7949C3.06251 37.9803 0.862146 33.1892 0.22517 28.0766C-0.411807 22.9641 0.54569 17.7796 2.96677 13.2318C4.84252 14.5015 6.47677 16.0955 7.79272 17.9391C7.79272 17.9391 10.0079 25.7615 14.4383 26.8394C18.8687 27.9173 38.746 21.6871 33.6234 32.0708C28.5008 42.4545 36.877 42.8006 36.877 44.8378Z" fill="#74C500"/>
<path d="M42.0886 6.75435C40.5854 9.40466 38.7263 13.2417 36.7583 14.379C35.2156 15.269 30.8248 12.4011 28.4711 10.1859C25 6.9818 22.4486 12.3418 20.2927 14.2702C16.4062 17.8006 12.589 14.0328 11.8671 12.2231C10.9692 10.0876 9.90786 8.0245 8.69264 6.05221C13.0736 2.28441 18.7896 0.524124 25 0.524124C31.6456 0.524124 37.5791 2.56131 42.0886 6.75435Z" fill="#754C24"/>
<path d="M42.0886 6.75435C40.5854 9.40467 38.7263 12.6879 36.7583 13.8548C35.2156 14.7449 30.8248 11.877 28.4711 9.66179C25 6.44779 22.4486 11.8671 20.2927 13.746C16.4062 17.2369 12.589 13.5087 11.8968 11.699C10.9626 9.74385 9.89188 7.85694 8.69264 6.05222C13.3651 2.02844 19.3603 -0.125789 25.5252 0.00382514C31.6901 0.13344 37.5894 2.53774 42.0886 6.75435Z" fill="#74C500"/>
<path d="M49.8022 24.7231C49.8052 28.5538 48.9254 32.3337 47.231 35.7694C46.7662 35.0475 39.8437 31.9917 40.4668 26.7405C40.9316 22.8837 47.1321 22.7848 49.8714 22.4387C49.8912 22.7453 49.7923 24.1001 49.8022 24.7231Z" fill="#754C24"/>
<path d="M50 25C50.0156 28.8276 49.1494 32.6075 47.4684 36.0463C47.0036 35.3342 40.0811 32.2686 40.7041 27.0174C41.1689 23.1606 47.1618 22.7452 49.9011 22.4288C49.8912 22.7452 50 24.3869 50 25Z" fill="#74C500"/>
</g>
<defs>
<clipPath id="clip0_1_3">
<rect width="50" height="50" fill="white"/>
</clipPath>
</defs>
</svg>
