<svg width="55" height="50" viewBox="0 0 55 50" fill="none" xmlns="http://www.w3.org/2000/svg">
<g clip-path="url(#clip0_1_408)">
<path d="M30.8 48.9C43.6793 48.9 54.12 38.6115 54.12 25.92C54.12 13.2285 43.6793 2.94 30.8 2.94C17.9207 2.94 7.48 13.2285 7.48 25.92C7.48 38.6115 17.9207 48.9 30.8 48.9Z" fill="#0C9497"/>
<path opacity="0.85" d="M31.7014 42.3259C43.1101 40.8907 51.3008 31.3183 49.9959 20.9453C48.691 10.5723 38.3846 3.32673 26.976 4.76191C15.5673 6.19709 7.3766 15.7695 8.6815 26.1425C9.98639 36.5155 20.2928 43.761 31.7014 42.3259Z" fill="#139B8A"/>
<path opacity="0.75" d="M32.5784 36.5307C42.9413 33.7443 49.5121 24.6802 47.2549 16.2854C44.9977 7.89058 34.7671 3.34409 24.4043 6.13049C14.0415 8.91689 7.47059 17.981 9.72783 26.3758C11.9851 34.7706 22.2156 39.3171 32.5784 36.5307Z" fill="#15C295"/>
<path opacity="0.6" d="M44.5001 22.5916C45.8689 16.0732 39.9418 9.31129 31.2615 7.48838C22.5811 5.66547 14.4346 9.47189 13.0657 15.9903C11.6968 22.5086 17.624 29.2706 26.3043 31.0935C34.9847 32.9164 43.1312 29.11 44.5001 22.5916Z" fill="#29D6B2"/>
<path d="M24.0454 17.8677C27.688 16.508 30.0255 13.7573 29.2665 11.7239C28.5074 9.69047 24.9392 9.14433 21.2966 10.5041C17.654 11.8638 15.3165 14.6145 16.0755 16.6479C16.8346 18.6813 20.4028 19.2275 24.0454 17.8677Z" fill="#29D6B2"/>
<path d="M32.5542 21.8988C34.0119 21.3665 34.8758 20.0645 34.4837 18.9906C34.0915 17.9167 32.5919 17.4777 31.1341 18.01C29.6764 18.5423 28.8125 19.8444 29.2046 20.9183C29.5967 21.9921 31.0964 22.4312 32.5542 21.8988Z" fill="#29D6B2"/>
<path d="M30.57 3.79999L32.4 5.35999L32.73 7.10999L37.97 9.41999L40.01 13.94L44.38 15.96L43.64 19.03L45.78 20.37L45.28 21.77L46.37 23.64L49.35 21.27L51.66 23.45L53.37 19.37L54.03 9.89999L45.62 9.23999L46.5 5.75999L46.69 3.32999L39.94 3.82999L38.51 3.33999L36.61 2.76999L34.84 3.69999L33.24 3.39999L30.57 3.79999Z" fill="#754C24"/>
<path d="M55 9.22L54.34 18.69L51.66 23.45L49.86 20.95L46.52 23.11L46.24 21.09L46.75 19.69L44.61 18.35L45.34 15.27L42.73 14.07L40.98 13.26L38.93 8.74L33.7 6.43L33.36 4.67L30.48 3.77L34.2 2.72L35.81 3.02L37.58 2.09L39.47 2.66L40.91 3.15L47.66 2.65L47.54 4.2L47.47 5.08L46.59 8.56L55 9.22Z" fill="#59BF0A"/>
<path d="M55 9.22L54.34 18.69L51.66 23.45L49.86 21L46.52 23.16L46.24 21.16L46.75 19.76L44.61 18.42L45.34 15.34L42.73 14.14L43.92 11.7L45.55 8C45.55 8 46.37 6.37 46.47 6C46.57 5.63 47.31 3 47.31 3C47.4168 3.38135 47.4772 3.77419 47.49 4.17L47.42 5.05L46.54 8.53L55 9.22Z" fill="#1C9E01"/>
<path d="M41 3.64L46.59 3.13C46.59 3.13 46.75 4.39 46.05 4.85C45.35 5.31 44.18 5.92 44.18 5.92C44.18 5.92 41.35 4.67 41 3.64Z" fill="#A5DD10"/>
<path d="M11.34 36.77L1.12 23.53L4.12 21.43L0.550003 13.87L4.34 12.55L8.81 12.2L9.06 9.14L8.5 7.92C9.68037 7.54429 10.887 7.25684 12.11 7.06C12.8138 7.09723 13.5195 7.07716 14.22 7L17.76 7.26L16 3.1L16.07 0L19.52 0.66L24.21 2.61L25.56 4.14L25.76 6.79L24.7 11.23L21.4 11.62L20.16 16L19.6 19.7L16.3 20L12.36 22.8L13.49 27.65L14.62 28.5L15.15 31.89L13.15 36.42L12.29 36.71L11.34 36.77Z" fill="#754C24"/>
<path d="M23.66 2.44L25 4L25.2 6.64L24.14 11.09L20.85 11.48L19.6 15.9L19.04 19.59L15.74 19.83L11.8 22.62L12.93 27.48L14.07 28.33L14.59 31.71L12.59 36.25L11.73 36.54L10.8 36.63L4.47 30.69L1.12 23.53L3.57 21.25L0 13.7L3.79 12.38L8.26 12L7.26 7.43L7.75 6.09C7.75 6.09 9.18 6.32 9.5 6.43C9.82 6.54 13.67 6.77 13.67 6.77L17.21 7.03L15.45 2.93L16.07 0L19.58 0.59L23.66 2.44Z" fill="#59BF0A"/>
<path d="M12.94 27.45L14.08 28.3L14.6 31.68L12.6 36.22L11.74 36.51L10.81 36.6L4.47 30.69L1.12 23.53L3.56999 21.25C6.21939 23.9565 9.41311 26.0697 12.94 27.45Z" fill="#1C9E01"/>
<path d="M0.550003 13.87L3.84 12.79L8 12.53C8.84709 12.6188 9.68845 12.7557 10.52 12.94C10.9 13.09 10.81 14.65 10.81 14.65C10.81 14.65 9.2 17.32 8.85 17.19C8.5 17.06 3.85 16.12 3.85 16.12L0.550003 13.87Z" fill="#A5DD10"/>
<path d="M7.89 6.51001L9.44 6.92001L12.44 7.36001C12.44 7.36001 16.13 7.58001 16.82 7.74001C17.1393 7.86326 17.4185 8.07226 17.6267 8.34397C17.8349 8.61569 17.9641 8.93959 18 9.28001C17.5294 10.0112 16.972 10.6827 16.34 11.28C16.11 11.28 13.5 10.66 12.96 10.48C12.42 10.3 9.36 8.71001 9.36 8.71001L7.89 6.51001Z" fill="#A5DD10"/>
<path d="M16.47 0.459991L18.59 0.999991L20.13 1.52999C20.13 1.52999 22.07 2.44999 22.13 2.52999C22.6292 2.84268 23.1009 3.19729 23.54 3.58999C23.5614 4.11769 23.4658 4.6436 23.26 5.12999C23.15 5.26999 22.26 6.24999 21.76 5.88999C20.7954 5.21443 19.8736 4.47968 19 3.68999C18.74 3.31999 16.9 1.34999 16.9 1.34999L16.47 0.459991Z" fill="#A5DD10"/>
<path d="M19.71 49.44L26.94 46.69L25.84 42.89L16.92 39.21L13.26 40.44L19.71 49.44Z" fill="#754C24"/>
<path d="M19.22 50L26.94 46.69L25.36 43.45L16.43 39.78L13.26 40.44L19.22 50Z" fill="#1C9E01"/>
<path d="M52.66 37.34L51.51 33.59L53.82 27.78L47.38 26.57L43.74 22.12L35.37 21.79L33.2 25.15L33.03 29.15L35.32 29.6L39.68 33.13L38.93 36.69L36.08 37.35L34.6 35.88L32.78 33.41L31.19 34.11L29.43 36.13L29.83 39.55L33.08 44.01L33.26 46.89L34.21 48.66L40.01 48.77L42.56 44.44L47.48 39.41L52.66 37.34Z" fill="#754C24"/>
<path d="M35.6 49.76L34.65 48L34.47 45.11L34.27 44.83L31.23 40.65L30.83 37.24L32.58 35.22L33.84 34.66L36 36.99L37.85 38.3L40.32 37.8L41.03 34.42L36.63 30.99L33.04 29.15L33.93 25.45L35.69 22.52L43.73 22.39L45.46 24.84L47.35 27.51L53.82 27.78L52.9 34.7L54.05 38.45L48.88 40.51L43.95 45.54L41.41 49.88L35.6 49.76Z" fill="#1C9E01"/>
</g>
<defs>
<clipPath id="clip0_1_408">
<rect width="55" height="50" fill="white"/>
</clipPath>
</defs>
</svg>
