<svg width="50" height="50" viewBox="0 0 50 50" fill="none" xmlns="http://www.w3.org/2000/svg">
<g clip-path="url(#clip0_1_108)">
<path d="M50 25C50 31.6304 47.3661 37.9893 42.6777 42.6777C37.9893 47.3661 31.6304 50 25 50C18.3696 50 12.0107 47.3661 7.32233 42.6777C2.63392 37.9893 -2.28502e-06 31.6304 -2.28502e-06 25C-0.00232181 23.4702 0.138289 21.9436 0.419998 20.44C0.41518 20.4001 0.41518 20.3599 0.419998 20.32V20.15C0.549998 19.52 0.689998 18.9 0.869998 18.29V18.15L0.999998 18C2.52179 12.8113 5.68167 8.25432 10.0075 5.00997C14.3333 1.76562 19.5928 0.00809023 25 7.64651e-08C30.8187 -0.000454822 36.4554 2.02878 40.9386 5.73802C45.4218 9.44725 48.4707 14.6041 49.56 20.32C49.8524 21.8629 49.9997 23.4297 50 25Z" fill="#FFB5A5"/>
<path d="M48.75 25C48.7492 31.1052 46.3973 36.9756 42.1825 41.3926C37.9678 45.8096 32.2139 48.4338 26.1154 48.7205C20.017 49.0073 14.0423 46.9345 9.43169 42.9325C4.8211 38.9305 1.92875 33.3066 1.35508 27.2284C0.781406 21.1502 2.57047 15.0845 6.35088 10.2905C10.1313 5.49656 15.6126 2.34253 21.6571 1.4832C27.7015 0.623861 33.8447 2.12523 38.8115 5.67563C43.7782 9.22603 47.1869 14.5527 48.33 20.55C48.6122 22.0165 48.7529 23.5066 48.75 25Z" fill="#B90032"/>
<path d="M48.75 25C48.7527 30.665 46.7304 36.1444 43.048 40.4493C39.3657 44.7543 34.2658 47.6012 28.6688 48.4763C23.0718 49.3514 17.3463 48.197 12.5256 45.2215C7.70494 42.2461 4.10661 37.6455 2.38 32.25C7.86 23.1 17.13 8.05 26.38 7.59C32.83 7.27 40.03 16.08 48.29 20.59C48.5831 22.042 48.7371 23.5187 48.75 25Z" fill="#ED4604"/>
<path d="M47.64 32.19C46.2814 36.459 43.7435 40.2569 40.3193 43.1456C36.895 46.0343 32.7238 47.896 28.2869 48.5159C23.85 49.1359 19.3282 48.4888 15.2433 46.6494C11.1584 44.8099 7.67671 41.8531 5.2 38.12C7.96502 34.7094 11.4774 31.9804 15.4656 30.1441C19.4538 28.3078 23.8109 27.4134 28.2 27.53C34.17 27.64 41 29.52 47.64 32.19Z" fill="#ED7242"/>
<path d="M42.1 41.9795C43.0372 41.0423 43.4203 39.9058 42.9556 39.441C42.4909 38.9763 41.3543 39.3594 40.4171 40.2966C39.4798 41.2339 39.0968 42.3704 39.5615 42.8351C40.0262 43.2999 41.1627 42.9168 42.1 41.9795Z" fill="white"/>
<path d="M11.2911 7.36253C12.4626 6.19095 13.0356 4.86447 12.5709 4.39975C12.1062 3.93503 10.7797 4.50804 9.60814 5.67961C8.43657 6.85119 7.86356 8.17767 8.32828 8.64239C8.79301 9.10711 10.1195 8.5341 11.2911 7.36253Z" fill="white"/>
<path d="M8.23 11.22C8.58346 11.22 8.87 10.8842 8.87 10.47C8.87 10.0558 8.58346 9.72 8.23 9.72C7.87653 9.72 7.59 10.0558 7.59 10.47C7.59 10.8842 7.87653 11.22 8.23 11.22Z" fill="white"/>
<path d="M7.4 42.7L7.67 35.27L14.6 32.4L14.75 21.68L17.1 34.12L9.76 36.51L7.4 42.7Z" fill="#244100"/>
<path d="M7.4 42.7L8.59 36.06L15.52 33.2L14.75 21.68L18.01 34.92L10.68 37.3L7.4 42.7Z" fill="#7FEAFF"/>
<path d="M7.4 42.7L8.22 35.53L15.15 32.67L14.75 21.68L17.65 34.39L10.31 36.77L7.4 42.7Z" fill="#879EFF"/>
<path d="M39.55 11.22L34.62 15.06L35.09 26.93L31.52 14.63L34.62 11.72L33.25 1.39999C35.2992 2.22147 37.2323 3.30734 39 4.62999L39.55 11.22Z" fill="#7FEAFF"/>
<path d="M40.52 11.22L35.59 15.06L35.09 26.93L32.48 14.63L35.59 11.72L34.27 1.78C36.3115 2.60033 38.2377 3.68274 40 5L40.52 11.22Z" fill="#244100"/>
<path d="M40 11.22L35.07 15.06V26.93L32 14.63L35.11 11.72L33.74 1.57999C35.7825 2.3392 37.7159 3.36473 39.49 4.62999L40 11.22Z" fill="#879EFF"/>
<path d="M22.18 44.07L25.03 40.67L22.63 37.57L28.73 31.67L18.78 14.16L34.13 33.07L25.58 37.57L27 41.87L22.18 44.07Z" fill="#244100"/>
<path d="M22.18 44.07L25.96 40.85L23.56 37.74L29.66 31.84L18.78 14.16L35.06 33.24L26.51 37.74L27.93 42.05L22.18 44.07Z" fill="#7FEAFF"/>
<path d="M22.18 44.07L25.58 40.67L23.18 37.57L29.28 31.67L18.78 14.16L34.68 33.07L26.13 37.57L27.55 41.87L22.18 44.07Z" fill="#879EFF"/>
<path d="M9.68 10.06L7.76 18.33L0.470001 20.15C0.610001 19.47 0.770001 18.8 0.950001 18.15C1 18.1 1 18 1 18L6.8 17.08L9.68 10.06Z" fill="#244100"/>
<path d="M9.68 10.06L8 18.61L0.420003 20.44C0.415185 20.4001 0.415185 20.3599 0.420003 20.32V20.15C0.550003 19.52 0.690003 18.9 0.870003 18.29L7 17.34L9.68 10.06Z" fill="#7FEAFF"/>
<path d="M9.68 10.06L7.91 18.46L0.440002 20.32C0.580002 19.58 0.750002 18.86 0.950002 18.15L6.95 17.15L9.68 10.06Z" fill="#879EFF"/>
</g>
<defs>
<clipPath id="clip0_1_108">
<rect width="50" height="50" fill="white"/>
</clipPath>
</defs>
</svg>
