<svg width="50" height="50" viewBox="0 0 50 50" fill="none" xmlns="http://www.w3.org/2000/svg">
<g clip-path="url(#clip0_1_32)">
<path d="M25 50C38.8071 50 50 38.8071 50 25C50 11.1929 38.8071 0 25 0C11.1929 0 0 11.1929 0 25C0 38.8071 11.1929 50 25 50Z" fill="#460031"/>
<path d="M25 49.07C38.2935 49.07 49.07 38.2935 49.07 25C49.07 11.7065 38.2935 0.93 25 0.93C11.7065 0.93 0.929993 11.7065 0.929993 25C0.929993 38.2935 11.7065 49.07 25 49.07Z" fill="#770050"/>
<path d="M48 25C48.0071 28.1297 47.3718 31.2276 46.1333 34.1018C44.8948 36.9761 43.0796 39.5656 40.8 41.71C44.9216 37.3604 47.1829 31.574 47.1028 25.5823C47.0226 19.5907 44.6073 13.8669 40.3708 9.62908C36.1343 5.3913 30.4112 2.97419 24.4196 2.89219C18.4279 2.81018 12.6409 5.06976 8.28999 9.19C11.4536 5.84508 15.5483 3.5266 20.0442 2.53456C24.54 1.54253 29.2302 1.92262 33.5076 3.62563C37.7851 5.32865 41.453 8.27621 44.0368 12.0869C46.6205 15.8976 48.0011 20.396 48 25Z" fill="#670037"/>
<path d="M25.2415 46.2178C25.4912 45.2043 23.3809 43.8129 20.5281 43.1101C17.6752 42.4073 15.1601 42.6591 14.9104 43.6726C14.6607 44.6861 16.771 46.0775 19.6239 46.7804C22.4767 47.4832 24.9918 47.2313 25.2415 46.2178Z" fill="#670037"/>
<path d="M21.9235 16.1987C23.6358 15.2101 24.3837 13.2998 23.5939 11.9319C22.8041 10.564 20.7758 10.2564 19.0635 11.245C17.3512 12.2336 16.6034 14.144 17.3932 15.5119C18.1829 16.8798 20.2112 17.1873 21.9235 16.1987Z" fill="#670037"/>
<path d="M29.5292 32.094C32.9681 30.1086 34.7374 26.7348 33.4809 24.5586C32.2245 22.3824 28.4181 22.2277 24.9792 24.2132C21.5403 26.1987 19.771 29.5724 21.0275 31.7486C22.2839 33.9248 26.0903 34.0795 29.5292 32.094Z" fill="#670037"/>
<path d="M36.8924 36.9902C37.9925 36.355 38.5866 35.3245 38.2193 34.6883C37.852 34.0522 36.6625 34.0514 35.5624 34.6865C34.4624 35.3217 33.8683 36.3522 34.2356 36.9883C34.6029 37.6245 35.7924 37.6253 36.8924 36.9902Z" fill="#670037"/>
</g>
<defs>
<clipPath id="clip0_1_32">
<rect width="50" height="50" fill="white"/>
</clipPath>
</defs>
</svg>
