<svg width="50" height="50" viewBox="0 0 50 50" fill="none" xmlns="http://www.w3.org/2000/svg">
<g clip-path="url(#clip0_1_277)">
<path d="M24.52 49.12C38.062 49.12 49.04 38.2853 49.04 24.92C49.04 11.5547 38.062 0.720001 24.52 0.720001C10.978 0.720001 0 11.5547 0 24.92C0 38.2853 10.978 49.12 24.52 49.12Z" fill="#28A9F9"/>
<path d="M27.88 0.939999C27.88 0.939999 26.41 -0.890001 23.24 1.11C20.07 3.11 7.53001 13.48 1.89001 29.6C1.67224 30.2224 1.54102 30.8718 1.50001 31.53C1.29206 33.0554 1.32243 34.6039 1.59001 36.12C1.6793 36.5345 1.92113 36.9003 2.26752 37.1448C2.61391 37.3893 3.03956 37.4947 3.46001 37.44C3.46001 37.44 3.54001 31.44 4.20001 30.06C4.86001 28.68 11.91 9.45 27.88 0.939999Z" fill="#C1FFC9"/>
<path d="M27.88 0.939998C27.88 0.939998 26.2 -1.13 23 0.869998C19.8 2.87 7.31999 13.24 1.67999 29.36C1.4717 29.985 1.34072 30.6332 1.28999 31.29C1.14735 32.8185 1.17755 34.3582 1.37999 35.88C1.77999 38.13 3.45999 37.44 3.45999 37.44C3.45999 37.44 3.32999 31.22 3.98999 29.82C4.64999 28.42 11.84 9 27.88 0.939998Z" fill="#4F0055"/>
<path d="M32.75 2.19C32.75 2.19 33.75 0.129996 35.88 2.48C38.01 4.83 33 32.27 13.92 46.31C13.92 46.31 10.98 47.39 10.61 45.04C10.61 45.04 12.75 45.91 17.21 40.96C21.67 36.01 27.86 27.16 32.86 11.21C32.86 11.21 35 1.68 32.75 2.19Z" fill="#C1FFC9"/>
<path d="M33 2.19C33 2.19 34 0.129996 36.13 2.48C38.26 4.83 33.25 32.27 14.13 46.31C14.13 46.31 11.19 47.39 10.82 45.04C10.82 45.04 12.96 45.91 17.42 40.96C21.88 36.01 28.07 27.16 33.07 11.21C33.07 11.21 35.18 1.68 33 2.19Z" fill="#4F0055"/>
<path d="M40.26 6.72C40.26 6.72 46.08 8.15 42.76 22.11C39.25 36.84 29.69 47.68 22.15 49C22.15 49 25.93 52.69 32.63 45.26C32.63 45.26 45.93 33.36 45.63 14.83C45.67 14.84 45.48 5.91 40.26 6.72Z" fill="#C1FFC9"/>
<path d="M40.26 6.72C40.26 6.72 46.36 8.3 43 22.26C39.52 37 30.06 47.75 22.15 49C22.15 49 26.21 52.84 32.91 45.41C32.91 45.41 46.2 33.51 45.91 14.99C46 15 45.48 5.91 40.26 6.72Z" fill="#4F0055"/>
<path d="M1.67001 16.89C2.47155 23.0404 5.1178 28.8035 9.26001 33.42C14.2249 38.972 21.0591 42.503 28.46 43.34C34.46 44.2 39.46 43.84 40.73 43.12C40.5195 43.7056 40.1855 44.239 39.7507 44.6842C39.3159 45.1293 38.7905 45.4757 38.21 45.7C36.87 46.14 30.73 45.55 27.34 45.18C25.7645 45.0126 24.2159 44.6498 22.73 44.1C19.59 42.92 14 40.62 10.81 38C6.16001 34.18 1.48001 27.79 0.510014 22.46C-0.459986 17.13 0.540014 16.78 1.67001 16.89Z" fill="#C1FFC9"/>
<path d="M1.67 16.89C1.67 16.89 2.38 26.59 9.13 33.76C14.0961 39.3105 20.9296 42.8411 28.33 43.68C34.33 44.54 39.43 43.84 40.73 43.12C40.5083 43.7555 40.1588 44.3389 39.703 44.8342C39.2473 45.3295 38.6949 45.7263 38.08 46C36.74 46.44 30.61 45.85 27.21 45.48C25.6347 45.3115 24.0863 44.9487 22.6 44.4C19.46 43.22 13.89 40.92 10.68 38.29C6 34.52 1.35 28.13 0.380002 22.8C-0.589998 17.47 0.480002 16.65 1.67 16.89Z" fill="#4F0055"/>
<path d="M2.87999 14.13C2.87999 14.13 28.45 19.13 44.65 38.29C44.65 38.29 46.65 39.21 46.24 36.29C42.2844 31.9276 37.7487 28.1288 32.76 25C25.25 20.55 15.54 15.1 8.10999 12.74C0.679993 10.38 2.87999 14.13 2.87999 14.13Z" fill="#C1FFC9"/>
<path d="M3 13.84C3 13.84 28.55 18.89 44.74 38C44.74 38 46.69 38.92 46.33 36C42.3724 31.6482 37.8369 27.8596 32.85 24.74C25.34 20.29 15.64 14.84 8.21 12.48C0.780004 10.12 3 13.84 3 13.84Z" fill="#4F0055"/>
<path d="M8.48999 6.59C8.48999 6.59 15.86 6.01 20.07 6.85C24.28 7.69 42.61 11.58 49.07 26.01C49.07 26.01 50.7 24.94 49.54 22.23C48.38 19.52 43.83 13.49 33.7 8.66C23.57 3.83 11 4.5 11 4.5C10.4058 4.50904 9.83255 4.72139 9.37584 5.10167C8.91914 5.48196 8.6065 6.00723 8.48999 6.59Z" fill="#C1FFC9"/>
<path d="M8.48999 6.58999C8.48999 6.58999 15.94 5.74999 20.16 6.58999C24.38 7.42999 42.39 10.81 49.05 26C49.05 26 50.76 24.67 49.6 22C48.44 19.33 43.92 13.22 33.78 8.39999C23.64 3.57999 11.05 4.23999 11.05 4.23999C10.4403 4.33867 9.87293 4.61385 9.41796 5.0315C8.96298 5.44915 8.64037 5.99097 8.48999 6.58999Z" fill="#4F0055"/>
<path d="M17.61 37C15.41 37 11.43 34.7 10.4 32.84C9.37 30.98 9.4 27.19 9.59 25.93C9.59 25.83 9.59 25.7 9.64 25.56C9.83361 23.1297 10.9371 20.862 12.73 19.21C13.2627 18.7755 13.9194 18.5211 14.6058 18.4834C15.2922 18.4456 15.9729 18.6265 16.55 19C22.19 22.61 25.22 25 25.55 26.15C26.08 27.85 22.74 32.38 22.35 32.89C21.22 34.41 19.07 37 17.65 37H17.61Z" fill="#51E1FA"/>
<path d="M24.79 26.73C24.39 29.29 19.22 36.45 17.37 36.48C15.6574 36.2694 14.0318 35.6067 12.66 34.56C11.8409 34.0449 11.1391 33.3635 10.6 32.56C9.68001 30.88 9.66001 27.1 9.85001 25.93C10.04 24.76 10.22 21.7 12.85 19.45C13.2816 19.0788 13.822 18.8577 14.39 18.8198C14.958 18.7819 15.523 18.9294 16 19.24C18.68 20.97 24.39 24.79 24.81 26.16C24.8496 26.3488 24.8428 26.5444 24.79 26.73Z" fill="#258CD5"/>
<path d="M24.79 26.73C24.39 29.29 19.22 36.45 17.37 36.48C15.6574 36.2694 14.0318 35.6067 12.66 34.56C12.6175 34.4967 12.5806 34.4298 12.55 34.36C11.81 32.7 11.9 28.89 12.09 27.7C12.28 26.51 12.52 23.43 14.79 21.1C15.1201 20.7262 15.578 20.4893 16.0738 20.4357C16.5696 20.382 17.0675 20.5155 17.47 20.81C19.67 22.45 24.31 25.32 24.79 26.73Z" fill="#1D71AB"/>
<path d="M18.13 11C18.13 11 24.8 7.36 29.89 12C29.89 12 31.78 15.83 28.36 17.49C24.94 19.15 18.96 14.71 18.42 13.88C17.88 13.05 17.61 11.3 18.13 11Z" fill="#8CEEFC"/>
<path d="M28 16.88C25.05 18.26 20.08 15 18.93 13.88C18.8589 13.8073 18.7922 13.7305 18.73 13.65C18.23 12.9 17.98 11.36 18.47 11.13C18.47 11.13 24.71 7.79999 29.47 11.92C29.7466 12.514 29.9062 13.1556 29.94 13.81C29.9868 14.4618 29.8238 15.1115 29.4747 15.6639C29.1256 16.2163 28.6088 16.6425 28 16.88Z" fill="#258CD5"/>
<path d="M28 16.88C25.05 18.26 20.08 15 18.93 13.88C18.93 13.56 19.02 13.31 19.2 13.23C19.2 13.23 25.2 10.02 29.92 13.81C29.9683 14.4594 29.8081 15.1073 29.4628 15.6595C29.1175 16.2116 28.6051 16.6392 28 16.88Z" fill="#1D71AB"/>
<path d="M36.28 15C35.52 15.81 33.78 18.17 33.89 22.66C33.89 22.66 36.43 25.03 37.76 25.04C39.09 25.05 39.5 18.86 36.9 15.04C36.8645 14.9929 36.8192 14.9541 36.7673 14.9261C36.7154 14.8981 36.658 14.8817 36.5992 14.8779C36.5403 14.8741 36.4813 14.883 36.4262 14.9041C36.3712 14.9252 36.3213 14.9579 36.28 15Z" fill="#51E1FA"/>
<path d="M37.67 24C37.5374 23.9945 37.4062 23.9709 37.28 23.93C36.291 23.421 35.3978 22.7443 34.64 21.93C34.5487 20.0296 34.9518 18.138 35.81 16.44C36.0205 16.0565 36.2684 15.6947 36.55 15.36C36.579 15.3226 36.6161 15.2924 36.6586 15.2716C36.7011 15.2507 36.7477 15.2399 36.795 15.2399C36.8423 15.2399 36.889 15.2507 36.9314 15.2716C36.9739 15.2924 37.011 15.3226 37.04 15.36C39.05 18.73 38.68 24 37.67 24Z" fill="#258CD5"/>
<path d="M37.28 24C36.291 23.491 35.3978 22.8143 34.64 22C34.5487 20.0996 34.9518 18.208 35.81 16.51C35.8722 16.5318 35.9251 16.5741 35.96 16.63C37.2004 18.874 37.6644 21.465 37.28 24Z" fill="#1D71AB"/>
<path d="M31.61 29.42C31.61 29.42 33.31 28.96 33.61 31.58C33.91 34.2 35.04 39.39 30.43 40.42C25.82 41.45 24.89 40.93 24.53 40.12C24.17 39.31 24.6 37.21 27.34 33.63C30.08 30.05 31.61 29.42 31.61 29.42Z" fill="white"/>
<path d="M30.62 40.31C26.77 41.22 25.8 40.85 25.44 40.18C25.4129 40.1388 25.3894 40.0953 25.37 40.05C25.06 39.3 25.44 37.34 27.89 34.05C28.8491 32.5787 30.0612 31.2888 31.47 30.24C31.5243 30.1973 31.5851 30.1636 31.65 30.14C31.65 30.14 33.16 29.7 33.46 32.14C33.76 34.58 34.72 39.34 30.62 40.31Z" fill="#258CD5"/>
<path d="M29 39.64C27.8469 39.9498 26.663 40.1309 25.47 40.18C25.4429 40.1388 25.4194 40.0953 25.4 40.05C25.09 39.3 25.47 37.34 27.92 34.05C28.8791 32.5787 30.0912 31.2888 31.5 30.24C31.6877 30.6222 31.8029 31.0358 31.84 31.46C32.11 33.86 33.08 38.67 29 39.64Z" fill="#1D71AB"/>
</g>
<defs>
<clipPath id="clip0_1_277">
<rect width="50" height="50" fill="white"/>
</clipPath>
</defs>
</svg>
