<svg width="50" height="50" viewBox="0 0 50 50" fill="none" xmlns="http://www.w3.org/2000/svg">
<g clip-path="url(#clip0_1_305)">
<path d="M49.59 29.65C44.81 30.13 44.27 31.88 47.69 36C42.79 35.13 41.85 36.63 43.74 41.42C39.64 39.32 38.37 40.52 38.9 45.72C35.57 42.55 34.05 43.39 33.05 48.91C30.81 44.65 29.1 45.07 27 50C25.62 45.45 23.8 45.41 20.38 49.86C20.13 44.86 18.38 44.27 13.88 47.43C15.17 42.78 13.68 41.83 8.88 43.43C11.04 39.61 9.88 38.33 4.55 38.53C7.84 35.53 7.02 33.97 1.36 32.79C5.77 30.71 5.36 28.99 0.0800018 26.19C4.96 25.43 5.01 23.6 0.900002 19.56C5.6 19.9 6.14 18.15 3.95 13.93C7.62 14.93 8.56 13.4 6.8 8.72001C10.8 10.72 12.04 9.51001 11.12 3.62001C14.84 7.48001 16.36 6.62001 17.6 0.44001C19.6 5.38001 21.31 4.96001 23.91 0.0100098C24.83 4.57001 26.65 4.62001 30.63 0.81001C30.32 5.22001 32.06 5.81001 36.8 2.70001C35.29 7.25001 36.8 8.20001 43.1 5.70001C39.45 10.38 40.63 11.7 47.76 11.36C42.65 14.48 43.47 16.02 49.45 18.08C44.73 19.29 45.15 21.01 50.08 23.8C45.45 24.59 45.4 26.43 49.59 29.65Z" fill="#F2F2F2"/>
<path d="M46.78 25.59C42.73 26.67 42.51 28.25 46.03 31.32C41.69 31.26 41.09 32.68 43.39 36.53C39.56 35.31 38.64 36.53 39.81 40.92C36.51 38.66 35.31 39.6 35.22 44.5C32.7 41.14 31.29 41.74 30.14 46.29C28.31 42.57 26.74 42.79 24.42 47.11C23.5 42.79 21.93 42.57 18.49 45.93C18.95 41.74 17.49 41.14 13.59 43.19C14.92 39.6 13.73 38.66 9.19 39.58C11.6 36.52 10.67 35.31 5.65 35.09C9.15 32.68 8.54 31.26 3.65 29.59C7.75 28.25 7.53 26.67 3.44 23.77C7.53 23.4 7.75 21.82 5.28 18.49C8.57 18.81 9.18 17.39 7.02 13.61C10.7 14.76 11.63 13.55 10.02 8.61002C13.75 11.4 14.94 10.46 15.15 4.95002C17.55 8.95002 18.97 8.32002 20.52 3.69002C21.95 7.49002 23.52 7.27002 26.42 3.43002C26.76 7.27002 28.33 7.49002 31.98 4.19002C31.31 8.32002 32.72 8.92002 37.82 5.92002C35.33 10.46 36.53 11.4 42.63 10.13C38.63 13.54 39.63 14.75 45.01 15.68C41.11 17.38 41.71 18.8 46.35 20.51C42.51 21.82 42.73 23.4 46.78 25.59Z" fill="#E6E6E6"/>
<path d="M43.15 24.94C43.1516 28.1186 42.3207 31.2423 40.74 34C39.8822 35.4948 38.8185 36.8615 37.58 38.06C35.8715 39.7103 33.8519 41.0044 31.6387 41.8671C29.4255 42.7298 27.0628 43.1439 24.6882 43.0852C22.3135 43.0266 19.9742 42.4965 17.8063 41.5256C15.6383 40.5547 13.685 39.1626 12.06 37.43C9.40621 34.6206 7.72073 31.0359 7.25 27.2C7.15265 26.4507 7.10588 25.6956 7.11 24.94C7.11 20.1661 9.00643 15.5877 12.3821 12.2121C15.7577 8.83643 20.3361 6.94 25.11 6.94C29.8839 6.94 34.4623 8.83643 37.8379 12.2121C41.2136 15.5877 43.11 20.1661 43.11 24.94H43.15Z" fill="#F5C813"/>
<path opacity="0.15" d="M33.3162 40.7696C36.2734 38.2367 35.9738 33.0347 32.6469 29.1505C29.3201 25.2663 24.226 24.1708 21.2688 26.7036C18.3116 29.2365 18.6112 34.4385 21.938 38.3227C25.2648 42.2069 30.359 43.3024 33.3162 40.7696Z" fill="black"/>
<path opacity="0.1" d="M40.74 34C39.8822 35.4948 38.8185 36.8615 37.58 38.06C35.8715 39.7103 33.8519 41.0044 31.6387 41.8671C29.4255 42.7298 27.0628 43.1439 24.6882 43.0852C22.3135 43.0266 19.9742 42.4965 17.8062 41.5256C15.6383 40.5548 13.685 39.1626 12.06 37.43C9.4062 34.6206 7.72073 31.0359 7.25 27.2C12.1791 27.8943 16.7999 30.0067 20.55 33.28C28.59 40 40.74 34 40.74 34Z" fill="black"/>
<path opacity="0.3" d="M40.7508 22.2034C42.6166 16.7069 38.3039 10.2738 31.1183 7.83458C23.9326 5.39538 16.5949 7.87378 14.7291 13.3702C12.8633 18.8667 17.1759 25.2998 24.3616 27.7391C31.5473 30.1783 38.885 27.6999 40.7508 22.2034Z" fill="white"/>
<path opacity="0.6" d="M42.47 24C39.47 15.82 32.02 10.05 23.35 10.05C19.9009 10.0531 16.5149 10.9746 13.54 12.72C16.73 7.90001 23.86 6.00001 30.91 8.49001C38.36 11.12 43.17 17.79 42.47 24Z" fill="white"/>
<path opacity="0.25" d="M37.58 38.07C35.8715 39.7203 33.8519 41.0144 31.6387 41.8771C29.4255 42.7398 27.0628 43.1539 24.6882 43.0953C22.3135 43.0366 19.9742 42.5065 17.8062 41.5356C15.6383 40.5648 13.685 39.1726 12.06 37.44C12.8285 37.7007 13.6575 37.7251 14.44 37.51C17.9 35.41 17.97 28.27 18.79 26.2C19.42 24.6 22.69 21.68 28.18 24.94C32.4285 27.5746 35.6578 31.5724 37.34 36.28C37.4705 36.8688 37.5508 37.4676 37.58 38.07Z" fill="white"/>
</g>
<defs>
<clipPath id="clip0_1_305">
<rect width="50" height="50" fill="white"/>
</clipPath>
</defs>
</svg>
