<svg width="760" height="760" viewBox="0 0 760 760" fill="none" xmlns="http://www.w3.org/2000/svg">
<g filter="url(#filter0_d_3_995)">
<g clip-path="url(#clip0_3_995)">
<rect x="80" y="80" width="600" height="600" rx="300" fill="url(#paint0_linear_3_995)"/>
<g filter="url(#filter1_d_3_995)">
<path fill-rule="evenodd" clip-rule="evenodd" d="M-5.39262 179.944L20.5755 156.643C32.0195 146.374 25.3471 127.395 9.99471 126.546C3.8692 126.208 -1.976 129.145 -5.36081 134.261L-9.04082 139.824C-11.0118 142.803 -11.7185 146.444 -11.0054 149.944L-10.5535 152.163C-9.62796 156.706 -11.8083 161.316 -15.9077 163.483L-16.6095 163.854C-22.6182 167.03 -23.7011 175.183 -18.7297 179.818C-14.9872 183.306 -9.20065 183.361 -5.39262 179.944ZM-20.3775 148.09L-22.9181 142.245C-24.7599 138.008 -30.0413 136.551 -33.7953 139.244C-35.7056 140.614 -36.833 142.825 -36.8199 145.176L-36.7843 151.549C-36.7588 156.098 -33.1797 159.832 -28.6363 160.05C-22.3028 160.353 -17.8498 153.905 -20.3775 148.09ZM-58.637 163.458L-54.9035 158.293C-52.1968 154.549 -53.6349 149.263 -57.8652 147.405C-60.0179 146.46 -62.4952 146.617 -64.5111 147.827L-69.9758 151.106C-73.8763 153.446 -75.2645 158.429 -73.1363 162.449C-70.1695 168.053 -62.3517 168.597 -58.637 163.458ZM124.044 430.253V428.546C124.044 415.074 130.403 402.392 141.198 394.332L145.589 391.054C158.245 381.605 174.423 378.216 189.807 381.79L193.689 382.692L229.995 391.091C231.175 391.364 232.396 391.412 233.594 391.233L240.558 390.193C246.464 389.31 248.366 381.737 243.579 378.168C241.879 376.901 240.878 374.905 240.878 372.784V372.319C240.878 368.745 243.356 365.648 246.844 364.864L255.758 362.861C261.223 361.633 264.292 355.805 262.211 350.604C260.829 347.15 257.484 344.885 253.763 344.885H249.784C244.295 344.885 239.246 347.887 236.625 352.71L234.279 357.026C233.941 357.649 233.558 358.245 233.133 358.812C226.922 367.093 214.299 366.442 208.973 357.566L208.062 356.048C204.174 349.567 196.235 346.758 189.136 349.349L168.268 356.968C166.464 357.626 164.764 358.543 163.223 359.69L150.749 368.974C146.004 372.505 139.194 370.346 137.351 364.726C136.061 360.795 137.732 356.501 141.339 354.475L145.165 352.328C148.975 350.189 151.334 346.159 151.334 341.79C151.334 338.009 153.103 334.446 156.115 332.161L173.837 318.716C175.302 317.606 176.484 316.165 177.288 314.513C179.589 309.783 184.762 307.169 189.935 308.123L198.465 309.697C205.606 311.014 212.777 307.55 216.184 301.137L217.927 297.857C219.31 295.253 219.375 292.148 218.102 289.489C214.869 282.739 205.388 282.39 201.668 288.884L198.546 294.336C196.099 298.607 190.262 299.386 186.781 295.905L186.359 295.483C185.228 294.352 183.694 293.717 182.095 293.717C178.765 293.717 176.065 291.017 176.065 287.687V278.452C176.065 275.254 177.069 272.137 178.936 269.541L194.017 248.564C202.089 237.337 216.097 232.03 229.582 235.09L243.61 238.274C245.989 238.814 247.946 240.501 248.83 242.775L248.926 243.022C250.305 246.566 248.633 250.566 245.142 252.075L243.257 252.891C241.813 253.515 240.878 254.938 240.878 256.512C240.878 258.691 242.644 260.458 244.823 260.458H249.444C253.548 260.458 257.075 257.548 257.855 253.519L258.505 250.163C259.381 245.638 262.638 241.942 267.017 240.503L290.123 232.914C295.517 231.142 299.521 226.576 300.572 220.996C301.771 214.634 306.778 209.676 313.152 208.541L315.576 208.11C320.534 207.227 324.945 204.426 327.853 200.314L351.13 167.399C356.336 160.038 365.408 156.46 374.237 158.287L376.144 158.681C381.405 159.77 385.93 163.1 388.534 167.8C392.894 175.67 402.3 179.243 410.786 176.252L417.621 173.844C422.879 171.991 428.692 172.615 433.437 175.541C439.306 179.16 446.703 179.205 452.615 175.657L461.067 170.586C467.769 166.565 475.635 164.927 483.386 165.94L508.223 169.186C516.868 170.316 525.658 169.014 533.605 165.428C540.918 162.129 548.955 160.759 556.948 161.45L584.771 163.854C588.49 164.175 591.733 166.512 593.214 169.939C594.554 173.037 594.267 176.598 592.447 179.441L590.357 182.706C587.745 186.788 586.949 191.773 588.16 196.466L589.254 200.706C590.278 204.673 590.402 208.818 589.617 212.84L587.449 223.953C586.71 227.737 584.062 230.866 580.453 232.219C575.814 233.959 572.89 238.562 573.287 243.501L576.297 280.906C576.465 283.003 574.993 284.877 572.916 285.209C570.946 285.524 569.042 284.351 568.438 282.45L562.034 262.304C558.541 251.316 547.179 244.867 535.954 247.502C530.813 248.708 526.275 251.717 523.163 255.983L520.639 259.444C514.195 268.279 512.449 279.695 515.958 290.052L523.366 311.917C526.217 320.331 524.27 329.63 518.285 336.195L513.987 340.908C511.696 343.421 510.675 346.841 511.212 350.199L511.653 352.957C512.676 359.352 506.978 364.789 500.639 363.468C494.031 362.092 488.224 368.03 489.747 374.606L494.155 393.631C496.064 401.869 493.02 410.467 486.353 415.669L478.475 421.815C474.021 425.29 471.417 430.624 471.417 436.273V446.385C471.417 450.929 467.734 454.611 463.191 454.611H457.4C454.99 454.611 453.222 456.876 453.806 459.214C454.79 463.15 449.643 465.577 447.233 462.314L426.391 434.097C423.458 430.126 418.18 428.69 413.639 430.627L406.693 433.591C402.408 435.419 398.885 438.673 396.723 442.801L386.52 462.281C385.55 464.131 382.984 464.339 381.729 462.669L358.743 432.08C351.455 422.381 341.054 415.482 329.284 412.54L316.203 408.261C311.394 406.688 307.587 412.473 310.935 416.267C311.413 416.808 312.002 417.239 312.663 417.529L313.094 417.718C317.855 419.808 318.831 426.136 314.921 429.563L308.78 434.948C305.02 438.244 299.64 438.937 295.169 436.701L289.874 434.053C281.189 429.711 271.61 438.086 274.753 447.272C276.255 451.662 280.381 454.611 285.02 454.611H285.318C293.448 454.611 298.902 462.959 295.636 470.405L282.4 500.585C281.63 502.339 281.016 504.157 280.564 506.018L274.498 530.997C272.574 538.918 268.969 546.334 263.928 552.74L239.768 583.439C235.981 588.25 230.197 591.059 224.074 591.059C218.645 591.059 213.451 588.849 209.686 584.937L204.338 579.381C197.506 572.283 193.689 562.814 193.689 552.962V523.972L190.681 499.526C189.69 491.475 185.748 484.077 179.617 478.764C174.707 474.508 168.642 471.808 162.194 471.007L159.782 470.707C139.369 468.171 124.044 450.823 124.044 430.253ZM-35.0198 193.626L-39.3739 199.658C-43.7098 205.664 -52.8454 205.029 -56.3077 198.48C-58.7874 193.789 -57.1685 187.978 -52.6207 185.246L-46.2442 181.414C-43.8886 179.999 -40.9925 179.815 -38.4768 180.921C-33.543 183.09 -31.8653 189.256 -35.0198 193.626ZM-23.4958 203.24L-27.8877 206.331C-29.7641 207.651 -30.8805 209.802 -30.8805 212.097C-30.8805 214.586 -29.5677 216.891 -27.4265 218.161L-16.5865 224.589C-10.2926 228.321 -6.43364 235.096 -6.43364 242.414V243.616C-6.43364 246.816 -5.51082 249.949 -3.77574 252.638L-1.27997 256.507C2.18813 261.882 9.29112 263.545 14.7845 260.266C19.3775 257.525 21.5713 252.052 20.143 246.898L12.8388 220.539C10.7183 212.887 5.24622 206.607 -2.04378 203.459L-6.58803 201.496C-12.1437 199.097 -18.5468 199.758 -23.4958 203.24ZM75.9733 139.127L33.0394 164.309C29.3661 166.463 27.1096 170.403 27.1096 174.661C27.1096 177.731 28.2858 180.684 30.3963 182.913L37.8918 190.83C46.9593 200.407 50.6298 213.887 47.6691 226.739L41.3752 254.061C40.4454 258.097 41.4319 262.336 44.048 265.547C48.6839 271.236 57.0309 272.144 62.7819 267.585L91.3659 244.925C101.572 236.835 108.248 225.106 109.995 212.2L111.327 202.355C112.032 197.149 113.455 192.065 115.555 187.25L120.892 175.014C122.954 170.286 123.689 165.084 123.018 159.969C121.424 147.836 112.235 138.089 100.216 135.786L97.923 135.346C90.3901 133.903 82.5892 135.246 75.9733 139.127ZM-246.776 253.492C-250.707 232.405 -247.236 188.817 -205.042 170.231C-204.166 169.845 -203.29 169.438 -202.411 169.03L-202.411 169.03L-202.411 169.03L-202.41 169.03L-202.41 169.029L-202.41 169.029L-202.41 169.029C-198.714 167.312 -194.965 165.57 -190.95 165.279C-182.638 164.679 -169.703 169.188 -154.88 188.026C-154.341 188.71 -153.83 189.372 -153.336 190.012C-149.792 194.602 -147.126 198.055 -141.427 200.625C-130.591 205.511 -123.349 195.769 -116.073 185.981C-108.817 176.221 -101.528 166.415 -90.6077 171.026C-87.5537 172.315 -83.7824 174.875 -79.1614 179.04C-74.3226 183.402 -70.837 189.075 -68.3773 195.108L-63.1652 207.889C-61.2414 212.608 -57.5184 216.366 -52.8186 218.334C-40.3625 223.551 -37.0598 239.667 -46.4599 249.363L-58.3459 261.622C-65.884 269.397 -65.5316 281.857 -57.5661 289.194L-53.0136 293.387C-46.2085 299.655 -35.3382 297.942 -30.7901 289.885C-25.6487 280.778 -12.8057 280.05 -6.66846 288.519L3.23816 302.188C10.941 312.817 9.18932 327.579 -0.786972 336.11L-59.0122 385.9C-61.9054 388.374 -63.5712 391.99 -63.5712 395.797C-63.5712 405.028 -72.9092 411.328 -81.4687 407.873L-87.4706 405.45C-97.9286 401.227 -109.338 408.925 -109.338 420.203C-109.338 425.692 -106.509 430.794 -101.853 433.7L-74.8417 450.563C-65.4909 456.4 -54.1115 458.022 -43.5022 455.03C-32.9258 452.047 -21.5824 453.649 -12.2461 459.445L41.835 493.018C55.1998 501.315 59.2854 518.889 50.9512 532.23L-0.276657 614.236C-3.04164 618.662 -5.18402 623.448 -6.64343 628.459L-10.6361 642.167C-12.1593 647.397 -12.1052 652.96 -10.4805 658.159L-5.67421 673.539C-4.94153 675.883 -5.81067 678.433 -7.82304 679.841C-10.5721 681.766 -14.383 680.878 -15.9994 677.938L-34.6895 643.938C-37.9719 637.967 -39.6929 631.263 -39.6929 624.45V565.108C-39.6929 552.827 -44.7725 541.093 -53.7271 532.688L-59.128 527.619C-67.1744 520.067 -70.6644 508.844 -68.3201 498.061C-65.4777 484.985 -71.2353 471.546 -82.6619 464.584L-120.28 441.662C-123.181 439.895 -125.64 437.49 -127.471 434.63L-154.365 392.623C-156.017 390.042 -159.983 390.868 -160.468 393.894C-161.011 397.291 -165.716 397.742 -166.895 394.511L-177.924 364.276C-178.618 362.373 -178.806 360.322 -178.47 358.324L-172.58 323.344C-170.642 311.832 -172.295 300.002 -177.314 289.461L-192.313 257.964C-195.805 250.631 -203.202 245.96 -211.324 245.96H-212.03C-216.047 245.96 -219.959 247.24 -223.199 249.613L-234.824 258.13C-238.809 261.049 -244.476 259.456 -246.356 254.889C-246.544 254.433 -246.685 253.976 -246.776 253.492ZM480.495 478.935L478.568 481.205C474.712 485.746 475.064 492.505 479.371 496.621L481.239 498.405C483.241 500.318 486.137 500.967 488.764 500.091C491.816 499.074 493.874 496.219 493.874 493.002V483.849C493.874 481.071 492.357 478.515 489.918 477.184C486.758 475.461 482.824 476.192 480.495 478.935ZM478.524 572.798V579.189C478.524 591.397 488.42 601.292 500.627 601.292C503.119 601.292 505.593 600.871 507.945 600.046L511.525 598.79C517.369 596.739 523.761 596.899 529.495 599.24C532.81 600.593 535.801 602.633 538.271 605.226L548.432 615.896C550.501 618.068 553.058 619.716 555.891 620.703C564.315 623.639 573.644 620.278 578.26 612.644L582.206 606.117C584.132 602.932 585.411 599.398 585.968 595.718L588.369 579.87C589.029 575.514 588.221 571.063 586.071 567.218L569.665 537.869C567.438 533.884 561.529 534.475 560.135 538.822C559.441 540.983 557.432 542.449 555.162 542.449H553.761C550.889 542.449 548.296 540.729 547.18 538.083L546.207 535.778C543.636 529.684 536.279 527.259 530.589 530.631L514.049 540.433C511.792 541.77 509.356 542.78 506.815 543.433L499.935 545.198C487.334 548.432 478.524 559.789 478.524 572.798ZM441.567 488.363L450.412 502.288C451.455 503.931 453.266 504.926 455.212 504.926C458.353 504.926 460.899 502.38 460.899 499.239V498.731C460.899 497.227 460.353 495.775 459.361 494.645L448.979 482.81C447.62 481.26 445.402 480.792 443.532 481.66C440.986 482.842 440.062 485.994 441.567 488.363ZM283.085 549.731L292.094 535.911C293.627 533.56 296.878 533.095 299.009 534.922C300.574 536.264 301.067 538.477 300.219 540.356L293.749 554.709C293.132 556.08 292.036 557.179 290.668 557.802L290.205 558.012C287.347 559.314 283.974 558.052 282.673 555.193C281.867 553.422 282.022 551.361 283.085 549.731ZM557.362 511.88L558.514 512.937C560.27 514.55 562.568 515.444 564.953 515.444H570.418C572.801 515.444 575.154 515.972 577.309 516.991L585.982 521.091C588.111 522.097 590.655 521.415 591.995 519.48C593.529 517.264 592.944 514.221 590.698 512.731L568.318 497.884C566.857 496.915 565.143 496.398 563.39 496.398C555.262 496.398 551.374 506.385 557.362 511.88ZM622.922 652.03L609.819 663.118C608.321 664.385 607.832 666.484 608.614 668.283C609.491 670.299 611.71 671.371 613.835 670.805L617.892 669.723C621.023 668.888 623.496 666.487 624.423 663.383L627.015 654.708C627.741 652.277 624.859 650.392 622.922 652.03ZM633.789 637.577L638.778 621.153C639.515 618.725 642.959 618.745 643.668 621.181L646.199 629.874C647.105 632.985 646.331 636.343 644.154 638.743L641.333 641.854C639.856 643.483 637.41 643.787 635.579 642.569C633.946 641.482 633.218 639.454 633.789 637.577Z" fill="#A7CF75"/>
</g>
<g opacity="0.6" filter="url(#filter2_f_3_995)">
<path d="M529.518 100.192L527.052 103.428C521.101 111.234 510.894 114.47 501.533 111.517C499.267 110.802 496.905 110.439 494.529 110.439H474.192C467.911 110.439 462.01 113.445 458.318 118.527C451.939 127.308 453.901 139.6 462.697 145.959L473.396 153.694C480.491 158.823 489.342 160.902 497.978 159.468L516.015 156.473C519.077 155.965 522.078 155.134 524.966 153.996C540.884 147.719 558.997 151.22 571.429 162.977L588.074 178.718C591.073 181.553 594.324 184.108 597.788 186.351C627.944 205.877 668.101 198.434 689.255 169.398L699.229 155.709C704.785 148.083 706.778 138.431 704.698 129.228L701.192 113.714C698.867 103.429 688.258 97.3172 678.194 100.466C674.476 101.629 671.234 103.964 668.952 107.121L667.916 108.555C661.944 116.819 651.304 120.259 641.625 117.054L573.878 94.6213L562.604 90.5066C550.644 86.1417 537.236 90.0669 529.518 100.192Z" fill="white"/>
<path d="M312.023 388.184L309.557 391.419C303.606 399.226 293.399 402.461 284.038 399.509L283.604 399.372C281.626 398.748 279.564 398.43 277.49 398.43H270.945C259.462 398.43 251.715 410.166 256.228 420.725C262.475 437.548 279.776 447.577 297.479 444.638L299.015 444.383C301.748 443.929 304.426 443.188 307.004 442.172L307.471 441.987C323.389 435.711 341.502 439.212 353.934 450.969L370.58 466.709C373.578 469.545 376.83 472.1 380.294 474.343C410.449 493.869 450.606 486.426 471.761 457.39L476.227 451.26C485.282 438.83 488.532 423.097 485.142 408.098C481.508 392.021 470.645 378.527 455.714 371.545L454.889 371.159C441.669 362.858 425.47 360.784 410.586 365.487L366.452 379.432C359.923 381.495 352.896 381.34 346.465 378.993L345.109 378.498C333.149 374.133 319.741 378.059 312.023 388.184Z" fill="white"/>
<path d="M832.224 582.66L723.627 609.152C715.456 611.145 706.895 610.861 698.874 608.331L695.1 607.141C693.122 606.517 691.06 606.199 688.986 606.199H682.441C670.958 606.199 663.211 617.935 667.724 628.494C673.971 645.317 691.272 655.346 708.975 652.407L714.623 651.469L808.81 643.48C838.886 640.929 868.623 651.328 890.554 672.067L893.104 674.478C896.102 677.314 899.354 679.869 902.818 682.112C932.973 701.638 973.13 694.195 994.285 665.159L998.751 659.029C1007.81 646.599 1011.06 630.866 1007.67 615.867C1004.03 599.79 993.169 586.296 978.238 579.314L977.413 578.928C964.193 570.627 947.994 568.553 933.11 573.256L895.747 585.061C884.828 588.511 873.075 588.253 862.317 584.327C852.672 580.807 842.199 580.227 832.224 582.66Z" fill="white"/>
<path d="M166.454 209.35L168.921 212.585C174.871 220.392 185.078 223.627 194.439 220.675L194.874 220.538C196.852 219.914 198.914 219.596 200.988 219.596H207.532C219.015 219.596 226.762 231.332 222.249 241.891C216.002 258.714 198.702 268.743 180.999 265.804L179.462 265.549C176.729 265.095 174.051 264.354 171.474 263.338L171.006 263.153C155.088 256.877 136.976 260.378 124.543 272.135L107.898 287.875C104.899 290.711 101.648 293.266 98.1837 295.509C68.0286 315.035 27.8711 307.592 6.71672 278.556L2.25032 272.426C-6.8051 259.996 -10.0546 244.263 -6.66425 229.264C-3.03046 213.187 7.83276 199.693 22.7633 192.711L23.5888 192.325C36.8081 184.024 53.0068 181.95 67.891 186.653L112.026 200.598C118.554 202.661 125.581 202.506 132.013 200.159L133.368 199.664C145.328 195.299 158.737 199.225 166.454 209.35Z" fill="white"/>
</g>
<g opacity="0.4" filter="url(#filter3_f_3_995)">
<path d="M344.188 -30.6574C96.0008 235.005 248.623 670.08 608.384 722.477L723.731 739.277L-298.386 627.446L344.188 -30.6574Z" fill="#1E819A"/>
</g>
<g opacity="0.3" filter="url(#filter4_f_3_995)">
<path d="M427.692 788.612C691.822 538.796 566.378 95.1195 210.544 20.5898L96.4548 -3.30611L1109.71 171.476L427.692 788.612Z" fill="white"/>
</g>
</g>
</g>
<defs>
<filter id="filter0_d_3_995" x="0" y="0" width="760" height="760" filterUnits="userSpaceOnUse" color-interpolation-filters="sRGB">
<feFlood flood-opacity="0" result="BackgroundImageFix"/>
<feColorMatrix in="SourceAlpha" type="matrix" values="0 0 0 0 0 0 0 0 0 0 0 0 0 0 0 0 0 0 127 0" result="hardAlpha"/>
<feOffset/>
<feGaussianBlur stdDeviation="40"/>
<feComposite in2="hardAlpha" operator="out"/>
<feColorMatrix type="matrix" values="0 0 0 0 0 0 0 0 0 0.458156 0 0 0 0 0.566667 0 0 0 0.6 0"/>
<feBlend mode="normal" in2="BackgroundImageFix" result="effect1_dropShadow_3_995"/>
<feBlend mode="normal" in="SourceGraphic" in2="effect1_dropShadow_3_995" result="shape"/>
</filter>
<filter id="filter1_d_3_995" x="-268" y="110.52" width="934.571" height="594.342" filterUnits="userSpaceOnUse" color-interpolation-filters="sRGB">
<feFlood flood-opacity="0" result="BackgroundImageFix"/>
<feColorMatrix in="SourceAlpha" type="matrix" values="0 0 0 0 0 0 0 0 0 0 0 0 0 0 0 0 0 0 127 0" result="hardAlpha"/>
<feOffset dy="4"/>
<feGaussianBlur stdDeviation="10"/>
<feComposite in2="hardAlpha" operator="out"/>
<feColorMatrix type="matrix" values="0 0 0 0 0.160417 0 0 0 0 0.619952 0 0 0 0 0.7 0 0 0 1 0"/>
<feBlend mode="normal" in2="BackgroundImageFix" result="effect1_dropShadow_3_995"/>
<feBlend mode="normal" in="SourceGraphic" in2="effect1_dropShadow_3_995" result="shape"/>
</filter>
<filter id="filter2_f_3_995" x="-225.978" y="68.7429" width="2477.96" height="644.242" filterUnits="userSpaceOnUse" color-interpolation-filters="sRGB">
<feFlood flood-opacity="0" result="BackgroundImageFix"/>
<feBlend mode="normal" in="SourceGraphic" in2="BackgroundImageFix" result="shape"/>
<feGaussianBlur stdDeviation="10" result="effect1_foregroundBlur_3_995"/>
</filter>
<filter id="filter3_f_3_995" x="-338.386" y="-70.6575" width="1102.12" height="849.934" filterUnits="userSpaceOnUse" color-interpolation-filters="sRGB">
<feFlood flood-opacity="0" result="BackgroundImageFix"/>
<feBlend mode="normal" in="SourceGraphic" in2="BackgroundImageFix" result="shape"/>
<feGaussianBlur stdDeviation="20" result="effect1_foregroundBlur_3_995"/>
</filter>
<filter id="filter4_f_3_995" x="16.4548" y="-83.3062" width="1173.25" height="951.918" filterUnits="userSpaceOnUse" color-interpolation-filters="sRGB">
<feFlood flood-opacity="0" result="BackgroundImageFix"/>
<feBlend mode="normal" in="SourceGraphic" in2="BackgroundImageFix" result="shape"/>
<feGaussianBlur stdDeviation="40" result="effect1_foregroundBlur_3_995"/>
</filter>
<linearGradient id="paint0_linear_3_995" x1="233.938" y1="391.787" x2="744.443" y2="348.413" gradientUnits="userSpaceOnUse">
<stop stop-color="#228EA9"/>
<stop offset="1" stop-color="#02DEFE"/>
</linearGradient>
<clipPath id="clip0_3_995">
<rect x="80" y="80" width="600" height="600" rx="300" fill="white"/>
</clipPath>
</defs>
</svg>
