<svg width="838" height="838" viewBox="0 0 838 838" fill="none" xmlns="http://www.w3.org/2000/svg">
<g filter="url(#filter0_d_3_678)">
<g clip-path="url(#clip0_3_678)">
<rect x="80" y="163.504" width="600" height="600" rx="300" transform="rotate(-8 80 163.504)" fill="url(#paint0_linear_3_678)"/>
<g filter="url(#filter1_f_3_678)">
<path opacity="0.8" d="M-1280.01 737.365L-1087.78 644.823C-1032.05 617.998 -969.329 609.299 -908.409 619.949L-794.799 639.811C-734.235 650.399 -671.878 641.866 -616.385 615.396L-504.906 562.219C-449.748 535.909 -387.798 527.315 -327.561 537.619L-209.843 557.755C-148.885 568.182 -86.1911 559.254 -30.5667 532.224L75.5761 480.646C131.534 453.455 194.636 444.586 255.921 455.3L371.579 475.52C432.864 486.234 495.967 477.366 551.925 450.174L657.529 398.858C713.487 371.667 776.589 362.798 837.874 373.512L1047.8 410.213" stroke="#D66C14" stroke-width="32"/>
<path opacity="0.5" d="M-1380.52 850.232L-1188.29 757.69C-1132.57 730.864 -1069.84 722.166 -1008.92 732.816L-895.31 752.678C-834.746 763.266 -772.389 754.732 -716.897 728.262L-605.417 675.086C-550.259 648.775 -488.309 640.182 -428.072 650.485L-310.355 670.621C-249.396 681.048 -186.702 672.12 -131.078 645.091L-24.9351 593.513C31.0224 566.321 94.1252 557.453 155.41 568.167L271.068 588.387C332.353 599.101 395.456 590.232 451.413 563.041L557.018 511.725C612.975 484.533 676.078 475.665 737.363 486.379L947.291 523.079" stroke="#D66C14" stroke-width="24"/>
<path d="M-1314.14 778.516L-1121.91 685.974C-1066.19 659.149 -1003.46 650.45 -942.544 661.1L-828.933 680.962C-768.37 691.55 -706.012 683.017 -650.52 656.547L-539.04 603.37C-483.882 577.06 -421.933 568.466 -361.696 578.77L-243.978 598.906C-183.019 609.333 -120.326 600.405 -64.7013 573.375L41.4415 521.797C97.3991 494.606 160.502 485.737 221.787 496.451L337.445 516.671C398.73 527.385 461.832 518.517 517.79 491.325L623.394 440.009C679.352 412.818 742.455 403.949 803.74 414.663L1013.67 451.364" stroke="#D66C14" stroke-width="16"/>
<path d="M-1347.9 803.457L-1155.66 710.914C-1099.94 684.089 -1037.22 675.39 -976.295 686.041L-862.685 705.902C-802.121 716.49 -739.764 707.957 -684.272 681.487L-572.792 628.31C-517.634 602 -455.685 593.406 -395.448 603.71L-277.73 623.846C-216.771 634.273 -154.077 625.345 -98.453 598.315L7.68979 546.737C63.6473 519.546 126.75 510.677 188.035 521.391L303.693 541.611C364.978 552.325 428.081 543.457 484.038 516.265L589.643 464.949C645.6 437.758 708.703 428.889 769.988 439.603L979.916 476.304" stroke="#D66C14" stroke-width="8"/>
<path d="M-1335.47 811.261L-1143.24 718.719C-1087.51 691.894 -1024.79 683.195 -963.866 693.845L-850.256 713.707C-789.692 724.295 -727.335 715.762 -671.843 689.292L-560.363 636.115C-505.205 609.805 -443.255 601.211 -383.018 611.515L-265.301 631.651C-204.342 642.078 -141.648 633.15 -86.0239 606.12L20.1189 554.542C76.0764 527.351 139.179 518.482 200.464 529.196L316.122 549.416C377.407 560.13 440.51 551.262 496.467 524.07L602.072 472.754C658.029 445.563 721.132 436.694 782.417 447.408L992.345 484.109" stroke="#D66C14" stroke-width="4"/>
<path d="M-1359.69 826.136L-1167.46 733.594C-1111.73 706.768 -1049.01 698.07 -988.086 708.72L-874.476 728.582C-813.912 739.17 -751.555 730.636 -696.063 704.166L-584.583 650.99C-529.425 624.679 -467.475 616.086 -407.238 626.389L-289.521 646.525C-228.562 656.952 -165.868 648.024 -110.244 620.995L-4.10118 569.417C51.8564 542.225 114.959 533.357 176.244 544.071L291.902 564.291C353.187 575.005 416.29 566.136 472.247 538.945L577.852 487.628C633.809 460.437 696.912 451.568 758.197 462.283L968.125 498.983" stroke="#D66C14" stroke-width="4"/>
<path d="M-1335.77 921.57L-1131.94 825.695C-1077.63 800.149 -1016.84 791.716 -957.627 801.514L-829.333 822.743C-770.469 832.484 -710.035 824.208 -655.957 799.001L-530.492 740.519C-476.74 715.464 -416.701 707.133 -358.158 716.605L-225.645 738.047C-166.398 747.633 -105.637 738.983 -51.4201 713.244L68.6053 656.262C123.148 630.369 184.306 621.773 243.873 631.63L374.383 653.226C433.95 663.083 495.108 654.488 549.651 628.594L669.152 571.861C723.695 545.967 784.852 537.372 844.42 547.229L1066.42 583.964" stroke="#D66C14" stroke-width="2"/>
<path d="M-1373.96 941.722L-1170.14 845.847C-1115.83 820.301 -1055.04 811.868 -995.823 821.666L-867.529 842.895C-808.665 852.636 -748.231 844.36 -694.153 819.153L-568.688 760.671C-514.936 735.616 -454.897 727.285 -396.354 736.757L-263.841 758.199C-204.594 767.785 -143.833 759.135 -89.6161 733.396L30.4093 676.415C84.9523 650.521 146.11 641.926 205.677 651.782L336.187 673.378C395.754 683.235 456.912 674.64 511.455 648.746L630.956 592.013C685.499 566.119 746.656 557.524 806.224 567.381L1028.23 604.116" stroke="#D66C14" stroke-width="2"/>
<path d="M-1329.12 949.479L-1125.3 853.604C-1070.99 828.059 -1010.2 819.626 -950.984 829.424L-822.69 850.653C-763.826 860.393 -703.392 852.117 -649.313 826.91L-523.848 768.428C-470.096 743.373 -410.058 735.042 -351.514 744.515L-219.002 765.956C-159.755 775.543 -98.9942 766.893 -44.7768 741.153L75.2486 684.172C129.792 658.278 190.949 649.683 250.516 659.54L381.026 681.136C440.594 690.992 501.751 682.397 556.294 656.503L675.795 599.771C730.338 573.877 791.496 565.282 851.063 575.138L1073.07 611.874" stroke="#D66C14" stroke-width="8"/>
<path opacity="0.8" d="M-1344.56 961.748L-1140.74 865.873C-1086.43 840.327 -1025.64 831.894 -966.427 841.692L-838.133 862.922C-779.268 872.662 -718.835 864.386 -664.756 839.179L-539.291 780.697C-485.539 755.642 -425.5 747.311 -366.957 756.783L-234.444 778.225C-175.198 787.811 -114.437 779.161 -60.2196 753.422L59.8058 696.441C114.349 670.547 175.506 661.952 235.073 671.808L365.583 693.404C425.151 703.261 486.308 694.666 540.851 668.772L660.353 612.039C714.896 586.145 776.053 577.55 835.62 587.407L1057.62 624.142" stroke="#D66C14" stroke-width="16"/>
<path d="M-1323.6 989.157L-1119.78 893.283C-1065.47 867.737 -1004.67 859.304 -945.463 869.102L-817.169 890.331C-758.305 900.072 -697.871 891.796 -643.792 866.588L-518.327 808.107C-464.575 783.052 -404.536 774.72 -345.993 784.193L-213.48 805.635C-154.234 815.221 -93.473 806.571 -39.2556 780.832L80.7698 723.85C135.313 697.956 196.47 689.361 256.037 699.218L386.547 720.814C446.115 730.671 507.272 722.076 561.815 696.182L681.317 639.449C735.86 613.555 797.017 604.96 856.584 614.817L1078.59 651.552" stroke="#D66C14" stroke-width="4"/>
<path d="M-1317.14 719.357L-1124.9 626.815C-1069.18 599.989 -1006.46 591.291 -945.536 601.941L-831.925 621.803C-771.362 632.391 -709.004 623.858 -653.512 597.387L-542.032 544.211C-486.874 517.9 -424.925 509.307 -364.688 519.611L-246.97 539.746C-186.011 550.174 -123.318 541.245 -67.6932 514.216L38.4496 462.638C94.4071 435.446 157.51 426.578 218.795 437.292L334.453 457.512C395.738 468.226 458.841 459.358 514.798 432.166L620.403 380.85C676.36 353.658 739.463 344.79 800.748 355.504L1010.68 392.204" stroke="#D66C14" stroke-width="8"/>
<path d="M-1344.91 710.45L-1152.68 617.907C-1096.95 591.082 -1034.23 582.383 -973.308 593.034L-859.698 612.896C-799.135 623.484 -736.777 614.95 -681.285 588.48L-569.805 535.304C-514.647 508.993 -452.698 500.399 -392.461 510.703L-274.743 530.839C-213.784 541.266 -151.091 532.338 -95.4661 505.308L10.6767 453.73C66.6342 426.539 129.737 417.67 191.022 428.385L306.68 448.604C367.965 459.319 431.068 450.45 487.025 423.259L592.63 371.942C648.587 344.751 711.69 335.882 772.975 346.596L982.903 383.297" stroke="#D66C14" stroke-width="4"/>
<path opacity="0.5" d="M-1495.78 526.342L-1291.96 430.467C-1237.65 404.921 -1176.86 396.488 -1117.65 406.286L-989.353 427.516C-930.488 437.256 -870.054 428.98 -815.976 403.773L-690.511 345.291C-636.759 320.236 -576.72 311.905 -518.177 321.377L-385.664 342.819C-326.418 352.405 -265.657 343.755 -211.439 318.016L-91.414 261.035C-36.871 235.141 24.2862 226.546 83.8537 236.402L214.364 257.998C273.931 267.855 335.088 259.26 389.631 233.366L509.133 176.633C563.676 150.739 624.833 142.144 684.4 152.001L906.403 188.736" stroke="#D66C14" stroke-width="8"/>
<path d="M-1457.52 504.759L-1253.69 408.884C-1199.38 383.338 -1138.59 374.905 -1079.38 384.703L-951.087 405.932C-892.222 415.673 -831.788 407.397 -777.71 382.19L-652.245 323.708C-598.493 298.653 -538.454 290.322 -479.911 299.794L-347.398 321.236C-288.152 330.822 -227.391 322.172 -173.173 296.433L-53.148 239.451C1.39506 213.557 62.5523 204.962 122.12 214.819L252.63 236.415C312.197 246.272 373.354 237.677 427.897 211.783L547.399 155.05C601.942 129.156 663.099 120.561 722.667 130.418L944.669 167.153" stroke="#D66C14" stroke-width="4"/>
<path opacity="0.7" d="M-1454.45 434.328L-1250.63 338.453C-1196.32 312.908 -1135.53 304.475 -1076.32 314.272L-948.023 335.502C-889.159 345.242 -828.725 336.966 -774.646 311.759L-649.181 253.277C-595.429 228.222 -535.39 219.891 -476.847 229.364L-344.334 250.805C-285.088 260.392 -224.327 251.741 -170.11 226.002L-50.0843 169.021C4.45875 143.127 65.616 134.532 125.183 144.388L255.693 165.984C315.261 175.841 376.418 167.246 430.961 141.352L550.463 84.6194C605.006 58.7254 666.163 50.1304 725.73 59.9871L947.733 96.7224" stroke="#D66C14" stroke-width="4"/>
<path opacity="0.8" d="M-1495.12 556.248L-1291.29 460.373C-1236.98 434.828 -1176.19 426.395 -1116.98 436.193L-988.686 457.422C-929.822 467.162 -869.388 458.886 -815.309 433.679L-689.844 375.197C-636.092 350.142 -576.054 341.811 -517.51 351.284L-384.997 372.725C-325.751 382.312 -264.99 373.662 -210.773 347.922L-90.7473 290.941C-36.2043 265.047 24.9529 256.452 84.5204 266.309L215.03 287.904C274.598 297.761 335.755 289.166 390.298 263.272L509.799 206.54C564.343 180.646 625.5 172.051 685.067 181.907L907.07 218.643" stroke="#D66C14" stroke-width="16"/>
<path opacity="0.7" d="M-1484.15 605.112L-1280.32 509.237C-1226.01 483.692 -1165.22 475.259 -1106.01 485.057L-977.716 506.286C-918.852 516.026 -858.418 507.75 -804.339 482.543L-678.875 424.061C-625.123 399.006 -565.084 390.675 -506.541 400.148L-374.028 421.589C-314.781 431.176 -254.02 422.526 -199.803 396.786L-79.7775 339.805C-25.2345 313.911 35.9227 305.316 95.4901 315.173L226 336.768C285.567 346.625 346.725 338.03 401.268 312.136L520.769 255.403C575.312 229.509 636.47 220.914 696.037 230.771L918.039 267.506" stroke="#D66C14" stroke-width="8"/>
<path opacity="0.7" d="M-1537.14 592.363L-1333.32 496.489C-1279.01 470.943 -1218.22 462.51 -1159.01 472.308L-1030.71 493.537C-971.848 503.278 -911.414 495.002 -857.336 469.795L-731.871 411.313C-678.119 386.258 -618.08 377.927 -559.537 387.399L-427.024 408.841C-367.777 418.427 -307.016 409.777 -252.799 384.038L-132.774 327.056C-78.2306 301.162 -17.0733 292.567 42.4941 302.424L173.004 324.02C232.571 333.877 293.729 325.282 348.272 299.388L467.773 242.655C522.316 216.761 583.473 208.166 643.041 218.023L865.043 254.758" stroke="#D66C14" stroke-width="8"/>
<path d="M-1530.6 546.846L-1326.78 450.971C-1272.47 425.426 -1211.68 416.993 -1152.46 426.791L-1024.17 448.02C-965.306 457.76 -904.872 449.484 -850.793 424.277L-725.328 365.795C-671.576 340.74 -611.537 332.409 -552.994 341.882L-420.481 363.323C-361.235 372.91 -300.474 364.26 -246.257 338.52L-126.231 281.539C-71.6882 255.645 -10.531 247.05 49.0364 256.907L179.546 278.502C239.114 288.359 300.271 279.764 354.814 253.87L474.316 197.137C528.859 171.244 590.016 162.648 649.583 172.505L871.586 209.24" stroke="#D66C14" stroke-width="4"/>
<path opacity="0.7" d="M682.589 510.011C685.822 522.129 648.34 547.33 608.028 559.352C567.717 571.374 531.121 578.205 527.888 566.087C524.654 553.969 556.007 527.492 596.318 515.469C636.629 503.447 679.355 497.893 682.589 510.011Z" fill="#D66C14"/>
<path opacity="0.6" d="M665.538 514.427C668.045 523.822 637.966 545.101 606.713 554.422C575.46 563.743 544.336 570.493 541.829 561.098C539.322 551.703 566.381 529.72 597.634 520.4C628.888 511.079 663.03 505.032 665.538 514.427Z" fill="#F8B375"/>
<path d="M608.857 249.39C610.898 258.897 596.513 274.57 580.602 278.472C564.692 282.374 548.656 283.808 546.616 274.301C544.575 264.794 557.302 247.945 573.212 244.043C589.123 240.141 606.816 239.883 608.857 249.39Z" fill="#F8B375"/>
<path opacity="0.6" d="M597.724 253.555C599.039 259.679 589.773 269.774 579.525 272.288C569.277 274.801 558.948 275.725 557.633 269.601C556.319 263.477 564.517 252.625 574.765 250.111C585.013 247.598 596.41 247.432 597.724 253.555Z" fill="#BA6824"/>
<path opacity="0.5" d="M654.288 517.018C655.868 522.937 630.686 540.478 607.049 547.527C583.412 554.577 557.419 562.523 555.839 556.604C554.26 550.685 577.692 533.142 601.329 526.093C624.966 519.043 652.709 511.099 654.288 517.018Z" fill="#D66C14"/>
<path opacity="0.6" d="M640.105 523.878C641.225 528.075 622.977 539.411 606.217 544.409C589.457 549.408 574.079 553.28 572.959 549.083C571.839 544.886 585.401 534.209 602.161 529.211C618.921 524.213 638.985 519.682 640.105 523.878Z" fill="#91470A"/>
<path opacity="0.6" d="M406.821 438.682C406.545 443.017 385.636 447.947 368.157 447.345C350.678 446.743 334.868 445.514 335.144 441.179C335.419 436.844 351.676 431.045 369.155 431.647C386.634 432.249 407.096 434.347 406.821 438.682Z" fill="#91470A"/>
<path d="M371.23 600.966C371.877 605.261 360.11 613.123 349.386 615.059C338.662 616.994 328.834 618.073 328.187 613.777C327.54 609.482 336.32 601.439 347.044 599.504C357.768 597.569 370.583 596.671 371.23 600.966Z" fill="#CE7422"/>
<path opacity="0.5" d="M391.081 221.493C390.184 216.994 374.929 214.831 357.342 218.337C339.755 221.844 322.584 230.825 323.481 235.325C324.378 239.825 343.275 239.497 360.862 235.99C378.449 232.483 391.978 225.993 391.081 221.493Z" fill="#D66C14"/>
<path opacity="0.4" d="M461.065 189.908C459.004 185.809 451.628 183.804 445.359 186.957C439.09 190.11 435.038 198.248 437.099 202.347C439.16 206.446 447.177 206.191 453.446 203.038C459.715 199.885 463.127 194.007 461.065 189.908Z" fill="#D66C14"/>
<path opacity="0.3" d="M293.148 257.446C292.51 252.902 288.67 248.288 284.809 248.83C280.949 249.373 277.704 255.333 278.343 259.876C278.981 264.42 283.454 267.198 287.315 266.655C291.175 266.112 293.787 261.989 293.148 257.446Z" fill="#D66C14"/>
<path opacity="0.3" d="M232.095 254.141C231.704 251.365 229.392 248.54 227.076 248.866C224.76 249.191 222.821 252.827 223.212 255.604C223.602 258.38 226.291 260.084 228.607 259.758C230.923 259.433 232.485 256.918 232.095 254.141Z" fill="#D66C14"/>
</g>
<g filter="url(#filter2_f_3_678)">
<path d="M326.216 17.1555C117.418 314.773 329.106 724.374 692.657 726.192L809.22 726.775L-218.514 758.284L326.216 17.1555Z" fill="url(#paint1_linear_3_678)" fill-opacity="0.4"/>
</g>
<g opacity="0.2" filter="url(#filter3_f_3_678)">
<path d="M522.928 816.831C749.72 532.685 563.749 110.786 201.005 86.5038L84.7007 78.7186L1112.42 110.783L522.928 816.831Z" fill="#FFEAB3"/>
</g>
</g>
</g>
<defs>
<filter id="filter0_d_3_678" x="0" y="0" width="837.665" height="837.665" filterUnits="userSpaceOnUse" color-interpolation-filters="sRGB">
<feFlood flood-opacity="0" result="BackgroundImageFix"/>
<feColorMatrix in="SourceAlpha" type="matrix" values="0 0 0 0 0 0 0 0 0 0 0 0 0 0 0 0 0 0 127 0" result="hardAlpha"/>
<feOffset/>
<feGaussianBlur stdDeviation="40"/>
<feComposite in2="hardAlpha" operator="out"/>
<feColorMatrix type="matrix" values="0 0 0 0 0.404167 0 0 0 0 0.156468 0 0 0 0 0.0690452 0 0 0 0.8 0"/>
<feBlend mode="normal" in2="BackgroundImageFix" result="effect1_dropShadow_3_678"/>
<feBlend mode="normal" in="SourceGraphic" in2="effect1_dropShadow_3_678" result="shape"/>
</filter>
<filter id="filter1_f_3_678" x="-1543.85" y="49.0159" width="2726.55" height="946.951" filterUnits="userSpaceOnUse" color-interpolation-filters="sRGB">
<feFlood flood-opacity="0" result="BackgroundImageFix"/>
<feBlend mode="normal" in="SourceGraphic" in2="BackgroundImageFix" result="shape"/>
<feGaussianBlur stdDeviation="2.5" result="effect1_foregroundBlur_3_678"/>
</filter>
<filter id="filter2_f_3_678" x="-258.514" y="-22.8445" width="1107.73" height="821.128" filterUnits="userSpaceOnUse" color-interpolation-filters="sRGB">
<feFlood flood-opacity="0" result="BackgroundImageFix"/>
<feBlend mode="normal" in="SourceGraphic" in2="BackgroundImageFix" result="shape"/>
<feGaussianBlur stdDeviation="20" result="effect1_foregroundBlur_3_678"/>
</filter>
<filter id="filter3_f_3_678" x="34.7007" y="28.7186" width="1127.72" height="838.112" filterUnits="userSpaceOnUse" color-interpolation-filters="sRGB">
<feFlood flood-opacity="0" result="BackgroundImageFix"/>
<feBlend mode="normal" in="SourceGraphic" in2="BackgroundImageFix" result="shape"/>
<feGaussianBlur stdDeviation="25" result="effect1_foregroundBlur_3_678"/>
</filter>
<linearGradient id="paint0_linear_3_678" x1="667.5" y1="377.504" x2="80" y2="474.004" gradientUnits="userSpaceOnUse">
<stop stop-color="#F4E8D5"/>
<stop offset="1" stop-color="#FC7100"/>
</linearGradient>
<linearGradient id="paint1_linear_3_678" x1="78.3862" y1="593.917" x2="358.332" y2="489.332" gradientUnits="userSpaceOnUse">
<stop stop-color="#511D04"/>
<stop offset="1" stop-color="#CD7121"/>
</linearGradient>
<clipPath id="clip0_3_678">
<rect x="80" y="163.504" width="600" height="600" rx="300" transform="rotate(-8 80 163.504)" fill="white"/>
</clipPath>
</defs>
</svg>
