<svg width="1101" height="1101" viewBox="0 0 1101 1101" fill="none" xmlns="http://www.w3.org/2000/svg">
<g filter="url(#filter0_d_3_381)">
<g clip-path="url(#clip0_3_381)">
<rect x="225" y="269.293" width="600" height="600" rx="300" transform="rotate(-5 225 269.293)" fill="url(#paint0_linear_3_381)"/>
<g filter="url(#filter1_i_3_381)">
<path d="M524.735 387.678C509.524 396.989 495.851 390.951 486.295 375.34C476.739 359.729 481.323 339.525 496.533 330.214C511.744 320.903 529.928 326.173 539.485 341.784C549.041 357.395 539.945 378.367 524.735 387.678Z" fill="#E31949"/>
</g>
<g filter="url(#filter2_i_3_381)">
<path d="M524.04 375.151C514.434 381.032 498.979 379.786 493.099 370.179C487.218 360.572 492.532 343.624 502.138 337.744C511.745 331.863 524.906 337.502 530.787 347.109C536.668 356.715 533.647 369.27 524.04 375.151Z" fill="#C60C38"/>
</g>
<g filter="url(#filter3_i_3_381)">
<path d="M603.54 811.459C589.535 820.032 563.731 807.619 555.158 793.615C546.585 779.61 554.331 754.904 568.336 746.331C582.34 737.758 601.527 745.978 610.1 759.983C618.672 773.988 617.544 802.886 603.54 811.459Z" fill="#BA1F44"/>
</g>
<g filter="url(#filter4_i_3_381)">
<path d="M283.692 924.492C302.067 931.72 330.034 911.632 337.262 893.257C344.49 874.882 330.158 847.241 311.782 840.013C293.407 832.785 272.402 846.526 265.174 864.901C257.946 883.276 265.317 917.264 283.692 924.492Z" fill="#E31949"/>
</g>
<g filter="url(#filter5_i_3_381)">
<path d="M712.667 466.439C691.777 489.872 675.739 477.604 651.689 456.165C627.64 434.725 615.003 407.402 635.893 383.969C656.783 360.536 690.107 360.158 714.156 381.598C738.206 403.038 733.557 443.006 712.667 466.439Z" fill="#E31949"/>
</g>
<g filter="url(#filter6_i_3_381)">
<path d="M705.119 445.684C691.925 460.483 674.209 456.202 659.409 443.009C644.61 429.815 635.977 408.602 649.17 393.802C662.364 379.003 687.411 381.803 702.211 394.997C717.011 408.191 718.313 430.884 705.119 445.684Z" fill="#C60C38"/>
</g>
<g filter="url(#filter7_i_3_381)">
<path d="M764.024 840.836C733.305 845.602 728.765 826.129 723.874 794.602C718.982 763.075 726.519 734.234 757.238 729.468C787.956 724.702 813.67 745.386 818.561 776.913C823.452 808.441 794.743 836.07 764.024 840.836Z" fill="#E31949"/>
</g>
<g filter="url(#filter8_i_3_381)">
<path d="M771.317 820.218C751.915 823.228 741.066 808.805 738.056 789.403C735.046 770.002 741.797 748.351 761.199 745.341C780.6 742.331 797.985 760.237 800.996 779.638C804.006 799.04 790.718 817.208 771.317 820.218Z" fill="#C60C38"/>
</g>
<g filter="url(#filter9_i_3_381)">
<path d="M387.267 732.01C380.917 739.133 372.39 737.073 365.266 730.722C358.143 724.372 353.988 714.162 360.338 707.038C366.688 699.915 378.744 701.263 385.867 707.614C392.991 713.964 393.617 724.886 387.267 732.01Z" fill="#BA1F44"/>
</g>
<g filter="url(#filter10_i_3_381)">
<path d="M833.736 567.347C819.201 575.051 806.656 566.607 798.952 552.072C791.248 537.536 790.656 518.543 805.191 510.839C819.726 503.135 838.401 512.544 846.105 527.079C853.809 541.614 848.272 559.643 833.736 567.347Z" fill="#E31949"/>
</g>
<g opacity="0.5" filter="url(#filter11_i_3_381)">
<path d="M365.989 500.931C350.578 524.505 359.469 546.371 383.663 562.187C407.857 578.004 439.963 571.715 455.374 548.142C470.784 524.568 463.319 495.617 439.125 479.801C414.931 463.984 381.4 477.358 365.989 500.931Z" fill="#E31949"/>
</g>
<g filter="url(#filter12_i_3_381)">
<path d="M385.732 502.614C375.999 517.503 377.241 541.956 392.129 551.689C407.018 561.422 434.019 553.829 443.752 538.941C453.485 524.052 445.202 503.012 430.313 493.279C415.425 483.546 395.465 487.725 385.732 502.614Z" fill="#C60C38"/>
</g>
<g filter="url(#filter13_i_3_381)">
<path d="M395.301 398.407C392.439 402.786 392.804 409.978 397.183 412.841C401.562 415.704 409.503 413.47 412.366 409.091C415.229 404.712 412.793 398.524 408.414 395.662C404.035 392.799 398.164 394.028 395.301 398.407Z" fill="#E31949"/>
</g>
<g filter="url(#filter14_i_3_381)">
<path d="M266.17 299.284C263.308 303.663 263.673 310.856 268.052 313.718C272.431 316.581 280.373 314.348 283.235 309.969C286.098 305.59 283.662 299.402 279.283 296.539C274.904 293.676 269.033 294.905 266.17 299.284Z" fill="#E31949"/>
</g>
<g filter="url(#filter15_i_3_381)">
<path d="M817.63 820.385C814.767 824.764 815.132 831.956 819.511 834.819C823.89 837.681 831.832 835.448 834.694 831.069C837.557 826.69 835.121 820.502 830.742 817.639C826.363 814.777 820.492 816.006 817.63 820.385Z" fill="#C60C38"/>
</g>
<g filter="url(#filter16_i_3_381)">
<path d="M827.095 699.098C824.232 703.477 824.597 710.669 828.976 713.532C833.355 716.395 841.297 714.162 844.16 709.783C847.022 705.404 844.586 699.215 840.207 696.353C835.828 693.49 829.957 694.719 827.095 699.098Z" fill="#C60C38"/>
</g>
<g filter="url(#filter17_i_3_381)">
<path d="M420.494 855.497C417.632 859.876 417.997 867.068 422.376 869.931C426.755 872.794 434.696 870.561 437.559 866.182C440.422 861.803 437.986 855.615 433.607 852.752C429.228 849.889 423.357 851.118 420.494 855.497Z" fill="#BA1F44"/>
</g>
<g opacity="0.8">
<g filter="url(#filter18_i_3_381)">
<path d="M337.793 382.461C321.269 377.865 299.161 386.146 294.565 402.67C289.968 419.194 304.83 441.789 321.353 446.385C337.877 450.982 354.792 437.226 359.388 420.703C363.985 404.179 354.316 387.058 337.793 382.461Z" fill="#E31949"/>
</g>
<g filter="url(#filter19_i_3_381)">
<path d="M326.023 391.638C316.812 389.076 304.489 393.692 301.927 402.903C299.364 412.114 307.648 424.709 316.859 427.271C326.07 429.834 335.499 422.166 338.061 412.955C340.623 403.744 335.234 394.201 326.023 391.638Z" fill="#C60C38"/>
</g>
</g>
<g filter="url(#filter20_i_3_381)">
<path d="M160.032 571.143C165.254 600.971 188.298 611.605 218.911 606.246C249.524 600.886 270.108 572.362 264.886 542.534C259.664 512.705 232.533 495.463 201.92 500.822C171.307 506.182 154.81 541.315 160.032 571.143Z" fill="#E31949"/>
</g>
<g filter="url(#filter21_i_3_381)">
<path d="M176.766 557.959C180.064 576.798 199.005 595.081 217.843 591.783C236.682 588.485 252.3 562.687 249.002 543.848C245.704 525.01 223.744 514.579 204.905 517.877C186.067 521.175 173.468 539.12 176.766 557.959Z" fill="#C60C38"/>
</g>
<g filter="url(#filter22_i_3_381)">
<path d="M623.054 243.572C606.513 268.874 616.055 292.345 642.024 309.321C667.993 326.298 702.454 319.548 718.995 294.245C735.536 268.942 727.523 237.868 701.555 220.891C675.586 203.915 639.595 218.269 623.054 243.572Z" fill="#E31949"/>
</g>
<g filter="url(#filter23_i_3_381)">
<path d="M644.245 245.378C633.798 261.358 635.131 287.605 651.111 298.052C667.092 308.499 696.074 300.35 706.521 284.369C716.968 268.388 708.077 245.805 692.097 235.358C676.116 224.911 654.692 229.397 644.245 245.378Z" fill="#C60C38"/>
</g>
<circle cx="500.371" cy="681.718" r="7.24396" transform="rotate(-5 500.371 681.718)" fill="#C60C38"/>
<circle cx="415.077" cy="687.944" r="7.24396" transform="rotate(-5 415.077 687.944)" fill="#BA1F44"/>
<circle cx="463.631" cy="428.001" r="7.24396" transform="rotate(-5 463.631 428.001)" fill="#E31949"/>
<circle cx="486.209" cy="796.904" r="7.24396" transform="rotate(-5 486.209 796.904)" fill="#BA1F44"/>
<circle cx="694.67" cy="824.695" r="7.24396" transform="rotate(-5 694.67 824.695)" fill="#BA1F44"/>
<circle cx="622.236" cy="689.394" r="7.24396" transform="rotate(-5 622.236 689.394)" fill="#E31949"/>
<circle cx="558.867" cy="376.75" r="7.24396" transform="rotate(-5 558.867 376.75)" fill="#E31949"/>
<circle cx="494.179" cy="444.72" r="7.24396" transform="rotate(-5 494.179 444.72)" fill="#E31949"/>
<circle cx="341.522" cy="528.368" r="7.24396" transform="rotate(-5 341.522 528.368)" fill="#BA1F44"/>
<circle cx="773.188" cy="297.673" r="7.24396" transform="rotate(-5 773.188 297.673)" fill="#BA1F44"/>
<path d="M-544.964 762.276L-341.672 678.405C-285.444 655.207 -223.434 649.895 -164.079 663.191L-43.6007 690.179C15.4063 703.397 77.046 698.226 133.026 675.362L255.001 625.542C310.644 602.815 371.886 597.566 430.585 610.492L555.214 637.938C614.616 651.02 676.606 645.484 732.751 622.083L849.259 573.522C905.74 549.98 968.129 544.522 1027.84 557.898L1150.44 585.361C1210.15 598.737 1272.54 593.279 1329.02 569.737L1444.98 521.403C1501.46 497.861 1563.85 492.403 1623.56 505.779L1837.93 553.8" stroke="#A60823" stroke-width="16"/>
<path d="M-589.544 826.406L-386.253 742.534C-330.024 719.336 -268.014 714.024 -208.66 727.32L-88.1811 754.309C-29.1741 767.527 32.4656 762.356 88.4455 739.491L210.421 689.671C266.063 666.944 327.306 661.695 386.004 674.622L510.633 702.068C570.036 715.149 632.026 709.613 688.17 686.212L804.679 637.651C861.16 614.11 923.549 608.652 983.26 622.027L1105.86 649.49C1165.57 662.866 1227.96 657.408 1284.44 633.867L1400.4 585.532C1456.88 561.991 1519.27 556.532 1578.98 569.908L1793.35 617.929" stroke="#A60823" stroke-width="16"/>
<path d="M-636.739 860.649L-433.448 776.778C-377.219 753.58 -315.21 748.268 -255.855 761.564L-135.376 788.552C-76.3692 801.77 -14.7294 796.599 41.2505 773.735L163.226 723.915C218.868 701.188 280.111 695.939 338.809 708.865L463.438 736.311C522.841 749.393 584.831 743.857 640.975 720.456L757.484 671.895C813.965 648.354 876.354 642.895 936.065 656.271L1058.66 683.734C1118.37 697.11 1180.76 691.652 1237.24 668.11L1353.21 619.776C1409.69 596.234 1472.08 590.776 1531.79 604.152L1746.16 652.173" stroke="#A60823" stroke-width="24"/>
<path d="M-573.106 784.815L-369.815 700.943C-313.587 677.745 -251.577 672.433 -192.222 685.729L-71.7434 712.718C-12.7365 725.936 48.9033 720.765 104.883 697.9L226.859 648.08C282.501 625.353 343.744 620.104 402.442 633.031L527.071 660.477C586.473 673.558 648.464 668.022 704.608 644.621L821.117 596.06C877.598 572.519 939.986 567.061 999.697 580.437L1122.29 607.9C1182.01 621.275 1244.39 615.817 1300.88 592.276L1416.84 543.941C1473.32 520.4 1535.71 514.942 1595.42 528.317L1809.79 576.338" stroke="#A60823" stroke-width="8"/>
<path d="M-531.515 801.253L-328.224 717.381C-271.996 694.183 -209.986 688.871 -150.631 702.167L-30.1525 729.155C28.8544 742.373 90.4942 737.202 146.474 714.338L268.45 664.518C324.092 641.791 385.335 636.542 444.033 649.469L568.662 676.914C628.064 689.996 690.055 684.46 746.199 661.059L862.707 612.498C919.189 588.957 981.577 583.498 1041.29 596.874L1163.89 624.337C1223.6 637.713 1285.99 632.255 1342.47 608.713L1458.43 560.379C1514.91 536.838 1577.3 531.379 1637.01 544.755L1851.38 592.776" stroke="#A60823" stroke-width="8"/>
<g opacity="0.3" filter="url(#filter24_f_3_381)">
<path d="M441.491 147.715C248.554 455.852 481.389 853.813 844.538 836.601L960.971 831.083L-63.7053 916.336L441.491 147.715Z" fill="#86041B"/>
</g>
<g opacity="0.3" filter="url(#filter25_f_3_381)">
<path d="M526.624 969.25C795.613 724.673 678.914 278.617 324.613 197.109L211.015 170.975L1220.64 365.638L526.624 969.25Z" fill="#FF698D"/>
</g>
</g>
</g>
<defs>
<filter id="filter0_d_3_381" x="0" y="0" width="1100.01" height="1100.01" filterUnits="userSpaceOnUse" color-interpolation-filters="sRGB">
<feFlood flood-opacity="0" result="BackgroundImageFix"/>
<feColorMatrix in="SourceAlpha" type="matrix" values="0 0 0 0 0 0 0 0 0 0 0 0 0 0 0 0 0 0 127 0" result="hardAlpha"/>
<feMorphology radius="25" operator="dilate" in="SourceAlpha" result="effect1_dropShadow_3_381"/>
<feOffset dy="8"/>
<feGaussianBlur stdDeviation="100"/>
<feComposite in2="hardAlpha" operator="out"/>
<feColorMatrix type="matrix" values="0 0 0 0 0.9125 0 0 0 0 0.0114062 0 0 0 0 0.221506 0 0 0 0.4 0"/>
<feBlend mode="normal" in2="BackgroundImageFix" result="effect1_dropShadow_3_381"/>
<feBlend mode="normal" in="SourceGraphic" in2="effect1_dropShadow_3_381" result="shape"/>
</filter>
<filter id="filter1_i_3_381" x="481.306" y="325.606" width="62.0942" height="70.1489" filterUnits="userSpaceOnUse" color-interpolation-filters="sRGB">
<feFlood flood-opacity="0" result="BackgroundImageFix"/>
<feBlend mode="normal" in="SourceGraphic" in2="BackgroundImageFix" result="shape"/>
<feColorMatrix in="SourceAlpha" type="matrix" values="0 0 0 0 0 0 0 0 0 0 0 0 0 0 0 0 0 0 127 0" result="hardAlpha"/>
<feOffset dy="3.66408"/>
<feGaussianBlur stdDeviation="3.66408"/>
<feComposite in2="hardAlpha" operator="arithmetic" k2="-1" k3="1"/>
<feColorMatrix type="matrix" values="0 0 0 0 0.541667 0 0 0 0 0.040625 0 0 0 0 0.142143 0 0 0 1 0"/>
<feBlend mode="normal" in2="shape" result="effect1_innerShadow_3_381"/>
</filter>
<filter id="filter2_i_3_381" x="490.638" y="335.348" width="43.1519" height="47.0247" filterUnits="userSpaceOnUse" color-interpolation-filters="sRGB">
<feFlood flood-opacity="0" result="BackgroundImageFix"/>
<feBlend mode="normal" in="SourceGraphic" in2="BackgroundImageFix" result="shape"/>
<feColorMatrix in="SourceAlpha" type="matrix" values="0 0 0 0 0 0 0 0 0 0 0 0 0 0 0 0 0 0 127 0" result="hardAlpha"/>
<feOffset dy="3.66408"/>
<feGaussianBlur stdDeviation="3.66408"/>
<feComposite in2="hardAlpha" operator="arithmetic" k2="-1" k3="1"/>
<feColorMatrix type="matrix" values="0 0 0 0 0.541667 0 0 0 0 0.040625 0 0 0 0 0.142143 0 0 0 1 0"/>
<feBlend mode="normal" in2="shape" result="effect1_innerShadow_3_381"/>
</filter>
<filter id="filter3_i_3_381" x="551.571" y="742.838" width="63.9622" height="75.106" filterUnits="userSpaceOnUse" color-interpolation-filters="sRGB">
<feFlood flood-opacity="0" result="BackgroundImageFix"/>
<feBlend mode="normal" in="SourceGraphic" in2="BackgroundImageFix" result="shape"/>
<feColorMatrix in="SourceAlpha" type="matrix" values="0 0 0 0 0 0 0 0 0 0 0 0 0 0 0 0 0 0 127 0" result="hardAlpha"/>
<feOffset dy="3.66408"/>
<feGaussianBlur stdDeviation="3.66408"/>
<feComposite in2="hardAlpha" operator="arithmetic" k2="-1" k3="1"/>
<feColorMatrix type="matrix" values="0 0 0 0 0.541667 0 0 0 0 0.040625 0 0 0 0 0.142143 0 0 0 1 0"/>
<feBlend mode="normal" in2="shape" result="effect1_innerShadow_3_381"/>
</filter>
<filter id="filter4_i_3_381" x="262.433" y="838.051" width="76.7386" height="91.615" filterUnits="userSpaceOnUse" color-interpolation-filters="sRGB">
<feFlood flood-opacity="0" result="BackgroundImageFix"/>
<feBlend mode="normal" in="SourceGraphic" in2="BackgroundImageFix" result="shape"/>
<feColorMatrix in="SourceAlpha" type="matrix" values="0 0 0 0 0 0 0 0 0 0 0 0 0 0 0 0 0 0 127 0" result="hardAlpha"/>
<feOffset dy="3.66408"/>
<feGaussianBlur stdDeviation="3.66408"/>
<feComposite in2="hardAlpha" operator="arithmetic" k2="-1" k3="1"/>
<feColorMatrix type="matrix" values="0 0 0 0 0.541667 0 0 0 0 0.040625 0 0 0 0 0.142143 0 0 0 1 0"/>
<feBlend mode="normal" in2="shape" result="effect1_innerShadow_3_381"/>
</filter>
<filter id="filter5_i_3_381" x="625.331" y="365.941" width="105.011" height="116.867" filterUnits="userSpaceOnUse" color-interpolation-filters="sRGB">
<feFlood flood-opacity="0" result="BackgroundImageFix"/>
<feBlend mode="normal" in="SourceGraphic" in2="BackgroundImageFix" result="shape"/>
<feColorMatrix in="SourceAlpha" type="matrix" values="0 0 0 0 0 0 0 0 0 0 0 0 0 0 0 0 0 0 127 0" result="hardAlpha"/>
<feOffset dy="3.66408"/>
<feGaussianBlur stdDeviation="3.66408"/>
<feComposite in2="hardAlpha" operator="arithmetic" k2="-1" k3="1"/>
<feColorMatrix type="matrix" values="0 0 0 0 0.541667 0 0 0 0 0.040625 0 0 0 0 0.142143 0 0 0 1 0"/>
<feBlend mode="normal" in2="shape" result="effect1_innerShadow_3_381"/>
</filter>
<filter id="filter6_i_3_381" x="642.666" y="383.849" width="71.5563" height="74.8184" filterUnits="userSpaceOnUse" color-interpolation-filters="sRGB">
<feFlood flood-opacity="0" result="BackgroundImageFix"/>
<feBlend mode="normal" in="SourceGraphic" in2="BackgroundImageFix" result="shape"/>
<feColorMatrix in="SourceAlpha" type="matrix" values="0 0 0 0 0 0 0 0 0 0 0 0 0 0 0 0 0 0 127 0" result="hardAlpha"/>
<feOffset dy="3.66408"/>
<feGaussianBlur stdDeviation="3.66408"/>
<feComposite in2="hardAlpha" operator="arithmetic" k2="-1" k3="1"/>
<feColorMatrix type="matrix" values="0 0 0 0 0.541667 0 0 0 0 0.040625 0 0 0 0 0.142143 0 0 0 1 0"/>
<feBlend mode="normal" in2="shape" result="effect1_innerShadow_3_381"/>
</filter>
<filter id="filter7_i_3_381" x="722.503" y="728.786" width="96.6051" height="116.429" filterUnits="userSpaceOnUse" color-interpolation-filters="sRGB">
<feFlood flood-opacity="0" result="BackgroundImageFix"/>
<feBlend mode="normal" in="SourceGraphic" in2="BackgroundImageFix" result="shape"/>
<feColorMatrix in="SourceAlpha" type="matrix" values="0 0 0 0 0 0 0 0 0 0 0 0 0 0 0 0 0 0 127 0" result="hardAlpha"/>
<feOffset dy="3.66408"/>
<feGaussianBlur stdDeviation="3.66408"/>
<feComposite in2="hardAlpha" operator="arithmetic" k2="-1" k3="1"/>
<feColorMatrix type="matrix" values="0 0 0 0 0.541667 0 0 0 0 0.040625 0 0 0 0 0.142143 0 0 0 1 0"/>
<feBlend mode="normal" in2="shape" result="effect1_innerShadow_3_381"/>
</filter>
<filter id="filter8_i_3_381" x="737.37" y="745.009" width="64.051" height="79.2714" filterUnits="userSpaceOnUse" color-interpolation-filters="sRGB">
<feFlood flood-opacity="0" result="BackgroundImageFix"/>
<feBlend mode="normal" in="SourceGraphic" in2="BackgroundImageFix" result="shape"/>
<feColorMatrix in="SourceAlpha" type="matrix" values="0 0 0 0 0 0 0 0 0 0 0 0 0 0 0 0 0 0 127 0" result="hardAlpha"/>
<feOffset dy="3.66408"/>
<feGaussianBlur stdDeviation="3.66408"/>
<feComposite in2="hardAlpha" operator="arithmetic" k2="-1" k3="1"/>
<feColorMatrix type="matrix" values="0 0 0 0 0.541667 0 0 0 0 0.040625 0 0 0 0 0.142143 0 0 0 1 0"/>
<feBlend mode="normal" in2="shape" result="effect1_innerShadow_3_381"/>
</filter>
<filter id="filter9_i_3_381" x="357.207" y="702.248" width="34.441" height="37.9116" filterUnits="userSpaceOnUse" color-interpolation-filters="sRGB">
<feFlood flood-opacity="0" result="BackgroundImageFix"/>
<feBlend mode="normal" in="SourceGraphic" in2="BackgroundImageFix" result="shape"/>
<feColorMatrix in="SourceAlpha" type="matrix" values="0 0 0 0 0 0 0 0 0 0 0 0 0 0 0 0 0 0 127 0" result="hardAlpha"/>
<feOffset dy="3.66408"/>
<feGaussianBlur stdDeviation="3.66408"/>
<feComposite in2="hardAlpha" operator="arithmetic" k2="-1" k3="1"/>
<feColorMatrix type="matrix" values="0 0 0 0 0.541667 0 0 0 0 0.040625 0 0 0 0 0.142143 0 0 0 1 0"/>
<feBlend mode="normal" in2="shape" result="effect1_innerShadow_3_381"/>
</filter>
<filter id="filter10_i_3_381" x="793.595" y="508.082" width="55.9844" height="65.8399" filterUnits="userSpaceOnUse" color-interpolation-filters="sRGB">
<feFlood flood-opacity="0" result="BackgroundImageFix"/>
<feBlend mode="normal" in="SourceGraphic" in2="BackgroundImageFix" result="shape"/>
<feColorMatrix in="SourceAlpha" type="matrix" values="0 0 0 0 0 0 0 0 0 0 0 0 0 0 0 0 0 0 127 0" result="hardAlpha"/>
<feOffset dy="3.66408"/>
<feGaussianBlur stdDeviation="3.66408"/>
<feComposite in2="hardAlpha" operator="arithmetic" k2="-1" k3="1"/>
<feColorMatrix type="matrix" values="0 0 0 0 0.541667 0 0 0 0 0.040625 0 0 0 0 0.142143 0 0 0 1 0"/>
<feBlend mode="normal" in2="shape" result="effect1_innerShadow_3_381"/>
</filter>
<filter id="filter11_i_3_381" x="358.344" y="472.934" width="105.069" height="101.64" filterUnits="userSpaceOnUse" color-interpolation-filters="sRGB">
<feFlood flood-opacity="0" result="BackgroundImageFix"/>
<feBlend mode="normal" in="SourceGraphic" in2="BackgroundImageFix" result="shape"/>
<feColorMatrix in="SourceAlpha" type="matrix" values="0 0 0 0 0 0 0 0 0 0 0 0 0 0 0 0 0 0 127 0" result="hardAlpha"/>
<feOffset dy="3.66408"/>
<feGaussianBlur stdDeviation="3.66408"/>
<feComposite in2="hardAlpha" operator="arithmetic" k2="-1" k3="1"/>
<feColorMatrix type="matrix" values="0 0 0 0 0.541667 0 0 0 0 0.040625 0 0 0 0 0.142143 0 0 0 1 0"/>
<feBlend mode="normal" in2="shape" result="effect1_innerShadow_3_381"/>
</filter>
<filter id="filter12_i_3_381" x="379.474" y="488.026" width="68.4821" height="71.6825" filterUnits="userSpaceOnUse" color-interpolation-filters="sRGB">
<feFlood flood-opacity="0" result="BackgroundImageFix"/>
<feBlend mode="normal" in="SourceGraphic" in2="BackgroundImageFix" result="shape"/>
<feColorMatrix in="SourceAlpha" type="matrix" values="0 0 0 0 0 0 0 0 0 0 0 0 0 0 0 0 0 0 127 0" result="hardAlpha"/>
<feOffset dy="3.66408"/>
<feGaussianBlur stdDeviation="3.66408"/>
<feComposite in2="hardAlpha" operator="arithmetic" k2="-1" k3="1"/>
<feColorMatrix type="matrix" values="0 0 0 0 0.541667 0 0 0 0 0.040625 0 0 0 0 0.142143 0 0 0 1 0"/>
<feBlend mode="normal" in2="shape" result="effect1_innerShadow_3_381"/>
</filter>
<filter id="filter13_i_3_381" x="393.461" y="394.117" width="20.1418" height="23.6695" filterUnits="userSpaceOnUse" color-interpolation-filters="sRGB">
<feFlood flood-opacity="0" result="BackgroundImageFix"/>
<feBlend mode="normal" in="SourceGraphic" in2="BackgroundImageFix" result="shape"/>
<feColorMatrix in="SourceAlpha" type="matrix" values="0 0 0 0 0 0 0 0 0 0 0 0 0 0 0 0 0 0 127 0" result="hardAlpha"/>
<feOffset dy="3.66408"/>
<feGaussianBlur stdDeviation="3.66408"/>
<feComposite in2="hardAlpha" operator="arithmetic" k2="-1" k3="1"/>
<feColorMatrix type="matrix" values="0 0 0 0 0.541667 0 0 0 0 0.040625 0 0 0 0 0.142143 0 0 0 1 0"/>
<feBlend mode="normal" in2="shape" result="effect1_innerShadow_3_381"/>
</filter>
<filter id="filter14_i_3_381" x="264.33" y="294.994" width="20.1418" height="23.6695" filterUnits="userSpaceOnUse" color-interpolation-filters="sRGB">
<feFlood flood-opacity="0" result="BackgroundImageFix"/>
<feBlend mode="normal" in="SourceGraphic" in2="BackgroundImageFix" result="shape"/>
<feColorMatrix in="SourceAlpha" type="matrix" values="0 0 0 0 0 0 0 0 0 0 0 0 0 0 0 0 0 0 127 0" result="hardAlpha"/>
<feOffset dy="3.66408"/>
<feGaussianBlur stdDeviation="3.66408"/>
<feComposite in2="hardAlpha" operator="arithmetic" k2="-1" k3="1"/>
<feColorMatrix type="matrix" values="0 0 0 0 0.541667 0 0 0 0 0.040625 0 0 0 0 0.142143 0 0 0 1 0"/>
<feBlend mode="normal" in2="shape" result="effect1_innerShadow_3_381"/>
</filter>
<filter id="filter15_i_3_381" x="815.789" y="816.094" width="20.1418" height="23.6695" filterUnits="userSpaceOnUse" color-interpolation-filters="sRGB">
<feFlood flood-opacity="0" result="BackgroundImageFix"/>
<feBlend mode="normal" in="SourceGraphic" in2="BackgroundImageFix" result="shape"/>
<feColorMatrix in="SourceAlpha" type="matrix" values="0 0 0 0 0 0 0 0 0 0 0 0 0 0 0 0 0 0 127 0" result="hardAlpha"/>
<feOffset dy="3.66408"/>
<feGaussianBlur stdDeviation="3.66408"/>
<feComposite in2="hardAlpha" operator="arithmetic" k2="-1" k3="1"/>
<feColorMatrix type="matrix" values="0 0 0 0 0.541667 0 0 0 0 0.040625 0 0 0 0 0.142143 0 0 0 1 0"/>
<feBlend mode="normal" in2="shape" result="effect1_innerShadow_3_381"/>
</filter>
<filter id="filter16_i_3_381" x="825.254" y="694.808" width="20.1418" height="23.6695" filterUnits="userSpaceOnUse" color-interpolation-filters="sRGB">
<feFlood flood-opacity="0" result="BackgroundImageFix"/>
<feBlend mode="normal" in="SourceGraphic" in2="BackgroundImageFix" result="shape"/>
<feColorMatrix in="SourceAlpha" type="matrix" values="0 0 0 0 0 0 0 0 0 0 0 0 0 0 0 0 0 0 127 0" result="hardAlpha"/>
<feOffset dy="3.66408"/>
<feGaussianBlur stdDeviation="3.66408"/>
<feComposite in2="hardAlpha" operator="arithmetic" k2="-1" k3="1"/>
<feColorMatrix type="matrix" values="0 0 0 0 0.541667 0 0 0 0 0.040625 0 0 0 0 0.142143 0 0 0 1 0"/>
<feBlend mode="normal" in2="shape" result="effect1_innerShadow_3_381"/>
</filter>
<filter id="filter17_i_3_381" x="418.654" y="851.207" width="20.1418" height="23.6695" filterUnits="userSpaceOnUse" color-interpolation-filters="sRGB">
<feFlood flood-opacity="0" result="BackgroundImageFix"/>
<feBlend mode="normal" in="SourceGraphic" in2="BackgroundImageFix" result="shape"/>
<feColorMatrix in="SourceAlpha" type="matrix" values="0 0 0 0 0 0 0 0 0 0 0 0 0 0 0 0 0 0 127 0" result="hardAlpha"/>
<feOffset dy="3.66408"/>
<feGaussianBlur stdDeviation="3.66408"/>
<feComposite in2="hardAlpha" operator="arithmetic" k2="-1" k3="1"/>
<feColorMatrix type="matrix" values="0 0 0 0 0.541667 0 0 0 0 0.040625 0 0 0 0 0.142143 0 0 0 1 0"/>
<feBlend mode="normal" in2="shape" result="effect1_innerShadow_3_381"/>
</filter>
<filter id="filter18_i_3_381" x="293.719" y="381.203" width="66.814" height="69.7429" filterUnits="userSpaceOnUse" color-interpolation-filters="sRGB">
<feFlood flood-opacity="0" result="BackgroundImageFix"/>
<feBlend mode="normal" in="SourceGraphic" in2="BackgroundImageFix" result="shape"/>
<feColorMatrix in="SourceAlpha" type="matrix" values="0 0 0 0 0 0 0 0 0 0 0 0 0 0 0 0 0 0 127 0" result="hardAlpha"/>
<feOffset dy="3.66408"/>
<feGaussianBlur stdDeviation="3.66408"/>
<feComposite in2="hardAlpha" operator="arithmetic" k2="-1" k3="1"/>
<feColorMatrix type="matrix" values="0 0 0 0 0.541667 0 0 0 0 0.040625 0 0 0 0 0.142143 0 0 0 1 0"/>
<feBlend mode="normal" in2="shape" result="effect1_innerShadow_3_381"/>
</filter>
<filter id="filter19_i_3_381" x="301.455" y="390.937" width="37.2441" height="40.4984" filterUnits="userSpaceOnUse" color-interpolation-filters="sRGB">
<feFlood flood-opacity="0" result="BackgroundImageFix"/>
<feBlend mode="normal" in="SourceGraphic" in2="BackgroundImageFix" result="shape"/>
<feColorMatrix in="SourceAlpha" type="matrix" values="0 0 0 0 0 0 0 0 0 0 0 0 0 0 0 0 0 0 127 0" result="hardAlpha"/>
<feOffset dy="3.66408"/>
<feGaussianBlur stdDeviation="3.66408"/>
<feComposite in2="hardAlpha" operator="arithmetic" k2="-1" k3="1"/>
<feColorMatrix type="matrix" values="0 0 0 0 0.541667 0 0 0 0 0.040625 0 0 0 0 0.142143 0 0 0 1 0"/>
<feBlend mode="normal" in2="shape" result="effect1_innerShadow_3_381"/>
</filter>
<filter id="filter20_i_3_381" x="159.077" y="499.852" width="106.619" height="111.39" filterUnits="userSpaceOnUse" color-interpolation-filters="sRGB">
<feFlood flood-opacity="0" result="BackgroundImageFix"/>
<feBlend mode="normal" in="SourceGraphic" in2="BackgroundImageFix" result="shape"/>
<feColorMatrix in="SourceAlpha" type="matrix" values="0 0 0 0 0 0 0 0 0 0 0 0 0 0 0 0 0 0 127 0" result="hardAlpha"/>
<feOffset dy="3.66408"/>
<feGaussianBlur stdDeviation="3.66408"/>
<feComposite in2="hardAlpha" operator="arithmetic" k2="-1" k3="1"/>
<feColorMatrix type="matrix" values="0 0 0 0 0.541667 0 0 0 0 0.040625 0 0 0 0 0.142143 0 0 0 1 0"/>
<feBlend mode="normal" in2="shape" result="effect1_innerShadow_3_381"/>
</filter>
<filter id="filter21_i_3_381" x="176.242" y="517.273" width="73.203" height="78.5622" filterUnits="userSpaceOnUse" color-interpolation-filters="sRGB">
<feFlood flood-opacity="0" result="BackgroundImageFix"/>
<feBlend mode="normal" in="SourceGraphic" in2="BackgroundImageFix" result="shape"/>
<feColorMatrix in="SourceAlpha" type="matrix" values="0 0 0 0 0 0 0 0 0 0 0 0 0 0 0 0 0 0 127 0" result="hardAlpha"/>
<feOffset dy="3.66408"/>
<feGaussianBlur stdDeviation="3.66408"/>
<feComposite in2="hardAlpha" operator="arithmetic" k2="-1" k3="1"/>
<feColorMatrix type="matrix" values="0 0 0 0 0.541667 0 0 0 0 0.040625 0 0 0 0 0.142143 0 0 0 1 0"/>
<feBlend mode="normal" in2="shape" result="effect1_innerShadow_3_381"/>
</filter>
<filter id="filter22_i_3_381" x="614.848" y="213.521" width="112.776" height="108.826" filterUnits="userSpaceOnUse" color-interpolation-filters="sRGB">
<feFlood flood-opacity="0" result="BackgroundImageFix"/>
<feBlend mode="normal" in="SourceGraphic" in2="BackgroundImageFix" result="shape"/>
<feColorMatrix in="SourceAlpha" type="matrix" values="0 0 0 0 0 0 0 0 0 0 0 0 0 0 0 0 0 0 127 0" result="hardAlpha"/>
<feOffset dy="3.66408"/>
<feGaussianBlur stdDeviation="3.66408"/>
<feComposite in2="hardAlpha" operator="arithmetic" k2="-1" k3="1"/>
<feColorMatrix type="matrix" values="0 0 0 0 0.541667 0 0 0 0 0.040625 0 0 0 0 0.142143 0 0 0 1 0"/>
<feBlend mode="normal" in2="shape" result="effect1_innerShadow_3_381"/>
</filter>
<filter id="filter23_i_3_381" x="637.528" y="229.72" width="73.5054" height="76.6717" filterUnits="userSpaceOnUse" color-interpolation-filters="sRGB">
<feFlood flood-opacity="0" result="BackgroundImageFix"/>
<feBlend mode="normal" in="SourceGraphic" in2="BackgroundImageFix" result="shape"/>
<feColorMatrix in="SourceAlpha" type="matrix" values="0 0 0 0 0 0 0 0 0 0 0 0 0 0 0 0 0 0 127 0" result="hardAlpha"/>
<feOffset dy="3.66408"/>
<feGaussianBlur stdDeviation="3.66408"/>
<feComposite in2="hardAlpha" operator="arithmetic" k2="-1" k3="1"/>
<feColorMatrix type="matrix" values="0 0 0 0 0.541667 0 0 0 0 0.040625 0 0 0 0 0.142143 0 0 0 1 0"/>
<feBlend mode="normal" in2="shape" result="effect1_innerShadow_3_381"/>
</filter>
<filter id="filter24_f_3_381" x="-123.705" y="87.7148" width="1144.68" height="888.622" filterUnits="userSpaceOnUse" color-interpolation-filters="sRGB">
<feFlood flood-opacity="0" result="BackgroundImageFix"/>
<feBlend mode="normal" in="SourceGraphic" in2="BackgroundImageFix" result="shape"/>
<feGaussianBlur stdDeviation="30" result="effect1_foregroundBlur_3_381"/>
</filter>
<filter id="filter25_f_3_381" x="121.015" y="80.9751" width="1189.62" height="978.275" filterUnits="userSpaceOnUse" color-interpolation-filters="sRGB">
<feFlood flood-opacity="0" result="BackgroundImageFix"/>
<feBlend mode="normal" in="SourceGraphic" in2="BackgroundImageFix" result="shape"/>
<feGaussianBlur stdDeviation="45" result="effect1_foregroundBlur_3_381"/>
</filter>
<linearGradient id="paint0_linear_3_381" x1="740.5" y1="366.793" x2="59" y2="1011.79" gradientUnits="userSpaceOnUse">
<stop stop-color="#F3164E"/>
<stop offset="1" stop-color="#8B0119"/>
</linearGradient>
<clipPath id="clip0_3_381">
<rect x="225" y="269.293" width="600" height="600" rx="300" transform="rotate(-5 225 269.293)" fill="white"/>
</clipPath>
</defs>
</svg>
