<svg width="881" height="881" viewBox="0 0 881 881" fill="none" xmlns="http://www.w3.org/2000/svg">
<g filter="url(#filter0_d_3_152)">
<g clip-path="url(#clip0_3_152)">
<rect x="120" y="157.854" width="600" height="600" rx="300" transform="rotate(-4 120 157.854)" fill="url(#paint0_linear_3_152)"/>
<g opacity="0.5" filter="url(#filter1_i_3_152)">
<path d="M425.041 541.568C409.67 550.612 396.105 544.336 386.822 528.56C377.54 512.785 382.476 492.665 397.847 483.62C413.218 474.576 431.307 480.163 440.59 495.938C449.872 511.713 440.412 532.524 425.041 541.568Z" fill="#C0B1E2"/>
</g>
<g opacity="0.7" filter="url(#filter2_i_3_152)">
<path d="M424.566 529.031C414.858 534.743 399.428 533.227 393.715 523.519C388.003 513.811 393.612 496.959 403.32 491.247C413.028 485.535 426.089 491.402 431.801 501.11C437.513 510.818 434.274 523.318 424.566 529.031Z" fill="#A896D3"/>
</g>
<g opacity="0.5" filter="url(#filter3_i_3_152)">
<path d="M488.277 706.595C474.125 714.922 448.541 702.061 440.214 687.909C431.887 673.757 440.063 649.19 454.215 640.863C468.367 632.536 487.407 641.089 495.734 655.241C504.062 669.394 502.429 698.268 488.277 706.595Z" fill="#A896D3"/>
</g>
<g opacity="0.6" filter="url(#filter4_i_3_152)">
<path d="M166.505 814.028C184.751 821.576 213.065 801.98 220.612 783.733C228.16 765.487 214.312 737.6 196.066 730.053C177.82 722.505 156.578 735.877 149.03 754.124C141.483 772.37 148.259 806.481 166.505 814.028Z" fill="#C0B1E2"/>
</g>
<g opacity="0.7" filter="url(#filter5_i_3_152)">
<path d="M175.604 798.922C188.811 804.385 209.304 790.2 214.767 776.994C220.23 763.787 210.207 743.602 197 738.139C183.793 732.676 168.418 742.355 162.955 755.562C157.492 768.768 162.397 793.459 175.604 798.922Z" fill="#A896D3"/>
</g>
<g opacity="0.5" filter="url(#filter6_i_3_152)">
<path d="M603.409 363.532C582.113 386.597 566.292 374.051 542.62 352.195C518.948 330.339 506.791 302.8 528.087 279.735C549.382 256.67 582.707 256.874 606.379 278.73C630.051 300.587 624.705 340.468 603.409 363.532Z" fill="#C0B1E2"/>
</g>
<g opacity="0.7" filter="url(#filter7_i_3_152)">
<path d="M596.225 342.648C582.775 357.215 565.136 352.626 550.569 339.176C536.002 325.726 527.74 304.365 541.19 289.798C554.64 275.231 579.635 278.469 594.202 291.919C608.769 305.368 609.675 328.081 596.225 342.648Z" fill="#C0B1E2"/>
</g>
<g opacity="0.5" filter="url(#filter8_i_3_152)">
<path d="M648.224 738.768C617.427 742.997 613.228 723.448 608.887 691.841C604.547 660.233 612.585 631.528 643.383 627.299C674.18 623.069 699.528 644.2 703.869 675.807C708.209 707.415 679.021 734.539 648.224 738.768Z" fill="#E6D7FF"/>
</g>
<g opacity="0.7" filter="url(#filter9_i_3_152)">
<path d="M655.876 718.281C636.425 720.952 625.829 706.341 623.158 686.89C620.487 667.44 627.615 645.91 647.066 643.239C666.517 640.568 683.587 658.774 686.258 678.225C688.929 697.676 675.327 715.61 655.876 718.281Z" fill="#C0B1E2"/>
</g>
<g opacity="0.7" filter="url(#filter10_i_3_152)">
<path d="M273.424 623.383C266.95 630.395 258.46 628.186 251.449 621.712C244.438 615.239 240.461 604.957 246.935 597.946C253.409 590.935 265.439 592.493 272.45 598.967C279.462 605.44 279.898 616.372 273.424 623.383Z" fill="#A896D3"/>
</g>
<g opacity="0.7" filter="url(#filter11_i_3_152)">
<path d="M722.699 466.538C708.032 473.987 695.635 465.325 688.186 450.658C680.737 435.99 680.477 416.99 695.144 409.541C709.811 402.091 728.32 411.825 735.769 426.492C743.218 441.16 737.366 459.089 722.699 466.538Z" fill="#E6D7FF"/>
</g>
<g opacity="0.7" filter="url(#filter12_i_3_152)">
<path d="M746.347 374.664C731.68 382.113 719.284 373.452 711.835 358.784C704.386 344.117 704.125 325.116 718.792 317.667C733.46 310.218 751.968 319.951 759.417 334.619C766.867 349.286 761.015 367.215 746.347 374.664Z" fill="#E6D7FF"/>
</g>
<g opacity="0.5" filter="url(#filter13_i_3_152)">
<path d="M256.182 391.969C240.362 415.27 248.87 437.288 272.784 453.524C296.698 469.76 328.909 464.033 344.729 440.732C360.549 417.431 353.59 388.354 329.676 372.118C305.761 355.881 272.002 368.668 256.182 391.969Z" fill="#C0B1E2"/>
</g>
<g opacity="0.7" filter="url(#filter14_i_3_152)">
<path d="M275.892 393.996C265.901 408.712 266.716 433.183 281.432 443.175C296.149 453.166 323.279 446.046 333.27 431.33C343.262 416.613 335.347 395.432 320.63 385.441C305.914 375.449 285.884 379.279 275.892 393.996Z" fill="#A896D3"/>
</g>
<g opacity="0.7" filter="url(#filter15_i_3_152)">
<path d="M164.245 431.47C161.169 436 161.42 443.532 165.95 446.608C170.48 449.683 178.83 447.491 181.905 442.962C184.981 438.432 182.545 431.912 178.015 428.837C173.485 425.762 167.32 426.941 164.245 431.47Z" fill="#A896D3"/>
</g>
<g opacity="0.7" filter="url(#filter16_i_3_152)">
<path d="M287.279 289.972C284.34 294.3 284.58 301.498 288.909 304.436C293.237 307.375 301.216 305.281 304.155 300.953C307.094 296.624 304.766 290.394 300.437 287.456C296.109 284.517 290.218 285.644 287.279 289.972Z" fill="#C0B1E2"/>
</g>
<g opacity="0.7" filter="url(#filter17_i_3_152)">
<path d="M159.898 188.611C156.959 192.939 157.199 200.136 161.527 203.075C165.856 206.014 173.835 203.92 176.774 199.591C179.713 195.263 177.385 189.033 173.056 186.094C168.728 183.156 162.837 184.282 159.898 188.611Z" fill="#A896D3"/>
</g>
<g opacity="0.7" filter="url(#filter18_i_3_152)">
<path d="M702.179 719.256C699.24 723.584 699.48 730.781 703.808 733.72C708.136 736.659 716.116 734.565 719.054 730.236C721.993 725.908 719.665 719.678 715.337 716.739C711.008 713.801 705.117 714.927 702.179 719.256Z" fill="#C0B1E2"/>
</g>
<g opacity="0.7" filter="url(#filter19_i_3_152)">
<path d="M713.759 598.153C710.82 602.482 711.06 609.679 715.388 612.618C719.717 615.556 727.696 613.462 730.635 609.134C733.574 604.805 731.246 598.576 726.917 595.637C722.589 592.698 716.698 593.825 713.759 598.153Z" fill="#C0B1E2"/>
</g>
<g opacity="0.7" filter="url(#filter20_i_3_152)">
<path d="M304.491 747.432C301.552 751.76 301.792 758.958 306.12 761.896C310.449 764.835 318.428 762.741 321.367 758.413C324.305 754.084 321.978 747.854 317.649 744.916C313.321 741.977 307.43 743.104 304.491 747.432Z" fill="#A896D3"/>
</g>
<g opacity="0.8">
<g opacity="0.5" filter="url(#filter21_i_3_152)">
<path d="M550.232 460.142C511.498 482.607 508.496 520.014 531.552 559.768C554.608 599.521 604.698 613.536 643.432 591.072C682.166 568.607 692.255 522.156 669.199 482.403C646.144 442.65 588.966 437.678 550.232 460.142Z" fill="#E6D7FF"/>
</g>
<g opacity="0.7" filter="url(#filter22_i_3_152)">
<path d="M577.068 476.642C552.604 490.83 536.892 526.445 551.08 550.908C565.268 575.372 609.041 583.887 633.504 569.699C657.968 555.51 661.241 519.711 647.053 495.247C632.865 470.783 601.531 462.454 577.068 476.642Z" fill="#C0B1E2"/>
</g>
<g opacity="0.7" filter="url(#filter23_i_3_152)">
<path d="M574.326 501.098C560.689 509.007 551.93 528.86 559.839 542.496C567.748 556.133 592.148 560.88 605.785 552.971C619.422 545.062 621.246 525.106 613.337 511.469C605.428 497.832 587.962 493.189 574.326 501.098Z" fill="#A896D3"/>
</g>
<g opacity="0.7" filter="url(#filter24_i_3_152)">
<path d="M513.087 396.596C504.183 401.76 498.464 414.723 503.628 423.627C508.792 432.53 524.724 435.629 533.628 430.466C542.532 425.302 543.723 412.272 538.559 403.368C533.395 394.464 521.991 391.432 513.087 396.596Z" fill="#C0B1E2"/>
</g>
</g>
<g opacity="0.8">
<g opacity="0.5" filter="url(#filter25_i_3_152)">
<path d="M457.779 118.697C450.165 71.3842 413.932 54.0571 365.375 61.8715C316.817 69.686 283.626 114.375 291.24 161.687C298.854 209 341.41 236.873 389.968 229.059C438.525 221.244 465.393 166.009 457.779 118.697Z" fill="#E6D7FF"/>
</g>
<g opacity="0.7" filter="url(#filter26_i_3_152)">
<path d="M431.012 139.195C426.203 109.314 396.629 79.9707 366.748 84.7796C336.866 89.5885 311.592 130.071 316.401 159.952C321.21 189.834 355.732 206.816 385.614 202.008C415.495 197.199 435.821 169.077 431.012 139.195Z" fill="#C0B1E2"/>
</g>
<g opacity="0.7" filter="url(#filter27_i_3_152)">
<path d="M407.623 127.088C404.943 110.431 388.458 94.0741 371.801 96.7547C355.144 99.4354 341.055 122.001 343.736 138.658C346.416 155.315 365.66 164.782 382.317 162.101C398.974 159.42 410.304 143.744 407.623 127.088Z" fill="#A896D3"/>
</g>
</g>
<g opacity="0.8">
<g opacity="0.5" filter="url(#filter28_i_3_152)">
<path d="M226.165 254.32C200.134 246.587 182.385 260.834 174.449 287.55C166.512 314.266 181.18 342.193 207.211 349.927C233.243 357.66 257.93 342.775 265.867 316.058C273.804 289.342 252.197 262.053 226.165 254.32Z" fill="#E6D7FF"/>
</g>
<g opacity="0.7" filter="url(#filter29_i_3_152)">
<path d="M230.058 273.025C213.617 268.14 191.368 276.035 186.484 292.476C181.599 308.916 196.064 331.767 212.505 336.652C228.946 341.536 246.098 328.078 250.983 311.637C255.867 295.196 246.498 277.909 230.058 273.025Z" fill="#C0B1E2"/>
</g>
<g opacity="0.7" filter="url(#filter30_i_3_152)">
<path d="M218.13 281.994C208.965 279.272 196.563 283.672 193.84 292.837C191.117 302.002 199.181 314.74 208.345 317.462C217.51 320.185 227.071 312.683 229.794 303.518C232.516 294.354 227.294 284.717 218.13 281.994Z" fill="#A896D3"/>
</g>
</g>
<g opacity="0.5" filter="url(#filter31_i_3_152)">
<path d="M85.2364 546.264C89.9368 576.178 112.792 587.212 143.494 582.388C174.196 577.564 195.274 549.403 190.574 519.488C185.873 489.574 159.048 471.861 128.346 476.685C97.6438 481.509 80.5361 516.349 85.2364 546.264Z" fill="#E6D7FF"/>
</g>
<g opacity="0.7" filter="url(#filter32_i_3_152)">
<path d="M102.198 533.373C105.167 552.267 123.785 570.878 142.679 567.909C161.572 564.941 177.638 539.419 174.67 520.525C171.701 501.632 149.926 490.82 131.032 493.788C112.139 496.757 99.2294 514.48 102.198 533.373Z" fill="#C0B1E2"/>
</g>
<g opacity="0.5" filter="url(#filter33_i_3_152)">
<path d="M517.7 139.135C500.719 164.145 509.851 187.778 535.519 205.205C561.188 222.632 595.761 216.485 612.742 191.475C629.722 166.465 622.252 135.255 596.584 117.828C570.916 100.4 534.68 114.124 517.7 139.135Z" fill="#C0B1E2"/>
</g>
<g opacity="0.7" filter="url(#filter34_i_3_152)">
<path d="M538.855 141.31C528.131 157.106 529.006 183.372 544.802 194.097C560.598 204.821 589.717 197.178 600.442 181.383C611.166 165.587 602.671 142.852 586.875 132.128C571.079 121.403 549.58 125.514 538.855 141.31Z" fill="#A896D3"/>
</g>
<circle cx="387.388" cy="575.074" r="7.24396" transform="rotate(-4 387.388 575.074)" fill="#A896D3"/>
<circle cx="372.481" cy="361.898" r="7.24396" transform="rotate(-4 372.481 361.898)" fill="#C0B1E2"/>
<circle cx="297.814" cy="519.955" r="7.24396" transform="rotate(-4 297.814 519.955)" fill="#A896D3"/>
<circle cx="355.082" cy="320.754" r="7.24396" transform="rotate(-4 355.082 320.754)" fill="#C0B1E2"/>
<circle cx="371.219" cy="689.995" r="7.24396" transform="rotate(-4 371.219 689.995)" fill="#A896D3"/>
<circle cx="579.163" cy="721.42" r="7.24396" transform="rotate(-4 579.163 721.42)" fill="#A896D3"/>
<circle cx="506.311" cy="544.972" r="7.24396" transform="rotate(-4 506.311 544.972)" fill="#C0B1E2"/>
<circle cx="451.198" cy="271.173" r="7.24396" transform="rotate(-4 451.198 271.173)" fill="#C0B1E2"/>
<circle cx="385.334" cy="338.003" r="7.24396" transform="rotate(-4 385.334 338.003)" fill="#C0B1E2"/>
<circle cx="231.24" cy="418.974" r="7.24396" transform="rotate(-4 231.24 418.974)" fill="#A896D3"/>
<circle cx="666.866" cy="195.848" r="7.24396" transform="rotate(-4 666.866 195.848)" fill="#A896D3"/>
<g opacity="0.8">
<g opacity="0.5" filter="url(#filter35_i_3_152)">
<path d="M91.5546 290.933C73.1262 285.459 60.5614 295.545 54.9426 314.458C49.3238 333.371 59.708 353.141 78.1364 358.616C96.5647 364.091 114.042 353.553 119.661 334.64C125.279 315.727 109.983 296.408 91.5546 290.933Z" fill="#E6D7FF"/>
</g>
</g>
<g filter="url(#filter36_f_3_152)">
<path d="M338.579 40.0723C140.295 344.795 366.149 746.759 729.542 735.888L846.055 732.403L-179.954 799.76L338.579 40.0723Z" fill="url(#paint1_linear_3_152)" fill-opacity="0.4"/>
</g>
<g opacity="0.2" filter="url(#filter37_f_3_152)">
<path d="M409.363 862.968C682.579 623.123 573.682 175.098 220.857 87.4187L107.733 59.3066L1113.8 271.56L409.363 862.968Z" fill="white"/>
</g>
</g>
</g>
<defs>
<filter id="filter0_d_3_152" x="0" y="0" width="880.392" height="880.393" filterUnits="userSpaceOnUse" color-interpolation-filters="sRGB">
<feFlood flood-opacity="0" result="BackgroundImageFix"/>
<feColorMatrix in="SourceAlpha" type="matrix" values="0 0 0 0 0 0 0 0 0 0 0 0 0 0 0 0 0 0 127 0" result="hardAlpha"/>
<feMorphology radius="20" operator="dilate" in="SourceAlpha" result="effect1_dropShadow_3_152"/>
<feOffset dy="4"/>
<feGaussianBlur stdDeviation="50"/>
<feComposite in2="hardAlpha" operator="out"/>
<feColorMatrix type="matrix" values="0 0 0 0 0.651 0 0 0 0 0.561337 0 0 0 0 0.904167 0 0 0 0.3 0"/>
<feBlend mode="normal" in2="BackgroundImageFix" result="effect1_dropShadow_3_152"/>
<feBlend mode="normal" in="SourceGraphic" in2="effect1_dropShadow_3_152" result="shape"/>
</filter>
<filter id="filter1_i_3_152" x="382.137" y="479.286" width="62.1257" height="70.1138" filterUnits="userSpaceOnUse" color-interpolation-filters="sRGB">
<feFlood flood-opacity="0" result="BackgroundImageFix"/>
<feBlend mode="normal" in="SourceGraphic" in2="BackgroundImageFix" result="shape"/>
<feColorMatrix in="SourceAlpha" type="matrix" values="0 0 0 0 0 0 0 0 0 0 0 0 0 0 0 0 0 0 127 0" result="hardAlpha"/>
<feOffset dy="3.66408"/>
<feGaussianBlur stdDeviation="3.66408"/>
<feComposite in2="hardAlpha" operator="arithmetic" k2="-1" k3="1"/>
<feColorMatrix type="matrix" values="0 0 0 0 0.356863 0 0 0 0 0.262745 0 0 0 0 0.623529 0 0 0 0.5 0"/>
<feBlend mode="normal" in2="shape" result="effect1_innerShadow_3_152"/>
</filter>
<filter id="filter2_i_3_152" x="391.421" y="489" width="43.2" height="47.023" filterUnits="userSpaceOnUse" color-interpolation-filters="sRGB">
<feFlood flood-opacity="0" result="BackgroundImageFix"/>
<feBlend mode="normal" in="SourceGraphic" in2="BackgroundImageFix" result="shape"/>
<feColorMatrix in="SourceAlpha" type="matrix" values="0 0 0 0 0 0 0 0 0 0 0 0 0 0 0 0 0 0 127 0" result="hardAlpha"/>
<feOffset dy="3.66408"/>
<feGaussianBlur stdDeviation="3.66408"/>
<feComposite in2="hardAlpha" operator="arithmetic" k2="-1" k3="1"/>
<feColorMatrix type="matrix" values="0 0 0 0 0.356863 0 0 0 0 0.262745 0 0 0 0 0.623529 0 0 0 0.5 0"/>
<feBlend mode="normal" in2="shape" result="effect1_innerShadow_3_152"/>
</filter>
<filter id="filter3_i_3_152" x="436.87" y="637.587" width="63.9132" height="75.3028" filterUnits="userSpaceOnUse" color-interpolation-filters="sRGB">
<feFlood flood-opacity="0" result="BackgroundImageFix"/>
<feBlend mode="normal" in="SourceGraphic" in2="BackgroundImageFix" result="shape"/>
<feColorMatrix in="SourceAlpha" type="matrix" values="0 0 0 0 0 0 0 0 0 0 0 0 0 0 0 0 0 0 127 0" result="hardAlpha"/>
<feOffset dy="3.66408"/>
<feGaussianBlur stdDeviation="3.66408"/>
<feComposite in2="hardAlpha" operator="arithmetic" k2="-1" k3="1"/>
<feColorMatrix type="matrix" values="0 0 0 0 0.356863 0 0 0 0 0.262745 0 0 0 0 0.623529 0 0 0 0.5 0"/>
<feBlend mode="normal" in2="shape" result="effect1_innerShadow_3_152"/>
</filter>
<filter id="filter4_i_3_152" x="145.993" y="727.905" width="76.7206" height="91.4483" filterUnits="userSpaceOnUse" color-interpolation-filters="sRGB">
<feFlood flood-opacity="0" result="BackgroundImageFix"/>
<feBlend mode="normal" in="SourceGraphic" in2="BackgroundImageFix" result="shape"/>
<feColorMatrix in="SourceAlpha" type="matrix" values="0 0 0 0 0 0 0 0 0 0 0 0 0 0 0 0 0 0 127 0" result="hardAlpha"/>
<feOffset dy="3.66408"/>
<feGaussianBlur stdDeviation="3.66408"/>
<feComposite in2="hardAlpha" operator="arithmetic" k2="-1" k3="1"/>
<feColorMatrix type="matrix" values="0 0 0 0 0.356863 0 0 0 0 0.262745 0 0 0 0 0.623529 0 0 0 0.5 0"/>
<feBlend mode="normal" in2="shape" result="effect1_innerShadow_3_152"/>
</filter>
<filter id="filter5_i_3_152" x="160.757" y="736.584" width="55.5315" height="67.2036" filterUnits="userSpaceOnUse" color-interpolation-filters="sRGB">
<feFlood flood-opacity="0" result="BackgroundImageFix"/>
<feBlend mode="normal" in="SourceGraphic" in2="BackgroundImageFix" result="shape"/>
<feColorMatrix in="SourceAlpha" type="matrix" values="0 0 0 0 0 0 0 0 0 0 0 0 0 0 0 0 0 0 127 0" result="hardAlpha"/>
<feOffset dy="3.66408"/>
<feGaussianBlur stdDeviation="3.66408"/>
<feComposite in2="hardAlpha" operator="arithmetic" k2="-1" k3="1"/>
<feColorMatrix type="matrix" values="0 0 0 0 0.356863 0 0 0 0 0.262745 0 0 0 0 0.623529 0 0 0 0.5 0"/>
<feBlend mode="normal" in2="shape" result="effect1_innerShadow_3_152"/>
</filter>
<filter id="filter6_i_3_152" x="517.07" y="262.386" width="104.829" height="117.122" filterUnits="userSpaceOnUse" color-interpolation-filters="sRGB">
<feFlood flood-opacity="0" result="BackgroundImageFix"/>
<feBlend mode="normal" in="SourceGraphic" in2="BackgroundImageFix" result="shape"/>
<feColorMatrix in="SourceAlpha" type="matrix" values="0 0 0 0 0 0 0 0 0 0 0 0 0 0 0 0 0 0 127 0" result="hardAlpha"/>
<feOffset dy="3.66408"/>
<feGaussianBlur stdDeviation="3.66408"/>
<feComposite in2="hardAlpha" operator="arithmetic" k2="-1" k3="1"/>
<feColorMatrix type="matrix" values="0 0 0 0 0.356863 0 0 0 0 0.262745 0 0 0 0 0.623529 0 0 0 0.5 0"/>
<feBlend mode="normal" in2="shape" result="effect1_innerShadow_3_152"/>
</filter>
<filter id="filter7_i_3_152" x="534.385" y="280.257" width="71.3633" height="75.0396" filterUnits="userSpaceOnUse" color-interpolation-filters="sRGB">
<feFlood flood-opacity="0" result="BackgroundImageFix"/>
<feBlend mode="normal" in="SourceGraphic" in2="BackgroundImageFix" result="shape"/>
<feColorMatrix in="SourceAlpha" type="matrix" values="0 0 0 0 0 0 0 0 0 0 0 0 0 0 0 0 0 0 127 0" result="hardAlpha"/>
<feOffset dy="3.66408"/>
<feGaussianBlur stdDeviation="3.66408"/>
<feComposite in2="hardAlpha" operator="arithmetic" k2="-1" k3="1"/>
<feColorMatrix type="matrix" values="0 0 0 0 0.356863 0 0 0 0 0.262745 0 0 0 0 0.623529 0 0 0 0.5 0"/>
<feBlend mode="normal" in2="shape" result="effect1_innerShadow_3_152"/>
</filter>
<filter id="filter8_i_3_152" x="607.796" y="626.761" width="96.5031" height="116.244" filterUnits="userSpaceOnUse" color-interpolation-filters="sRGB">
<feFlood flood-opacity="0" result="BackgroundImageFix"/>
<feBlend mode="normal" in="SourceGraphic" in2="BackgroundImageFix" result="shape"/>
<feColorMatrix in="SourceAlpha" type="matrix" values="0 0 0 0 0 0 0 0 0 0 0 0 0 0 0 0 0 0 127 0" result="hardAlpha"/>
<feOffset dy="3.66408"/>
<feGaussianBlur stdDeviation="3.66408"/>
<feComposite in2="hardAlpha" operator="arithmetic" k2="-1" k3="1"/>
<feColorMatrix type="matrix" values="0 0 0 0 0.356863 0 0 0 0 0.262745 0 0 0 0 0.623529 0 0 0 0.5 0"/>
<feBlend mode="normal" in2="shape" result="effect1_innerShadow_3_152"/>
</filter>
<filter id="filter9_i_3_152" x="622.618" y="642.977" width="63.9752" height="79.2832" filterUnits="userSpaceOnUse" color-interpolation-filters="sRGB">
<feFlood flood-opacity="0" result="BackgroundImageFix"/>
<feBlend mode="normal" in="SourceGraphic" in2="BackgroundImageFix" result="shape"/>
<feColorMatrix in="SourceAlpha" type="matrix" values="0 0 0 0 0 0 0 0 0 0 0 0 0 0 0 0 0 0 127 0" result="hardAlpha"/>
<feOffset dy="3.66408"/>
<feGaussianBlur stdDeviation="3.66408"/>
<feComposite in2="hardAlpha" operator="arithmetic" k2="-1" k3="1"/>
<feColorMatrix type="matrix" values="0 0 0 0 0.356863 0 0 0 0 0.262745 0 0 0 0 0.623529 0 0 0 0.5 0"/>
<feBlend mode="normal" in2="shape" result="effect1_innerShadow_3_152"/>
</filter>
<filter id="filter10_i_3_152" x="243.66" y="593.354" width="34.3481" height="38.0181" filterUnits="userSpaceOnUse" color-interpolation-filters="sRGB">
<feFlood flood-opacity="0" result="BackgroundImageFix"/>
<feBlend mode="normal" in="SourceGraphic" in2="BackgroundImageFix" result="shape"/>
<feColorMatrix in="SourceAlpha" type="matrix" values="0 0 0 0 0 0 0 0 0 0 0 0 0 0 0 0 0 0 127 0" result="hardAlpha"/>
<feOffset dy="3.66408"/>
<feGaussianBlur stdDeviation="3.66408"/>
<feComposite in2="hardAlpha" operator="arithmetic" k2="-1" k3="1"/>
<feColorMatrix type="matrix" values="0 0 0 0 0.356863 0 0 0 0 0.262745 0 0 0 0 0.623529 0 0 0 0.5 0"/>
<feBlend mode="normal" in2="shape" result="effect1_innerShadow_3_152"/>
</filter>
<filter id="filter11_i_3_152" x="683.178" y="406.977" width="55.8263" height="65.9492" filterUnits="userSpaceOnUse" color-interpolation-filters="sRGB">
<feFlood flood-opacity="0" result="BackgroundImageFix"/>
<feBlend mode="normal" in="SourceGraphic" in2="BackgroundImageFix" result="shape"/>
<feColorMatrix in="SourceAlpha" type="matrix" values="0 0 0 0 0 0 0 0 0 0 0 0 0 0 0 0 0 0 127 0" result="hardAlpha"/>
<feOffset dy="3.66408"/>
<feGaussianBlur stdDeviation="3.66408"/>
<feComposite in2="hardAlpha" operator="arithmetic" k2="-1" k3="1"/>
<feColorMatrix type="matrix" values="0 0 0 0 0.356863 0 0 0 0 0.262745 0 0 0 0 0.623529 0 0 0 0.5 0"/>
<feBlend mode="normal" in2="shape" result="effect1_innerShadow_3_152"/>
</filter>
<filter id="filter12_i_3_152" x="706.826" y="315.103" width="55.8263" height="65.9492" filterUnits="userSpaceOnUse" color-interpolation-filters="sRGB">
<feFlood flood-opacity="0" result="BackgroundImageFix"/>
<feBlend mode="normal" in="SourceGraphic" in2="BackgroundImageFix" result="shape"/>
<feColorMatrix in="SourceAlpha" type="matrix" values="0 0 0 0 0 0 0 0 0 0 0 0 0 0 0 0 0 0 127 0" result="hardAlpha"/>
<feOffset dy="3.66408"/>
<feGaussianBlur stdDeviation="3.66408"/>
<feComposite in2="hardAlpha" operator="arithmetic" k2="-1" k3="1"/>
<feColorMatrix type="matrix" values="0 0 0 0 0.356863 0 0 0 0 0.262745 0 0 0 0 0.623529 0 0 0 0.5 0"/>
<feBlend mode="normal" in2="shape" result="effect1_innerShadow_3_152"/>
</filter>
<filter id="filter13_i_3_152" x="248.129" y="364.833" width="105.102" height="101.591" filterUnits="userSpaceOnUse" color-interpolation-filters="sRGB">
<feFlood flood-opacity="0" result="BackgroundImageFix"/>
<feBlend mode="normal" in="SourceGraphic" in2="BackgroundImageFix" result="shape"/>
<feColorMatrix in="SourceAlpha" type="matrix" values="0 0 0 0 0 0 0 0 0 0 0 0 0 0 0 0 0 0 127 0" result="hardAlpha"/>
<feOffset dy="3.66408"/>
<feGaussianBlur stdDeviation="3.66408"/>
<feComposite in2="hardAlpha" operator="arithmetic" k2="-1" k3="1"/>
<feColorMatrix type="matrix" values="0 0 0 0 0.356863 0 0 0 0 0.262745 0 0 0 0 0.623529 0 0 0 0.5 0"/>
<feBlend mode="normal" in2="shape" result="effect1_innerShadow_3_152"/>
</filter>
<filter id="filter14_i_3_152" x="269.243" y="379.876" width="68.4879" height="71.6094" filterUnits="userSpaceOnUse" color-interpolation-filters="sRGB">
<feFlood flood-opacity="0" result="BackgroundImageFix"/>
<feBlend mode="normal" in="SourceGraphic" in2="BackgroundImageFix" result="shape"/>
<feColorMatrix in="SourceAlpha" type="matrix" values="0 0 0 0 0 0 0 0 0 0 0 0 0 0 0 0 0 0 127 0" result="hardAlpha"/>
<feOffset dy="3.66408"/>
<feGaussianBlur stdDeviation="3.66408"/>
<feComposite in2="hardAlpha" operator="arithmetic" k2="-1" k3="1"/>
<feColorMatrix type="matrix" values="0 0 0 0 0.356863 0 0 0 0 0.262745 0 0 0 0 0.623529 0 0 0 0.5 0"/>
<feBlend mode="normal" in2="shape" result="effect1_innerShadow_3_152"/>
</filter>
<filter id="filter15_i_3_152" x="162.198" y="427.125" width="21.0804" height="22.5658" filterUnits="userSpaceOnUse" color-interpolation-filters="sRGB">
<feFlood flood-opacity="0" result="BackgroundImageFix"/>
<feBlend mode="normal" in="SourceGraphic" in2="BackgroundImageFix" result="shape"/>
<feColorMatrix in="SourceAlpha" type="matrix" values="0 0 0 0 0 0 0 0 0 0 0 0 0 0 0 0 0 0 127 0" result="hardAlpha"/>
<feOffset dy="1.65225"/>
<feGaussianBlur stdDeviation="1.65225"/>
<feComposite in2="hardAlpha" operator="arithmetic" k2="-1" k3="1"/>
<feColorMatrix type="matrix" values="0 0 0 0 0.403922 0 0 0 0 0.309804 0 0 0 0 0.0156863 0 0 0 0.25 0"/>
<feBlend mode="normal" in2="shape" result="effect1_innerShadow_3_152"/>
</filter>
<filter id="filter16_i_3_152" x="285.323" y="285.819" width="20.1436" height="23.648" filterUnits="userSpaceOnUse" color-interpolation-filters="sRGB">
<feFlood flood-opacity="0" result="BackgroundImageFix"/>
<feBlend mode="normal" in="SourceGraphic" in2="BackgroundImageFix" result="shape"/>
<feColorMatrix in="SourceAlpha" type="matrix" values="0 0 0 0 0 0 0 0 0 0 0 0 0 0 0 0 0 0 127 0" result="hardAlpha"/>
<feOffset dy="3.66408"/>
<feGaussianBlur stdDeviation="3.66408"/>
<feComposite in2="hardAlpha" operator="arithmetic" k2="-1" k3="1"/>
<feColorMatrix type="matrix" values="0 0 0 0 0.356863 0 0 0 0 0.262745 0 0 0 0 0.623529 0 0 0 0.5 0"/>
<feBlend mode="normal" in2="shape" result="effect1_innerShadow_3_152"/>
</filter>
<filter id="filter17_i_3_152" x="157.942" y="184.458" width="20.1436" height="23.648" filterUnits="userSpaceOnUse" color-interpolation-filters="sRGB">
<feFlood flood-opacity="0" result="BackgroundImageFix"/>
<feBlend mode="normal" in="SourceGraphic" in2="BackgroundImageFix" result="shape"/>
<feColorMatrix in="SourceAlpha" type="matrix" values="0 0 0 0 0 0 0 0 0 0 0 0 0 0 0 0 0 0 127 0" result="hardAlpha"/>
<feOffset dy="3.66408"/>
<feGaussianBlur stdDeviation="3.66408"/>
<feComposite in2="hardAlpha" operator="arithmetic" k2="-1" k3="1"/>
<feColorMatrix type="matrix" values="0 0 0 0 0.356863 0 0 0 0 0.262745 0 0 0 0 0.623529 0 0 0 0.5 0"/>
<feBlend mode="normal" in2="shape" result="effect1_innerShadow_3_152"/>
</filter>
<filter id="filter18_i_3_152" x="700.223" y="715.103" width="20.1436" height="23.648" filterUnits="userSpaceOnUse" color-interpolation-filters="sRGB">
<feFlood flood-opacity="0" result="BackgroundImageFix"/>
<feBlend mode="normal" in="SourceGraphic" in2="BackgroundImageFix" result="shape"/>
<feColorMatrix in="SourceAlpha" type="matrix" values="0 0 0 0 0 0 0 0 0 0 0 0 0 0 0 0 0 0 127 0" result="hardAlpha"/>
<feOffset dy="3.66408"/>
<feGaussianBlur stdDeviation="3.66408"/>
<feComposite in2="hardAlpha" operator="arithmetic" k2="-1" k3="1"/>
<feColorMatrix type="matrix" values="0 0 0 0 0.356863 0 0 0 0 0.262745 0 0 0 0 0.623529 0 0 0 0.5 0"/>
<feBlend mode="normal" in2="shape" result="effect1_innerShadow_3_152"/>
</filter>
<filter id="filter19_i_3_152" x="711.803" y="594" width="20.1436" height="23.648" filterUnits="userSpaceOnUse" color-interpolation-filters="sRGB">
<feFlood flood-opacity="0" result="BackgroundImageFix"/>
<feBlend mode="normal" in="SourceGraphic" in2="BackgroundImageFix" result="shape"/>
<feColorMatrix in="SourceAlpha" type="matrix" values="0 0 0 0 0 0 0 0 0 0 0 0 0 0 0 0 0 0 127 0" result="hardAlpha"/>
<feOffset dy="3.66408"/>
<feGaussianBlur stdDeviation="3.66408"/>
<feComposite in2="hardAlpha" operator="arithmetic" k2="-1" k3="1"/>
<feColorMatrix type="matrix" values="0 0 0 0 0.356863 0 0 0 0 0.262745 0 0 0 0 0.623529 0 0 0 0.5 0"/>
<feBlend mode="normal" in2="shape" result="effect1_innerShadow_3_152"/>
</filter>
<filter id="filter20_i_3_152" x="302.535" y="743.279" width="20.1436" height="23.648" filterUnits="userSpaceOnUse" color-interpolation-filters="sRGB">
<feFlood flood-opacity="0" result="BackgroundImageFix"/>
<feBlend mode="normal" in="SourceGraphic" in2="BackgroundImageFix" result="shape"/>
<feColorMatrix in="SourceAlpha" type="matrix" values="0 0 0 0 0 0 0 0 0 0 0 0 0 0 0 0 0 0 127 0" result="hardAlpha"/>
<feOffset dy="3.66408"/>
<feGaussianBlur stdDeviation="3.66408"/>
<feComposite in2="hardAlpha" operator="arithmetic" k2="-1" k3="1"/>
<feColorMatrix type="matrix" values="0 0 0 0 0.356863 0 0 0 0 0.262745 0 0 0 0 0.623529 0 0 0 0.5 0"/>
<feBlend mode="normal" in2="shape" result="effect1_innerShadow_3_152"/>
</filter>
<filter id="filter21_i_3_152" x="517.001" y="446.813" width="164.423" height="158.635" filterUnits="userSpaceOnUse" color-interpolation-filters="sRGB">
<feFlood flood-opacity="0" result="BackgroundImageFix"/>
<feBlend mode="normal" in="SourceGraphic" in2="BackgroundImageFix" result="shape"/>
<feColorMatrix in="SourceAlpha" type="matrix" values="0 0 0 0 0 0 0 0 0 0 0 0 0 0 0 0 0 0 127 0" result="hardAlpha"/>
<feOffset dy="3.66408"/>
<feGaussianBlur stdDeviation="3.66408"/>
<feComposite in2="hardAlpha" operator="arithmetic" k2="-1" k3="1"/>
<feColorMatrix type="matrix" values="0 0 0 0 0.356863 0 0 0 0 0.262745 0 0 0 0 0.623529 0 0 0 0.5 0"/>
<feBlend mode="normal" in2="shape" result="effect1_innerShadow_3_152"/>
</filter>
<filter id="filter22_i_3_152" x="545.705" y="469.723" width="109.759" height="110.512" filterUnits="userSpaceOnUse" color-interpolation-filters="sRGB">
<feFlood flood-opacity="0" result="BackgroundImageFix"/>
<feBlend mode="normal" in="SourceGraphic" in2="BackgroundImageFix" result="shape"/>
<feColorMatrix in="SourceAlpha" type="matrix" values="0 0 0 0 0 0 0 0 0 0 0 0 0 0 0 0 0 0 127 0" result="hardAlpha"/>
<feOffset dy="3.66408"/>
<feGaussianBlur stdDeviation="3.66408"/>
<feComposite in2="hardAlpha" operator="arithmetic" k2="-1" k3="1"/>
<feColorMatrix type="matrix" values="0 0 0 0 0.356863 0 0 0 0 0.262745 0 0 0 0 0.623529 0 0 0 0.5 0"/>
<feBlend mode="normal" in2="shape" result="effect1_innerShadow_3_152"/>
</filter>
<filter id="filter23_i_3_152" x="556.843" y="497.241" width="61.183" height="63.2241" filterUnits="userSpaceOnUse" color-interpolation-filters="sRGB">
<feFlood flood-opacity="0" result="BackgroundImageFix"/>
<feBlend mode="normal" in="SourceGraphic" in2="BackgroundImageFix" result="shape"/>
<feColorMatrix in="SourceAlpha" type="matrix" values="0 0 0 0 0 0 0 0 0 0 0 0 0 0 0 0 0 0 127 0" result="hardAlpha"/>
<feOffset dy="3.66408"/>
<feGaussianBlur stdDeviation="3.66408"/>
<feComposite in2="hardAlpha" operator="arithmetic" k2="-1" k3="1"/>
<feColorMatrix type="matrix" values="0 0 0 0 0.356863 0 0 0 0 0.262745 0 0 0 0 0.623529 0 0 0 0.5 0"/>
<feBlend mode="normal" in2="shape" result="effect1_innerShadow_3_152"/>
</filter>
<filter id="filter24_i_3_152" x="501.672" y="394.078" width="39.9486" height="42.5532" filterUnits="userSpaceOnUse" color-interpolation-filters="sRGB">
<feFlood flood-opacity="0" result="BackgroundImageFix"/>
<feBlend mode="normal" in="SourceGraphic" in2="BackgroundImageFix" result="shape"/>
<feColorMatrix in="SourceAlpha" type="matrix" values="0 0 0 0 0 0 0 0 0 0 0 0 0 0 0 0 0 0 127 0" result="hardAlpha"/>
<feOffset dy="3.66408"/>
<feGaussianBlur stdDeviation="3.66408"/>
<feComposite in2="hardAlpha" operator="arithmetic" k2="-1" k3="1"/>
<feColorMatrix type="matrix" values="0 0 0 0 0.356863 0 0 0 0 0.262745 0 0 0 0 0.623529 0 0 0 0.5 0"/>
<feBlend mode="normal" in2="shape" result="effect1_innerShadow_3_152"/>
</filter>
<filter id="filter25_i_3_152" x="290.153" y="60.0679" width="168.905" height="173.96" filterUnits="userSpaceOnUse" color-interpolation-filters="sRGB">
<feFlood flood-opacity="0" result="BackgroundImageFix"/>
<feBlend mode="normal" in="SourceGraphic" in2="BackgroundImageFix" result="shape"/>
<feColorMatrix in="SourceAlpha" type="matrix" values="0 0 0 0 0 0 0 0 0 0 0 0 0 0 0 0 0 0 127 0" result="hardAlpha"/>
<feOffset dy="3.66408"/>
<feGaussianBlur stdDeviation="3.66408"/>
<feComposite in2="hardAlpha" operator="arithmetic" k2="-1" k3="1"/>
<feColorMatrix type="matrix" values="0 0 0 0 0.356863 0 0 0 0 0.262745 0 0 0 0 0.623529 0 0 0 0.5 0"/>
<feBlend mode="normal" in2="shape" result="effect1_innerShadow_3_152"/>
</filter>
<filter id="filter26_i_3_152" x="315.811" y="84.2593" width="115.905" height="122.221" filterUnits="userSpaceOnUse" color-interpolation-filters="sRGB">
<feFlood flood-opacity="0" result="BackgroundImageFix"/>
<feBlend mode="normal" in="SourceGraphic" in2="BackgroundImageFix" result="shape"/>
<feColorMatrix in="SourceAlpha" type="matrix" values="0 0 0 0 0 0 0 0 0 0 0 0 0 0 0 0 0 0 127 0" result="hardAlpha"/>
<feOffset dy="3.66408"/>
<feGaussianBlur stdDeviation="3.66408"/>
<feComposite in2="hardAlpha" operator="arithmetic" k2="-1" k3="1"/>
<feColorMatrix type="matrix" values="0 0 0 0 0.356863 0 0 0 0 0.262745 0 0 0 0 0.623529 0 0 0 0.5 0"/>
<feBlend mode="normal" in2="shape" result="effect1_innerShadow_3_152"/>
</filter>
<filter id="filter27_i_3_152" x="343.407" y="96.4648" width="64.6091" height="69.751" filterUnits="userSpaceOnUse" color-interpolation-filters="sRGB">
<feFlood flood-opacity="0" result="BackgroundImageFix"/>
<feBlend mode="normal" in="SourceGraphic" in2="BackgroundImageFix" result="shape"/>
<feColorMatrix in="SourceAlpha" type="matrix" values="0 0 0 0 0 0 0 0 0 0 0 0 0 0 0 0 0 0 127 0" result="hardAlpha"/>
<feOffset dy="3.66408"/>
<feGaussianBlur stdDeviation="3.66408"/>
<feComposite in2="hardAlpha" operator="arithmetic" k2="-1" k3="1"/>
<feColorMatrix type="matrix" values="0 0 0 0 0.356863 0 0 0 0 0.262745 0 0 0 0 0.623529 0 0 0 0.5 0"/>
<feBlend mode="normal" in2="shape" result="effect1_innerShadow_3_152"/>
</filter>
<filter id="filter28_i_3_152" x="172.293" y="252.224" width="95.2397" height="103.407" filterUnits="userSpaceOnUse" color-interpolation-filters="sRGB">
<feFlood flood-opacity="0" result="BackgroundImageFix"/>
<feBlend mode="normal" in="SourceGraphic" in2="BackgroundImageFix" result="shape"/>
<feColorMatrix in="SourceAlpha" type="matrix" values="0 0 0 0 0 0 0 0 0 0 0 0 0 0 0 0 0 0 127 0" result="hardAlpha"/>
<feOffset dy="3.66408"/>
<feGaussianBlur stdDeviation="3.66408"/>
<feComposite in2="hardAlpha" operator="arithmetic" k2="-1" k3="1"/>
<feColorMatrix type="matrix" values="0 0 0 0 0.356863 0 0 0 0 0.262745 0 0 0 0 0.623529 0 0 0 0.5 0"/>
<feBlend mode="normal" in2="shape" result="effect1_innerShadow_3_152"/>
</filter>
<filter id="filter29_i_3_152" x="185.521" y="271.593" width="66.7561" height="69.7378" filterUnits="userSpaceOnUse" color-interpolation-filters="sRGB">
<feFlood flood-opacity="0" result="BackgroundImageFix"/>
<feBlend mode="normal" in="SourceGraphic" in2="BackgroundImageFix" result="shape"/>
<feColorMatrix in="SourceAlpha" type="matrix" values="0 0 0 0 0 0 0 0 0 0 0 0 0 0 0 0 0 0 127 0" result="hardAlpha"/>
<feOffset dy="3.66408"/>
<feGaussianBlur stdDeviation="3.66408"/>
<feComposite in2="hardAlpha" operator="arithmetic" k2="-1" k3="1"/>
<feColorMatrix type="matrix" values="0 0 0 0 0.356863 0 0 0 0 0.262745 0 0 0 0 0.623529 0 0 0 0.5 0"/>
<feBlend mode="normal" in2="shape" result="effect1_innerShadow_3_152"/>
</filter>
<filter id="filter30_i_3_152" x="193.303" y="281.197" width="37.2118" height="40.4951" filterUnits="userSpaceOnUse" color-interpolation-filters="sRGB">
<feFlood flood-opacity="0" result="BackgroundImageFix"/>
<feBlend mode="normal" in="SourceGraphic" in2="BackgroundImageFix" result="shape"/>
<feColorMatrix in="SourceAlpha" type="matrix" values="0 0 0 0 0 0 0 0 0 0 0 0 0 0 0 0 0 0 127 0" result="hardAlpha"/>
<feOffset dy="3.66408"/>
<feGaussianBlur stdDeviation="3.66408"/>
<feComposite in2="hardAlpha" operator="arithmetic" k2="-1" k3="1"/>
<feColorMatrix type="matrix" values="0 0 0 0 0.356863 0 0 0 0 0.262745 0 0 0 0 0.623529 0 0 0 0.5 0"/>
<feBlend mode="normal" in2="shape" result="effect1_innerShadow_3_152"/>
</filter>
<filter id="filter31_i_3_152" x="84.4661" y="475.897" width="106.763" height="111.246" filterUnits="userSpaceOnUse" color-interpolation-filters="sRGB">
<feFlood flood-opacity="0" result="BackgroundImageFix"/>
<feBlend mode="normal" in="SourceGraphic" in2="BackgroundImageFix" result="shape"/>
<feColorMatrix in="SourceAlpha" type="matrix" values="0 0 0 0 0 0 0 0 0 0 0 0 0 0 0 0 0 0 127 0" result="hardAlpha"/>
<feOffset dy="3.66408"/>
<feGaussianBlur stdDeviation="3.66408"/>
<feComposite in2="hardAlpha" operator="arithmetic" k2="-1" k3="1"/>
<feColorMatrix type="matrix" values="0 0 0 0 0.356863 0 0 0 0 0.262745 0 0 0 0 0.623529 0 0 0 0.5 0"/>
<feBlend mode="normal" in2="shape" result="effect1_innerShadow_3_152"/>
</filter>
<filter id="filter32_i_3_152" x="101.773" y="493.301" width="73.2516" height="78.5855" filterUnits="userSpaceOnUse" color-interpolation-filters="sRGB">
<feFlood flood-opacity="0" result="BackgroundImageFix"/>
<feBlend mode="normal" in="SourceGraphic" in2="BackgroundImageFix" result="shape"/>
<feColorMatrix in="SourceAlpha" type="matrix" values="0 0 0 0 0 0 0 0 0 0 0 0 0 0 0 0 0 0 127 0" result="hardAlpha"/>
<feOffset dy="3.66408"/>
<feGaussianBlur stdDeviation="3.66408"/>
<feComposite in2="hardAlpha" operator="arithmetic" k2="-1" k3="1"/>
<feColorMatrix type="matrix" values="0 0 0 0 0.356863 0 0 0 0 0.262745 0 0 0 0 0.623529 0 0 0 0.5 0"/>
<feBlend mode="normal" in2="shape" result="effect1_innerShadow_3_152"/>
</filter>
<filter id="filter33_i_3_152" x="509.055" y="110.009" width="112.812" height="108.774" filterUnits="userSpaceOnUse" color-interpolation-filters="sRGB">
<feFlood flood-opacity="0" result="BackgroundImageFix"/>
<feBlend mode="normal" in="SourceGraphic" in2="BackgroundImageFix" result="shape"/>
<feColorMatrix in="SourceAlpha" type="matrix" values="0 0 0 0 0 0 0 0 0 0 0 0 0 0 0 0 0 0 127 0" result="hardAlpha"/>
<feOffset dy="3.66408"/>
<feGaussianBlur stdDeviation="3.66408"/>
<feComposite in2="hardAlpha" operator="arithmetic" k2="-1" k3="1"/>
<feColorMatrix type="matrix" values="0 0 0 0 0.356863 0 0 0 0 0.262745 0 0 0 0 0.623529 0 0 0 0.5 0"/>
<feBlend mode="normal" in2="shape" result="effect1_innerShadow_3_152"/>
</filter>
<filter id="filter34_i_3_152" x="531.718" y="126.155" width="73.5116" height="76.5933" filterUnits="userSpaceOnUse" color-interpolation-filters="sRGB">
<feFlood flood-opacity="0" result="BackgroundImageFix"/>
<feBlend mode="normal" in="SourceGraphic" in2="BackgroundImageFix" result="shape"/>
<feColorMatrix in="SourceAlpha" type="matrix" values="0 0 0 0 0 0 0 0 0 0 0 0 0 0 0 0 0 0 127 0" result="hardAlpha"/>
<feOffset dy="3.66408"/>
<feGaussianBlur stdDeviation="3.66408"/>
<feComposite in2="hardAlpha" operator="arithmetic" k2="-1" k3="1"/>
<feColorMatrix type="matrix" values="0 0 0 0 0.356863 0 0 0 0 0.262745 0 0 0 0 0.623529 0 0 0 0.5 0"/>
<feBlend mode="normal" in2="shape" result="effect1_innerShadow_3_152"/>
</filter>
<filter id="filter35_i_3_152" x="53.4169" y="289.45" width="67.423" height="74.2749" filterUnits="userSpaceOnUse" color-interpolation-filters="sRGB">
<feFlood flood-opacity="0" result="BackgroundImageFix"/>
<feBlend mode="normal" in="SourceGraphic" in2="BackgroundImageFix" result="shape"/>
<feColorMatrix in="SourceAlpha" type="matrix" values="0 0 0 0 0 0 0 0 0 0 0 0 0 0 0 0 0 0 127 0" result="hardAlpha"/>
<feOffset dy="3.66408"/>
<feGaussianBlur stdDeviation="3.66408"/>
<feComposite in2="hardAlpha" operator="arithmetic" k2="-1" k3="1"/>
<feColorMatrix type="matrix" values="0 0 0 0 0.356863 0 0 0 0 0.262745 0 0 0 0 0.623529 0 0 0 0.5 0"/>
<feBlend mode="normal" in2="shape" result="effect1_innerShadow_3_152"/>
</filter>
<filter id="filter36_f_3_152" x="-219.954" y="0.0722656" width="1106.01" height="839.688" filterUnits="userSpaceOnUse" color-interpolation-filters="sRGB">
<feFlood flood-opacity="0" result="BackgroundImageFix"/>
<feBlend mode="normal" in="SourceGraphic" in2="BackgroundImageFix" result="shape"/>
<feGaussianBlur stdDeviation="20" result="effect1_foregroundBlur_3_152"/>
</filter>
<filter id="filter37_f_3_152" x="57.7334" y="9.30664" width="1106.07" height="903.662" filterUnits="userSpaceOnUse" color-interpolation-filters="sRGB">
<feFlood flood-opacity="0" result="BackgroundImageFix"/>
<feBlend mode="normal" in="SourceGraphic" in2="BackgroundImageFix" result="shape"/>
<feGaussianBlur stdDeviation="25" result="effect1_foregroundBlur_3_152"/>
</filter>
<linearGradient id="paint0_linear_3_152" x1="635.5" y1="255.354" x2="-46" y2="900.354" gradientUnits="userSpaceOnUse">
<stop stop-color="#E2D8FE"/>
<stop offset="1" stop-color="#836EBE"/>
</linearGradient>
<linearGradient id="paint1_linear_3_152" x1="187.849" y1="548.839" x2="463.528" y2="452.117" gradientUnits="userSpaceOnUse">
<stop stop-color="#705EA9"/>
<stop offset="1" stop-color="#C4B7EA"/>
</linearGradient>
<clipPath id="clip0_3_152">
<rect x="120" y="157.854" width="600" height="600" rx="300" transform="rotate(-4 120 157.854)" fill="white"/>
</clipPath>
</defs>
</svg>
