<svg width="1200" height="1200" viewBox="0 0 1200 1200" fill="none" xmlns="http://www.w3.org/2000/svg">
<g filter="url(#filter0_d_3_735)">
<g clip-path="url(#clip0_3_735)">
<rect x="300" y="300" width="600" height="600" rx="300" fill="url(#paint0_linear_3_735)"/>
<g filter="url(#filter1_f_3_735)">
<path opacity="0.8" d="M47.3601 679L250.6 614.112C309.514 595.302 372.841 595.418 431.685 614.444L541.426 649.924C599.927 668.837 662.865 669.065 721.501 650.576L839.296 613.432C897.579 595.054 960.122 595.166 1018.34 613.753L1132.11 650.076C1191.02 668.885 1254.35 668.769 1313.19 649.744L1425.48 613.44C1484.68 594.301 1548.4 594.301 1607.6 613.44L1719.32 649.56C1778.52 668.699 1842.24 668.699 1901.44 649.56L2013.15 613.44C2072.35 594.301 2136.07 594.301 2195.27 613.44L2398.05 679" stroke="#00D5F5" stroke-width="32"/>
<path opacity="0.5" d="M-67.8809 776.78L135.359 711.892C194.273 693.083 257.6 693.199 316.444 712.224L426.185 747.704C484.686 766.618 547.624 766.846 606.26 748.356L724.055 711.212C782.338 692.834 844.881 692.946 903.098 711.533L1016.87 747.856C1075.78 766.665 1139.11 766.549 1197.95 747.524L1310.24 711.22C1369.44 692.081 1433.16 692.081 1492.36 711.22L1604.08 747.34C1663.27 766.479 1727 766.479 1786.19 747.34L1897.91 711.22C1957.11 692.081 2020.83 692.081 2080.03 711.22L2282.81 776.78" stroke="#00D5F5" stroke-width="24"/>
<path d="M7.83057 715L211.071 650.112C269.985 631.302 333.311 631.418 392.156 650.444L501.897 685.924C560.397 704.837 623.335 705.065 681.971 686.576L799.767 649.432C858.05 631.054 920.592 631.166 978.809 649.753L1092.58 686.076C1151.49 704.885 1214.82 704.769 1273.66 685.744L1385.95 649.44C1445.15 630.301 1508.87 630.301 1568.07 649.44L1679.79 685.56C1738.99 704.699 1802.71 704.699 1861.91 685.56L1973.62 649.44C2032.82 630.301 2096.54 630.301 2155.74 649.44L2358.52 715" stroke="#00D5F5" stroke-width="16"/>
<path d="M-29.0636 735L174.177 670.112C233.091 651.302 296.417 651.418 355.262 670.444L465.002 705.924C523.503 724.837 586.441 725.065 645.077 706.576L762.873 669.432C821.156 651.054 883.698 651.166 941.915 669.753L1055.68 706.076C1114.6 724.885 1177.93 724.769 1236.77 705.744L1349.06 669.44C1408.26 650.301 1471.98 650.301 1531.18 669.44L1642.89 705.56C1702.09 724.699 1765.81 724.699 1825.01 705.56L1936.73 669.44C1995.93 650.301 2059.65 650.301 2118.85 669.44L2321.63 735" stroke="#00D5F5" stroke-width="8"/>
<path d="M-17.8417 744.459L185.398 679.571C244.313 660.761 307.639 660.877 366.484 679.903L476.224 715.383C534.725 734.296 597.663 734.524 656.299 716.035L774.094 678.891C832.377 660.513 894.92 660.625 953.137 679.212L1066.91 715.535C1125.82 734.344 1189.15 734.228 1247.99 715.203L1360.28 678.899C1419.48 659.76 1483.2 659.76 1542.4 678.899L1654.12 715.019C1713.31 734.158 1777.04 734.158 1836.23 715.019L1947.95 678.899C2007.15 659.76 2070.87 659.76 2130.07 678.899L2332.85 744.459" stroke="#00D5F5" stroke-width="4"/>
<path d="M-43.8962 755.818L159.344 690.93C218.258 672.12 281.584 672.236 340.429 691.261L450.17 726.742C508.67 745.655 571.609 745.883 630.245 727.394L748.04 690.25C806.323 671.872 868.866 671.984 927.082 690.57L1040.85 726.893C1099.77 745.703 1163.09 745.587 1221.94 726.562L1334.23 690.258C1393.42 671.119 1457.15 671.119 1516.34 690.258L1628.06 726.378C1687.26 745.517 1750.98 745.517 1810.18 726.378L1921.9 690.258C1981.1 671.119 2044.82 671.119 2104.02 690.258L2306.79 755.818" stroke="#00D5F5" stroke-width="4"/>
<path d="M8.51129 853.652L223.696 787.078C281.032 769.339 342.405 769.449 399.677 787.392L523.768 826.27C580.704 844.108 641.702 844.323 698.762 826.887L831.145 786.436C887.861 769.106 948.475 769.211 1005.13 786.739L1133.37 826.414C1190.71 844.153 1252.08 844.044 1309.35 826.1L1436.14 786.378C1493.75 768.327 1555.51 768.327 1613.13 786.378L1739.36 825.927C1796.98 843.978 1858.74 843.978 1916.35 825.927L2042.59 786.378C2100.2 768.327 2161.96 768.327 2219.58 786.378L2434.31 853.652" stroke="#00D5F5" stroke-width="2"/>
<path d="M-34.118 868.292L181.067 801.717C238.403 783.979 299.776 784.088 357.048 802.032L481.139 840.909C538.075 858.747 599.073 858.962 656.133 841.527L788.516 801.075C845.232 783.745 905.846 783.851 962.501 801.379L1090.74 841.054C1148.08 858.793 1209.45 858.683 1266.72 840.74L1393.51 801.017C1451.12 782.966 1512.88 782.966 1570.5 801.017L1696.73 840.567C1754.35 858.618 1816.11 858.618 1873.72 840.567L1999.96 801.017C2057.57 782.966 2119.33 782.966 2176.95 801.017L2391.68 868.292" stroke="#00D5F5" stroke-width="2"/>
<path d="M11.2058 882.215L226.391 815.64C283.726 797.902 345.1 798.011 402.372 815.954L526.463 854.832C583.399 872.67 644.396 872.885 701.457 855.45L833.84 814.998C890.556 797.668 951.17 797.774 1007.82 815.302L1136.06 854.977C1193.4 872.716 1254.77 872.606 1312.04 854.663L1438.83 814.94C1496.45 796.889 1558.21 796.889 1615.82 814.94L1742.06 854.489C1799.67 872.54 1861.43 872.54 1919.05 854.489L2045.28 814.94C2102.9 796.889 2164.66 796.889 2222.27 814.94L2437 882.215" stroke="#00D5F5" stroke-width="8"/>
<path opacity="0.8" d="M-8.79456 892.215L206.39 825.64C263.726 807.902 325.099 808.011 382.371 825.954L506.463 864.832C563.398 882.67 624.396 882.885 681.456 865.45L813.839 824.998C870.555 807.668 931.169 807.774 987.824 825.302L1116.06 864.977C1173.4 882.716 1234.77 882.606 1292.04 864.663L1418.83 824.94C1476.45 806.889 1538.21 806.889 1595.82 824.94L1722.06 864.489C1779.67 882.54 1841.43 882.54 1899.05 864.489L2025.28 824.94C2082.9 806.889 2144.66 806.889 2202.27 824.94L2417 892.215" stroke="#00D5F5" stroke-width="16"/>
<path d="M-10.8494 922.275L204.336 855.701C261.671 837.962 323.045 838.072 380.317 856.015L504.408 894.893C561.344 912.731 622.341 912.946 679.402 895.51L811.785 855.059C868.5 837.729 929.114 837.834 985.769 855.362L1114.01 895.037C1171.34 912.776 1232.72 912.667 1289.99 894.723L1416.78 855.001C1474.39 836.95 1536.15 836.95 1593.77 855.001L1720 894.55C1777.62 912.601 1839.38 912.601 1896.99 894.55L2023.23 855.001C2080.84 836.95 2142.6 836.95 2200.22 855.001L2414.95 922.275" stroke="#00D5F5" stroke-width="4"/>
<path d="M13.1012 656L216.341 591.112C275.256 572.302 338.582 572.418 397.427 591.444L507.167 626.924C565.668 645.837 628.606 646.065 687.242 627.576L805.037 590.432C863.32 572.054 925.863 572.166 984.08 590.753L1097.85 627.076C1156.76 645.885 1220.09 645.769 1278.93 626.744L1391.22 590.44C1450.42 571.301 1514.14 571.301 1573.34 590.44L1685.06 626.56C1744.26 645.699 1807.98 645.699 1867.18 626.56L1978.9 590.44C2038.09 571.301 2101.82 571.301 2161.01 590.44L2363.79 656" stroke="#00D5F5" stroke-width="8"/>
<path d="M-11.1614 643.314L192.079 578.426C250.993 559.617 314.319 559.733 373.164 578.758L482.905 614.238C541.405 633.152 604.343 633.38 662.979 614.89L780.775 577.746C839.058 559.368 901.6 559.48 959.817 578.067L1073.59 614.39C1132.5 633.199 1195.83 633.084 1254.67 614.058L1366.96 577.755C1426.16 558.616 1489.88 558.616 1549.08 577.755L1660.8 613.874C1719.99 633.013 1783.72 633.013 1842.91 613.874L1954.63 577.755C2013.83 558.616 2077.55 558.616 2136.75 577.755L2339.53 643.314" stroke="#00D5F5" stroke-width="4"/>
<path opacity="0.5" d="M-94.9462 440L120.239 373.425C177.575 355.687 238.948 355.796 296.22 373.74L420.311 412.617C477.247 430.455 538.244 430.671 595.305 413.235L727.688 372.783C784.404 355.453 845.018 355.559 901.673 373.087L1029.91 412.762C1087.25 430.501 1148.62 430.391 1205.89 412.448L1332.68 372.725C1390.3 354.674 1452.05 354.674 1509.67 372.725L1635.91 412.275C1693.52 430.326 1755.28 430.326 1812.9 412.275L1939.13 372.725C1996.75 354.674 2058.5 354.674 2116.12 372.725L2330.85 440" stroke="#00D5F5" stroke-width="8"/>
<path d="M-56.0485 423.953L159.137 357.378C216.472 339.639 277.846 339.749 335.118 357.692L459.209 396.57C516.145 414.408 577.142 414.623 634.202 397.188L766.586 356.736C823.301 339.406 883.915 339.512 940.57 357.04L1068.81 396.715C1126.15 414.453 1187.52 414.344 1244.79 396.401L1371.58 356.678C1429.19 338.627 1490.95 338.627 1548.57 356.678L1674.8 396.227C1732.42 414.278 1794.18 414.278 1851.79 396.227L1978.03 356.678C2035.64 338.627 2097.4 338.627 2155.02 356.678L2369.75 423.953" stroke="#00D5F5" stroke-width="4"/>
<path opacity="0.7" d="M-43.2123 354.634L171.973 288.059C229.308 270.32 290.682 270.43 347.954 288.373L472.045 327.251C528.981 345.089 589.978 345.304 647.039 327.869L779.422 287.417C836.138 270.087 896.752 270.193 953.407 287.721L1081.65 327.396C1138.98 345.135 1200.35 345.025 1257.63 327.082L1384.41 287.359C1442.03 269.308 1503.79 269.308 1561.4 287.359L1687.64 326.908C1745.25 344.959 1807.01 344.959 1864.63 326.908L1990.86 287.359C2048.48 269.308 2110.24 269.308 2167.85 287.359L2382.58 354.634" stroke="#00D5F5" stroke-width="4"/>
<path opacity="0.8" d="M-100.448 469.708L114.737 403.133C172.073 385.395 233.446 385.504 290.718 403.448L414.809 442.325C471.745 460.163 532.743 460.379 589.803 442.943L722.186 402.491C778.902 385.161 839.516 385.267 896.171 402.795L1024.41 442.47C1081.75 460.209 1143.12 460.099 1200.39 442.156L1327.18 402.433C1384.79 384.382 1446.55 384.382 1504.17 402.433L1630.4 441.983C1688.02 460.034 1749.78 460.034 1807.39 441.983L1933.63 402.433C1991.24 384.382 2053 384.382 2110.62 402.433L2325.35 469.708" stroke="#00D5F5" stroke-width="16"/>
<path opacity="0.7" d="M-96.3854 519.623L118.8 453.048C176.135 435.31 237.509 435.419 294.781 453.363L418.872 492.24C475.808 510.078 536.805 510.294 593.866 492.858L726.249 452.407C782.964 435.076 843.578 435.182 900.233 452.71L1028.47 492.385C1085.81 510.124 1147.18 510.014 1204.45 492.071L1331.24 452.348C1388.86 434.297 1450.62 434.297 1508.23 452.348L1634.47 491.898C1692.08 509.949 1753.84 509.949 1811.46 491.898L1937.69 452.348C1995.31 434.297 2057.06 434.297 2114.68 452.348L2329.41 519.623" stroke="#00D5F5" stroke-width="8"/>
<path opacity="0.7" d="M-149.091 499.623L66.0935 433.048C123.429 415.31 184.803 415.419 242.075 433.363L366.166 472.24C423.102 490.078 484.099 490.294 541.159 472.858L673.543 432.407C730.258 415.076 790.872 415.182 847.527 432.71L975.767 472.385C1033.1 490.124 1094.48 490.014 1151.75 472.071L1278.54 432.348C1336.15 414.297 1397.91 414.297 1455.53 432.348L1581.76 471.898C1639.38 489.949 1701.13 489.949 1758.75 471.898L1884.98 432.348C1942.6 414.297 2004.36 414.297 2061.97 432.348L2276.7 499.623" stroke="#00D5F5" stroke-width="8"/>
<path d="M-134.278 455.459L80.9068 388.884C138.243 371.146 199.616 371.255 256.888 389.199L380.979 428.076C437.915 445.914 498.912 446.129 555.973 428.694L688.356 388.242C745.072 370.912 805.686 371.018 862.341 388.546L990.58 428.221C1047.92 445.96 1109.29 445.85 1166.56 427.907L1293.35 388.184C1350.96 370.133 1412.72 370.133 1470.34 388.184L1596.57 427.734C1654.19 445.785 1715.95 445.785 1773.56 427.734L1899.8 388.184C1957.41 370.133 2019.17 370.133 2076.79 388.184L2291.52 455.459" stroke="#00D5F5" stroke-width="4"/>
<path opacity="0.7" d="M643.016 594.204C641.899 606.696 598.049 617.519 556.059 614.994C514.069 612.468 477.349 606.338 478.466 593.846C479.582 581.354 518.112 567.23 560.102 569.755C602.092 572.281 644.132 581.711 643.016 594.204Z" fill="#B3F0FA"/>
<path opacity="0.6" d="M559.604 575.336C575.867 576.314 592.511 578.307 604.97 581.259C611.204 582.737 616.358 584.447 619.89 586.374C621.656 587.337 622.989 588.34 623.85 589.371C624.706 590.397 625.079 591.427 624.986 592.475C624.891 593.534 624.318 594.642 623.247 595.779C622.177 596.915 620.638 598.05 618.683 599.154C614.774 601.362 609.279 603.405 602.77 605.092C589.755 608.464 572.782 610.389 556.559 609.413C540.287 608.434 524.291 606.864 512.479 604.334C506.569 603.069 501.743 601.57 498.459 599.804C495.142 598.021 493.584 596.073 493.772 593.969C493.868 592.896 494.412 591.756 495.417 590.573C496.421 589.39 497.862 588.191 499.695 587.009C503.361 584.646 508.53 582.395 514.712 580.499C527.071 576.707 543.389 574.36 559.604 575.336Z" fill="#00D5F5" stroke="#0B6573"/>
<path opacity="0.5" d="M561.132 581.824C568.267 583.232 575.95 584.83 581.677 586.816C584.545 587.81 586.88 588.887 588.406 590.06C589.937 591.237 590.54 592.413 590.263 593.629C589.97 594.915 588.693 596.318 586.542 597.667C584.416 599 581.54 600.216 578.242 601.165C571.645 603.063 563.46 603.867 556.427 602.479C549.285 601.069 541.82 599.642 536.307 597.826C533.547 596.916 531.324 595.925 529.883 594.818C528.445 593.715 527.882 592.583 528.161 591.357C528.457 590.058 529.696 588.611 531.764 587.201C533.81 585.806 536.579 584.508 539.766 583.475C546.144 581.409 554.107 580.437 561.132 581.824Z" fill="#0B6573" stroke="#0B6573"/>
<path d="M527.513 773.736C527.556 778.08 514.81 784.228 503.921 784.652C493.032 785.076 483.149 784.776 483.106 780.432C483.063 776.089 492.877 769.346 503.766 768.922C514.655 768.498 527.471 769.392 527.513 773.736Z" fill="#5068E7"/>
<path opacity="0.5" d="M567.964 409.53C576.837 409.022 584.773 407.643 590.418 405.849C593.251 404.949 595.433 403.967 596.862 402.987C598.369 401.953 598.666 401.191 598.644 400.796C598.619 400.362 598.181 399.556 596.545 398.57C594.997 397.636 592.702 396.746 589.785 396.008C583.965 394.536 575.926 393.733 567.089 394.238C558.257 394.744 549.338 396.603 542.688 398.89C539.355 400.035 536.653 401.267 534.828 402.453C533.912 403.048 533.274 403.595 532.885 404.068C532.489 404.548 532.45 404.827 532.456 404.931C532.461 405.017 532.511 405.245 532.926 405.606C533.343 405.969 534.016 406.364 534.984 406.758C536.914 407.543 539.721 408.21 543.158 408.714C550.011 409.719 559.083 410.038 567.964 409.53Z" fill="#0B6573" stroke="#0B6573" stroke-width="2.68397"/>
<path opacity="0.4" d="M663.88 389.852C666.992 388.799 669.471 387.037 670.984 385.109C672.506 383.17 672.954 381.215 672.411 379.611C671.849 377.949 670.126 376.342 667.591 375.413C665.092 374.498 661.988 374.322 658.97 375.344C655.955 376.364 653.223 378.605 651.425 381.114C649.578 383.692 648.964 386.18 649.489 387.733C649.979 389.182 651.682 390.338 654.533 390.791C657.303 391.231 660.738 390.915 663.88 389.852Z" fill="#0B6573" stroke="#0B6573" stroke-width="2.68397"/>
<path opacity="0.3" d="M490.942 429.658C493.902 429.658 496.659 426.753 496.659 422.692C496.659 420.681 495.957 418.523 494.828 416.889C493.684 415.231 492.277 414.342 490.942 414.342C489.594 414.342 487.956 415.33 486.571 417.12C485.213 418.875 484.342 421.103 484.342 423.038C484.342 426.816 487.713 429.658 490.942 429.658Z" fill="#0B6573" stroke="#0B6573" stroke-width="2.68397"/>
<path opacity="0.3" d="M422.765 414.658C424.145 414.658 425.659 413.224 425.659 410.923C425.659 409.798 425.269 408.578 424.649 407.663C424.01 406.721 423.309 406.342 422.765 406.342C422.208 406.342 421.365 406.787 420.575 407.827C419.814 408.828 419.342 410.085 419.342 411.135C419.342 413.151 421.119 414.658 422.765 414.658Z" fill="#0B6573" stroke="#0B6573" stroke-width="2.68397"/>
</g>
<g filter="url(#filter2_f_3_735)">
<path d="M564.189 189.343C316.002 455.005 468.625 890.08 828.385 942.477L943.733 959.277L-78.3848 847.446L564.189 189.343Z" fill="url(#paint1_linear_3_735)" fill-opacity="0.4"/>
</g>
<g opacity="0.2" filter="url(#filter3_f_3_735)">
<path d="M647.692 1008.61C911.822 758.796 786.379 315.12 430.544 240.59L316.455 216.695L1329.71 391.477L647.692 1008.61Z" fill="#DBF2FF"/>
</g>
</g>
</g>
<defs>
<filter id="filter0_d_3_735" x="220" y="220" width="760" height="760" filterUnits="userSpaceOnUse" color-interpolation-filters="sRGB">
<feFlood flood-opacity="0" result="BackgroundImageFix"/>
<feColorMatrix in="SourceAlpha" type="matrix" values="0 0 0 0 0 0 0 0 0 0 0 0 0 0 0 0 0 0 127 0" result="hardAlpha"/>
<feOffset/>
<feGaussianBlur stdDeviation="40"/>
<feComposite in2="hardAlpha" operator="out"/>
<feColorMatrix type="matrix" values="0 0 0 0 0.049375 0 0 0 0 0.292622 0 0 0 0 0.329167 0 0 0 0.5 0"/>
<feBlend mode="normal" in2="BackgroundImageFix" result="effect1_dropShadow_3_735"/>
<feBlend mode="normal" in="SourceGraphic" in2="effect1_dropShadow_3_735" result="shape"/>
</filter>
<filter id="filter1_f_3_735" x="-166.274" y="255.821" width="2698.79" height="684.365" filterUnits="userSpaceOnUse" color-interpolation-filters="sRGB">
<feFlood flood-opacity="0" result="BackgroundImageFix"/>
<feBlend mode="normal" in="SourceGraphic" in2="BackgroundImageFix" result="shape"/>
<feGaussianBlur stdDeviation="8" result="effect1_foregroundBlur_3_735"/>
</filter>
<filter id="filter2_f_3_735" x="-118.385" y="149.343" width="1102.12" height="849.934" filterUnits="userSpaceOnUse" color-interpolation-filters="sRGB">
<feFlood flood-opacity="0" result="BackgroundImageFix"/>
<feBlend mode="normal" in="SourceGraphic" in2="BackgroundImageFix" result="shape"/>
<feGaussianBlur stdDeviation="20" result="effect1_foregroundBlur_3_735"/>
</filter>
<filter id="filter3_f_3_735" x="266.455" y="166.694" width="1113.25" height="891.918" filterUnits="userSpaceOnUse" color-interpolation-filters="sRGB">
<feFlood flood-opacity="0" result="BackgroundImageFix"/>
<feBlend mode="normal" in="SourceGraphic" in2="BackgroundImageFix" result="shape"/>
<feGaussianBlur stdDeviation="25" result="effect1_foregroundBlur_3_735"/>
</filter>
<linearGradient id="paint0_linear_3_735" x1="887.5" y1="514" x2="300" y2="610.501" gradientUnits="userSpaceOnUse">
<stop stop-color="#00DDFE"/>
<stop offset="1" stop-color="#5F36D7"/>
</linearGradient>
<linearGradient id="paint1_linear_3_735" x1="238.501" y1="726" x2="530.278" y2="661.394" gradientUnits="userSpaceOnUse">
<stop stop-color="#0D0525"/>
<stop offset="1" stop-color="#2384CC"/>
</linearGradient>
<clipPath id="clip0_3_735">
<rect x="300" y="300" width="600" height="600" rx="300" fill="white"/>
</clipPath>
</defs>
</svg>
