<svg width="811" height="811" viewBox="0 0 811 811" fill="none" xmlns="http://www.w3.org/2000/svg">
<g filter="url(#filter0_d_3_547)">
<g clip-path="url(#clip0_3_547)">
<rect x="80" y="132.293" width="600" height="600" rx="300" transform="rotate(-5 80 132.293)" fill="url(#paint0_linear_3_547)"/>
<g opacity="0.2">
<path d="M104.399 445.955C100.349 442.2 91.8438 441.848 95.598 437.798C99.3521 433.747 107.03 422.487 111.08 426.241C115.131 429.995 115.613 442.682 111.859 446.733C108.105 450.783 108.45 449.709 104.399 445.955Z" fill="#D66C14"/>
</g>
<g opacity="0.2">
<path d="M404.505 502.196C404.023 496.694 395.468 490.439 389.967 490.92C384.465 491.402 375.52 492.161 376.001 497.663C376.482 503.165 386.208 511.325 391.71 510.844C397.212 510.363 404.986 507.698 404.505 502.196Z" fill="#FFB802"/>
<path d="M527.063 336.886C526.582 331.384 518.027 325.128 512.525 325.61C507.023 326.091 498.078 326.851 498.56 332.353C499.041 337.854 508.766 346.015 514.268 345.534C519.77 345.052 527.545 342.387 527.063 336.886Z" fill="#FFB802"/>
<path d="M626.419 566.098C625.937 560.597 617.382 554.341 611.881 554.823C606.379 555.304 597.434 556.064 597.915 561.565C598.396 567.067 608.122 575.228 613.624 574.746C619.125 574.265 626.9 571.6 626.419 566.098Z" fill="#FFB802"/>
<path d="M191.401 188.051C191.882 193.553 200.437 199.809 205.939 199.327C211.441 198.846 220.386 198.086 219.905 192.584C219.423 187.083 208.079 189.102 202.577 189.583C197.075 190.065 190.92 182.55 191.401 188.051Z" fill="#FFB802"/>
<path d="M556.28 162.305C555.798 156.803 547.244 150.548 541.742 151.029C536.24 151.51 527.295 152.27 527.776 157.772C528.258 163.274 542.093 172.52 547.595 172.039C553.097 171.558 556.761 167.807 556.28 162.305Z" fill="#FFB802"/>
<path d="M183.227 330.83C182.746 325.328 190.084 317.682 195.586 317.201C201.088 316.719 210.029 315.914 210.51 321.416C210.992 326.918 202.831 336.643 197.329 337.125C191.828 337.606 183.708 336.332 183.227 330.83Z" fill="#FFB802"/>
<path d="M402.413 518.44C401.931 512.938 394.074 514.653 388.572 515.134C383.07 515.615 373.428 508.405 373.909 513.907C374.39 519.409 384.116 527.57 389.618 527.088C395.119 526.607 402.894 523.942 402.413 518.44Z" fill="#D66C14"/>
<path d="M210.651 586.914C210.169 581.412 215.107 574.478 209.605 574.959C204.103 575.441 190.501 574.6 190.982 580.102C191.463 585.604 201.189 593.764 206.691 593.283C212.193 592.802 211.132 592.416 210.651 586.914Z" fill="#D66C14"/>
</g>
<g opacity="0.2">
<path d="M506.357 495.705C502.306 491.951 502.612 481.358 506.366 477.307C510.12 473.256 516.205 466.657 520.256 470.411C524.307 474.165 524.789 486.851 521.035 490.902C517.281 494.953 510.408 499.46 506.357 495.705Z" fill="#FFB802"/>
<path d="M300.621 491.14C296.57 487.385 296.875 476.792 300.63 472.741C304.384 468.69 310.469 462.091 314.52 465.845C318.571 469.599 319.053 482.285 315.298 486.336C311.544 490.387 304.672 494.894 300.621 491.14Z" fill="#FFB802"/>
<path d="M420.747 710.182C416.697 706.428 417.002 695.834 420.756 691.784C424.51 687.733 430.596 681.133 434.646 684.887C438.697 688.641 439.179 701.328 435.425 705.379C431.671 709.429 424.798 713.936 420.747 710.182Z" fill="#FFB802"/>
<path d="M388.898 134.73C392.948 138.484 392.643 149.078 388.889 153.128C385.135 157.179 379.049 163.779 374.999 160.025C370.948 156.271 379.5 148.548 383.254 144.498C387.008 140.447 384.847 130.976 388.898 134.73Z" fill="#FFB802"/>
<path d="M144.803 407.159C140.752 403.404 141.058 392.811 144.812 388.76C148.566 384.709 154.651 378.11 158.702 381.864C162.753 385.618 161.572 402.217 157.818 406.268C154.064 410.319 148.854 410.913 144.803 407.159Z" fill="#FFB802"/>
<path d="M506.691 215.83C502.64 212.076 492.1 213.184 488.346 217.235C484.592 221.286 478.473 227.854 482.524 231.608C486.574 235.363 499.261 234.881 503.015 230.83C506.769 226.779 510.741 219.584 506.691 215.83Z" fill="#FFB802"/>
<path d="M520.471 504.015C516.421 500.26 522.593 495.105 526.348 491.054C530.102 487.003 530.32 474.966 534.37 478.72C538.421 482.474 538.903 495.16 535.149 499.211C531.395 503.262 524.522 507.769 520.471 504.015Z" fill="#D66C14"/>
<path d="M692.154 394.533C688.103 390.779 679.599 390.426 683.353 386.376C687.107 382.325 694.784 371.065 698.835 374.819C702.886 378.574 703.368 391.26 699.614 395.311C695.86 399.361 696.205 398.287 692.154 394.533Z" fill="#D66C14"/>
</g>
<g filter="url(#filter1_f_3_547)">
<path opacity="0.8" d="M-457.164 509.546L-349.368 452.674C-281.498 416.866 -202.013 410.093 -129.063 433.901C-56.526 457.574 22.4902 451.016 90.1325 415.71L94.5478 413.406C162.732 377.817 242.762 371.168 315.987 394.7C389.51 418.328 470.069 411.2 538.209 374.856C606.529 338.416 686.919 331.307 760.529 355.33C834.138 379.353 914.36 372.335 982.68 335.895C1051 299.454 1131.22 292.436 1204.83 316.459L1320.05 354.06" stroke="#FFB802" stroke-width="32"/>
<path opacity="0.5" d="M-535.769 614.576L-427.973 557.704C-360.103 521.897 -280.618 515.123 -207.667 538.931C-135.131 562.604 -56.1144 556.047 11.5279 520.741L15.9432 518.436C84.1274 482.847 164.158 476.198 237.383 499.73C310.906 523.358 391.465 516.23 459.604 479.886C527.924 443.446 608.314 436.338 681.924 460.361C755.534 484.384 835.755 477.365 904.075 440.925C972.395 404.485 1052.62 397.466 1126.23 421.489L1241.44 459.091" stroke="#FFB802" stroke-width="24"/>
<path d="M-483.913 548.024L-376.116 491.152C-308.246 455.344 -228.761 448.571 -155.811 472.378C-83.2742 496.051 -4.25803 489.494 63.3843 454.188L67.7996 451.883C135.984 416.294 216.014 409.646 289.239 433.178C362.762 456.806 443.321 449.677 511.461 413.333C579.781 376.893 660.17 369.785 733.78 393.808C807.39 417.831 887.612 410.813 955.932 374.372C1024.25 337.932 1104.47 330.913 1178.08 354.937L1293.3 392.538" stroke="#FFB802" stroke-width="16"/>
<path d="M-510.063 570.388L-402.267 513.516C-334.396 477.708 -254.912 470.935 -181.961 494.743C-109.425 518.416 -30.4084 511.858 37.2339 476.552L41.6492 474.248C109.833 438.659 189.864 432.01 263.089 455.542C336.612 479.17 417.171 472.042 485.311 435.698C553.63 399.257 634.02 392.149 707.63 416.172C781.24 440.195 861.461 433.177 929.781 396.737C998.101 360.296 1078.32 353.278 1151.93 377.301L1267.15 414.902" stroke="#FFB802" stroke-width="8"/>
<path d="M-500.754 579.069L-392.958 522.196C-325.088 486.389 -245.603 479.616 -172.653 503.423C-100.116 527.096 -21.0998 520.539 46.5425 485.233L50.9578 482.928C119.142 447.339 199.172 440.69 272.397 464.223C345.92 487.85 426.48 480.722 494.619 444.378C562.939 407.938 643.329 400.83 716.939 424.853C790.548 448.876 870.77 441.857 939.09 405.417C1007.41 368.977 1087.63 361.958 1161.24 385.981L1276.46 423.583" stroke="#FFB802" stroke-width="4"/>
<path d="M-519.462 592.107L-411.666 535.235C-343.796 499.427 -264.311 492.654 -191.361 516.462C-118.824 540.135 -39.8078 533.577 27.8345 498.271L32.2498 495.967C100.434 460.378 180.464 453.729 253.689 477.261C327.212 500.889 407.771 493.761 475.911 457.417C544.231 420.977 624.621 413.868 698.23 437.891C771.84 461.915 852.062 454.896 920.382 418.456C988.702 382.015 1068.92 374.997 1142.53 399.02L1257.75 436.621" stroke="#FFB802" stroke-width="4"/>
<path opacity="0.7" d="M-455.934 707.191L-342.883 649.144C-273.667 613.605 -193.241 606.747 -119.007 630.056L-115.441 631.175C-41.6305 654.351 38.3206 647.708 107.295 612.669L116.721 607.88C185.292 573.046 264.729 566.269 338.209 588.985L345.051 591.1C419.386 614.08 499.782 606.868 568.84 571.023L573.578 568.563C643.038 532.509 723.95 525.431 798.616 548.875L802.979 550.245C877.645 573.689 958.557 566.611 1028.02 530.557L1032.08 528.45C1101.54 492.396 1182.45 485.317 1257.11 508.761L1378.06 546.738" stroke="#FFB802" stroke-width="20"/>
<path opacity="0.3" d="M-476.118 730.91L-363.068 672.863C-293.852 637.323 -213.426 630.466 -139.192 653.775L-135.626 654.894C-61.815 678.07 18.1361 671.427 87.1101 636.388L96.537 631.599C165.108 596.764 244.545 589.987 318.025 612.703L324.866 614.818C399.202 637.799 479.597 630.586 548.655 594.741L553.394 592.282C622.854 556.228 703.765 549.149 778.431 572.594L782.795 573.964C857.461 597.408 938.372 590.329 1007.83 554.276L1011.89 552.168C1081.35 516.115 1162.26 509.036 1236.93 532.48L1357.88 570.456" stroke="#FFB802" stroke-width="8"/>
<path d="M-477.914 736.871L-364.864 678.824C-295.648 643.285 -215.221 636.427 -140.988 659.736L-137.422 660.856C-63.6108 684.032 16.3403 677.389 85.3143 642.349L94.7412 637.56C163.312 602.726 242.749 595.949 316.229 618.665L323.07 620.78C397.406 643.76 477.801 636.548 546.86 600.703L551.598 598.243C621.058 562.19 701.97 555.111 776.635 578.555L780.999 579.925C855.665 603.37 936.576 596.291 1006.04 560.237L1010.1 558.13C1079.56 522.076 1160.47 514.997 1235.13 538.442L1356.08 576.418" stroke="#FFB802" stroke-width="2"/>
<path d="M-509.776 755.359L-396.726 697.312C-327.51 661.772 -247.084 654.915 -172.85 678.223L-169.284 679.343C-95.4731 702.519 -15.522 695.876 53.452 660.836L62.8789 656.048C131.449 621.213 210.886 614.436 284.367 637.152L291.208 639.267C365.544 662.248 445.939 655.035 514.997 619.19L519.735 616.731C589.196 580.677 670.107 573.598 744.773 597.042L749.137 598.413C823.803 621.857 904.714 614.778 974.174 578.724L978.234 576.617C1047.69 540.564 1128.61 533.485 1203.27 556.929L1324.22 594.905" stroke="#FFB802" stroke-width="2"/>
<path d="M-474.384 765.234L-361.333 707.187C-292.117 671.648 -211.691 664.79 -137.458 688.099L-133.892 689.218C-60.0806 712.394 19.8705 705.751 88.8445 670.712L98.2714 665.923C166.842 631.089 246.279 624.312 319.759 647.028L326.601 649.143C400.936 672.123 481.331 664.911 550.39 629.065L555.128 626.606C624.588 590.552 705.5 583.474 780.165 606.918L784.529 608.288C859.195 631.732 940.107 624.654 1009.57 588.6L1013.63 586.493C1083.09 550.439 1164 543.36 1238.66 566.804L1359.61 604.78" stroke="#FFB802" stroke-width="2"/>
<path opacity="0.4" d="M-485.892 774.645L-372.842 716.598C-303.626 681.058 -223.2 674.201 -148.966 697.509L-145.4 698.629C-71.5889 721.805 8.3622 715.162 77.3362 680.123L86.7631 675.334C155.334 640.499 234.771 633.722 308.251 656.438L315.092 658.553C389.428 681.534 469.823 674.321 538.882 638.476L543.62 636.017C613.08 599.963 693.991 592.884 768.657 616.329L773.021 617.699C847.687 641.143 928.598 634.064 998.059 598.011L1002.12 595.903C1071.58 559.85 1152.49 552.771 1227.16 576.215L1348.1 614.191" stroke="#FFB802" stroke-width="8"/>
<path d="M-487.567 806.601L-374.516 748.554C-305.3 713.015 -224.874 706.157 -150.641 729.466L-147.075 730.586C-73.2636 753.762 6.68746 747.119 75.6615 712.079L85.0883 707.29C153.659 672.456 233.096 665.679 306.576 688.395L313.417 690.51C387.753 713.49 468.148 706.278 537.207 670.433L541.945 667.973C611.405 631.92 692.317 624.841 766.982 648.285L771.346 649.655C846.012 673.1 926.924 666.021 996.384 629.967L1000.44 627.86C1069.9 591.806 1150.82 584.727 1225.48 608.172L1346.43 646.148" stroke="#FFB802" stroke-width="4"/>
<path d="M-485.07 488.9L-377.274 432.028C-309.404 396.22 -229.919 389.447 -156.968 413.254C-84.4316 436.927 -5.41544 430.37 62.2269 395.064L66.6422 392.759C134.826 357.17 214.857 350.522 288.082 374.054C361.605 397.682 442.164 390.553 510.303 354.209C578.623 317.769 659.013 310.661 732.623 334.684C806.233 358.707 886.454 351.689 954.774 315.248C1023.09 278.808 1103.32 271.789 1176.93 295.812L1292.14 333.414" stroke="#FFB802" stroke-width="8"/>
<path d="M-504.519 477.867L-396.723 420.994C-328.853 385.187 -249.368 378.413 -176.418 402.221C-103.881 425.894 -24.8646 419.337 42.7777 384.031L47.193 381.726C115.377 346.137 195.408 339.488 268.632 363.02C342.155 386.648 422.715 379.52 490.854 343.176C559.174 306.736 639.564 299.628 713.174 323.651C786.784 347.674 867.005 340.655 935.325 304.215C1003.65 267.775 1083.87 260.756 1157.48 284.779L1272.69 322.381" stroke="#FFB802" stroke-width="4"/>
<path opacity="0.5" d="M-592.184 331.637L-479.133 273.59C-409.917 238.05 -329.491 231.193 -255.258 254.502L-251.692 255.621C-177.881 278.797 -97.9295 272.154 -28.9555 237.115L-19.5287 232.326C49.042 197.491 128.479 190.715 201.959 213.431L208.8 215.545C283.136 238.526 363.531 231.313 432.59 195.468L437.328 193.009C506.788 156.955 587.7 149.876 662.365 173.321L666.729 174.691C741.395 198.135 822.307 191.056 891.767 155.003L895.827 152.896C965.287 116.842 1046.2 109.763 1120.86 133.207L1241.81 171.183" stroke="#FFB802" stroke-width="8"/>
<path d="M-565.171 313.164L-452.12 255.117C-382.904 219.578 -302.478 212.72 -228.244 236.029L-224.678 237.149C-150.867 260.325 -70.9164 253.682 -1.94238 218.642L7.48446 213.853C76.0551 179.019 155.492 172.242 228.972 194.958L235.814 197.073C310.149 220.053 390.545 212.841 459.603 176.996L464.341 174.536C533.801 138.483 614.713 131.404 689.379 154.848L693.742 156.218C768.408 179.663 849.32 172.584 918.78 136.53L922.84 134.423C992.3 98.3692 1073.21 91.2904 1147.88 114.735L1268.82 152.711" stroke="#FFB802" stroke-width="4"/>
<path opacity="0.7" d="M-561.507 243.261L-448.457 185.214C-379.241 149.674 -298.815 142.816 -224.581 166.125L-221.015 167.245C-147.204 190.421 -67.253 183.778 1.72101 148.738L11.1479 143.949C79.7185 109.115 159.155 102.338 232.636 125.054L239.477 127.169C313.813 150.15 394.208 142.937 463.266 107.092L468.004 104.633C537.465 68.5788 618.376 61.5 693.042 84.9443L697.406 86.3145C772.072 109.759 852.983 102.68 922.443 66.6263L926.503 64.5191C995.963 28.4654 1076.87 21.3865 1151.54 44.8308L1272.49 82.8068" stroke="#FFB802" stroke-width="4"/>
<path opacity="0.8" d="M-593.754 361.596L-480.704 303.549C-411.488 268.009 -331.061 261.152 -256.828 284.461L-253.262 285.58C-179.451 308.756 -99.4997 302.113 -30.5256 267.074L-21.0988 262.285C47.4719 227.45 126.909 220.673 200.389 243.39L207.23 245.504C281.566 268.485 361.961 261.272 431.02 225.427L435.758 222.968C505.218 186.914 586.13 179.835 660.795 203.28L665.159 204.65C739.825 228.094 820.736 221.015 890.197 184.962L894.256 182.855C963.717 146.801 1044.63 139.722 1119.29 163.166L1240.24 201.142" stroke="#FFB802" stroke-width="8"/>
<path opacity="0.7" d="M-589.321 411.313L-476.27 353.266C-407.054 317.727 -326.628 310.869 -252.395 334.178L-248.828 335.298C-175.018 358.473 -95.0664 351.831 -26.0924 316.791L-16.6656 312.002C51.9051 277.168 131.342 270.391 204.822 293.107L211.664 295.222C285.999 318.202 366.395 310.99 435.453 275.145L440.191 272.685C509.651 236.632 590.563 229.553 665.229 252.997L669.592 254.367C744.258 277.812 825.17 270.733 894.63 234.679L898.69 232.572C968.15 196.518 1049.06 189.439 1123.73 212.884L1244.67 250.86" stroke="#FFB802" stroke-width="8"/>
<path d="M-621.569 349.726L-508.519 291.679C-439.303 256.139 -358.877 249.282 -284.643 272.59L-281.077 273.71C-207.266 296.886 -127.315 290.243 -58.3409 255.204L-48.914 250.415C19.6566 215.58 99.0936 208.803 172.574 231.519L179.415 233.634C253.751 256.615 334.146 249.402 403.204 213.557L407.943 211.098C477.403 175.044 558.314 167.965 632.98 191.41L637.344 192.78C712.01 216.224 792.921 209.145 862.382 173.092L866.441 170.984C935.901 134.931 1016.81 127.852 1091.48 151.296L1212.43 189.272" stroke="#FFB802" stroke-width="4"/>
</g>
<g filter="url(#filter2_f_3_547)">
<path d="M333.538 -0.968585C109.449 285.313 299.411 705.432 662.369 726.274L778.742 732.957L-249.233 710.635L333.538 -0.968585Z" fill="url(#paint1_linear_3_547)" fill-opacity="0.4"/>
</g>
<g opacity="0.2" filter="url(#filter3_f_3_547)">
<path d="M488.128 807.906C729.481 536.019 565.845 104.965 204.869 61.7317L89.1315 47.8702L1113.76 133.677L488.128 807.906Z" fill="#FFEAB3"/>
</g>
</g>
</g>
<defs>
<filter id="filter0_d_3_547" x="0" y="0" width="810.01" height="810.01" filterUnits="userSpaceOnUse" color-interpolation-filters="sRGB">
<feFlood flood-opacity="0" result="BackgroundImageFix"/>
<feColorMatrix in="SourceAlpha" type="matrix" values="0 0 0 0 0 0 0 0 0 0 0 0 0 0 0 0 0 0 127 0" result="hardAlpha"/>
<feOffset/>
<feGaussianBlur stdDeviation="40"/>
<feComposite in2="hardAlpha" operator="out"/>
<feColorMatrix type="matrix" values="0 0 0 0 0.916667 0 0 0 0 0.420489 0 0 0 0 0.00763887 0 0 0 1 0"/>
<feBlend mode="normal" in2="BackgroundImageFix" result="effect1_dropShadow_3_547"/>
<feBlend mode="normal" in="SourceGraphic" in2="effect1_dropShadow_3_547" result="shape"/>
</filter>
<filter id="filter1_f_3_547" x="-628.483" y="23.2363" width="2015.54" height="791.144" filterUnits="userSpaceOnUse" color-interpolation-filters="sRGB">
<feFlood flood-opacity="0" result="BackgroundImageFix"/>
<feBlend mode="normal" in="SourceGraphic" in2="BackgroundImageFix" result="shape"/>
<feGaussianBlur stdDeviation="3" result="effect1_foregroundBlur_3_547"/>
</filter>
<filter id="filter2_f_3_547" x="-289.233" y="-40.9688" width="1107.97" height="813.925" filterUnits="userSpaceOnUse" color-interpolation-filters="sRGB">
<feFlood flood-opacity="0" result="BackgroundImageFix"/>
<feBlend mode="normal" in="SourceGraphic" in2="BackgroundImageFix" result="shape"/>
<feGaussianBlur stdDeviation="20" result="effect1_foregroundBlur_3_547"/>
</filter>
<filter id="filter3_f_3_547" x="39.1316" y="-2.12988" width="1124.63" height="860.036" filterUnits="userSpaceOnUse" color-interpolation-filters="sRGB">
<feFlood flood-opacity="0" result="BackgroundImageFix"/>
<feBlend mode="normal" in="SourceGraphic" in2="BackgroundImageFix" result="shape"/>
<feGaussianBlur stdDeviation="25" result="effect1_foregroundBlur_3_547"/>
</filter>
<linearGradient id="paint0_linear_3_547" x1="233.938" y1="444.08" x2="744.443" y2="400.707" gradientUnits="userSpaceOnUse">
<stop stop-color="#F5610F"/>
<stop offset="1" stop-color="#FF9104"/>
</linearGradient>
<linearGradient id="paint1_linear_3_547" x1="157.981" y1="532.752" x2="340.898" y2="472.242" gradientUnits="userSpaceOnUse">
<stop stop-color="#772B06"/>
<stop offset="1" stop-color="#FF9A06"/>
</linearGradient>
<clipPath id="clip0_3_547">
<rect x="80" y="132.293" width="600" height="600" rx="300" transform="rotate(-5 80 132.293)" fill="white"/>
</clipPath>
</defs>
</svg>
