<svg width="268" height="38" viewBox="0 0 268 38" fill="none" xmlns="http://www.w3.org/2000/svg">
<g clip-path="url(#clip0_174_19837)">
<path d="M17.9396 38C11.9654 38 5.99122 38 0 38C0 33.0179 0 4.98212 0 0C5.9742 0 11.9654 0 17.9396 0C17.9396 0.045292 17.9396 0.090584 17.9396 0.135876C17.9396 5.02741 17.9396 32.9952 17.9396 37.8641C17.9396 37.9094 17.9396 37.9547 17.9396 38Z" fill="#0BE9A6"/>
<path d="M243.002 38C237.811 38 232.637 38 227.445 38C227.445 37.9547 227.445 37.8868 227.445 37.8415C227.445 32.9726 227.445 5.02741 227.445 0.158522C227.445 0.11323 227.445 0.045292 227.445 0C232.637 0 237.811 0 243.002 0C243.053 0.045292 243.036 0.11323 243.036 0.158522C243.036 5.02741 243.036 32.9726 243.036 37.8188C243.036 37.8415 243.036 37.8868 243.036 37.9094C243.036 37.9547 243.019 37.9774 243.002 38Z" fill="#0BE9A6"/>
<path d="M216.314 37.9999C212.603 37.9999 208.893 37.9999 205.182 37.9999C205.182 37.9546 205.165 37.9094 205.165 37.8641C205.165 37.4791 205.165 14.0178 205.165 13.6328C205.165 13.2705 205.165 12.9082 205.165 12.5458C205.165 12.5232 205.165 12.4779 205.148 12.4552C205.148 12.4326 205.08 12.4326 205.029 12.4326C204.978 12.4326 204.91 12.4326 204.859 12.4326C204.45 12.4326 204.042 12.4326 203.616 12.4326C203.446 12.4326 203.293 12.4326 203.123 12.4326C202.97 12.4326 202.936 12.4099 202.919 12.3873C202.919 12.342 202.919 12.3194 202.919 12.2741C202.919 11.5494 202.919 10.8247 202.919 10.1001C202.919 10.0548 202.919 10.0321 202.919 9.98682C202.919 9.96418 202.884 9.96418 202.884 9.94153C202.85 9.94153 202.816 9.94153 202.782 9.94153C202.085 9.94153 201.37 9.94153 200.672 9.94153C200.672 9.89624 200.689 9.85095 200.689 9.8283C200.689 9.08098 200.689 8.33367 200.689 7.58635C200.689 7.54106 200.689 7.51841 200.672 7.47312H200.655C200.825 7.45047 201.012 7.47312 201.182 7.47312C203.804 7.47312 206.425 7.47312 209.046 7.47312C209.182 7.47312 209.318 7.47312 209.437 7.47312C209.471 7.47312 209.522 7.47312 209.557 7.49576C209.625 7.54105 209.591 7.58635 209.591 7.63164C209.591 9.17157 209.591 10.7341 209.591 12.2741C209.591 12.3194 209.591 12.342 209.591 12.3873C209.591 12.3873 209.591 12.4099 209.608 12.4099C209.608 12.4326 209.676 12.4326 209.727 12.4326C209.846 12.4326 209.965 12.4326 210.084 12.4326C211.242 12.4326 212.416 12.4326 213.573 12.4326C213.658 12.4326 213.744 12.4326 213.846 12.4326C213.999 12.4326 214.067 12.4099 214.067 12.3873C214.067 12.342 214.067 12.2967 214.067 12.2741C214.067 10.7341 214.067 9.19421 214.067 7.65428C214.067 7.63164 214.067 7.60899 214.067 7.58635C214.067 7.49576 214.067 7.47312 213.641 7.47312C212.416 7.47312 211.19 7.47312 209.982 7.47312C209.897 7.47312 209.812 7.47312 209.71 7.47312C209.659 7.47312 209.608 7.47312 209.539 7.49576C209.557 7.47312 209.574 7.45047 209.591 7.42782C209.591 7.40518 209.591 7.35989 209.591 7.33724C209.591 5.97848 209.591 4.61972 209.591 3.26096C209.591 3.01185 209.591 2.76275 209.591 2.53629H209.574C209.693 2.53629 209.812 2.53629 209.914 2.53629C210.408 2.53629 210.918 2.53629 211.412 2.53629C211.48 2.53629 211.565 2.53629 211.633 2.53629C211.667 2.53629 211.718 2.53629 211.752 2.55893C211.769 2.55893 211.803 2.58158 211.803 2.58158C211.803 2.62687 211.803 2.64952 211.803 2.69481C211.803 3.41948 211.803 4.14415 211.803 4.86883C211.803 4.89147 211.803 4.93676 211.803 4.95941C211.803 4.95941 211.803 4.98206 211.82 4.98206C211.82 5.0047 211.871 5.0047 211.922 5.0047C211.973 5.0047 212.007 5.0047 212.059 5.0047C212.654 5.0047 213.233 5.0047 213.829 5.0047C213.863 5.0047 213.88 5.0047 213.914 5.0047C213.965 5.0047 214.033 4.98206 214.033 4.98206C214.033 4.93676 214.05 4.89147 214.05 4.86883C214.05 4.14415 214.05 3.41948 214.05 2.69481C214.05 2.67216 214.05 2.62687 214.05 2.60422C214.05 2.60422 214.05 2.58158 214.033 2.58158C214.016 2.58158 213.982 2.55893 213.948 2.55893C213.931 2.55893 213.897 2.55893 213.863 2.55893C213.25 2.55893 212.62 2.55893 212.007 2.55893C211.922 2.55893 211.837 2.55893 211.752 2.58158C211.769 2.55893 211.803 2.53629 211.82 2.51364C211.837 2.49099 211.82 2.4457 211.82 2.42306C211.82 2.01543 211.82 1.6078 211.82 1.20017C211.82 0.860482 211.82 0.520791 211.82 0.181101C211.82 0.135809 211.837 0.113163 211.786 0.0678711C215.497 0.0678711 219.207 0.0678711 222.918 0.0678711C222.986 0.113163 222.952 0.158455 222.952 0.203747C222.952 0.951066 222.952 1.67574 222.952 2.42306C222.952 2.4457 222.952 2.46835 222.952 2.49099C222.952 2.49099 222.952 2.51364 222.935 2.51364C222.935 2.53629 222.867 2.55893 222.798 2.55893C222.713 2.55893 222.628 2.55893 222.526 2.55893C222.118 2.55893 221.709 2.55893 221.284 2.55893C220.637 2.55893 220.705 2.53629 220.705 2.71745C220.705 3.44213 220.705 4.1668 220.705 4.89147C220.705 4.91412 220.705 4.95941 220.705 4.98206C220.705 5.02735 220.671 5.02735 220.467 5.04999C220.365 5.04999 220.262 5.04999 220.16 5.04999C219.752 5.04999 219.343 5.04999 218.918 5.04999C218.816 5.04999 218.714 5.04999 218.611 5.04999C218.543 5.04999 218.475 5.07264 218.475 5.09529C218.475 5.11793 218.475 5.16322 218.475 5.18587C218.475 5.38968 218.475 5.5935 218.475 5.79731C218.475 6.34082 218.475 6.86167 218.475 7.40518C218.475 7.45047 218.475 7.47312 218.492 7.51841C218.492 7.54106 218.56 7.54105 218.611 7.54105C218.765 7.54105 218.901 7.54105 219.054 7.54105C220.892 7.54105 222.73 7.54105 224.569 7.54105C224.705 7.54105 224.841 7.54105 224.96 7.54105C225.096 7.54105 225.147 7.5637 225.164 7.58635C225.164 7.60899 225.164 7.65429 225.164 7.67693C225.164 7.97133 225.164 8.24308 225.164 8.53748C225.164 8.96775 225.164 9.42067 225.164 9.85095C225.164 9.87359 225.164 9.89624 225.164 9.91889C225.164 10.0095 225.164 10.0095 224.807 10.0095C224.705 10.0095 224.603 10.0095 224.501 10.0095C222.679 10.0095 220.841 10.0095 219.02 10.0095C218.884 10.0095 218.748 10.0095 218.628 10.0095C218.543 10.0095 218.492 10.0321 218.475 10.0321C218.475 10.0774 218.458 10.1001 218.458 10.1453C218.458 10.8927 218.458 11.6173 218.458 12.3647C218.458 12.4099 218.458 12.4552 218.458 12.5005H218.475C218.424 12.5005 218.356 12.5005 218.305 12.5005C217.709 12.5005 217.131 12.5005 216.535 12.5005C216.518 12.5005 216.501 12.5005 216.484 12.5005C216.28 12.5005 216.246 12.5005 216.246 12.5458C216.246 12.5685 216.246 12.5911 216.246 12.6138C216.246 13.3837 216.246 37.2073 216.246 37.9773C216.314 37.9546 216.314 37.9773 216.314 37.9999Z" fill="#0BE9A6"/>
<path d="M189.54 38C189.54 37.9774 189.557 37.9321 189.557 37.9094C189.557 32.9952 189.557 5.00477 189.557 0.090584C189.557 0.067938 189.557 0.022646 189.54 0C193.251 0 196.961 0 200.671 0C200.671 0.045292 200.688 0.090584 200.688 0.135876C200.688 0.860548 200.688 1.58522 200.688 2.33254C200.688 2.35518 200.688 2.40048 200.688 2.42312C200.688 2.42312 200.688 2.44577 200.705 2.44577C200.723 2.44577 200.757 2.46841 200.791 2.46841C200.876 2.46841 200.961 2.46841 201.046 2.46841C201.505 2.46841 201.965 2.46841 202.408 2.46841C202.935 2.46841 202.901 2.46841 202.918 2.60429C202.918 2.8534 202.918 3.12515 202.918 3.37425C202.918 3.84982 202.918 4.32539 202.918 4.8236C202.918 4.86889 202.918 4.89154 202.918 4.93683C202.918 4.95948 202.85 4.98212 202.782 4.98212C202.68 4.98212 202.578 4.98212 202.476 4.98212C202.05 4.98212 201.625 4.98212 201.199 4.98212C201.08 4.98212 200.961 4.98212 200.842 4.98212C200.757 4.98212 200.705 5.00477 200.705 5.00477C200.705 5.05006 200.688 5.07271 200.688 5.118C200.688 5.86532 200.688 6.58999 200.688 7.33731C200.688 7.3826 200.671 7.42789 200.671 7.47318H200.688C200.637 7.47318 200.603 7.47318 200.552 7.47318C199.923 7.47318 199.293 7.47318 198.68 7.47318C198.612 7.47318 198.544 7.47318 198.459 7.47318C198.459 7.42789 198.476 7.3826 198.476 7.35995C198.476 6.61263 198.476 5.86532 198.476 5.14064C198.476 5.118 198.476 5.07271 198.476 5.05006C198.476 5.05006 198.476 5.02741 198.459 5.02741C198.442 5.02741 198.408 5.00477 198.374 5.00477C198.289 5.00477 198.203 5.00477 198.118 5.00477C197.659 5.00477 197.199 5.00477 196.757 5.00477C196.212 5.00477 196.263 5.00477 196.263 5.14064C196.263 5.88796 196.263 6.65793 196.263 7.40524C196.263 7.45054 196.28 7.47318 196.28 7.51847C196.195 7.51847 196.11 7.51847 196.025 7.51847C195.446 7.51847 194.867 7.51847 194.272 7.51847C194.204 7.51847 194.136 7.51847 194.05 7.51847C193.999 7.47318 194.016 7.42789 194.016 7.3826C194.016 6.65793 194.016 5.91061 194.016 5.18594C194.016 5.16329 194.016 5.118 194.016 5.09535C194.016 5.09535 194.016 5.07271 193.999 5.07271C193.982 5.07271 193.965 5.05006 193.914 5.05006C193.829 5.05006 193.744 5.05006 193.659 5.05006C193.199 5.05006 192.74 5.05006 192.297 5.05006C191.77 5.05006 191.804 5.02741 191.804 5.16329V5.18594C191.804 5.91061 191.804 6.65793 191.804 7.3826C191.804 7.40524 191.804 7.42789 191.804 7.45054V7.47318C191.804 7.49583 191.872 7.51847 191.957 7.51847C192.042 7.51847 192.127 7.51847 192.229 7.51847C192.706 7.51847 193.165 7.51847 193.642 7.51847C193.795 7.51847 193.931 7.51847 194.085 7.51847C194.033 7.54112 194.05 7.58641 194.05 7.60906C194.05 8.35638 194.05 9.12634 194.05 9.87366C194.05 9.89631 194.05 9.91895 194.067 9.9416C194.067 9.96424 194.119 9.96424 194.187 9.96424C194.238 9.96424 194.272 9.96424 194.323 9.96424C194.799 9.96424 195.259 9.96424 195.736 9.96424C195.923 9.96424 196.11 9.96424 196.314 9.96424C196.314 10.0095 196.297 10.0548 196.297 10.0775C196.297 10.8248 196.297 11.5721 196.297 12.3194C196.297 12.3421 196.297 12.3647 196.297 12.3874L196.314 12.41C196.331 12.4327 196.365 12.4327 196.399 12.4327C196.484 12.4327 196.57 12.4327 196.655 12.4327C197.131 12.4327 197.591 12.4327 198.067 12.4327C198.221 12.4327 198.357 12.4327 198.51 12.4327C198.51 12.478 198.51 12.5232 198.51 12.5685C198.51 13.3159 198.51 37.1168 198.51 37.8641C198.51 37.9094 198.51 37.9547 198.51 38.0226C195.497 38 192.519 38 189.54 38Z" fill="#0BE9A6"/>
<path d="M174.001 4.95929C173.984 4.98194 173.967 4.98194 173.967 5.00458C173.967 5.04987 173.967 5.07252 173.967 5.11781C173.967 5.84248 173.967 6.56716 173.967 7.31448C173.967 7.35977 173.967 7.38241 173.967 7.42771C173.967 7.45035 173.899 7.473 173.797 7.473C173.678 7.473 173.559 7.473 173.439 7.473C173.048 7.473 172.639 7.473 172.248 7.473C172.146 7.473 172.044 7.473 171.942 7.473C171.805 7.473 171.754 7.49564 171.737 7.51829V7.54094C171.737 7.56358 171.737 7.58623 171.737 7.60887C171.737 8.33355 171.737 9.05822 171.737 9.78289C171.737 9.80554 171.737 9.85083 171.737 9.87348C171.737 9.91877 171.788 9.91877 171.959 9.91877C172.027 9.91877 172.112 9.91877 172.18 9.91877C174.12 9.91877 176.061 9.91877 178.018 9.91877C178.154 9.91877 178.273 9.91877 178.409 9.91877H178.392C178.409 9.94141 178.426 9.96406 178.426 9.96406C178.426 9.9867 178.426 10.032 178.426 10.0546C178.426 10.7793 178.426 11.504 178.426 12.2513C178.426 12.2966 178.426 12.3192 178.426 12.3645C178.426 12.3872 178.392 12.4098 178.239 12.4098C177.746 12.4098 177.269 12.4098 176.775 12.4098C176.622 12.4098 176.486 12.4098 176.333 12.4098C176.282 12.4098 176.214 12.4325 176.214 12.4325C176.214 12.4778 176.197 12.5004 176.197 12.5457C176.197 12.9533 176.197 13.3383 176.197 13.7459C176.197 14.1083 176.197 37.5243 176.197 37.8866C176.197 37.9092 176.197 37.9545 176.214 37.9772C175.482 37.9772 174.733 37.9772 174.001 37.9772C173.984 37.9319 173.967 37.8866 173.967 37.8413C173.967 37.3884 173.967 13.8365 173.967 13.3836C173.967 13.0892 173.967 12.8175 173.967 12.5231C173.967 12.5004 173.967 12.4551 173.95 12.4325C173.95 12.4325 173.882 12.4098 173.831 12.4098C173.678 12.4098 173.542 12.4098 173.388 12.4098C171.533 12.4098 169.678 12.4098 167.823 12.4098C167.669 12.4098 167.533 12.4098 167.38 12.4098C167.329 12.4098 167.278 12.3872 167.278 12.3872C167.278 12.3419 167.261 12.3192 167.261 12.274C167.261 11.5266 167.261 10.802 167.261 10.0546C167.261 10.0094 167.261 9.96406 167.244 9.91877C167.278 9.91877 167.295 9.91877 167.329 9.91877C167.993 9.91877 168.657 9.91877 169.32 9.91877C169.354 9.91877 169.389 9.91877 169.406 9.91877C169.423 9.91877 169.457 9.91877 169.457 9.89612C169.474 9.85083 169.474 9.82818 169.474 9.78289C169.474 9.03557 169.474 8.3109 169.474 7.56358C169.474 7.54094 169.474 7.51829 169.474 7.49564C169.474 7.49564 169.474 7.473 169.457 7.473C169.44 7.473 169.423 7.45035 169.372 7.45035C169.32 7.45035 169.252 7.45035 169.201 7.45035C168.657 7.45035 168.112 7.45035 167.567 7.45035C167.516 7.45035 167.448 7.45035 167.397 7.45035C167.346 7.45035 167.278 7.473 167.278 7.473C167.278 7.49564 167.261 7.54094 167.261 7.56358C167.261 8.35619 167.261 9.12616 167.261 9.91877C167.108 9.91877 166.972 9.91877 166.818 9.91877C166.325 9.91877 165.848 9.91877 165.355 9.91877C165.048 9.91877 165.031 9.91877 165.031 10.0094C165.031 10.032 165.031 10.0773 165.031 10.0999C165.031 10.8246 165.031 11.5266 165.031 12.2513C165.031 12.274 165.031 12.3192 165.031 12.3419C165.031 12.3419 165.031 12.3645 165.014 12.3645C165.014 12.3872 164.963 12.3872 164.895 12.3872C164.81 12.3872 164.725 12.3872 164.64 12.3872C164.18 12.3872 163.721 12.3872 163.278 12.3872C163.159 12.3872 163.04 12.3872 162.921 12.3872C162.87 12.3872 162.802 12.4098 162.802 12.4098C162.802 12.4551 162.785 12.5004 162.785 12.5231C162.785 13.2477 162.785 37.0487 162.785 37.796C162.785 37.8413 162.785 37.8639 162.785 37.9092C162.785 37.9319 162.751 37.9545 162.751 37.9545C161.27 37.9545 159.806 37.9545 158.325 37.9545V37.9319C158.325 36.324 158.325 11.6399 158.325 10.0546C158.325 10.032 158.325 10.0094 158.325 9.9867C158.325 9.9867 158.325 9.96406 158.342 9.96406C158.342 9.94141 158.393 9.94141 158.444 9.94141C158.581 9.94141 158.717 9.94141 158.836 9.94141C159.925 9.94141 161.014 9.94141 162.104 9.94141C162.308 9.94141 162.512 9.94141 162.716 9.94141C162.836 9.89612 162.768 9.82818 162.768 9.78289C162.768 7.42771 162.768 5.07252 162.768 2.71734C162.768 2.67204 162.768 2.62675 162.768 2.60411C162.768 2.58146 162.768 2.55881 162.768 2.55881C162.768 2.53617 162.716 2.51352 162.631 2.51352C162.58 2.51352 162.546 2.51352 162.495 2.51352C161.9 2.51352 161.287 2.51352 160.691 2.51352C160.64 2.51352 160.572 2.51352 160.521 2.51352H160.538C160.538 2.49088 160.555 2.44558 160.555 2.42294C160.555 1.65297 160.555 0.883009 160.555 0.090399C160.555 0.067753 160.538 0.0451069 160.538 0.0224609C162.036 0.0224609 163.55 0.0224609 165.048 0.0224609C165.048 0.067753 165.031 0.090399 165.031 0.135691C165.031 1.69827 165.031 3.28349 165.031 4.84606C165.031 4.86871 165.031 4.914 165.031 4.93664C165.031 4.93664 165.031 4.95929 165.048 4.95929C165.048 4.95929 165.082 4.98194 165.116 4.98194C165.219 4.98194 165.321 4.98194 165.423 4.98194C166.648 4.98194 167.857 4.98194 169.082 4.98194C169.167 4.98194 169.252 4.98194 169.354 4.98194C169.406 4.98194 169.474 4.95929 169.474 4.95929C169.474 4.93664 169.491 4.89135 169.491 4.86871C169.491 4.12139 169.491 3.37407 169.491 2.62675C169.491 2.58146 169.474 2.55881 169.474 2.51352C169.542 2.51352 169.627 2.51352 169.695 2.51352C170.274 2.51352 170.835 2.51352 171.414 2.51352C171.465 2.51352 171.533 2.51352 171.584 2.51352C171.635 2.51352 171.686 2.53617 171.703 2.53617C171.703 2.58146 171.72 2.62675 171.72 2.6494C171.72 3.37407 171.72 4.09874 171.72 4.82341C171.72 4.84606 171.72 4.89135 171.72 4.914C171.72 4.914 171.72 4.93664 171.737 4.93664C171.737 4.95929 171.788 4.95929 171.839 4.95929C171.925 4.95929 172.01 4.95929 172.095 4.95929C172.588 4.95929 173.065 4.95929 173.559 4.95929C173.712 4.95929 173.848 4.95929 174.001 4.95929Z" fill="#0BE9A6"/>
<path d="M55.8443 -0.000303211C55.8443 0.0223428 55.8443 0.0449888 55.8443 0.0676348C55.8443 1.65286 55.8443 3.21543 55.8443 4.80065C55.8443 5.00446 55.7252 4.95917 56.5081 4.95917C58.3293 4.95917 60.1675 4.95917 61.9887 4.95917C62.1249 4.95917 62.2611 4.95917 62.3802 4.95917C62.4313 4.95917 62.4994 4.98182 62.4994 4.98182C62.4994 5.00446 62.5164 5.00446 62.5164 5.02711C62.5164 5.04976 62.5164 5.09505 62.5164 5.11769C62.5164 5.84237 62.5164 6.56704 62.5164 7.29171C62.5164 7.337 62.5164 7.35965 62.5334 7.40494C62.5334 7.42759 62.6015 7.45023 62.7036 7.45023C62.8568 7.45023 62.9929 7.45023 63.1461 7.45023C64.9503 7.45023 66.7715 7.45023 68.5757 7.45023C68.7289 7.45023 68.865 7.45023 69.0182 7.45023C69.1203 7.45023 69.1884 7.47288 69.1884 7.49552C69.1884 7.51817 69.1884 7.51817 69.1884 7.54082C69.1884 7.56346 69.1884 7.60876 69.1884 7.6314C69.1884 9.17133 69.1884 10.7113 69.1884 12.2512C69.1884 12.2965 69.1884 12.3418 69.1884 12.3644C69.1884 12.3871 69.2565 12.4097 69.3246 12.4097C69.4437 12.4097 69.5629 12.4097 69.682 12.4097C70.1586 12.4097 70.6181 12.4097 71.0947 12.4097C71.1458 12.4097 71.2139 12.4097 71.2649 12.4097C71.316 12.4097 71.3841 12.4324 71.3841 12.4324C71.3841 12.4776 71.4011 12.5003 71.4011 12.5456C71.4011 13.0664 71.4011 13.5873 71.4011 14.1082C71.4011 14.3346 71.4011 37.6374 71.4011 37.8638C71.4011 37.9091 71.4181 37.9544 71.367 37.9771C69.8863 37.9771 68.4225 37.9771 66.9417 37.9771C66.9417 37.9318 66.9417 37.8865 66.9417 37.8412C66.9417 36.6636 66.9417 12.4097 66.9417 11.2321C66.9417 10.8471 66.9417 10.4622 66.9417 10.0545C66.9417 10.0092 66.9417 9.98659 66.9247 9.94129C66.9247 9.91865 66.8736 9.91865 66.8055 9.91865C66.6524 9.91865 66.5162 9.91865 66.363 9.91865C64.5078 9.91865 62.6525 9.91865 60.7973 9.91865C60.6441 9.91865 60.508 9.91865 60.3548 9.91865C60.3037 9.91865 60.2526 9.896 60.2356 9.896C60.2356 9.85071 60.2186 9.82806 60.2186 9.78277C60.2186 9.0581 60.2186 8.33343 60.2186 7.60875C60.2186 7.56346 60.2186 7.54082 60.2186 7.49552C60.2186 7.49552 60.2186 7.47288 60.2016 7.47288C60.1846 7.47288 60.1675 7.45023 60.1505 7.45023C60.0484 7.45023 59.9463 7.45023 59.8442 7.45023C58.6187 7.45023 57.3932 7.45023 56.1847 7.45023C56.0996 7.45023 56.0145 7.45023 55.9124 7.45023C55.8613 7.45023 55.7933 7.47288 55.7933 7.47288C55.7933 7.51817 55.7762 7.56346 55.7762 7.58611C55.7762 9.17133 55.7762 10.7339 55.7762 12.3191C55.7762 12.3418 55.7762 12.3871 55.7762 12.4097H55.7933C55.7762 12.4097 55.7592 12.4097 55.7422 12.4097C55.0614 12.4097 54.3976 12.4097 53.7168 12.4097C53.6827 12.4097 53.6487 12.4097 53.6317 12.4097C53.6146 12.4097 53.5806 12.4097 53.5806 12.4324C53.5636 12.455 53.5636 12.5003 53.5636 12.5229C53.5636 13.2929 53.5636 37.1391 53.5636 37.9318C53.5636 37.9544 53.5806 37.9771 53.5806 37.9997C52.8487 37.9997 52.0998 37.9997 51.3679 37.9997C51.3509 37.9771 51.3169 37.9544 51.3169 37.9544C51.3169 37.9318 51.3169 37.8865 51.3169 37.8638C51.3169 37.1844 51.3169 13.4514 51.3169 12.772C51.3169 12.7041 51.3169 12.6362 51.3169 12.5456C51.3169 12.5229 51.3169 12.5003 51.3169 12.4776C51.3169 12.4324 51.2658 12.4324 51.1467 12.4324C51.1126 12.4324 51.0956 12.4324 51.0616 12.4324C50.4658 12.4324 49.8531 12.4324 49.2574 12.4324C49.2063 12.4324 49.1382 12.4324 49.0872 12.4324H49.1042C49.1042 12.4097 49.1212 12.3871 49.1212 12.3644C49.1212 11.5945 49.1212 10.8245 49.1212 10.0545C49.1212 10.0319 49.1212 10.0092 49.1042 9.98659C49.1042 9.96394 49.0361 9.96394 48.951 9.96394C48.7978 9.96394 48.6617 9.96394 48.5085 9.96394C47.9638 9.96394 47.4192 9.96394 46.8745 9.96394H46.8915C46.8915 9.91865 46.8915 9.896 46.8915 9.85071C46.8915 8.26549 46.8915 6.68027 46.8915 5.09505C46.8915 5.04976 46.8915 5.02711 46.8915 4.98182H46.8745C47.6064 4.98182 48.3553 4.98182 49.0872 4.98182H49.0702C49.0872 5.02711 49.0872 5.0724 49.0872 5.09505C49.0872 5.48003 49.0872 5.84237 49.0872 6.22735C49.0872 6.58968 49.0872 6.95202 49.0872 7.31436C49.0872 7.337 49.0872 7.38229 49.0872 7.40494C49.0872 7.42759 49.1553 7.45023 49.2574 7.45023C49.3935 7.45023 49.5297 7.45023 49.6489 7.45023C50.5509 7.45023 51.453 7.45023 52.3381 7.45023C52.6445 7.45023 52.9508 7.45023 53.2572 7.45023C53.4955 7.45023 53.5295 7.42759 53.5295 7.38229C53.5295 7.337 53.5295 7.31436 53.5295 7.26906C53.5295 6.02353 53.5295 4.778 53.5295 3.53247C53.5295 2.40017 53.5295 1.26787 53.5295 0.112927C53.5295 0.0676348 53.5466 0.0223428 53.5466 -0.0229492C54.3635 -0.000303211 55.1124 -0.000303211 55.8443 -0.000303211Z" fill="#0BE9A6"/>
<path d="M95.9614 37.9999C95.9614 37.9546 95.9614 37.9094 95.9614 37.8867C95.9614 37.1394 95.9614 13.3158 95.9614 12.5685C95.9614 12.5232 95.9614 12.5005 95.9785 12.4552C95.9785 12.4326 96.0295 12.4326 96.0976 12.4326C96.2167 12.4326 96.3359 12.4326 96.455 12.4326C96.9146 12.4326 97.3741 12.4326 97.8167 12.4326C97.9018 12.4326 97.9869 12.4326 98.072 12.4326C98.106 12.4326 98.1571 12.4326 98.1571 12.4099L98.1741 12.3873C98.1741 12.3647 98.1741 12.342 98.1741 12.3194C98.1741 9.89624 98.1741 7.47312 98.1741 5.07264C98.1741 5.04999 98.1741 5.02735 98.1741 5.0047H98.1571C98.7868 5.0047 99.4166 5.0047 100.046 5.0047C100.131 5.0047 100.217 5.0047 100.302 5.0047C100.319 5.0047 100.353 5.0047 100.353 4.98206C100.37 4.98206 100.37 4.95941 100.37 4.95941C100.37 4.93676 100.37 4.89147 100.37 4.86882C100.37 3.30625 100.37 1.74368 100.37 0.181101C100.37 0.135809 100.353 0.0905171 100.353 0.0678711C101.851 0.0678711 103.365 0.0678711 104.863 0.0678711C104.863 0.113163 104.846 0.135809 104.846 0.181101C104.846 0.928419 104.846 1.65309 104.846 2.40041C104.846 2.58158 104.931 2.55893 104.216 2.55893C103.859 2.55893 103.502 2.55893 103.161 2.55893C103.042 2.55893 102.923 2.55893 102.804 2.55893C102.702 2.55893 102.633 2.58158 102.633 2.60422C102.633 2.62687 102.633 2.62687 102.633 2.64952C102.633 2.67216 102.633 2.69481 102.633 2.71745C102.633 3.44213 102.633 4.1668 102.633 4.89147C102.633 4.93676 102.633 4.95941 102.633 5.0047C102.633 5.02735 102.685 5.04999 102.821 5.04999C102.974 5.04999 103.11 5.04999 103.263 5.04999C105.816 5.04999 108.352 5.04999 110.905 5.04999C111.059 5.04999 111.195 5.04999 111.348 5.04999C111.467 5.04999 111.518 5.07264 111.535 5.09528V5.11793C111.535 5.14058 111.535 5.16322 111.535 5.16322C111.535 5.91054 111.535 6.63521 111.535 7.38253C111.535 7.42782 111.518 7.45047 111.518 7.49576C111.518 7.51841 111.45 7.51841 111.399 7.51841C111.297 7.51841 111.195 7.51841 111.093 7.51841C110.633 7.51841 110.174 7.51841 109.731 7.51841C109.629 7.51841 109.527 7.51841 109.425 7.51841C109.374 7.51841 109.34 7.54105 109.34 7.54105C109.323 7.54105 109.323 7.5637 109.323 7.5637C109.323 7.60899 109.323 7.65428 109.323 7.67693C109.323 9.21686 109.323 10.7568 109.323 12.3194C109.323 12.3647 109.323 12.4099 109.306 12.4326C109.306 12.4552 109.237 12.4552 109.186 12.4552C109.135 12.4552 109.067 12.4552 109.016 12.4552C108.489 12.4552 107.961 12.4552 107.433 12.4552C107.365 12.4552 107.28 12.4552 107.212 12.4552C107.178 12.4552 107.127 12.4552 107.127 12.4326L107.11 12.4099C107.11 12.3647 107.11 12.342 107.11 12.2967C107.11 10.7568 107.11 9.21686 107.11 7.67693C107.11 7.63164 107.11 7.58635 107.11 7.5637C107.11 7.51841 107.059 7.51841 106.889 7.51841C106.803 7.51841 106.718 7.51841 106.616 7.51841C105.459 7.51841 104.284 7.51841 103.127 7.51841C103.008 7.51841 102.889 7.51841 102.77 7.51841C102.719 7.51841 102.668 7.54105 102.668 7.54105L102.65 7.5637C102.65 7.58635 102.65 7.60899 102.65 7.63164C102.65 8.35631 102.65 9.10363 102.65 9.8283C102.65 9.87359 102.65 9.89624 102.668 9.94153C102.668 9.96418 102.719 9.96418 102.77 9.96418C102.872 9.96418 102.974 9.96418 103.076 9.96418C103.536 9.96418 103.995 9.96418 104.438 9.96418C104.54 9.96418 104.642 9.96418 104.744 9.96418C104.795 9.96418 104.846 9.98682 104.846 9.98682C104.846 10.0095 104.863 10.0095 104.863 10.0321C104.863 10.0774 104.863 10.1001 104.863 10.1453C104.863 11.7079 104.863 36.3468 104.863 37.9093C104.863 37.9546 104.88 37.9999 104.88 38.0226C101.919 37.9999 98.94 37.9999 95.9614 37.9999Z" fill="#0BE9A6"/>
<path d="M37.99 0C40.9685 0 43.9471 0 46.9087 0C46.9087 0.045292 46.9087 0.090584 46.9087 0.135876C46.9087 1.7211 46.9087 3.28367 46.9087 4.86889C46.9087 4.91418 46.9087 4.93683 46.9087 4.98212H46.9257C46.3811 4.98212 45.8364 4.98212 45.2918 4.98212C45.1386 4.98212 45.0024 4.98212 44.8492 4.98212C44.7641 4.98212 44.7131 5.00477 44.696 5.00477C44.696 5.05006 44.679 5.09535 44.679 5.118C44.679 6.68057 44.679 8.24315 44.679 9.78308C44.679 9.80572 44.679 9.85101 44.679 9.87366C44.679 9.89631 44.696 9.89631 44.7131 9.91895C44.5599 9.91895 44.4237 9.91895 44.2705 9.91895C43.7769 9.91895 43.2663 9.91895 42.7727 9.91895C42.6876 9.91895 42.6025 9.91895 42.5174 9.91895C42.5004 9.91895 42.4664 9.89631 42.4664 9.89631C42.4493 9.85101 42.4493 9.80572 42.4493 9.76043C42.4493 8.2205 42.4493 6.68057 42.4493 5.14064C42.4493 5.09535 42.4493 5.05006 42.4493 5.02741C42.4493 5.02741 42.4323 5.00477 42.4153 5.00477C42.3983 5.00477 42.3813 4.98212 42.3642 4.98212C42.3132 4.98212 42.2451 4.98212 42.194 4.98212C41.6153 4.98212 41.0537 4.98212 40.475 4.98212C40.4409 4.98212 40.4239 4.98212 40.3899 4.98212C40.2877 4.98212 40.2367 5.00477 40.2367 5.02741C40.2367 5.07271 40.2367 5.09535 40.2367 5.14064C40.2367 6.70322 40.2367 8.24315 40.2367 9.80572C40.2367 9.82837 40.2367 9.87366 40.2367 9.89631C40.2367 9.89631 40.2367 9.91895 40.2537 9.91895C40.2707 9.91895 40.3047 9.9416 40.3558 9.9416C40.4069 9.9416 40.4409 9.9416 40.492 9.9416C41.0877 9.9416 41.6664 9.9416 42.2621 9.9416C42.3642 9.9416 42.4664 9.9416 42.5685 9.9416C42.5515 9.96424 42.5004 9.96424 42.5004 9.98689C42.4834 10.0322 42.4834 10.0548 42.4834 10.1001C42.4834 10.8248 42.4834 11.5721 42.4834 12.2968C42.4834 12.3194 42.4834 12.3647 42.4834 12.3874L42.5004 12.41C42.5004 12.4327 42.5685 12.4327 42.6195 12.4327C42.6706 12.4327 42.7387 12.4327 42.7897 12.4327C43.3174 12.4327 43.845 12.4327 44.3727 12.4327C44.4237 12.4327 44.4918 12.4327 44.5429 12.4327C44.6109 12.4327 44.679 12.41 44.679 12.3874C44.679 12.3421 44.679 12.3194 44.679 12.2741C44.679 11.5268 44.679 10.8021 44.679 10.0548C44.679 10.0095 44.696 9.96424 44.696 9.9416C45.4279 9.9416 46.1598 9.9416 46.8917 9.9416H46.8747C46.8747 9.98689 46.8747 10.0322 46.8747 10.0775C46.8747 10.8248 46.8747 11.5495 46.8747 12.2968C46.8747 12.3421 46.8747 12.3647 46.8747 12.41C46.8747 12.4327 46.9428 12.4553 47.0108 12.4553C47.113 12.4553 47.2151 12.4553 47.3172 12.4553C47.7768 12.4553 48.2363 12.4553 48.6788 12.4553C48.815 12.4553 48.9512 12.4553 49.0703 12.4553H49.0533C49.0533 12.5006 49.0703 12.5232 49.0703 12.5685C49.0703 13.3159 49.0703 37.1621 49.0703 37.9094C49.0703 37.9547 49.0533 38 49.0533 38.0226C45.3428 38.0226 41.6323 38.0226 37.9219 38.0226C37.9219 38 37.9219 37.9774 37.9219 37.9547C37.9219 33.0405 37.9219 5.02741 37.9219 0.11323C38.007 0.045292 37.99 0.022646 37.99 0Z" fill="#0BE9A6"/>
<path d="M113.816 37.9998C113.799 37.9772 113.799 37.9545 113.782 37.9319C113.782 37.9092 113.782 37.8639 113.782 37.8413C113.782 32.9724 113.782 5.02723 113.782 0.180983C113.782 0.135691 113.765 0.067753 113.816 0.0224609C114.548 0.0224609 115.297 0.0224609 116.029 0.0224609C116.029 0.0451069 116.029 0.067753 116.029 0.090399C116.029 1.67562 116.029 3.26084 116.029 4.84606C116.029 4.89135 116.029 4.914 116.046 4.95929C116.046 4.98194 116.097 4.98194 116.165 4.98194C116.199 4.98194 116.216 4.98194 116.25 4.98194C116.863 4.98194 117.492 4.98194 118.105 4.98194C118.156 4.98194 118.19 4.98194 118.241 4.98194H118.224C118.241 5.00458 118.258 5.02723 118.258 5.02723C118.258 5.07252 118.258 5.09517 118.258 5.14046C118.258 6.68039 118.258 8.24296 118.258 9.78289C118.258 9.82818 118.258 9.85083 118.258 9.89612C118.258 9.94141 118.292 9.94141 118.497 9.96406C118.633 9.96406 118.769 9.96406 118.888 9.96406C120.743 9.96406 122.599 9.96406 124.454 9.96406C124.982 9.96406 124.947 9.96406 124.947 10.0773C124.947 10.8246 124.947 11.5719 124.947 12.3192C124.947 12.3645 124.965 12.4098 124.982 12.4551C124.913 12.4551 124.845 12.4551 124.76 12.4551C124.165 12.4551 123.552 12.4551 122.956 12.4551C122.769 12.4551 122.718 12.4551 122.718 12.5231C122.718 12.5683 122.718 12.6136 122.718 12.6363C122.718 13.361 122.718 37.1619 122.718 37.8639C122.718 37.9092 122.718 37.9319 122.718 37.9772C122.718 37.9998 122.684 38.0225 122.684 38.0225C119.705 37.9998 116.761 37.9998 113.816 37.9998Z" fill="#0BE9A6"/>
<path d="M140.504 38C140.504 37.9774 140.521 37.9774 140.521 37.9547C140.521 37.9094 140.521 37.8868 140.521 37.8415C140.521 34.6257 140.521 8.33373 140.521 5.14064C140.521 5.09535 140.521 5.05006 140.538 5.00477C140.538 4.98212 140.607 4.98212 140.675 4.95948C140.794 4.95948 140.913 4.95948 141.032 4.95948C141.492 4.95948 141.951 4.95948 142.394 4.95948C142.496 4.95948 142.598 4.95948 142.7 4.95948C142.717 4.93683 142.734 4.93683 142.734 4.91418C142.734 4.86889 142.734 4.8236 142.734 4.80095C142.734 3.26103 142.734 1.7211 142.734 0.181168C142.734 0.135876 142.734 0.11323 142.734 0.067938C142.734 0.045292 142.768 0.022646 142.768 0C144.981 0 147.193 0 149.389 0C149.389 0.045292 149.406 0.090584 149.406 0.135876C149.406 0.860548 149.406 1.58522 149.406 2.33254C149.406 2.35518 149.406 2.40048 149.406 2.42312L149.389 2.44577C149.389 2.46841 149.338 2.46841 149.304 2.46841C149.236 2.46841 149.151 2.46841 149.083 2.46841C148.64 2.46841 148.198 2.46841 147.755 2.46841C147.108 2.46841 147.176 2.44577 147.176 2.62694C147.176 3.35161 147.176 4.07628 147.176 4.8236C147.176 4.98212 147.091 4.95948 147.755 4.95948C148.249 4.95948 148.725 4.95948 149.219 4.95948C149.321 4.95948 149.389 4.98212 149.389 5.00477C149.389 5.02741 149.389 5.07271 149.389 5.09535C149.389 7.49583 149.389 9.87366 149.389 12.2741C149.389 12.2968 149.389 12.3421 149.389 12.3647L149.372 12.3874C149.355 12.3874 149.338 12.41 149.321 12.41C149.287 12.41 149.236 12.41 149.202 12.41C148.606 12.41 148.027 12.41 147.432 12.41C147.398 12.41 147.381 12.41 147.347 12.41C147.262 12.41 147.21 12.3874 147.193 12.3874C147.193 12.3421 147.193 12.3194 147.193 12.2741C147.193 11.5495 147.193 10.8248 147.193 10.1001C147.193 10.0775 147.193 10.0322 147.193 10.0095C147.193 10.0095 147.193 9.98689 147.176 9.98689C147.176 9.96424 147.108 9.96424 147.023 9.96424C146.972 9.96424 146.904 9.96424 146.853 9.96424C146.376 9.96424 145.917 9.96424 145.44 9.96424C145.321 9.96424 145.202 9.96424 145.083 9.96424C145.032 9.96424 144.981 9.9416 144.981 9.9416C144.981 9.89631 144.964 9.87366 144.964 9.82837C144.964 9.10369 144.964 8.37902 144.964 7.65435C144.964 7.60906 144.964 7.58641 144.964 7.54112C144.964 7.54112 144.964 7.51847 144.947 7.51847C144.93 7.51847 144.913 7.49583 144.896 7.49583C144.828 7.49583 144.76 7.49583 144.674 7.49583C144.13 7.49583 143.585 7.49583 143.04 7.49583C142.989 7.49583 142.921 7.49583 142.87 7.49583C142.819 7.49583 142.751 7.51847 142.751 7.51847C142.751 7.56377 142.734 7.60906 142.734 7.677C142.734 10.0322 142.734 35.4863 142.734 37.8415C142.734 37.8868 142.734 37.9321 142.734 37.9547C142.734 37.9774 142.7 38 142.7 38.0226C141.968 38 141.236 38 140.504 38Z" fill="#0BE9A6"/>
<path d="M75.9116 37.9997C75.9116 37.9544 75.9116 37.9091 75.9116 37.8638C75.9116 32.9723 75.9116 5.00446 75.9116 0.135573C75.9116 0.0902808 75.9116 0.0449888 75.9116 -0.000303211C77.3924 -0.000303211 78.8562 -0.000303211 80.337 -0.000303211C80.337 0.0449888 80.354 0.0902808 80.354 0.135573C80.354 0.860245 80.354 1.58492 80.354 2.33224C80.354 2.35488 80.354 2.40017 80.354 2.42282C80.354 2.42282 80.354 2.44547 80.371 2.44547C80.388 2.44547 80.4221 2.46811 80.4561 2.46811C80.5412 2.46811 80.6263 2.46811 80.7114 2.46811C81.1539 2.46811 81.5965 2.46811 82.039 2.46811C82.6177 2.46811 82.5837 2.46811 82.5837 2.33224C82.5837 1.69815 82.5837 1.08671 82.5837 0.452617C82.5837 0.339387 82.5837 0.203511 82.5837 0.0902808C82.5837 0.0449888 82.5666 0.0223428 82.6177 -0.0229492C83.3496 -0.0229492 84.0985 -0.0229492 84.8304 -0.0229492C84.8304 0.0223428 84.8134 0.0676348 84.8134 0.0902808C84.8134 2.46811 84.8134 4.84594 84.8134 7.22377C84.8134 7.26906 84.8134 7.29171 84.8134 7.337C84.8134 7.35965 84.8134 7.35965 84.8134 7.38229C84.8134 7.40494 84.7453 7.42759 84.6431 7.42759C84.541 7.42759 84.4389 7.42759 84.3368 7.42759C83.9623 7.42759 83.6049 7.42759 83.2304 7.42759C82.5326 7.42759 82.6007 7.45023 82.6007 7.26906C82.6007 6.54439 82.6007 5.81972 82.6007 5.09505C82.6007 5.0724 82.6007 5.02711 82.6007 5.00446C82.6007 5.00446 82.6007 4.98182 82.5837 4.98182C82.5837 4.95917 82.5156 4.95917 82.4645 4.95917C82.3284 4.95917 82.1922 4.95917 82.0731 4.95917C80.9497 4.95917 79.8434 4.95917 78.72 4.95917C78.0562 4.95917 78.1413 4.93653 78.1413 5.09505C78.1413 6.65762 78.1413 8.2202 78.1413 9.78277C78.1413 9.80542 78.1413 9.85071 78.1413 9.87335C78.1413 9.87335 78.1413 9.896 78.1583 9.896C78.1754 9.896 78.1924 9.91865 78.2264 9.91865C78.3456 9.91865 78.4647 9.91865 78.5838 9.91865C79.7412 9.91865 80.9157 9.91865 82.0731 9.91865C82.6518 9.91865 82.6177 9.896 82.6177 10.0545C82.6177 10.8018 82.6177 11.5265 82.6177 12.2738C82.6177 12.2965 82.6177 12.3191 82.6177 12.3418L82.6007 12.3644C82.6007 12.3871 82.5326 12.3871 82.4815 12.3871C82.3454 12.3871 82.2092 12.3871 82.0901 12.3871C80.9837 12.3871 79.8774 12.3871 78.7711 12.3871C78.6519 12.3871 78.5328 12.3871 78.4136 12.3871C78.1924 12.3871 78.1583 12.3871 78.1413 12.455C78.1413 12.4776 78.1413 12.5229 78.1413 12.5456C78.1413 13.2703 78.1413 37.0939 78.1413 37.8185C78.1413 37.8638 78.1413 37.9091 78.1413 37.9544C77.3754 37.9997 76.6435 37.9997 75.9116 37.9997Z" fill="#0BE9A6"/>
<path d="M151.636 0C153.134 0 154.648 0 156.146 0C156.146 0.022646 156.129 0.045292 156.129 0.067938C156.129 0.837902 156.129 1.60787 156.129 2.37783C156.129 2.40048 156.129 2.42312 156.129 2.44577C156.129 2.46842 156.18 2.49106 156.282 2.49106C156.419 2.49106 156.555 2.49106 156.674 2.49106C157.797 2.49106 158.938 2.49106 160.061 2.49106C160.214 2.49106 160.384 2.49106 160.537 2.49106H160.52C160.537 2.53635 160.554 2.559 160.554 2.60429C160.554 3.35161 160.554 4.09893 160.554 4.84625C160.554 4.86889 160.554 4.91418 160.554 4.93683C160.554 4.95948 160.503 4.98212 160.418 4.98212C160.282 4.98212 160.146 4.98212 160.027 4.98212C158.904 4.98212 157.797 4.98212 156.674 4.98212C156.555 4.98212 156.436 4.98212 156.316 4.98212C156.163 4.98212 156.112 5.00477 156.112 5.02741C156.112 5.07271 156.112 5.118 156.112 5.14064C156.112 7.49583 156.112 9.87366 156.112 12.2288C156.112 12.2741 156.112 12.3194 156.112 12.3421C156.112 12.3421 156.112 12.3647 156.095 12.3647C156.078 12.3647 156.044 12.3874 156.01 12.3874C155.925 12.3874 155.84 12.3874 155.755 12.3874C155.312 12.3874 154.87 12.3874 154.427 12.3874C154.291 12.3874 154.155 12.3874 154.036 12.3874C153.985 12.3874 153.916 12.41 153.916 12.41C153.916 12.4553 153.899 12.478 153.899 12.5232C153.899 12.9309 153.899 13.3385 153.899 13.7461C153.899 14.0858 153.899 37.5244 153.899 37.8641C153.899 37.8868 153.882 37.9321 153.934 37.9547C153.168 37.9547 152.402 37.9547 151.636 37.9547C151.687 37.9094 151.67 37.8641 151.67 37.8188C151.67 32.9499 151.67 4.98212 151.67 0.11323C151.67 0.090584 151.67 0.045292 151.67 0.022646C151.653 0.022646 151.636 0.022646 151.636 0Z" fill="#0BE9A6"/>
<path d="M140.504 0C140.504 0.045292 140.521 0.067938 140.521 0.11323C140.521 0.860548 140.521 1.60787 140.521 2.37783C140.521 2.51371 140.555 2.51371 140.027 2.51371C139.636 2.51371 139.227 2.51371 138.836 2.51371C138.734 2.51371 138.632 2.51371 138.53 2.51371C138.359 2.51371 138.308 2.53635 138.308 2.559C138.308 2.58165 138.308 2.60429 138.308 2.62694C138.308 2.67223 138.308 2.71752 138.308 2.74017C138.308 3.44219 138.308 4.14422 138.308 4.84625C138.308 4.89154 138.308 4.91418 138.308 4.95948C138.308 4.98212 138.24 4.98212 138.155 4.98212C138.002 4.98212 137.866 4.98212 137.713 4.98212C135.142 4.98212 132.555 4.98212 129.985 4.98212C129.832 4.98212 129.696 4.98212 129.543 4.98212C129.458 4.98212 129.407 5.00477 129.407 5.02741C129.407 5.07271 129.407 5.118 129.407 5.14064C129.407 6.68057 129.407 8.24315 129.407 9.78308C129.407 9.82837 129.407 9.87366 129.389 9.91895C129.389 9.9416 129.338 9.9416 129.27 9.9416C129.219 9.9416 129.151 9.9416 129.1 9.9416C128.573 9.9416 128.045 9.9416 127.517 9.9416C127.449 9.9416 127.364 9.9416 127.296 9.9416C127.262 9.9416 127.228 9.91895 127.211 9.91895C127.194 9.91895 127.194 9.89631 127.194 9.89631C127.194 9.85101 127.194 9.82837 127.194 9.78308C127.194 6.56734 127.194 3.37426 127.194 0.158522C127.194 0.11323 127.194 0.045292 127.194 0C127.926 0 128.675 0 129.407 0C129.407 0.045292 129.424 0.090584 129.424 0.135876C129.424 0.860548 129.424 1.58522 129.424 2.30989C129.424 2.35519 129.424 2.37783 129.424 2.42312C129.424 2.44577 129.458 2.46842 129.645 2.46842C129.73 2.46842 129.815 2.46842 129.917 2.46842C131.075 2.46842 132.249 2.46842 133.406 2.46842C133.491 2.46842 133.577 2.46842 133.679 2.46842C133.849 2.46842 133.9 2.44577 133.9 2.42312C133.9 2.37783 133.9 2.35519 133.9 2.30989C133.9 1.58522 133.9 0.860548 133.9 0.135876C133.9 0.090584 133.883 0.045292 133.934 0C136.079 0 138.291 0 140.504 0Z" fill="#0BE9A6"/>
<path d="M84.83 37.9998C84.83 37.9545 84.813 37.9092 84.813 37.8866C84.813 36.3014 84.813 11.6625 84.813 10.0773C84.813 10.0546 84.813 10.0094 84.83 9.9867C84.83 9.96406 84.8981 9.96406 84.9832 9.96406C85.1023 9.96406 85.2215 9.96406 85.3406 9.96406C85.7661 9.96406 86.1917 9.96406 86.6172 9.96406C86.7193 9.96406 86.8214 9.96406 86.9235 9.96406C86.9746 9.96406 87.0427 9.94141 87.0427 9.94141C87.0427 9.91877 87.0597 9.91877 87.0597 9.89612C87.0597 9.85083 87.0597 9.82818 87.0597 9.78289C87.0597 6.61245 87.0597 3.41936 87.0597 0.248921C87.0597 0.180983 87.0597 0.113045 87.0597 0.0224609C87.7916 0.0224609 88.5405 0.0224609 89.2724 0.0224609C89.2724 0.067753 89.2894 0.135691 89.2894 0.180983C89.2894 1.72091 89.2894 3.28349 89.2894 4.82341C89.2894 4.86871 89.2894 4.89135 89.2894 4.93664C89.2894 4.98194 89.3234 4.98194 89.5277 5.00458C89.6468 5.00458 89.766 5.00458 89.8851 5.00458C91.0085 5.00458 92.1148 5.00458 93.2381 5.00458C93.3743 5.00458 93.5105 5.00458 93.6296 5.00458C93.6807 5.00458 93.7317 5.02723 93.7488 5.02723L93.7658 5.04987C93.7658 5.07252 93.7658 5.09517 93.7658 5.11781C93.7658 5.86513 93.7658 6.5898 93.7658 7.33712C93.7658 7.35977 93.7658 7.40506 93.7488 7.42771C93.7488 7.45035 93.6807 7.473 93.5956 7.473C93.4935 7.473 93.3913 7.473 93.2892 7.473C92.8467 7.473 92.4041 7.473 91.9616 7.473C91.8595 7.473 91.7574 7.473 91.6552 7.473C91.6042 7.473 91.5361 7.49564 91.5361 7.49564C91.5361 7.51829 91.5191 7.51829 91.5191 7.54094C91.5191 7.56358 91.5191 7.60887 91.5191 7.63152C91.5191 8.35619 91.5191 9.05822 91.5191 9.78289C91.5191 9.82818 91.5191 9.87348 91.5021 9.89612C91.5021 9.91877 91.451 9.91877 91.3489 9.91877C91.2297 9.91877 91.1106 9.91877 90.9914 9.91877C90.5659 9.91877 90.1404 9.91877 89.7149 9.91877C89.6128 9.91877 89.5107 9.91877 89.4085 9.91877C89.3575 9.91877 89.2894 9.94141 89.2894 9.94141C89.2894 9.98671 89.2724 10.0094 89.2724 10.0546C89.2724 10.7793 89.2724 11.504 89.2724 12.2287C89.2724 12.2513 89.2724 12.2966 89.2724 12.3192C89.2724 12.3419 89.2724 12.3419 89.2724 12.3645C89.2724 12.3872 89.2043 12.4098 89.1362 12.4098C89.0171 12.4098 88.8979 12.4098 88.7788 12.4098C88.3533 12.4098 87.9277 12.4098 87.5022 12.4098C87.4001 12.4098 87.298 12.4098 87.1959 12.4098C87.1278 12.4098 87.0597 12.4325 87.0597 12.4551C87.0597 12.5004 87.0597 12.5231 87.0597 12.5683C87.0597 13.2704 87.0597 37.0713 87.0597 37.7734C87.0597 37.8413 87.0597 37.9092 87.0597 37.9998C86.2938 37.9998 85.5619 37.9998 84.83 37.9998Z" fill="#0BE9A6"/>
<path d="M22.3479 37.9998C21.616 37.9998 20.8671 37.9998 20.1353 37.9998C20.1863 37.9545 20.1693 37.9092 20.1693 37.8639C20.1693 32.995 20.1693 5.02723 20.1693 0.158337C20.1693 0.135691 20.1693 0.090399 20.1693 0.067753C20.1693 0.0451069 20.1523 0.0451069 20.1353 0.0224609C20.8671 0.0224609 21.616 0.0224609 22.3479 0.0224609C22.3649 0.0451069 22.399 0.0451069 22.399 0.067753C22.399 0.090399 22.399 0.135691 22.399 0.158337C22.399 5.04987 22.399 32.995 22.399 37.8866C22.399 37.9092 22.399 37.9545 22.399 37.9772C22.399 37.9772 22.3649 37.9772 22.3479 37.9998Z" fill="#0BE9A6"/>
<path d="M129.374 37.9998C129.374 37.9545 129.391 37.9319 129.391 37.8866C129.391 37.1393 129.391 13.3157 129.391 12.5683C129.391 12.4098 129.322 12.4098 129.969 12.4098C130.412 12.4098 130.854 12.4098 131.297 12.4098C131.365 12.4098 131.45 12.4098 131.518 12.4098C131.552 12.4098 131.586 12.3872 131.603 12.3872C131.62 12.3872 131.62 12.3645 131.62 12.3645C131.62 12.3192 131.62 12.2966 131.62 12.2513C131.62 11.5266 131.62 10.802 131.62 10.0773C131.62 10.032 131.62 9.9867 131.637 9.96405C131.637 9.94141 131.705 9.94141 131.756 9.94141C131.824 9.94141 131.91 9.94141 131.978 9.94141C133.237 9.94141 134.48 9.94141 135.739 9.94141C135.79 9.94141 135.858 9.94141 135.909 9.94141C136.012 9.94141 136.08 9.96405 136.08 9.9867C136.08 10.032 136.08 10.0546 136.08 10.0999C136.08 10.5981 136.08 11.0737 136.08 11.5719C136.08 11.821 136.08 12.0701 136.08 12.2966C136.08 12.3192 136.08 12.3645 136.08 12.3872C136.08 12.4098 136.131 12.4325 136.267 12.4325C136.369 12.4325 136.471 12.4325 136.573 12.4325C136.999 12.4325 137.424 12.4325 137.85 12.4325C137.952 12.4325 138.054 12.4325 138.156 12.4325C138.241 12.4325 138.292 12.4551 138.292 12.4778C138.292 12.5004 138.292 12.5231 138.292 12.5457C138.292 13.3157 138.292 37.1619 138.292 37.9092C138.292 37.9319 138.292 37.9772 138.292 37.9998C135.314 37.9998 132.335 37.9998 129.374 37.9998Z" fill="#0BE9A6"/>
<path d="M24.6459 38C24.6459 37.9547 24.6289 37.9094 24.6289 37.8641C24.6289 32.9726 24.6289 5.00477 24.6289 0.135876C24.6289 0.090584 24.6289 0.045292 24.6459 0C25.3778 0 26.1267 0 26.8586 0C26.8586 4.98212 26.8586 33.0179 26.8586 38C26.1267 38 25.3948 38 24.6459 38Z" fill="#0BE9A6"/>
<path d="M29.0708 37.9998L29.0878 37.9772C29.0878 37.9545 29.0878 37.9092 29.0878 37.8866C29.0878 32.995 29.0878 5.02723 29.0878 0.135691C29.0878 0.090399 29.0708 0.0451069 29.0708 0.0224609C29.8027 0.0224609 30.5516 0.0224609 31.2835 0.0224609C31.3005 0.0451069 31.3175 0.067753 31.3175 0.090399C31.3175 0.113045 31.3175 0.158337 31.3175 0.180983C31.3175 5.04987 31.3175 32.995 31.3175 37.8413C31.3175 37.8866 31.3516 37.9545 31.2835 37.9998C30.5346 37.9998 29.8027 37.9998 29.0708 37.9998Z" fill="#0BE9A6"/>
<path d="M260.856 0C260.856 0.045292 260.873 0.11323 260.873 0.158522C260.873 4.50656 260.873 8.83194 260.873 13.18C260.873 13.7235 260.873 37.3206 260.873 37.8641C260.873 37.9094 260.856 37.9547 260.856 38C260.124 38 259.375 38 258.644 38C258.644 33.0179 258.644 4.98212 258.644 0C259.375 0 260.124 0 260.856 0Z" fill="#0BE9A6"/>
<path d="M245.3 37.9998C245.3 37.9772 245.283 37.9545 245.283 37.9319C245.283 37.9092 245.283 37.8639 245.283 37.8413C245.283 32.9724 245.283 5.02723 245.283 0.180983C245.283 0.135691 245.3 0.067753 245.3 0.0224609C246.032 0.0224609 246.781 0.0224609 247.512 0.0224609C247.512 0.0451069 247.512 0.067753 247.512 0.090399C247.512 5.00458 247.512 33.0177 247.512 37.9319C247.512 37.9545 247.512 37.9772 247.512 37.9998C246.781 37.9998 246.049 37.9998 245.3 37.9998Z" fill="#0BE9A6"/>
<path d="M254.235 37.9998C254.218 37.9772 254.201 37.9545 254.201 37.9319C254.201 37.9092 254.201 37.8639 254.201 37.8413C254.201 32.9724 254.201 5.02723 254.201 0.180983C254.201 0.135691 254.167 0.067753 254.235 0.0224609C254.967 0.0224609 255.716 0.0224609 256.448 0.0224609C256.448 0.0451069 256.431 0.090399 256.431 0.113045C256.431 5.02723 256.431 33.0177 256.431 37.9319C256.431 37.9545 256.431 37.9998 256.448 38.0225C255.699 37.9998 254.967 37.9998 254.235 37.9998Z" fill="#0BE9A6"/>
<path d="M265.367 37.9998C265.367 37.9772 265.35 37.9545 265.35 37.9319C265.35 37.9092 265.35 37.8639 265.35 37.8413C265.35 32.9724 265.35 5.02723 265.35 0.180983C265.35 0.135691 265.367 0.067753 265.367 0.0224609C266.081 0.0224609 266.779 0.0224609 267.494 0.0224609C267.494 5.00458 267.494 33.0403 267.494 38.0225C266.779 37.9998 266.064 37.9998 265.367 37.9998Z" fill="#0BE9A6"/>
<path d="M66.9754 -0.000303211C66.9754 1.60756 66.9754 3.19278 66.9754 4.80065C66.9754 5.00447 67.0945 4.95917 66.3116 4.95917C65.9031 4.95917 65.4946 4.95917 65.0691 4.95917C65.001 4.95917 64.9159 4.95917 64.8478 4.95917C64.8138 4.95917 64.7627 4.95917 64.7627 4.93653C64.7627 4.89123 64.7457 4.86859 64.7457 4.8233C64.7457 4.43831 64.7457 4.07598 64.7457 3.691C64.7457 3.35131 64.7457 2.98897 64.7457 2.64928C64.7457 2.62663 64.7457 2.58134 64.7457 2.5587C64.7457 2.49076 64.7117 2.46811 64.4223 2.46811C64.3032 2.46811 64.184 2.46811 64.0649 2.46811C62.2607 2.46811 60.4395 2.46811 58.6353 2.46811C58.4992 2.46811 58.363 2.46811 58.2439 2.46811C58.1247 2.46811 58.0566 2.44547 58.0566 2.42282C58.0566 2.37753 58.0566 2.35488 58.0566 2.30959C58.0566 1.56227 58.0566 0.814953 58.0566 0.0676348C58.0566 0.0449888 58.0566 -0.000303211 58.0566 -0.0229492C61.0352 -0.000303211 63.9968 -0.000303211 66.9754 -0.000303211Z" fill="#0BE9A6"/>
<path d="M180.622 38C180.622 37.9547 180.639 37.9321 180.639 37.8868C180.639 37.1395 180.639 13.3158 180.639 12.5685C180.639 12.5232 180.639 12.5006 180.639 12.4553C180.639 12.4327 180.707 12.41 180.809 12.41C180.945 12.41 181.081 12.41 181.2 12.41C182.307 12.41 183.413 12.41 184.519 12.41C184.655 12.41 184.792 12.41 184.911 12.41C185.03 12.41 185.081 12.3874 185.098 12.3647C185.098 12.3194 185.098 12.2968 185.098 12.2515C185.098 11.5268 185.098 10.8021 185.098 10.0548C185.098 10.0095 185.098 9.98688 185.115 9.94159C185.115 9.91895 185.183 9.91895 185.234 9.91895C185.268 9.91895 185.285 9.91895 185.319 9.91895C185.915 9.91895 186.494 9.91895 187.089 9.91895C187.14 9.91895 187.174 9.91895 187.226 9.91895C187.26 9.91895 187.294 9.94159 187.311 9.94159C187.328 9.94159 187.328 9.96424 187.328 9.96424C187.328 9.98688 187.328 10.0322 187.328 10.0548C187.328 11.6627 187.328 36.3468 187.328 37.9321V37.9547C185.098 38 182.851 38 180.622 38Z" fill="#0BE9A6"/>
<path d="M55.8442 12.4324C55.9634 12.4098 56.0995 12.4324 56.2357 12.4324C56.8314 12.4324 57.4442 12.4324 58.0399 12.4324C60.0653 12.4324 62.1078 12.4324 64.1332 12.4324C64.2694 12.4324 64.4056 12.4324 64.5247 12.4324C64.6949 12.4324 64.746 12.4551 64.746 12.4777C64.746 12.523 64.746 12.5457 64.746 12.5909C64.746 13.3383 64.746 37.1619 64.746 37.8865C64.746 37.9318 64.746 37.9545 64.763 37.9998C61.7844 37.9998 58.8058 37.9998 55.8442 37.9998C55.8442 37.9545 55.8442 37.9092 55.8442 37.8865C55.8442 37.1392 55.8442 13.293 55.8442 12.5457C55.8442 12.5004 55.8442 12.4551 55.8442 12.4324Z" fill="#0BE9A6"/>
<path d="M218.526 12.4321C218.594 12.4321 218.663 12.4321 218.748 12.4321C220.075 12.4321 221.386 12.4321 222.713 12.4321C222.764 12.4321 222.833 12.4321 222.884 12.4321C222.918 12.4321 222.952 12.4548 222.969 12.4548C222.986 12.4548 222.986 12.4774 222.986 12.4774C222.986 12.5001 222.986 12.5454 222.986 12.568C222.986 13.2927 222.986 37.1163 222.986 37.8409C222.986 37.8862 223.02 37.9315 222.952 37.9768C221.471 37.9768 220.007 37.9768 218.526 37.9768C218.526 37.1842 218.526 13.3153 218.526 12.5454C218.526 12.5227 218.526 12.4774 218.526 12.4321Z" fill="#0BE9A6"/>
<path d="M51.3342 0C51.3513 0.022646 51.3683 0.045292 51.3683 0.067938C51.3683 0.090584 51.3683 0.135876 51.3683 0.158522C51.3683 1.69845 51.3683 3.23838 51.3683 4.80095C51.3683 4.84625 51.3683 4.89154 51.3683 4.93683C51.3683 4.95948 51.3172 4.98212 51.2321 4.98212C50.5343 4.98212 49.8194 4.98212 49.1216 4.98212H49.1386C49.1386 4.95948 49.1556 4.91418 49.1556 4.89154C49.1556 3.30632 49.1556 1.69845 49.1556 0.11323C49.1556 0.090584 49.1386 0.045292 49.1386 0.022646C49.8705 0 50.6024 0 51.3342 0Z" fill="#0BE9A6"/>
<path d="M91.5364 37.9998C91.5194 37.9771 91.4854 37.9771 91.4854 37.9545C91.4854 37.9318 91.4854 37.8865 91.4854 37.8639C91.4854 37.1392 91.4854 13.3156 91.4854 12.591C91.4854 12.5457 91.4853 12.5004 91.5024 12.4777C91.5024 12.4551 91.5705 12.4551 91.6045 12.4551C91.6556 12.4551 91.6896 12.4551 91.7407 12.4551C92.3194 12.4551 92.881 12.4551 93.4597 12.4551C93.5108 12.4551 93.5789 12.4551 93.6299 12.4551C93.647 12.4551 93.681 12.4551 93.681 12.4777C93.698 12.4777 93.698 12.5004 93.715 12.5004C93.715 12.5457 93.715 12.5683 93.715 12.6136C93.715 13.3609 93.715 37.1619 93.715 37.9092C93.715 37.9545 93.681 37.9998 93.7491 38.0224C93.0172 37.9998 92.2853 37.9998 91.5364 37.9998Z" fill="#0BE9A6"/>
<path d="M207.395 2.49076C207.395 1.74344 207.395 0.996121 207.395 0.226157C207.395 0.135573 207.395 0.0676348 207.395 -0.0229492C208.126 -0.0229492 208.875 -0.0229492 209.607 -0.0229492C209.607 0.0223428 209.607 0.0676348 209.607 0.0902808C209.607 0.837599 209.607 1.58492 209.607 2.35488C209.607 2.40017 209.59 2.44547 209.59 2.46811H209.607C209.539 2.46811 209.471 2.46811 209.386 2.46811C208.807 2.46811 208.229 2.46811 207.633 2.46811C207.565 2.49076 207.48 2.49076 207.395 2.49076Z" fill="#0BE9A6"/>
<path d="M169.49 2.49088C169.354 2.46823 169.235 2.49088 169.099 2.49088C168.639 2.49088 168.179 2.49088 167.737 2.49088C167.652 2.49088 167.567 2.49088 167.465 2.49088C167.345 2.49088 167.277 2.46823 167.277 2.44558C167.277 2.42294 167.277 2.40029 167.277 2.37765C167.277 1.60768 167.277 0.837717 167.277 0.090399C167.277 0.067753 167.277 0.0451069 167.277 0.0224609C168.009 0.0224609 168.758 0.0224609 169.49 0.0224609C169.49 0.067753 169.507 0.090399 169.507 0.135691C169.507 0.905655 169.507 1.67562 169.507 2.44558C169.49 2.44558 169.49 2.46823 169.49 2.49088Z" fill="#0BE9A6"/>
<path d="M176.196 2.49106C176.196 2.44577 176.196 2.40048 176.196 2.37783C176.196 1.63051 176.196 0.883194 176.196 0.135876C176.196 0.090584 176.196 0.045292 176.213 0C176.945 0 177.694 0 178.426 0C178.426 0.067938 178.426 0.135876 178.426 0.203814C178.426 0.928486 178.426 1.63051 178.426 2.35518C178.426 2.49106 178.494 2.49106 177.881 2.49106C177.439 2.49106 176.996 2.49106 176.554 2.49106C176.435 2.49106 176.315 2.49106 176.196 2.49106Z" fill="#0BE9A6"/>
<path d="M205.182 0C205.182 0.022646 205.165 0.067938 205.165 0.090584C205.165 0.860548 205.165 1.63051 205.165 2.40048C205.165 2.44577 205.182 2.46841 205.199 2.51371C205.063 2.49106 204.944 2.51371 204.808 2.51371C204.348 2.51371 203.888 2.51371 203.446 2.51371C203.327 2.51371 203.208 2.51371 203.089 2.51371C203.02 2.51371 202.952 2.49106 202.952 2.46841C202.952 2.44577 202.935 2.40048 202.935 2.37783C202.935 1.63051 202.935 0.883194 202.935 0.135876C202.935 0.090584 202.918 0.045292 202.969 0.022646C203.718 0 204.45 0 205.182 0Z" fill="#0BE9A6"/>
<path d="M124.948 38.0001C124.948 37.9549 124.931 37.9322 124.931 37.8869C124.931 37.117 124.931 13.2707 124.931 12.5007C124.931 12.4781 124.931 12.4328 124.948 12.4102C125.033 12.4102 125.118 12.4102 125.203 12.4102C125.731 12.4102 126.258 12.4102 126.786 12.4102C126.871 12.4102 126.956 12.4102 127.041 12.4102C127.075 12.4102 127.109 12.4328 127.126 12.4328C127.143 12.4328 127.143 12.4554 127.143 12.4554C127.143 12.5007 127.143 12.5234 127.143 12.5687C127.143 13.3386 127.143 37.2075 127.143 37.9775C126.428 38.0001 125.68 38.0001 124.948 38.0001Z" fill="#0BE9A6"/>
<path d="M200.672 37.9998C200.672 37.9771 200.689 37.9545 200.689 37.9318C200.689 37.1619 200.689 13.3156 200.689 12.5457C200.689 12.523 200.672 12.4777 200.672 12.4551C200.723 12.4551 200.791 12.4551 200.842 12.4551C201.438 12.4551 202.051 12.4551 202.646 12.4551C202.697 12.4551 202.765 12.4551 202.816 12.4551C202.85 12.4551 202.885 12.4777 202.902 12.4777C202.919 12.4777 202.919 12.5004 202.919 12.5004C202.919 12.523 202.919 12.5457 202.919 12.5683C202.919 13.3156 202.919 37.1392 202.919 37.8865C202.919 37.9318 202.936 37.9771 202.885 38.0224C202.153 37.9998 201.421 37.9998 200.672 37.9998Z" fill="#0BE9A6"/>
<path d="M120.403 4.98193C120.522 4.98193 120.641 4.98193 120.76 4.98193C122.037 4.98193 123.313 4.98193 124.607 4.98193C124.658 4.98193 124.726 4.98193 124.777 4.98193C124.879 4.98193 124.93 5.00458 124.93 5.02723V5.04987C124.93 5.07252 124.93 5.09516 124.93 5.11781C124.93 5.84248 124.93 6.5898 124.93 7.31447C124.93 7.35976 124.93 7.38241 124.913 7.4277C124.913 7.45035 124.845 7.45035 124.76 7.47299C124.692 7.47299 124.607 7.47299 124.539 7.47299C123.296 7.47299 122.071 7.47299 120.828 7.47299C120.777 7.47299 120.709 7.47299 120.658 7.47299C120.522 7.47299 120.471 7.45035 120.454 7.4277C120.454 7.40506 120.454 7.40506 120.454 7.38241C120.454 7.35976 120.454 7.31447 120.454 7.29183C120.454 6.56715 120.454 5.84248 120.454 5.11781C120.454 5.09516 120.454 5.04987 120.454 5.02723C120.454 5.00458 120.42 4.98193 120.403 4.98193Z" fill="#0BE9A6"/>
<path d="M118.207 4.95932C118.207 4.91403 118.224 4.86874 118.224 4.84609C118.224 4.09877 118.224 3.3741 118.224 2.62678C118.224 2.58149 118.224 2.55885 118.241 2.51355C118.241 2.49091 118.309 2.49091 118.377 2.46826C118.428 2.46826 118.496 2.46826 118.547 2.46826C119.075 2.46826 119.603 2.46826 120.13 2.46826C120.181 2.46826 120.249 2.46826 120.301 2.46826C120.352 2.46826 120.42 2.49091 120.42 2.49091C120.42 2.51355 120.437 2.5362 120.437 2.55885C120.437 3.32881 120.437 4.09877 120.437 4.84609C120.437 4.86874 120.437 4.89138 120.42 4.91403C120.42 4.91403 120.386 4.93668 120.369 4.93668H120.386C120.267 4.93668 120.147 4.93668 120.045 4.93668C119.552 4.93668 119.058 4.93668 118.564 4.93668C118.462 4.95932 118.326 4.98197 118.207 4.95932Z" fill="#0BE9A6"/>
<path d="M178.392 9.91895C178.392 9.87366 178.409 9.82836 178.409 9.80572C178.409 8.764 178.409 7.72229 178.409 6.65792C178.409 6.13706 178.409 5.61621 178.409 5.09535C178.409 5.05006 178.426 5.02741 178.426 4.98212C178.426 4.98212 178.46 4.95947 178.477 4.95947C178.494 4.95947 178.528 4.95947 178.562 4.95947C179.192 4.95947 179.822 4.95947 180.468 4.95947C180.57 4.95947 180.622 4.98212 180.622 5.00476C180.622 5.02741 180.622 5.0727 180.622 5.09535C180.622 5.52562 180.622 5.97854 180.622 6.40882C180.622 7.51847 180.622 8.65077 180.622 9.76043C180.622 9.94159 180.724 9.91895 179.992 9.91895C179.566 9.91895 179.141 9.91895 178.715 9.91895C178.613 9.94159 178.494 9.94159 178.392 9.91895Z" fill="#0BE9A6"/>
<path d="M185.098 6.20482C185.098 5.84248 185.098 5.48015 185.098 5.11781C185.098 5.07252 185.098 5.04987 185.115 5.00458C185.115 4.98193 185.166 4.98193 185.217 4.98193C185.268 4.98193 185.302 4.98193 185.353 4.98193C185.932 4.98193 186.494 4.98193 187.072 4.98193C187.124 4.98193 187.192 4.98193 187.243 4.98193C187.26 4.98193 187.294 4.98193 187.294 5.00458C187.311 5.02723 187.311 5.04987 187.311 5.07252C187.311 5.84248 187.311 6.5898 187.311 7.35976C187.311 7.45035 187.328 7.47299 186.902 7.47299C186.409 7.47299 185.932 7.47299 185.438 7.47299C185.37 7.47299 185.285 7.47299 185.217 7.47299C185.149 7.47299 185.081 7.45035 185.081 7.4277C185.081 7.40506 185.081 7.35976 185.081 7.33712C185.081 7.02007 185.081 6.72568 185.081 6.40863C185.098 6.34069 185.098 6.27276 185.098 6.20482Z" fill="#0BE9A6"/>
<path d="M173.984 4.95932C173.984 4.91403 173.967 4.89138 173.967 4.84609C173.967 4.09877 173.967 3.35146 173.967 2.60414C173.967 2.55885 173.984 2.5362 173.984 2.49091C173.984 2.49091 174.018 2.46826 174.035 2.46826C174.069 2.46826 174.12 2.46826 174.171 2.46826C174.818 2.46826 175.465 2.46826 176.111 2.46826C176.145 2.46826 176.162 2.46826 176.196 2.46826C176.196 2.51355 176.179 2.55885 176.179 2.60414C176.179 3.32881 176.179 4.07613 176.179 4.8008C176.179 4.84609 176.179 4.86874 176.162 4.91403C176.162 4.93668 176.111 4.93668 176.043 4.93668C175.941 4.93668 175.839 4.93668 175.737 4.93668C175.158 4.95932 174.58 4.95932 173.984 4.95932Z" fill="#0BE9A6"/>
<path d="M98.1742 4.95914C97.7146 4.95914 97.255 4.95914 96.8125 4.95914C96.5742 4.95914 96.3359 4.95914 96.1147 4.95914C96.0296 4.95914 95.9785 4.93649 95.9785 4.93649C95.9785 4.91385 95.9785 4.8912 95.9785 4.8912C95.9785 4.12124 95.9785 3.35127 95.9785 2.58131C95.9785 2.55866 95.9955 2.53601 95.9955 2.51337C95.9955 2.51337 96.0296 2.49072 96.0466 2.49072C96.0636 2.49072 96.0977 2.49072 96.1317 2.49072C96.7615 2.49072 97.3912 2.49072 98.021 2.49072C98.055 2.49072 98.0891 2.49072 98.1061 2.49072C98.1231 2.49072 98.1571 2.49072 98.1571 2.51337C98.1742 2.53601 98.1742 2.58131 98.1742 2.60395C98.1742 3.37392 98.1742 4.14388 98.1742 4.8912C98.1742 4.91385 98.1742 4.93649 98.1742 4.95914Z" fill="#0BE9A6"/>
<path d="M205.182 2.49072C205.233 2.49072 205.301 2.49072 205.352 2.49072C205.982 2.49072 206.595 2.49072 207.224 2.49072C207.276 2.49072 207.344 2.49072 207.395 2.49072C207.395 2.53601 207.378 2.58131 207.378 2.6266C207.378 3.37392 207.378 4.09859 207.378 4.84591C207.378 5.00443 207.446 4.98178 206.833 4.98178C206.39 4.98178 205.948 4.98178 205.505 4.98178C205.42 4.98178 205.335 4.98178 205.25 4.98178C205.216 4.98178 205.165 4.98178 205.165 4.95914C205.165 4.91385 205.148 4.8912 205.148 4.84591C205.148 4.48357 205.148 4.12124 205.148 3.7589C205.148 3.37392 205.148 3.01158 205.148 2.6266C205.165 2.58131 205.182 2.53601 205.182 2.49072Z" fill="#0BE9A6"/>
<path d="M198.459 12.4327C198.459 12.3874 198.476 12.3647 198.476 12.3194C198.476 11.5495 198.476 10.8021 198.476 10.0322C198.476 9.98688 198.476 9.96424 198.459 9.91895C198.578 9.91895 198.697 9.91895 198.799 9.91895C199.429 9.91895 200.042 9.91895 200.672 9.91895C200.672 9.96424 200.689 10.0095 200.689 10.0322C200.689 10.7795 200.689 11.5268 200.689 12.2968C200.689 12.3421 200.689 12.3874 200.672 12.41C200.604 12.41 200.535 12.41 200.45 12.41C199.855 12.41 199.259 12.41 198.663 12.41C198.612 12.41 198.527 12.4327 198.459 12.4327Z" fill="#0BE9A6"/>
<path d="M196.246 9.94174C196.246 9.9191 196.246 9.87381 196.246 9.85116C196.246 9.0812 196.246 8.31123 196.246 7.54127C196.246 7.51862 196.246 7.47333 196.246 7.45068C196.297 7.45068 196.365 7.45068 196.416 7.45068C197.046 7.45068 197.659 7.45068 198.289 7.45068C198.34 7.45068 198.408 7.45068 198.459 7.45068C198.459 7.76773 198.459 8.08477 198.459 8.37917C198.459 8.90003 198.459 9.39824 198.459 9.9191C197.727 9.94174 196.995 9.94174 196.246 9.94174Z" fill="#0BE9A6"/>
</g>
<defs>
<clipPath id="clip0_174_19837">
<rect width="267.478" height="38" fill="white"/>
</clipPath>
</defs>
</svg>
