<svg width="306" height="61" viewBox="0 0 306 61" fill="none" xmlns="http://www.w3.org/2000/svg">
<path d="M20.4987 60.5495C13.6723 60.5495 6.84588 60.5495 0 60.5495C0 52.6109 0 7.93813 0 -0.000488281C6.82643 -0.000488281 13.6723 -0.000488281 20.4987 -0.000488281C20.4987 0.071681 20.4987 0.14385 20.4987 0.216019C20.4987 8.0103 20.4987 52.5748 20.4987 60.333C20.4987 60.4052 20.4987 60.4773 20.4987 60.5495Z" fill="#A792BC"/>
<path d="M277.667 60.5495C271.735 60.5495 265.822 60.5495 259.891 60.5495C259.891 60.4773 259.891 60.3691 259.891 60.2969C259.891 52.5387 259.891 8.0103 259.891 0.252104C259.891 0.179935 259.891 0.071681 259.891 -0.000488281C265.822 -0.000488281 271.735 -0.000488281 277.667 -0.000488281C277.725 0.071681 277.705 0.179935 277.705 0.252104C277.705 8.0103 277.705 52.5387 277.705 60.2608C277.705 60.2969 277.705 60.3691 277.705 60.4052C277.705 60.4773 277.686 60.5134 277.667 60.5495Z" fill="#A792BC"/>
<path d="M247.171 60.5497C242.931 60.5497 238.691 60.5497 234.452 60.5497C234.452 60.4775 234.432 60.4053 234.432 60.3331C234.432 59.7197 234.432 22.336 234.432 21.7226C234.432 21.1452 234.432 20.5679 234.432 19.9905C234.432 19.9545 234.432 19.8823 234.413 19.8462C234.413 19.8101 234.335 19.8101 234.277 19.8101C234.218 19.8101 234.14 19.8101 234.082 19.8101C233.615 19.8101 233.149 19.8101 232.662 19.8101C232.468 19.8101 232.293 19.8101 232.098 19.8101C231.923 19.8101 231.884 19.774 231.865 19.7379C231.865 19.6658 231.865 19.6297 231.865 19.5575C231.865 18.4028 231.865 17.2481 231.865 16.0934C231.865 16.0212 231.865 15.9851 231.865 15.913C231.865 15.8769 231.826 15.8769 231.826 15.8408C231.787 15.8408 231.748 15.8408 231.709 15.8408C230.912 15.8408 230.095 15.8408 229.298 15.8408C229.298 15.7686 229.317 15.6965 229.317 15.6604C229.317 14.4696 229.317 13.2788 229.317 12.088C229.317 12.0158 229.317 11.9798 229.298 11.9076H229.278C229.473 11.8715 229.687 11.9076 229.881 11.9076C232.876 11.9076 235.871 11.9076 238.866 11.9076C239.022 11.9076 239.178 11.9076 239.314 11.9076C239.353 11.9076 239.411 11.9076 239.45 11.9437C239.528 12.0158 239.489 12.088 239.489 12.1602C239.489 14.6139 239.489 17.1038 239.489 19.5575C239.489 19.6297 239.489 19.6658 239.489 19.7379C239.489 19.7379 239.489 19.774 239.508 19.774C239.508 19.8101 239.586 19.8101 239.644 19.8101C239.78 19.8101 239.917 19.8101 240.053 19.8101C241.375 19.8101 242.717 19.8101 244.04 19.8101C244.137 19.8101 244.234 19.8101 244.351 19.8101C244.526 19.8101 244.604 19.774 244.604 19.7379C244.604 19.6658 244.604 19.5936 244.604 19.5575C244.604 17.1038 244.604 14.65 244.604 12.1963C244.604 12.1602 244.604 12.1241 244.604 12.088C244.604 11.9437 244.604 11.9076 244.118 11.9076C242.717 11.9076 241.317 11.9076 239.936 11.9076C239.839 11.9076 239.742 11.9076 239.625 11.9076C239.567 11.9076 239.508 11.9076 239.43 11.9437C239.45 11.9076 239.469 11.8715 239.489 11.8354C239.489 11.7993 239.489 11.7272 239.489 11.6911C239.489 9.526 239.489 7.36092 239.489 5.19584C239.489 4.79891 239.489 4.40198 239.489 4.04113H239.469C239.605 4.04113 239.742 4.04113 239.858 4.04113C240.422 4.04113 241.006 4.04113 241.57 4.04113C241.648 4.04113 241.745 4.04113 241.823 4.04113C241.862 4.04113 241.92 4.04113 241.959 4.07722C241.978 4.07722 242.017 4.1133 242.017 4.1133C242.017 4.18547 242.017 4.22156 242.017 4.29373C242.017 5.44843 242.017 6.60314 242.017 7.75785C242.017 7.79394 242.017 7.8661 242.017 7.90219C242.017 7.90219 242.017 7.93827 242.037 7.93827C242.037 7.97436 242.095 7.97436 242.153 7.97436C242.212 7.97436 242.25 7.97436 242.309 7.97436C242.99 7.97436 243.651 7.97436 244.331 7.97436C244.37 7.97436 244.39 7.97436 244.429 7.97436C244.487 7.97436 244.565 7.93827 244.565 7.93827C244.565 7.8661 244.584 7.79394 244.584 7.75785C244.584 6.60314 244.584 5.44843 244.584 4.29373C244.584 4.25764 244.584 4.18547 244.584 4.14939C244.584 4.14939 244.584 4.1133 244.565 4.1133C244.545 4.1133 244.506 4.07722 244.468 4.07722C244.448 4.07722 244.409 4.07722 244.37 4.07722C243.67 4.07722 242.951 4.07722 242.25 4.07722C242.153 4.07722 242.056 4.07722 241.959 4.1133C241.978 4.07722 242.017 4.04113 242.037 4.00505C242.056 3.96897 242.037 3.8968 242.037 3.86071C242.037 3.21119 242.037 2.56166 242.037 1.91214C242.037 1.37087 242.037 0.829603 242.037 0.288333C242.037 0.216164 242.056 0.180079 241.998 0.10791C246.237 0.10791 250.477 0.10791 254.717 0.10791C254.795 0.180079 254.756 0.252249 254.756 0.324418C254.756 1.51521 254.756 2.66992 254.756 3.86071C254.756 3.8968 254.756 3.93288 254.756 3.96897C254.756 3.96897 254.756 4.00505 254.736 4.00505C254.736 4.04113 254.659 4.07722 254.581 4.07722C254.484 4.07722 254.386 4.07722 254.27 4.07722C253.803 4.07722 253.336 4.07722 252.85 4.07722C252.111 4.07722 252.189 4.04113 252.189 4.32981C252.189 5.48452 252.189 6.63923 252.189 7.79394C252.189 7.83002 252.189 7.90219 252.189 7.93827C252.189 8.01044 252.15 8.01044 251.916 8.04653C251.8 8.04653 251.683 8.04653 251.566 8.04653C251.1 8.04653 250.633 8.04653 250.147 8.04653C250.03 8.04653 249.913 8.04653 249.796 8.04653C249.719 8.04653 249.641 8.08261 249.641 8.1187C249.641 8.15478 249.641 8.22695 249.641 8.26304C249.641 8.5878 249.641 8.91256 249.641 9.23732C249.641 10.1034 249.641 10.9333 249.641 11.7993C249.641 11.8715 249.641 11.9076 249.66 11.9798C249.66 12.0158 249.738 12.0158 249.796 12.0158C249.972 12.0158 250.127 12.0158 250.302 12.0158C252.403 12.0158 254.503 12.0158 256.603 12.0158C256.759 12.0158 256.915 12.0158 257.051 12.0158C257.206 12.0158 257.265 12.0519 257.284 12.088C257.284 12.1241 257.284 12.1963 257.284 12.2323C257.284 12.7014 257.284 13.1345 257.284 13.6036C257.284 14.2892 257.284 15.0109 257.284 15.6965C257.284 15.7326 257.284 15.7686 257.284 15.8047C257.284 15.9491 257.284 15.9491 256.876 15.9491C256.759 15.9491 256.642 15.9491 256.526 15.9491C254.445 15.9491 252.344 15.9491 250.263 15.9491C250.108 15.9491 249.952 15.9491 249.816 15.9491C249.719 15.9491 249.66 15.9851 249.641 15.9851C249.641 16.0573 249.621 16.0934 249.621 16.1656C249.621 17.3564 249.621 18.5111 249.621 19.7019C249.621 19.774 249.621 19.8462 249.621 19.9184H249.641C249.583 19.9184 249.505 19.9184 249.446 19.9184C248.766 19.9184 248.104 19.9184 247.424 19.9184C247.404 19.9184 247.385 19.9184 247.365 19.9184C247.132 19.9184 247.093 19.9184 247.093 19.9905C247.093 20.0266 247.093 20.0627 247.093 20.0988C247.093 21.3257 247.093 59.2867 247.093 60.5136C247.171 60.4775 247.171 60.5136 247.171 60.5497Z" fill="#A792BC"/>
<path d="M216.578 60.5495C216.578 60.5134 216.598 60.4413 216.598 60.4052C216.598 52.5748 216.598 7.97421 216.598 0.14385C216.598 0.107766 216.598 0.0355963 216.578 -0.000488281C220.818 -0.000488281 225.058 -0.000488281 229.297 -0.000488281C229.297 0.071681 229.317 0.14385 229.317 0.216019C229.317 1.37073 229.317 2.52544 229.317 3.71623C229.317 3.75231 229.317 3.82448 229.317 3.86057C229.317 3.86057 229.317 3.89665 229.336 3.89665C229.356 3.89665 229.395 3.93274 229.434 3.93274C229.531 3.93274 229.628 3.93274 229.725 3.93274C230.25 3.93274 230.776 3.93274 231.281 3.93274C231.884 3.93274 231.845 3.93274 231.865 4.14924C231.865 4.54617 231.865 4.97919 231.865 5.37612C231.865 6.1339 231.865 6.89167 231.865 7.68554C231.865 7.75771 231.865 7.79379 231.865 7.86596C231.865 7.90204 231.787 7.93813 231.709 7.93813C231.592 7.93813 231.476 7.93813 231.359 7.93813C230.873 7.93813 230.387 7.93813 229.9 7.93813C229.764 7.93813 229.628 7.93813 229.492 7.93813C229.395 7.93813 229.336 7.97421 229.336 7.97421C229.336 8.04638 229.317 8.08247 229.317 8.15464C229.317 9.34543 229.317 10.5001 229.317 11.6909C229.317 11.7631 229.297 11.8353 229.297 11.9074H229.317C229.259 11.9074 229.22 11.9074 229.161 11.9074C228.442 11.9074 227.722 11.9074 227.022 11.9074C226.944 11.9074 226.866 11.9074 226.769 11.9074C226.769 11.8353 226.789 11.7631 226.789 11.727C226.789 10.5362 226.789 9.34543 226.789 8.19072C226.789 8.15464 226.789 8.08247 226.789 8.04638C226.789 8.04638 226.789 8.0103 226.769 8.0103C226.75 8.0103 226.711 7.97421 226.672 7.97421C226.575 7.97421 226.477 7.97421 226.38 7.97421C225.855 7.97421 225.33 7.97421 224.824 7.97421C224.202 7.97421 224.26 7.97421 224.26 8.19072C224.26 9.38151 224.26 10.6084 224.26 11.7992C224.26 11.8714 224.28 11.9074 224.28 11.9796C224.182 11.9796 224.085 11.9796 223.988 11.9796C223.327 11.9796 222.666 11.9796 221.985 11.9796C221.907 11.9796 221.829 11.9796 221.732 11.9796C221.674 11.9074 221.693 11.8353 221.693 11.7631C221.693 10.6084 221.693 9.4176 221.693 8.26289C221.693 8.22681 221.693 8.15464 221.693 8.11855C221.693 8.11855 221.693 8.08247 221.674 8.08247C221.654 8.08247 221.635 8.04638 221.576 8.04638C221.479 8.04638 221.382 8.04638 221.285 8.04638C220.76 8.04638 220.234 8.04638 219.729 8.04638C219.126 8.04638 219.165 8.0103 219.165 8.22681V8.26289C219.165 9.4176 219.165 10.6084 219.165 11.7631C219.165 11.7992 219.165 11.8353 219.165 11.8714V11.9074C219.165 11.9435 219.243 11.9796 219.34 11.9796C219.437 11.9796 219.534 11.9796 219.651 11.9796C220.196 11.9796 220.721 11.9796 221.265 11.9796C221.44 11.9796 221.596 11.9796 221.771 11.9796C221.713 12.0157 221.732 12.0879 221.732 12.1239C221.732 13.3147 221.732 14.5416 221.732 15.7324C221.732 15.7685 221.732 15.8046 221.751 15.8407C221.751 15.8767 221.81 15.8767 221.888 15.8767C221.946 15.8767 221.985 15.8767 222.043 15.8767C222.588 15.8767 223.113 15.8767 223.657 15.8767C223.871 15.8767 224.085 15.8767 224.319 15.8767C224.319 15.9489 224.299 16.0211 224.299 16.0572C224.299 17.248 224.299 18.4388 224.299 19.6295C224.299 19.6656 224.299 19.7017 224.299 19.7378L224.319 19.7739C224.338 19.81 224.377 19.81 224.416 19.81C224.513 19.81 224.61 19.81 224.708 19.81C225.252 19.81 225.777 19.81 226.322 19.81C226.497 19.81 226.652 19.81 226.828 19.81C226.828 19.8821 226.828 19.9543 226.828 20.0265C226.828 21.2173 226.828 59.1422 226.828 60.333C226.828 60.4052 226.828 60.4773 226.828 60.5856C223.385 60.5495 219.982 60.5495 216.578 60.5495Z" fill="#A792BC"/>
<path d="M198.822 7.90209C198.803 7.93818 198.783 7.93818 198.783 7.97426C198.783 8.04643 198.783 8.08252 198.783 8.15469C198.783 9.30939 198.783 10.4641 198.783 11.6549C198.783 11.7271 198.783 11.7631 198.783 11.8353C198.783 11.8714 198.706 11.9075 198.589 11.9075C198.453 11.9075 198.317 11.9075 198.18 11.9075C197.733 11.9075 197.266 11.9075 196.819 11.9075C196.702 11.9075 196.586 11.9075 196.469 11.9075C196.313 11.9075 196.255 11.9436 196.236 11.9797V12.0157C196.236 12.0518 196.236 12.0879 196.236 12.124C196.236 13.2787 196.236 14.4334 196.236 15.5881C196.236 15.6242 196.236 15.6964 196.236 15.7325C196.236 15.8046 196.294 15.8046 196.488 15.8046C196.566 15.8046 196.663 15.8046 196.741 15.8046C198.958 15.8046 201.176 15.8046 203.412 15.8046C203.568 15.8046 203.704 15.8046 203.859 15.8046H203.84C203.859 15.8407 203.879 15.8768 203.879 15.8768C203.879 15.9129 203.879 15.9851 203.879 16.0211C203.879 17.1758 203.879 18.3306 203.879 19.5213C203.879 19.5935 203.879 19.6296 203.879 19.7018C203.879 19.7379 203.84 19.7739 203.665 19.7739C203.101 19.7739 202.556 19.7739 201.992 19.7739C201.817 19.7739 201.662 19.7739 201.487 19.7739C201.428 19.7739 201.351 19.81 201.351 19.81C201.351 19.8822 201.331 19.9183 201.331 19.9904C201.331 20.64 201.331 21.2534 201.331 21.9029C201.331 22.4803 201.331 59.7918 201.331 60.3691C201.331 60.4052 201.331 60.4774 201.351 60.5135C200.514 60.5135 199.659 60.5135 198.822 60.5135C198.803 60.4413 198.783 60.3691 198.783 60.297C198.783 59.5753 198.783 22.0473 198.783 21.3256C198.783 20.8565 198.783 20.4235 198.783 19.9544C198.783 19.9183 198.783 19.8461 198.764 19.81C198.764 19.81 198.686 19.7739 198.628 19.7739C198.453 19.7739 198.297 19.7739 198.122 19.7739C196.002 19.7739 193.882 19.7739 191.762 19.7739C191.587 19.7739 191.432 19.7739 191.257 19.7739C191.198 19.7739 191.14 19.7379 191.14 19.7379C191.14 19.6657 191.121 19.6296 191.121 19.5574C191.121 18.3666 191.121 17.2119 191.121 16.0211C191.121 15.949 191.121 15.8768 191.101 15.8046C191.14 15.8046 191.16 15.8046 191.198 15.8046C191.957 15.8046 192.715 15.8046 193.474 15.8046C193.513 15.8046 193.552 15.8046 193.571 15.8046C193.591 15.8046 193.629 15.8046 193.629 15.7685C193.649 15.6964 193.649 15.6603 193.649 15.5881C193.649 14.3973 193.649 13.2426 193.649 12.0518C193.649 12.0157 193.649 11.9797 193.649 11.9436C193.649 11.9436 193.649 11.9075 193.629 11.9075C193.61 11.9075 193.591 11.8714 193.532 11.8714C193.474 11.8714 193.396 11.8714 193.338 11.8714C192.715 11.8714 192.093 11.8714 191.471 11.8714C191.412 11.8714 191.335 11.8714 191.276 11.8714C191.218 11.8714 191.14 11.9075 191.14 11.9075C191.14 11.9436 191.121 12.0157 191.121 12.0518C191.121 13.3148 191.121 14.5417 191.121 15.8046C190.946 15.8046 190.79 15.8046 190.615 15.8046C190.051 15.8046 189.506 15.8046 188.942 15.8046C188.592 15.8046 188.573 15.8046 188.573 15.949C188.573 15.9851 188.573 16.0572 188.573 16.0933C188.573 17.248 188.573 18.3666 188.573 19.5213C188.573 19.5574 188.573 19.6296 188.573 19.6657C188.573 19.6657 188.573 19.7018 188.553 19.7018C188.553 19.7379 188.495 19.7379 188.417 19.7379C188.32 19.7379 188.223 19.7379 188.126 19.7379C187.6 19.7379 187.075 19.7379 186.57 19.7379C186.434 19.7379 186.297 19.7379 186.161 19.7379C186.103 19.7379 186.025 19.7739 186.025 19.7739C186.025 19.8461 186.006 19.9183 186.006 19.9544C186.006 21.1091 186.006 59.034 186.006 60.2248C186.006 60.297 186.006 60.3331 186.006 60.4052C186.006 60.4413 185.967 60.4774 185.967 60.4774C184.275 60.4774 182.602 60.4774 180.91 60.4774V60.4413C180.91 57.8793 180.91 18.5471 180.91 16.0211C180.91 15.9851 180.91 15.949 180.91 15.9129C180.91 15.9129 180.91 15.8768 180.93 15.8768C180.93 15.8407 180.988 15.8407 181.046 15.8407C181.202 15.8407 181.357 15.8407 181.494 15.8407C182.738 15.8407 183.983 15.8407 185.228 15.8407C185.461 15.8407 185.694 15.8407 185.928 15.8407C186.064 15.7685 185.986 15.6603 185.986 15.5881C185.986 11.8353 185.986 8.08252 185.986 4.32972C185.986 4.25755 185.986 4.18538 185.986 4.14929C185.986 4.11321 185.986 4.07712 185.986 4.07712C185.986 4.04104 185.928 4.00495 185.831 4.00495C185.772 4.00495 185.733 4.00495 185.675 4.00495C184.994 4.00495 184.294 4.00495 183.613 4.00495C183.555 4.00495 183.477 4.00495 183.419 4.00495H183.438C183.438 3.96887 183.458 3.8967 183.458 3.86062C183.458 2.63374 183.458 1.40686 183.458 0.143898C183.458 0.107814 183.438 0.0717292 183.438 0.0356445C185.15 0.0356445 186.881 0.0356445 188.592 0.0356445C188.592 0.107814 188.573 0.143898 188.573 0.216068C188.573 2.70591 188.573 5.23183 188.573 7.72167C188.573 7.75775 188.573 7.82992 188.573 7.86601C188.573 7.86601 188.573 7.90209 188.592 7.90209C188.592 7.90209 188.631 7.93818 188.67 7.93818C188.787 7.93818 188.903 7.93818 189.02 7.93818C190.42 7.93818 191.801 7.93818 193.202 7.93818C193.299 7.93818 193.396 7.93818 193.513 7.93818C193.571 7.93818 193.649 7.90209 193.649 7.90209C193.649 7.86601 193.668 7.79384 193.668 7.75775C193.668 6.56696 193.668 5.37617 193.668 4.18538C193.668 4.11321 193.649 4.07712 193.649 4.00495C193.727 4.00495 193.824 4.00495 193.902 4.00495C194.563 4.00495 195.205 4.00495 195.866 4.00495C195.924 4.00495 196.002 4.00495 196.061 4.00495C196.119 4.00495 196.177 4.04104 196.197 4.04104C196.197 4.11321 196.216 4.18538 196.216 4.22146C196.216 5.37617 196.216 6.53088 196.216 7.68559C196.216 7.72167 196.216 7.79384 196.216 7.82992C196.216 7.82992 196.216 7.86601 196.236 7.86601C196.236 7.90209 196.294 7.90209 196.352 7.90209C196.45 7.90209 196.547 7.90209 196.644 7.90209C197.208 7.90209 197.753 7.90209 198.317 7.90209C198.492 7.90209 198.647 7.90209 198.822 7.90209Z" fill="#A792BC"/>
<path d="M63.8104 -0.000536468C63.8104 0.0355482 63.8104 0.0716328 63.8104 0.107717C63.8104 2.63364 63.8104 5.12348 63.8104 7.6494C63.8104 7.97417 63.6743 7.902 64.5689 7.902C66.6499 7.902 68.7503 7.902 70.8313 7.902C70.9869 7.902 71.1425 7.902 71.2786 7.902C71.337 7.902 71.4148 7.93808 71.4148 7.93808C71.4148 7.97417 71.4342 7.97417 71.4342 8.01025C71.4342 8.04634 71.4342 8.1185 71.4342 8.15459C71.4342 9.3093 71.4342 10.464 71.4342 11.6187C71.4342 11.6909 71.4342 11.727 71.4537 11.7991C71.4537 11.8352 71.5315 11.8713 71.6481 11.8713C71.8232 11.8713 71.9788 11.8713 72.1538 11.8713C74.2154 11.8713 76.2963 11.8713 78.3579 11.8713C78.5329 11.8713 78.6885 11.8713 78.8635 11.8713C78.9802 11.8713 79.058 11.9074 79.058 11.9435C79.058 11.9796 79.058 11.9796 79.058 12.0156C79.058 12.0517 79.058 12.1239 79.058 12.16C79.058 14.6137 79.058 17.0675 79.058 19.5212C79.058 19.5934 79.058 19.6656 79.058 19.7017C79.058 19.7378 79.1358 19.7738 79.2136 19.7738C79.3498 19.7738 79.4859 19.7738 79.622 19.7738C80.1666 19.7738 80.6917 19.7738 81.2363 19.7738C81.2946 19.7738 81.3724 19.7738 81.4308 19.7738C81.4891 19.7738 81.5669 19.8099 81.5669 19.8099C81.5669 19.8821 81.5863 19.9182 81.5863 19.9903C81.5863 20.8203 81.5863 21.6502 81.5863 22.4802C81.5863 22.841 81.5863 59.9721 81.5863 60.333C81.5863 60.4051 81.6058 60.4773 81.5474 60.5134C79.8554 60.5134 78.1828 60.5134 76.4908 60.5134C76.4908 60.4412 76.4908 60.369 76.4908 60.2969C76.4908 58.4205 76.4908 19.7738 76.4908 17.8974C76.4908 17.284 76.4908 16.6706 76.4908 16.021C76.4908 15.9489 76.4908 15.9128 76.4714 15.8406C76.4714 15.8045 76.413 15.8045 76.3352 15.8045C76.1602 15.8045 76.0046 15.8045 75.8296 15.8045C73.7097 15.8045 71.5898 15.8045 69.4699 15.8045C69.2949 15.8045 69.1393 15.8045 68.9643 15.8045C68.9059 15.8045 68.8476 15.7684 68.8281 15.7684C68.8281 15.6963 68.8087 15.6602 68.8087 15.588C68.8087 14.4333 68.8087 13.2786 68.8087 12.1239C68.8087 12.0517 68.8087 12.0156 68.8087 11.9435C68.8087 11.9435 68.8087 11.9074 68.7892 11.9074C68.7698 11.9074 68.7503 11.8713 68.7309 11.8713C68.6142 11.8713 68.4975 11.8713 68.3808 11.8713C66.9805 11.8713 65.5802 11.8713 64.1994 11.8713C64.1021 11.8713 64.0049 11.8713 63.8882 11.8713C63.8298 11.8713 63.7521 11.9074 63.7521 11.9074C63.7521 11.9796 63.7326 12.0517 63.7326 12.0878C63.7326 14.6137 63.7326 17.1036 63.7326 19.6295C63.7326 19.6656 63.7326 19.7378 63.7326 19.7738H63.7521C63.7326 19.7738 63.7132 19.7738 63.6937 19.7738C62.9158 19.7738 62.1573 19.7738 61.3793 19.7738C61.3404 19.7738 61.3015 19.7738 61.2821 19.7738C61.2626 19.7738 61.2237 19.7738 61.2237 19.8099C61.2043 19.846 61.2043 19.9182 61.2043 19.9543C61.2043 21.1811 61.2043 59.1782 61.2043 60.4412C61.2043 60.4773 61.2237 60.5134 61.2237 60.5495C60.3875 60.5495 59.5317 60.5495 58.6954 60.5495C58.676 60.5134 58.6371 60.4773 58.6371 60.4773C58.6371 60.4412 58.6371 60.369 58.6371 60.333C58.6371 59.2504 58.6371 21.4337 58.6371 20.3512C58.6371 20.2429 58.6371 20.1347 58.6371 19.9903C58.6371 19.9543 58.6371 19.9182 58.6371 19.8821C58.6371 19.8099 58.5788 19.8099 58.4426 19.8099C58.4037 19.8099 58.3843 19.8099 58.3454 19.8099C57.6647 19.8099 56.9645 19.8099 56.2838 19.8099C56.2255 19.8099 56.1477 19.8099 56.0893 19.8099H56.1088C56.1088 19.7738 56.1282 19.7378 56.1282 19.7017C56.1282 18.4748 56.1282 17.2479 56.1282 16.021C56.1282 15.985 56.1282 15.9489 56.1088 15.9128C56.1088 15.8767 56.031 15.8767 55.9338 15.8767C55.7587 15.8767 55.6031 15.8767 55.4281 15.8767C54.8057 15.8767 54.1834 15.8767 53.561 15.8767H53.5805C53.5805 15.8045 53.5805 15.7684 53.5805 15.6963C53.5805 13.1704 53.5805 10.6444 53.5805 8.1185C53.5805 8.04634 53.5805 8.01025 53.5805 7.93808H53.561C54.3973 7.93808 55.2531 7.93808 56.0893 7.93808H56.0699C56.0893 8.01025 56.0893 8.08242 56.0893 8.1185C56.0893 8.73194 56.0893 9.3093 56.0893 9.92274C56.0893 10.5001 56.0893 11.0774 56.0893 11.6548C56.0893 11.6909 56.0893 11.7631 56.0893 11.7991C56.0893 11.8352 56.1671 11.8713 56.2838 11.8713C56.4394 11.8713 56.595 11.8713 56.7311 11.8713C57.7619 11.8713 58.7927 11.8713 59.804 11.8713C60.1541 11.8713 60.5042 11.8713 60.8542 11.8713C61.1265 11.8713 61.1654 11.8352 61.1654 11.7631C61.1654 11.6909 61.1654 11.6548 61.1654 11.5826C61.1654 9.59797 61.1654 7.61332 61.1654 5.62867C61.1654 3.82443 61.1654 2.0202 61.1654 0.179887C61.1654 0.107717 61.1849 0.0355482 61.1849 -0.0366211C62.1184 -0.000536468 62.9741 -0.000536468 63.8104 -0.000536468Z" fill="#A792BC"/>
<path d="M109.651 60.5497C109.651 60.4775 109.651 60.4053 109.651 60.3692C109.651 59.1784 109.651 21.2174 109.651 20.0266C109.651 19.9545 109.651 19.9184 109.67 19.8462C109.67 19.8101 109.729 19.8101 109.806 19.8101C109.943 19.8101 110.079 19.8101 110.215 19.8101C110.74 19.8101 111.265 19.8101 111.771 19.8101C111.868 19.8101 111.965 19.8101 112.062 19.8101C112.101 19.8101 112.16 19.8101 112.16 19.774L112.179 19.7379C112.179 19.7019 112.179 19.6658 112.179 19.6297C112.179 15.7686 112.179 11.9076 112.179 8.08261C112.179 8.04653 112.179 8.01044 112.179 7.97436H112.16C112.879 7.97436 113.599 7.97436 114.319 7.97436C114.416 7.97436 114.513 7.97436 114.61 7.97436C114.63 7.97436 114.669 7.97436 114.669 7.93827C114.688 7.93827 114.688 7.90219 114.688 7.90219C114.688 7.86611 114.688 7.79394 114.688 7.75785C114.688 5.26801 114.688 2.77817 114.688 0.288333C114.688 0.216164 114.669 0.143995 114.669 0.10791C116.38 0.10791 118.111 0.10791 119.822 0.10791C119.822 0.180079 119.803 0.216164 119.803 0.288333C119.803 1.47913 119.803 2.63383 119.803 3.82463C119.803 4.1133 119.9 4.07722 119.083 4.07722C118.675 4.07722 118.267 4.07722 117.878 4.07722C117.741 4.07722 117.605 4.07722 117.469 4.07722C117.352 4.07722 117.275 4.1133 117.275 4.14939C117.275 4.18547 117.275 4.18547 117.275 4.22156C117.275 4.25764 117.275 4.29373 117.275 4.32981C117.275 5.48452 117.275 6.63923 117.275 7.79394C117.275 7.86611 117.275 7.90219 117.275 7.97436C117.275 8.01044 117.333 8.04653 117.489 8.04653C117.664 8.04653 117.819 8.04653 117.994 8.04653C120.912 8.04653 123.809 8.04653 126.727 8.04653C126.902 8.04653 127.057 8.04653 127.232 8.04653C127.368 8.04653 127.427 8.08261 127.446 8.1187V8.15478C127.446 8.19087 127.446 8.22695 127.446 8.22695C127.446 9.41774 127.446 10.5725 127.446 11.7632C127.446 11.8354 127.427 11.8715 127.427 11.9437C127.427 11.9798 127.349 11.9798 127.291 11.9798C127.174 11.9798 127.057 11.9798 126.941 11.9798C126.415 11.9798 125.89 11.9798 125.385 11.9798C125.268 11.9798 125.151 11.9798 125.035 11.9798C124.976 11.9798 124.937 12.0158 124.937 12.0158C124.918 12.0158 124.918 12.0519 124.918 12.0519C124.918 12.1241 124.918 12.1963 124.918 12.2323C124.918 14.6861 124.918 17.1399 124.918 19.6297C124.918 19.7019 124.918 19.774 124.899 19.8101C124.899 19.8462 124.821 19.8462 124.762 19.8462C124.704 19.8462 124.626 19.8462 124.568 19.8462C123.965 19.8462 123.362 19.8462 122.759 19.8462C122.681 19.8462 122.584 19.8462 122.506 19.8462C122.467 19.8462 122.409 19.8462 122.409 19.8101L122.39 19.774C122.39 19.7019 122.39 19.6658 122.39 19.5936C122.39 17.1399 122.39 14.6861 122.39 12.2323C122.39 12.1602 122.39 12.088 122.39 12.0519C122.39 11.9798 122.331 11.9798 122.137 11.9798C122.04 11.9798 121.942 11.9798 121.826 11.9798C120.503 11.9798 119.161 11.9798 117.839 11.9798C117.703 11.9798 117.566 11.9798 117.43 11.9798C117.372 11.9798 117.314 12.0158 117.314 12.0158L117.294 12.0519C117.294 12.088 117.294 12.1241 117.294 12.1602C117.294 13.3149 117.294 14.5057 117.294 15.6604C117.294 15.7326 117.294 15.7686 117.314 15.8408C117.314 15.8769 117.372 15.8769 117.43 15.8769C117.547 15.8769 117.664 15.8769 117.78 15.8769C118.305 15.8769 118.831 15.8769 119.336 15.8769C119.453 15.8769 119.57 15.8769 119.686 15.8769C119.745 15.8769 119.803 15.913 119.803 15.913C119.803 15.9491 119.822 15.9491 119.822 15.9851C119.822 16.0573 119.822 16.0934 119.822 16.1656C119.822 18.6554 119.822 57.9155 119.822 60.4053C119.822 60.4775 119.842 60.5497 119.842 60.5857C116.458 60.5497 113.054 60.5497 109.651 60.5497Z" fill="#A792BC"/>
<path d="M43.4088 -0.000488281C46.8123 -0.000488281 50.2158 -0.000488281 53.5999 -0.000488281C53.5999 0.071681 53.5999 0.14385 53.5999 0.216019C53.5999 2.74194 53.5999 5.23178 53.5999 7.75771C53.5999 7.82988 53.5999 7.86596 53.5999 7.93813H53.6193C52.997 7.93813 52.3746 7.93813 51.7523 7.93813C51.5772 7.93813 51.4216 7.93813 51.2466 7.93813C51.1494 7.93813 51.091 7.97421 51.0716 7.97421C51.0716 8.04638 51.0521 8.11855 51.0521 8.15464C51.0521 10.6445 51.0521 13.1343 51.0521 15.5881C51.0521 15.6242 51.0521 15.6963 51.0521 15.7324C51.0521 15.7685 51.0716 15.7685 51.091 15.8046C50.916 15.8046 50.7604 15.8046 50.5853 15.8046C50.0213 15.8046 49.4379 15.8046 48.8739 15.8046C48.7766 15.8046 48.6794 15.8046 48.5822 15.8046C48.5627 15.8046 48.5238 15.7685 48.5238 15.7685C48.5044 15.6963 48.5044 15.6242 48.5044 15.552C48.5044 13.0982 48.5044 10.6445 48.5044 8.19072C48.5044 8.11855 48.5044 8.04638 48.5044 8.0103C48.5044 8.0103 48.4849 7.97421 48.4655 7.97421C48.446 7.97421 48.4266 7.93813 48.4071 7.93813C48.3488 7.93813 48.271 7.93813 48.2126 7.93813C47.5514 7.93813 46.9096 7.93813 46.2483 7.93813C46.2094 7.93813 46.19 7.93813 46.1511 7.93813C46.0344 7.93813 45.9761 7.97421 45.9761 8.0103C45.9761 8.08247 45.9761 8.11855 45.9761 8.19072C45.9761 10.6806 45.9761 13.1343 45.9761 15.6242C45.9761 15.6602 45.9761 15.7324 45.9761 15.7685C45.9761 15.7685 45.9761 15.8046 45.9955 15.8046C46.0149 15.8046 46.0538 15.8407 46.1122 15.8407C46.1705 15.8407 46.2094 15.8407 46.2678 15.8407C46.9485 15.8407 47.6097 15.8407 48.2904 15.8407C48.4071 15.8407 48.5238 15.8407 48.6405 15.8407C48.621 15.8767 48.5627 15.8767 48.5627 15.9128C48.5433 15.985 48.5433 16.0211 48.5433 16.0933C48.5433 17.248 48.5433 18.4388 48.5433 19.5935C48.5433 19.6295 48.5433 19.7017 48.5433 19.7378L48.5627 19.7739C48.5627 19.81 48.6405 19.81 48.6988 19.81C48.7572 19.81 48.835 19.81 48.8933 19.81C49.4962 19.81 50.0991 19.81 50.702 19.81C50.7604 19.81 50.8382 19.81 50.8965 19.81C50.9743 19.81 51.0521 19.7739 51.0521 19.7378C51.0521 19.6656 51.0521 19.6295 51.0521 19.5574C51.0521 18.3666 51.0521 17.2119 51.0521 16.0211C51.0521 15.9489 51.0716 15.8767 51.0716 15.8407C51.9078 15.8407 52.7441 15.8407 53.5804 15.8407H53.561C53.561 15.9128 53.561 15.985 53.561 16.0572C53.561 17.248 53.561 18.4027 53.561 19.5935C53.561 19.6656 53.561 19.7017 53.561 19.7739C53.561 19.81 53.6388 19.8461 53.7166 19.8461C53.8333 19.8461 53.9499 19.8461 54.0666 19.8461C54.5917 19.8461 55.1169 19.8461 55.6225 19.8461C55.7781 19.8461 55.9337 19.8461 56.0698 19.8461H56.0504C56.0504 19.9182 56.0698 19.9543 56.0698 20.0265C56.0698 21.2173 56.0698 59.2144 56.0698 60.4052C56.0698 60.4773 56.0504 60.5495 56.0504 60.5856C51.8106 60.5856 47.5708 60.5856 43.3311 60.5856C43.3311 60.5495 43.3311 60.5134 43.3311 60.4773C43.3311 52.647 43.3311 8.0103 43.3311 0.179935C43.4283 0.071681 43.4088 0.0355963 43.4088 -0.000488281Z" fill="#A792BC"/>
<path d="M130.051 60.5496C130.032 60.5135 130.032 60.4774 130.012 60.4413C130.012 60.4052 130.012 60.333 130.012 60.297C130.012 52.5388 130.012 8.01035 130.012 0.288237C130.012 0.216068 129.993 0.107814 130.051 0.0356445C130.888 0.0356445 131.743 0.0356445 132.58 0.0356445C132.58 0.0717292 132.58 0.107814 132.58 0.143898C132.58 2.66982 132.58 5.19574 132.58 7.72167C132.58 7.79384 132.58 7.82992 132.599 7.90209C132.599 7.93818 132.657 7.93818 132.735 7.93818C132.774 7.93818 132.794 7.93818 132.832 7.93818C133.533 7.93818 134.252 7.93818 134.952 7.93818C135.011 7.93818 135.05 7.93818 135.108 7.93818H135.088C135.108 7.97426 135.127 8.01035 135.127 8.01035C135.127 8.08252 135.127 8.1186 135.127 8.19077C135.127 10.6445 135.127 13.1344 135.127 15.5881C135.127 15.6603 135.127 15.6964 135.127 15.7685C135.127 15.8407 135.166 15.8407 135.4 15.8768C135.555 15.8768 135.711 15.8768 135.847 15.8768C137.967 15.8768 140.087 15.8768 142.207 15.8768C142.81 15.8768 142.771 15.8768 142.771 16.0572C142.771 17.248 142.771 18.4388 142.771 19.6296C142.771 19.7018 142.79 19.7739 142.81 19.8461C142.732 19.8461 142.654 19.8461 142.557 19.8461C141.876 19.8461 141.176 19.8461 140.495 19.8461C140.281 19.8461 140.223 19.8461 140.223 19.9544C140.223 20.0265 140.223 20.0987 140.223 20.1348C140.223 21.2895 140.223 59.2144 140.223 60.333C140.223 60.4052 140.223 60.4413 140.223 60.5135C140.223 60.5496 140.184 60.5856 140.184 60.5856C136.78 60.5496 133.416 60.5496 130.051 60.5496Z" fill="#A792BC"/>
<path d="M160.547 60.5495C160.547 60.5134 160.567 60.5134 160.567 60.4773C160.567 60.4052 160.567 60.3691 160.567 60.2969C160.567 55.1729 160.567 13.2787 160.567 8.19072C160.567 8.11855 160.567 8.04638 160.586 7.97421C160.586 7.93813 160.664 7.93813 160.742 7.90204C160.878 7.90204 161.014 7.90204 161.15 7.90204C161.675 7.90204 162.2 7.90204 162.706 7.90204C162.823 7.90204 162.94 7.90204 163.056 7.90204C163.076 7.86596 163.095 7.86596 163.095 7.82988C163.095 7.75771 163.095 7.68554 163.095 7.64945C163.095 5.1957 163.095 2.74194 163.095 0.288189C163.095 0.216019 163.095 0.179935 163.095 0.107766C163.095 0.071681 163.134 0.0355963 163.134 -0.000488281C165.662 -0.000488281 168.191 -0.000488281 170.699 -0.000488281C170.699 0.071681 170.719 0.14385 170.719 0.216019C170.719 1.37073 170.719 2.52544 170.719 3.71623C170.719 3.75231 170.719 3.82448 170.719 3.86057L170.699 3.89665C170.699 3.93274 170.641 3.93274 170.602 3.93274C170.524 3.93274 170.427 3.93274 170.349 3.93274C169.844 3.93274 169.338 3.93274 168.832 3.93274C168.093 3.93274 168.171 3.89665 168.171 4.18533C168.171 5.34004 168.171 6.49474 168.171 7.68554C168.171 7.93813 168.074 7.90204 168.832 7.90204C169.396 7.90204 169.941 7.90204 170.505 7.90204C170.622 7.90204 170.699 7.93813 170.699 7.97421C170.699 8.0103 170.699 8.08247 170.699 8.11855C170.699 11.9435 170.699 15.7324 170.699 19.5574C170.699 19.5935 170.699 19.6656 170.699 19.7017L170.68 19.7378C170.661 19.7378 170.641 19.7739 170.622 19.7739C170.583 19.7739 170.524 19.7739 170.486 19.7739C169.805 19.7739 169.144 19.7739 168.463 19.7739C168.424 19.7739 168.405 19.7739 168.366 19.7739C168.268 19.7739 168.21 19.7378 168.191 19.7378C168.191 19.6656 168.191 19.6295 168.191 19.5574C168.191 18.4027 168.191 17.248 168.191 16.0933C168.191 16.0572 168.191 15.985 168.191 15.9489C168.191 15.9489 168.191 15.9128 168.171 15.9128C168.171 15.8767 168.093 15.8767 167.996 15.8767C167.938 15.8767 167.86 15.8767 167.802 15.8767C167.257 15.8767 166.732 15.8767 166.187 15.8767C166.051 15.8767 165.915 15.8767 165.779 15.8767C165.721 15.8767 165.662 15.8407 165.662 15.8407C165.662 15.7685 165.643 15.7324 165.643 15.6602C165.643 14.5055 165.643 13.3508 165.643 12.1961C165.643 12.1239 165.643 12.0879 165.643 12.0157C165.643 12.0157 165.643 11.9796 165.623 11.9796C165.604 11.9796 165.585 11.9435 165.565 11.9435C165.487 11.9435 165.409 11.9435 165.312 11.9435C164.69 11.9435 164.068 11.9435 163.445 11.9435C163.387 11.9435 163.309 11.9435 163.251 11.9435C163.192 11.9435 163.115 11.9796 163.115 11.9796C163.115 12.0518 163.095 12.1239 163.095 12.2322C163.095 15.985 163.095 56.5441 163.095 60.2969C163.095 60.3691 163.095 60.4413 163.095 60.4773C163.095 60.5134 163.056 60.5495 163.056 60.5856C162.22 60.5495 161.384 60.5495 160.547 60.5495Z" fill="#A792BC"/>
<path d="M86.7402 60.5495C86.7402 60.4773 86.7402 60.4051 86.7402 60.333C86.7402 52.5387 86.7402 7.97417 86.7402 0.215971C86.7402 0.143802 86.7402 0.0716328 86.7402 -0.000536468C88.4323 -0.000536468 90.1048 -0.000536468 91.7968 -0.000536468C91.7968 0.0716328 91.8163 0.143802 91.8163 0.215971C91.8163 1.37068 91.8163 2.52539 91.8163 3.71618C91.8163 3.75226 91.8163 3.82443 91.8163 3.86052C91.8163 3.86052 91.8163 3.8966 91.8357 3.8966C91.8552 3.8966 91.8941 3.93269 91.933 3.93269C92.0302 3.93269 92.1275 3.93269 92.2247 3.93269C92.7304 3.93269 93.236 3.93269 93.7417 3.93269C94.4029 3.93269 94.3641 3.93269 94.3641 3.71618C94.3641 2.70581 94.3641 1.73153 94.3641 0.721156C94.3641 0.540733 94.3641 0.324225 94.3641 0.143802C94.3641 0.0716328 94.3446 0.0355482 94.4029 -0.0366211C95.2392 -0.0366211 96.095 -0.0366211 96.9313 -0.0366211C96.9313 0.0355482 96.9118 0.107717 96.9118 0.143802C96.9118 3.93269 96.9118 7.72157 96.9118 11.5105C96.9118 11.5826 96.9118 11.6187 96.9118 11.6909C96.9118 11.727 96.9118 11.727 96.9118 11.7631C96.9118 11.7991 96.834 11.8352 96.7173 11.8352C96.6006 11.8352 96.4839 11.8352 96.3672 11.8352C95.9394 11.8352 95.531 11.8352 95.1031 11.8352C94.3057 11.8352 94.3835 11.8713 94.3835 11.5826C94.3835 10.4279 94.3835 9.27321 94.3835 8.1185C94.3835 8.08242 94.3835 8.01025 94.3835 7.97417C94.3835 7.97417 94.3835 7.93808 94.3641 7.93808C94.3641 7.902 94.2863 7.902 94.2279 7.902C94.0723 7.902 93.9167 7.902 93.7806 7.902C92.497 7.902 91.2328 7.902 89.9492 7.902C89.1907 7.902 89.288 7.86591 89.288 8.1185C89.288 10.6083 89.288 13.0982 89.288 15.588C89.288 15.6241 89.288 15.6963 89.288 15.7324C89.288 15.7324 89.288 15.7684 89.3074 15.7684C89.3269 15.7684 89.3463 15.8045 89.3852 15.8045C89.5214 15.8045 89.6575 15.8045 89.7937 15.8045C91.1162 15.8045 92.4581 15.8045 93.7806 15.8045C94.4418 15.8045 94.4029 15.7684 94.4029 16.021C94.4029 17.2118 94.4029 18.3665 94.4029 19.5573C94.4029 19.5934 94.4029 19.6295 94.4029 19.6656L94.3835 19.7017C94.3835 19.7378 94.3057 19.7378 94.2474 19.7378C94.0918 19.7378 93.9362 19.7378 93.8 19.7378C92.5359 19.7378 91.2717 19.7378 90.0076 19.7378C89.8714 19.7378 89.7353 19.7378 89.5992 19.7378C89.3463 19.7378 89.3074 19.7378 89.288 19.846C89.288 19.8821 89.288 19.9543 89.288 19.9903C89.288 21.1451 89.288 59.1061 89.288 60.2608C89.288 60.333 89.288 60.4051 89.288 60.4773C88.4128 60.5495 87.5765 60.5495 86.7402 60.5495Z" fill="#A792BC"/>
<path d="M173.267 -0.000488281C174.978 -0.000488281 176.709 -0.000488281 178.42 -0.000488281C178.42 0.0355963 178.401 0.071681 178.401 0.107766C178.401 1.33464 178.401 2.56152 178.401 3.7884C178.401 3.82448 178.401 3.86057 178.401 3.89665C178.401 3.93274 178.459 3.96882 178.576 3.96882C178.732 3.96882 178.887 3.96882 179.023 3.96882C180.307 3.96882 181.61 3.96882 182.894 3.96882C183.069 3.96882 183.263 3.96882 183.438 3.96882H183.419C183.438 4.04099 183.458 4.07707 183.458 4.14924C183.458 5.34004 183.458 6.53083 183.458 7.72162C183.458 7.75771 183.458 7.82988 183.458 7.86596C183.458 7.90204 183.399 7.93813 183.302 7.93813C183.146 7.93813 182.991 7.93813 182.855 7.93813C181.571 7.93813 180.307 7.93813 179.023 7.93813C178.887 7.93813 178.751 7.93813 178.615 7.93813C178.44 7.93813 178.382 7.97422 178.382 8.0103C178.382 8.08247 178.382 8.15464 178.382 8.19072C178.382 11.9435 178.382 15.7324 178.382 19.4852C178.382 19.5574 178.382 19.6295 178.382 19.6656C178.382 19.6656 178.382 19.7017 178.362 19.7017C178.343 19.7017 178.304 19.7378 178.265 19.7378C178.168 19.7378 178.07 19.7378 177.973 19.7378C177.467 19.7378 176.962 19.7378 176.456 19.7378C176.301 19.7378 176.145 19.7378 176.009 19.7378C175.95 19.7378 175.873 19.7739 175.873 19.7739C175.873 19.8461 175.853 19.8821 175.853 19.9543C175.853 20.6038 175.853 21.2534 175.853 21.9029C175.853 22.4442 175.853 59.7917 175.853 60.333C175.853 60.3691 175.834 60.4413 175.892 60.4774C175.017 60.4774 174.142 60.4774 173.267 60.4774C173.325 60.4052 173.305 60.333 173.305 60.2608C173.305 52.5026 173.305 7.93813 173.305 0.179935C173.305 0.14385 173.305 0.071681 173.305 0.0355963C173.286 0.0355963 173.267 0.0355963 173.267 -0.000488281Z" fill="#A792BC"/>
<path d="M160.547 -0.000488281C160.547 0.071681 160.567 0.107766 160.567 0.179935C160.567 1.37073 160.567 2.56152 160.567 3.7884C160.567 4.00491 160.605 4.00491 160.003 4.00491C159.555 4.00491 159.088 4.00491 158.641 4.00491C158.524 4.00491 158.408 4.00491 158.291 4.00491C158.097 4.00491 158.038 4.04099 158.038 4.07708C158.038 4.11316 158.038 4.14924 158.038 4.18533C158.038 4.2575 158.038 4.32967 158.038 4.36575C158.038 5.48438 158.038 6.603 158.038 7.72162C158.038 7.79379 158.038 7.82988 158.038 7.90205C158.038 7.93813 157.96 7.93813 157.863 7.93813C157.688 7.93813 157.533 7.93813 157.358 7.93813C154.421 7.93813 151.465 7.93813 148.528 7.93813C148.353 7.93813 148.197 7.93813 148.022 7.93813C147.925 7.93813 147.867 7.97422 147.867 8.0103C147.867 8.08247 147.867 8.15464 147.867 8.19072C147.867 10.6445 147.867 13.1343 147.867 15.5881C147.867 15.6602 147.867 15.7324 147.847 15.8046C147.847 15.8407 147.789 15.8407 147.711 15.8407C147.653 15.8407 147.575 15.8407 147.517 15.8407C146.914 15.8407 146.311 15.8407 145.708 15.8407C145.63 15.8407 145.533 15.8407 145.455 15.8407C145.416 15.8407 145.377 15.8046 145.358 15.8046C145.338 15.8046 145.338 15.7685 145.338 15.7685C145.338 15.6963 145.338 15.6602 145.338 15.5881C145.338 10.4641 145.338 5.37612 145.338 0.252104C145.338 0.179935 145.338 0.071681 145.338 -0.000488281C146.175 -0.000488281 147.03 -0.000488281 147.867 -0.000488281C147.867 0.071681 147.886 0.14385 147.886 0.21602C147.886 1.37073 147.886 2.52544 147.886 3.68014C147.886 3.75231 147.886 3.7884 147.886 3.86057C147.886 3.89665 147.925 3.93274 148.139 3.93274C148.236 3.93274 148.333 3.93274 148.45 3.93274C149.773 3.93274 151.115 3.93274 152.437 3.93274C152.534 3.93274 152.632 3.93274 152.748 3.93274C152.943 3.93274 153.001 3.89665 153.001 3.86057C153.001 3.7884 153.001 3.75231 153.001 3.68014C153.001 2.52544 153.001 1.37073 153.001 0.21602C153.001 0.14385 152.982 0.071681 153.04 -0.000488281C155.491 -0.000488281 158.019 -0.000488281 160.547 -0.000488281Z" fill="#A792BC"/>
<path d="M96.9311 60.5496C96.9311 60.4774 96.9116 60.4052 96.9116 60.3691C96.9116 57.8432 96.9116 18.5831 96.9116 16.0572C96.9116 16.0211 96.9116 15.949 96.9311 15.9129C96.9311 15.8768 97.0089 15.8768 97.1061 15.8768C97.2422 15.8768 97.3784 15.8768 97.5145 15.8768C98.0007 15.8768 98.487 15.8768 98.9732 15.8768C99.0899 15.8768 99.2066 15.8768 99.3232 15.8768C99.3816 15.8768 99.4594 15.8407 99.4594 15.8407C99.4594 15.8046 99.4788 15.8046 99.4788 15.7685C99.4788 15.6964 99.4788 15.6603 99.4788 15.5881C99.4788 10.5363 99.4788 5.44834 99.4788 0.396491C99.4788 0.288237 99.4788 0.179983 99.4788 0.0356445C100.315 0.0356445 101.171 0.0356445 102.007 0.0356445C102.007 0.107814 102.027 0.216068 102.027 0.288237C102.027 2.74199 102.027 5.23183 102.027 7.68558C102.027 7.75775 102.027 7.79384 102.027 7.86601C102.027 7.93818 102.065 7.93818 102.299 7.97426C102.435 7.97426 102.571 7.97426 102.707 7.97426C103.991 7.97426 105.255 7.97426 106.539 7.97426C106.694 7.97426 106.85 7.97426 106.986 7.97426C107.044 7.97426 107.103 8.01035 107.122 8.01035L107.142 8.04643C107.142 8.08252 107.142 8.1186 107.142 8.15469C107.142 9.34548 107.142 10.5002 107.142 11.691C107.142 11.7271 107.142 11.7992 107.122 11.8353C107.122 11.8714 107.044 11.9075 106.947 11.9075C106.83 11.9075 106.714 11.9075 106.597 11.9075C106.091 11.9075 105.586 11.9075 105.08 11.9075C104.963 11.9075 104.847 11.9075 104.73 11.9075C104.672 11.9075 104.594 11.9436 104.594 11.9436C104.594 11.9797 104.574 11.9797 104.574 12.0157C104.574 12.0518 104.574 12.124 104.574 12.1601C104.574 13.3148 104.574 14.4334 104.574 15.5881C104.574 15.6603 104.574 15.7325 104.555 15.7685C104.555 15.8046 104.497 15.8046 104.38 15.8046C104.244 15.8046 104.108 15.8046 103.971 15.8046C103.485 15.8046 102.999 15.8046 102.513 15.8046C102.396 15.8046 102.279 15.8046 102.163 15.8046C102.104 15.8046 102.027 15.8407 102.027 15.8407C102.027 15.9129 102.007 15.949 102.007 16.0211C102.007 17.1758 102.007 18.3305 102.007 19.4853C102.007 19.5213 102.007 19.5935 102.007 19.6296C102.007 19.6657 102.007 19.6657 102.007 19.7018C102.007 19.7379 101.929 19.7739 101.852 19.7739C101.715 19.7739 101.579 19.7739 101.443 19.7739C100.957 19.7739 100.471 19.7739 99.9845 19.7739C99.8678 19.7739 99.7511 19.7739 99.6344 19.7739C99.5566 19.7739 99.4788 19.81 99.4788 19.8461C99.4788 19.9183 99.4788 19.9544 99.4788 20.0265C99.4788 21.1452 99.4788 59.0701 99.4788 60.1887C99.4788 60.297 99.4788 60.4052 99.4788 60.5496C98.6036 60.5496 97.7674 60.5496 96.9311 60.5496Z" fill="#A792BC"/>
<path d="M25.5356 60.5496C24.6993 60.5496 23.8436 60.5496 23.0073 60.5496C23.0657 60.4774 23.0462 60.4052 23.0462 60.333C23.0462 52.5749 23.0462 8.01035 23.0462 0.252152C23.0462 0.216068 23.0462 0.143898 23.0462 0.107814C23.0462 0.0717292 23.0268 0.0717292 23.0073 0.0356445C23.8436 0.0356445 24.6993 0.0356445 25.5356 0.0356445C25.5551 0.0717292 25.594 0.0717292 25.594 0.107814C25.594 0.143898 25.594 0.216068 25.594 0.252152C25.594 8.04643 25.594 52.5749 25.594 60.3691C25.594 60.4052 25.594 60.4774 25.594 60.5135C25.594 60.5135 25.5551 60.5135 25.5356 60.5496Z" fill="#A792BC"/>
<path d="M147.829 60.5492C147.829 60.477 147.848 60.4409 147.848 60.3688C147.848 59.178 147.848 21.2169 147.848 20.0261C147.848 19.7736 147.77 19.7736 148.509 19.7736C149.015 19.7736 149.521 19.7736 150.026 19.7736C150.104 19.7736 150.201 19.7736 150.279 19.7736C150.318 19.7736 150.357 19.7375 150.376 19.7375C150.396 19.7375 150.396 19.7014 150.396 19.7014C150.396 19.6292 150.396 19.5931 150.396 19.521C150.396 18.3663 150.396 17.2115 150.396 16.0568C150.396 15.9847 150.396 15.9125 150.415 15.8764C150.415 15.8403 150.493 15.8403 150.551 15.8403C150.629 15.8403 150.726 15.8403 150.804 15.8403C152.243 15.8403 153.663 15.8403 155.102 15.8403C155.161 15.8403 155.239 15.8403 155.297 15.8403C155.414 15.8403 155.491 15.8764 155.491 15.9125C155.491 15.9847 155.491 16.0208 155.491 16.0929C155.491 16.8868 155.491 17.6446 155.491 18.4384C155.491 18.8354 155.491 19.2323 155.491 19.5931C155.491 19.6292 155.491 19.7014 155.491 19.7375C155.491 19.7736 155.55 19.8096 155.705 19.8096C155.822 19.8096 155.939 19.8096 156.055 19.8096C156.542 19.8096 157.028 19.8096 157.514 19.8096C157.631 19.8096 157.747 19.8096 157.864 19.8096C157.961 19.8096 158.02 19.8457 158.02 19.8818C158.02 19.9179 158.02 19.954 158.02 19.9901C158.02 21.2169 158.02 59.2141 158.02 60.4048C158.02 60.4409 158.02 60.5131 158.02 60.5492C154.616 60.5492 151.213 60.5492 147.829 60.5492Z" fill="#A792BC"/>
<path d="M28.1615 60.5495C28.1615 60.4773 28.1421 60.4052 28.1421 60.333C28.1421 52.5387 28.1421 7.97421 28.1421 0.216019C28.1421 0.14385 28.1421 0.071681 28.1615 -0.000488281C28.9978 -0.000488281 29.8536 -0.000488281 30.6898 -0.000488281C30.6898 7.93813 30.6898 52.6109 30.6898 60.5495C29.8536 60.5495 29.0173 60.5495 28.1615 60.5495Z" fill="#A792BC"/>
<path d="M33.2178 60.5496L33.2372 60.5135C33.2372 60.4774 33.2372 60.4052 33.2372 60.3691C33.2372 52.5749 33.2372 8.01035 33.2372 0.216068C33.2372 0.143898 33.2178 0.0717292 33.2178 0.0356445C34.0541 0.0356445 34.9098 0.0356445 35.7461 0.0356445C35.7655 0.0717292 35.785 0.107814 35.785 0.143898C35.785 0.179983 35.785 0.252152 35.785 0.288237C35.785 8.04643 35.785 52.5749 35.785 60.297C35.785 60.3691 35.8239 60.4774 35.7461 60.5496C34.8903 60.5496 34.0541 60.5496 33.2178 60.5496Z" fill="#A792BC"/>
<path d="M298.067 -0.000488281C298.067 0.071681 298.087 0.179935 298.087 0.252104C298.087 7.18035 298.087 14.0725 298.087 21.0008C298.087 21.8668 298.087 59.467 298.087 60.333C298.087 60.4052 298.067 60.4773 298.067 60.5495C297.231 60.5495 296.375 60.5495 295.539 60.5495C295.539 52.6109 295.539 7.93813 295.539 -0.000488281C296.375 -0.000488281 297.231 -0.000488281 298.067 -0.000488281Z" fill="#A792BC"/>
<path d="M280.292 60.5496C280.292 60.5135 280.273 60.4774 280.273 60.4413C280.273 60.4052 280.273 60.3331 280.273 60.297C280.273 52.5388 280.273 8.01035 280.273 0.288237C280.273 0.216068 280.292 0.107814 280.292 0.0356445C281.129 0.0356445 281.984 0.0356445 282.821 0.0356445C282.821 0.0717292 282.821 0.107814 282.821 0.143898C282.821 7.97426 282.821 52.6109 282.821 60.4413C282.821 60.4774 282.821 60.5135 282.821 60.5496C281.984 60.5496 281.148 60.5496 280.292 60.5496Z" fill="#A792BC"/>
<path d="M290.502 60.5496C290.483 60.5135 290.463 60.4774 290.463 60.4413C290.463 60.4052 290.463 60.333 290.463 60.297C290.463 52.5388 290.463 8.01035 290.463 0.288237C290.463 0.216068 290.424 0.107814 290.502 0.0356445C291.339 0.0356445 292.194 0.0356445 293.031 0.0356445C293.031 0.0717292 293.011 0.143898 293.011 0.179983C293.011 8.01035 293.011 52.6109 293.011 60.4413C293.011 60.4774 293.011 60.5496 293.031 60.5856C292.175 60.5496 291.339 60.5496 290.502 60.5496Z" fill="#A792BC"/>
<path d="M303.221 60.5496C303.221 60.5135 303.202 60.4774 303.202 60.4413C303.202 60.4052 303.202 60.333 303.202 60.297C303.202 52.5388 303.202 8.01035 303.202 0.288237C303.202 0.216068 303.221 0.107814 303.221 0.0356445C304.038 0.0356445 304.835 0.0356445 305.652 0.0356445C305.652 7.97426 305.652 52.647 305.652 60.5856C304.835 60.5496 304.018 60.5496 303.221 60.5496Z" fill="#A792BC"/>
<path d="M76.5299 -0.000536468C76.5299 2.56147 76.5299 5.0874 76.5299 7.6494C76.5299 7.97417 76.666 7.902 75.7714 7.902C75.3046 7.902 74.8379 7.902 74.3516 7.902C74.2739 7.902 74.1766 7.902 74.0988 7.902C74.0599 7.902 74.0016 7.902 74.0016 7.86591C74.0016 7.79374 73.9821 7.75766 73.9821 7.68549C73.9821 7.07205 73.9821 6.4947 73.9821 5.88126C73.9821 5.33999 73.9821 4.76263 73.9821 4.22136C73.9821 4.18528 73.9821 4.11311 73.9821 4.07703C73.9821 3.96877 73.9432 3.93269 73.6126 3.93269C73.4765 3.93269 73.3403 3.93269 73.2042 3.93269C71.1426 3.93269 69.0617 3.93269 67.0001 3.93269C66.8445 3.93269 66.6889 3.93269 66.5528 3.93269C66.4167 3.93269 66.3389 3.8966 66.3389 3.86052C66.3389 3.78835 66.3389 3.75226 66.3389 3.6801C66.3389 2.4893 66.3389 1.29851 66.3389 0.107717C66.3389 0.0716328 66.3389 -0.000536468 66.3389 -0.0366211C69.7424 -0.000536468 73.1264 -0.000536468 76.5299 -0.000536468Z" fill="#A792BC"/>
<path d="M206.388 60.5496C206.388 60.4775 206.407 60.4414 206.407 60.3692C206.407 59.1784 206.407 21.2174 206.407 20.0266C206.407 19.9544 206.407 19.9183 206.407 19.8462C206.407 19.8101 206.485 19.774 206.602 19.774C206.757 19.774 206.913 19.774 207.049 19.774C208.313 19.774 209.577 19.774 210.841 19.774C210.997 19.774 211.153 19.774 211.289 19.774C211.425 19.774 211.483 19.7379 211.503 19.7018C211.503 19.6297 211.503 19.5936 211.503 19.5214C211.503 18.3667 211.503 17.212 211.503 16.0212C211.503 15.949 211.503 15.9129 211.522 15.8408C211.522 15.8047 211.6 15.8047 211.658 15.8047C211.697 15.8047 211.717 15.8047 211.756 15.8047C212.436 15.8047 213.097 15.8047 213.778 15.8047C213.836 15.8047 213.875 15.8047 213.934 15.8047C213.973 15.8047 214.012 15.8408 214.031 15.8408C214.05 15.8408 214.05 15.8769 214.05 15.8769C214.05 15.9129 214.05 15.9851 214.05 16.0212C214.05 18.5832 214.05 57.9155 214.05 60.4414V60.4775C211.503 60.5496 208.935 60.5496 206.388 60.5496Z" fill="#A792BC"/>
<path d="M63.8101 19.81C63.9462 19.7739 64.1018 19.81 64.2574 19.81C64.9381 19.81 65.6382 19.81 66.3189 19.81C68.6333 19.81 70.9671 19.81 73.2815 19.81C73.4371 19.81 73.5927 19.81 73.7288 19.81C73.9233 19.81 73.9816 19.8461 73.9816 19.8822C73.9816 19.9543 73.9816 19.9904 73.9816 20.0626C73.9816 21.2534 73.9816 59.2144 73.9816 60.3691C73.9816 60.4413 73.9816 60.4774 74.0011 60.5495C70.5976 60.5495 67.1941 60.5495 63.8101 60.5495C63.8101 60.4774 63.8101 60.4052 63.8101 60.3691C63.8101 59.1783 63.8101 21.1812 63.8101 19.9904C63.8101 19.9182 63.8101 19.8461 63.8101 19.81Z" fill="#A792BC"/>
<path d="M249.699 19.8096C249.777 19.8096 249.855 19.8096 249.952 19.8096C251.469 19.8096 252.967 19.8096 254.484 19.8096C254.542 19.8096 254.62 19.8096 254.678 19.8096C254.717 19.8096 254.756 19.8457 254.775 19.8457C254.795 19.8457 254.795 19.8817 254.795 19.8817C254.795 19.9178 254.795 19.99 254.795 20.0261C254.795 21.1808 254.795 59.1418 254.795 60.2965C254.795 60.3687 254.834 60.4409 254.756 60.513C253.064 60.513 251.391 60.513 249.699 60.513C249.699 59.2501 249.699 21.2169 249.699 19.99C249.699 19.9539 249.699 19.8817 249.699 19.8096Z" fill="#A792BC"/>
<path d="M58.6572 -0.000488281C58.6767 0.0355963 58.6961 0.071681 58.6961 0.107766C58.6961 0.14385 58.6961 0.216019 58.6961 0.252104C58.6961 2.70586 58.6961 5.15961 58.6961 7.64945C58.6961 7.72162 58.6961 7.79379 58.6961 7.86596C58.6961 7.90204 58.6378 7.93813 58.5405 7.93813C57.7431 7.93813 56.9263 7.93813 56.1289 7.93813H56.1484C56.1484 7.90204 56.1678 7.82988 56.1678 7.79379C56.1678 5.26787 56.1678 2.70586 56.1678 0.179935C56.1678 0.14385 56.1484 0.071681 56.1484 0.0355963C56.9846 -0.000488281 57.8209 -0.000488281 58.6572 -0.000488281Z" fill="#A792BC"/>
<path d="M104.594 60.5492C104.575 60.5131 104.536 60.5131 104.536 60.477C104.536 60.4409 104.536 60.3687 104.536 60.3326C104.536 59.1779 104.536 21.2169 104.536 20.0622C104.536 19.99 104.536 19.9179 104.555 19.8818C104.555 19.8457 104.633 19.8457 104.672 19.8457C104.73 19.8457 104.769 19.8457 104.827 19.8457C105.489 19.8457 106.13 19.8457 106.792 19.8457C106.85 19.8457 106.928 19.8457 106.986 19.8457C107.006 19.8457 107.045 19.8457 107.045 19.8818C107.064 19.8818 107.064 19.9179 107.083 19.9179C107.083 19.99 107.083 20.0261 107.083 20.0983C107.083 21.2891 107.083 59.214 107.083 60.4048C107.083 60.477 107.044 60.5492 107.122 60.5852C106.286 60.5492 105.45 60.5492 104.594 60.5492Z" fill="#A792BC"/>
<path d="M236.979 3.96877C236.979 2.77798 236.979 1.58719 236.979 0.36031C236.979 0.215971 236.979 0.107717 236.979 -0.0366211C237.816 -0.0366211 238.672 -0.0366211 239.508 -0.0366211C239.508 0.0355482 239.508 0.107717 239.508 0.143802C239.508 1.33459 239.508 2.52539 239.508 3.75226C239.508 3.82443 239.488 3.8966 239.488 3.93269H239.508C239.43 3.93269 239.352 3.93269 239.255 3.93269C238.594 3.93269 237.932 3.93269 237.252 3.93269C237.174 3.96877 237.077 3.96877 236.979 3.96877Z" fill="#A792BC"/>
<path d="M193.668 3.96887C193.513 3.93278 193.377 3.96887 193.221 3.96887C192.696 3.96887 192.171 3.96887 191.665 3.96887C191.568 3.96887 191.471 3.96887 191.354 3.96887C191.218 3.96887 191.14 3.93278 191.14 3.8967C191.14 3.86061 191.14 3.82453 191.14 3.78844C191.14 2.56157 191.14 1.33469 191.14 0.143898C191.14 0.107814 191.14 0.0717292 191.14 0.0356445C191.976 0.0356445 192.832 0.0356445 193.668 0.0356445C193.668 0.107814 193.688 0.143898 193.688 0.216068C193.688 1.44294 193.688 2.66982 193.688 3.8967C193.668 3.8967 193.668 3.93278 193.668 3.96887Z" fill="#A792BC"/>
<path d="M201.331 3.96882C201.331 3.89665 201.331 3.82448 201.331 3.7884C201.331 2.5976 201.331 1.40681 201.331 0.216019C201.331 0.14385 201.331 0.071681 201.35 -0.000488281C202.186 -0.000488281 203.042 -0.000488281 203.878 -0.000488281C203.878 0.107766 203.878 0.216019 203.878 0.324273C203.878 1.47898 203.878 2.5976 203.878 3.75231C203.878 3.96882 203.956 3.96882 203.256 3.96882C202.75 3.96882 202.245 3.96882 201.739 3.96882C201.603 3.96882 201.467 3.96882 201.331 3.96882Z" fill="#A792BC"/>
<path d="M234.452 -0.000488281C234.452 0.0355963 234.432 0.107766 234.432 0.14385C234.432 1.37073 234.432 2.5976 234.432 3.82448C234.432 3.89665 234.452 3.93274 234.471 4.00491C234.316 3.96882 234.179 4.00491 234.024 4.00491C233.499 4.00491 232.974 4.00491 232.468 4.00491C232.332 4.00491 232.196 4.00491 232.059 4.00491C231.982 4.00491 231.904 3.96882 231.904 3.93274C231.904 3.89665 231.884 3.82448 231.884 3.7884C231.884 2.5976 231.884 1.40681 231.884 0.216019C231.884 0.14385 231.865 0.071681 231.923 0.0355963C232.779 -0.000488281 233.615 -0.000488281 234.452 -0.000488281Z" fill="#A792BC"/>
<path d="M142.771 60.5496C142.771 60.4774 142.752 60.4413 142.752 60.3691C142.752 59.1423 142.752 21.1451 142.752 19.9183C142.752 19.8822 142.752 19.81 142.771 19.7739C142.869 19.7739 142.966 19.7739 143.063 19.7739C143.666 19.7739 144.269 19.7739 144.872 19.7739C144.969 19.7739 145.066 19.7739 145.164 19.7739C145.202 19.7739 145.241 19.81 145.261 19.81C145.28 19.81 145.28 19.8461 145.28 19.8461C145.28 19.9183 145.28 19.9543 145.28 20.0265C145.28 21.2534 145.28 59.2866 145.28 60.5135C144.463 60.5495 143.608 60.5496 142.771 60.5496Z" fill="#A792BC"/>
<path d="M229.298 60.5492C229.298 60.5131 229.317 60.477 229.317 60.4409C229.317 59.214 229.317 21.2169 229.317 19.99C229.317 19.954 229.298 19.8818 229.298 19.8457C229.356 19.8457 229.434 19.8457 229.492 19.8457C230.173 19.8457 230.873 19.8457 231.554 19.8457C231.612 19.8457 231.69 19.8457 231.748 19.8457C231.787 19.8457 231.826 19.8818 231.846 19.8818C231.865 19.8818 231.865 19.9179 231.865 19.9179C231.865 19.954 231.865 19.99 231.865 20.0261C231.865 21.2169 231.865 59.1779 231.865 60.3687C231.865 60.4409 231.885 60.5131 231.826 60.5852C230.99 60.5492 230.154 60.5492 229.298 60.5492Z" fill="#A792BC"/>
<path d="M137.579 7.93799C137.715 7.93799 137.851 7.93799 137.987 7.93799C139.446 7.93799 140.904 7.93799 142.382 7.93799C142.441 7.93799 142.519 7.93799 142.577 7.93799C142.694 7.93799 142.752 7.97407 142.752 8.01016V8.04624C142.752 8.08233 142.752 8.11841 142.752 8.1545C142.752 9.3092 142.752 10.5 142.752 11.6547C142.752 11.7269 142.752 11.763 142.732 11.8351C142.732 11.8712 142.655 11.8712 142.557 11.9073C142.48 11.9073 142.382 11.9073 142.305 11.9073C140.885 11.9073 139.485 11.9073 138.065 11.9073C138.006 11.9073 137.929 11.9073 137.87 11.9073C137.715 11.9073 137.656 11.8712 137.637 11.8351C137.637 11.799 137.637 11.799 137.637 11.763C137.637 11.7269 137.637 11.6547 137.637 11.6186C137.637 10.4639 137.637 9.3092 137.637 8.1545C137.637 8.11841 137.637 8.04624 137.637 8.01016C137.637 7.97407 137.598 7.93799 137.579 7.93799Z" fill="#A792BC"/>
<path d="M135.069 7.90193C135.069 7.82976 135.089 7.75759 135.089 7.7215C135.089 6.53071 135.089 5.376 135.089 4.18521C135.089 4.11304 135.089 4.07696 135.108 4.00479C135.108 3.9687 135.186 3.9687 135.264 3.93262C135.322 3.93262 135.4 3.93262 135.458 3.93262C136.061 3.93262 136.664 3.93262 137.267 3.93262C137.325 3.93262 137.403 3.93262 137.462 3.93262C137.52 3.93262 137.598 3.9687 137.598 3.9687C137.598 4.00479 137.617 4.04087 137.617 4.07696C137.617 5.30383 137.617 6.53071 137.617 7.7215C137.617 7.75759 137.617 7.79367 137.598 7.82976C137.598 7.82976 137.559 7.86584 137.539 7.86584H137.559C137.423 7.86584 137.286 7.86584 137.17 7.86584C136.606 7.86584 136.042 7.86584 135.478 7.86584C135.361 7.90193 135.205 7.93801 135.069 7.90193Z" fill="#A792BC"/>
<path d="M203.84 15.8049C203.84 15.7327 203.859 15.6605 203.859 15.6245C203.859 13.9646 203.859 12.3047 203.859 10.6087C203.859 9.77874 203.859 8.9488 203.859 8.11885C203.859 8.04668 203.879 8.0106 203.879 7.93843C203.879 7.93843 203.917 7.90234 203.937 7.90234C203.956 7.90234 203.995 7.90234 204.034 7.90234C204.754 7.90234 205.473 7.90234 206.212 7.90234C206.329 7.90234 206.387 7.93843 206.387 7.97451C206.387 8.0106 206.387 8.08277 206.387 8.11885C206.387 8.80446 206.387 9.52615 206.387 10.2118C206.387 11.9799 206.387 13.7841 206.387 15.5523C206.387 15.841 206.504 15.8049 205.668 15.8049C205.182 15.8049 204.695 15.8049 204.209 15.8049C204.093 15.841 203.956 15.841 203.84 15.8049Z" fill="#A792BC"/>
<path d="M211.502 9.88656C211.502 9.3092 211.502 8.73185 211.502 8.1545C211.502 8.08233 211.502 8.04624 211.522 7.97407C211.522 7.93799 211.58 7.93799 211.638 7.93799C211.697 7.93799 211.736 7.93799 211.794 7.93799C212.455 7.93799 213.097 7.93799 213.758 7.93799C213.817 7.93799 213.895 7.93799 213.953 7.93799C213.972 7.93799 214.011 7.93799 214.011 7.97407C214.031 8.01016 214.031 8.04624 214.031 8.08233C214.031 9.3092 214.031 10.5 214.031 11.7269C214.031 11.8712 214.05 11.9073 213.564 11.9073C213 11.9073 212.455 11.9073 211.891 11.9073C211.814 11.9073 211.716 11.9073 211.638 11.9073C211.561 11.9073 211.483 11.8712 211.483 11.8351C211.483 11.799 211.483 11.7269 211.483 11.6908C211.483 11.1856 211.483 10.7165 211.483 10.2113C211.502 10.1031 211.502 9.99481 211.502 9.88656Z" fill="#A792BC"/>
<path d="M198.803 7.90193C198.803 7.82976 198.783 7.79367 198.783 7.7215C198.783 6.53071 198.783 5.33992 198.783 4.14913C198.783 4.07696 198.803 4.04087 198.803 3.9687C198.803 3.9687 198.842 3.93262 198.861 3.93262C198.9 3.93262 198.958 3.93262 199.017 3.93262C199.756 3.93262 200.495 3.93262 201.234 3.93262C201.273 3.93262 201.292 3.93262 201.331 3.93262C201.331 4.00479 201.312 4.07696 201.312 4.14913C201.312 5.30383 201.312 6.49463 201.312 7.64933C201.312 7.7215 201.312 7.75759 201.292 7.82976C201.292 7.86584 201.234 7.86584 201.156 7.86584C201.039 7.86584 200.923 7.86584 200.806 7.86584C200.145 7.90193 199.483 7.90193 198.803 7.90193Z" fill="#A792BC"/>
<path d="M112.179 7.90197C111.654 7.90197 111.129 7.90197 110.623 7.90197C110.351 7.90197 110.078 7.90197 109.826 7.90197C109.728 7.90197 109.67 7.86589 109.67 7.86589C109.67 7.8298 109.67 7.79372 109.67 7.79372C109.67 6.56684 109.67 5.33997 109.67 4.11309C109.67 4.077 109.689 4.04092 109.689 4.00483C109.689 4.00483 109.728 3.96875 109.748 3.96875C109.767 3.96875 109.806 3.96875 109.845 3.96875C110.565 3.96875 111.284 3.96875 112.004 3.96875C112.043 3.96875 112.082 3.96875 112.101 3.96875C112.12 3.96875 112.159 3.96875 112.159 4.00483C112.179 4.04092 112.179 4.11309 112.179 4.14917C112.179 5.37605 112.179 6.60293 112.179 7.79372C112.179 7.8298 112.179 7.86589 112.179 7.90197Z" fill="#A792BC"/>
<path d="M234.451 3.96875C234.51 3.96875 234.588 3.96875 234.646 3.96875C235.366 3.96875 236.066 3.96875 236.785 3.96875C236.844 3.96875 236.921 3.96875 236.98 3.96875C236.98 4.04092 236.96 4.11309 236.96 4.18526C236.96 5.37605 236.96 6.53076 236.96 7.72155C236.96 7.97414 237.038 7.93806 236.338 7.93806C235.832 7.93806 235.327 7.93806 234.821 7.93806C234.724 7.93806 234.627 7.93806 234.529 7.93806C234.49 7.93806 234.432 7.93806 234.432 7.90197C234.432 7.8298 234.413 7.79372 234.413 7.72155C234.413 7.1442 234.413 6.56684 234.413 5.98949C234.413 5.37605 234.413 4.7987 234.413 4.18526C234.432 4.11309 234.451 4.04092 234.451 3.96875Z" fill="#A792BC"/>
<path d="M226.77 19.8101C226.77 19.7379 226.789 19.7018 226.789 19.6297C226.789 18.4028 226.789 17.212 226.789 15.9851C226.789 15.9129 226.789 15.8769 226.77 15.8047C226.906 15.8047 227.042 15.8047 227.159 15.8047C227.878 15.8047 228.578 15.8047 229.298 15.8047C229.298 15.8769 229.317 15.949 229.317 15.9851C229.317 17.1759 229.317 18.3667 229.317 19.5936C229.317 19.6657 229.317 19.7379 229.298 19.774C229.22 19.774 229.142 19.774 229.045 19.774C228.364 19.774 227.684 19.774 227.003 19.774C226.945 19.774 226.847 19.8101 226.77 19.8101Z" fill="#A792BC"/>
<path d="M224.241 15.8409C224.241 15.8048 224.241 15.7326 224.241 15.6966C224.241 14.4697 224.241 13.2428 224.241 12.0159C224.241 11.9798 224.241 11.9077 224.241 11.8716C224.3 11.8716 224.377 11.8716 224.436 11.8716C225.155 11.8716 225.855 11.8716 226.575 11.8716C226.633 11.8716 226.711 11.8716 226.77 11.8716C226.77 12.3768 226.77 12.882 226.77 13.3511C226.77 14.181 226.77 14.9749 226.77 15.8048C225.933 15.8409 225.097 15.8409 224.241 15.8409Z" fill="#A792BC"/>
</svg>
