<svg width="80" height="80" viewBox="0 0 80 80" fill="none" xmlns="http://www.w3.org/2000/svg">
<path d="M71.3924 36.9823C71.4018 41.3819 70.5405 45.74 68.8581 49.8052C67.1757 53.8705 64.7055 57.5627 61.5897 60.669C58.474 63.7754 54.7744 66.2344 50.704 67.9045C46.6336 69.5746 42.273 70.4227 37.8734 70.4C34.2938 70.3884 30.7388 69.8073 27.3418 68.6785C26.2176 66.9552 24.4797 65.7242 22.481 65.2354C21.5343 64.9292 20.5337 64.8257 19.5443 64.9317C13.3445 60.8519 8.67038 54.8336 6.25208 47.8169C3.83378 40.8002 3.80746 33.1801 6.17721 26.1468C8.50633 25.6405 10.1266 24.2228 10.0253 22.8051C9.97275 22.3641 9.81699 21.9418 9.57067 21.5723C9.32435 21.2028 8.9944 20.8966 8.60759 20.6785C11.5853 15.3104 15.9815 10.8643 21.3158 7.82639C26.65 4.78848 32.7168 3.27567 38.8529 3.45337C44.989 3.63108 50.9581 5.49246 56.1075 8.83399C61.257 12.1755 65.3886 16.8686 68.0506 22.4L67.8481 22.6025C66.6945 23.5434 65.9614 24.9035 65.8095 26.3844C65.6576 27.8652 66.0994 29.3458 67.038 30.5013C67.7609 31.3998 68.7559 32.0394 69.8734 32.3241C70.1772 32.4253 70.3797 32.4253 70.6835 32.5266H70.9873C71.2727 33.9943 71.4084 35.4872 71.3924 36.9823Z" fill="#FFECE1"/>
<path d="M70.8861 36.9823C70.8807 45.7074 67.4109 54.0734 61.2394 60.2411C55.0679 66.4088 46.6998 69.8734 37.9747 69.8734C34.4612 69.8617 30.9729 69.2804 27.6456 68.1519C27.1107 67.3095 26.415 66.5808 25.5983 66.0074C24.7817 65.434 23.86 65.0272 22.8861 64.8101C21.973 64.5097 21.0066 64.4062 20.0506 64.5063C13.9562 60.5075 9.3586 54.6019 6.97674 47.7128C4.59487 40.8237 4.56299 33.3395 6.88607 26.4304C9.11392 25.9241 10.7342 24.6076 10.6329 23.0886C10.5923 22.6571 10.4403 22.2436 10.1918 21.8886C9.94323 21.5335 9.60671 21.2491 9.21519 21.0633C12.1488 15.7777 16.4794 11.4006 21.7334 8.41076C26.9874 5.42093 32.9624 3.93354 39.0049 4.11126C45.0474 4.28898 50.9247 6.12497 55.9939 9.41842C61.0631 12.7119 65.129 17.3359 67.7468 22.7848L67.5443 22.9873C66.4178 23.9015 65.6998 25.2251 65.5479 26.6679C65.3961 28.1107 65.8227 29.5549 66.7342 30.6835C67.4571 31.5821 68.4521 32.2217 69.5696 32.5063C69.8734 32.6076 70.076 32.6076 70.3797 32.7089H70.6835C70.7848 34.1468 70.8861 35.5646 70.8861 36.9823Z" fill="#6FBBC4"/>
<path d="M54.9391 63.0761C57.8206 61.3564 59.0877 58.1714 57.7692 55.9623C56.4507 53.7532 53.046 53.3564 50.1645 55.0762C47.283 56.7959 46.016 59.9809 47.3344 62.19C48.6529 64.3992 52.0576 64.7959 54.9391 63.0761Z" fill="#D7F0EE"/>
<path d="M55.1704 63.516C58.0518 61.7962 59.3654 58.6891 58.1042 56.576C56.8431 54.463 53.4848 54.1441 50.6034 55.8639C47.7219 57.5836 46.4083 60.6907 47.6695 62.8038C48.9306 64.9169 52.2889 65.2357 55.1704 63.516Z" fill="#1B403D"/>
<path d="M55.0655 63.1747C57.947 61.455 59.2605 58.3479 57.9993 56.2348C56.7382 54.1217 53.3799 53.8028 50.4985 55.5226C47.617 57.2423 46.3035 60.3495 47.5646 62.4625C48.8258 64.5756 52.184 64.8945 55.0655 63.1747Z" fill="#1C5955"/>
<path d="M54.0135 61.4027C56.5108 59.9123 57.7452 57.3803 56.7707 55.7475C55.7962 54.1147 52.9817 53.9992 50.4844 55.4897C47.9872 56.9801 46.7527 59.5121 47.7272 61.1449C48.7018 62.7777 51.5162 62.8932 54.0135 61.4027Z" fill="#2A867F"/>
<path d="M70.2785 32.6278C69.9986 32.6086 69.7243 32.54 69.4683 32.4253C68.0589 32.0351 66.8619 31.1013 66.1404 29.8292C65.4189 28.557 65.2318 27.0505 65.6203 25.6405C65.9049 24.523 66.5445 23.528 67.443 22.8051C64.0081 15.6025 58.1206 9.85856 50.8354 6.60253C55.7136 15.9078 58.2181 26.2738 58.1266 36.7797C58.131 42.5506 57.4166 48.2994 56 53.8937C56.944 54.1403 57.7696 54.7146 58.3291 55.5139C58.3291 55.6152 58.4304 55.6152 58.4304 55.7165L58.5316 55.8177L58.6329 55.919L58.7342 56.0203C60.0506 58.2481 58.8354 61.4886 55.8987 63.1089C54.8038 63.8113 53.5506 64.229 52.2532 64.3241C51.7468 65.2354 51.443 66.0456 50.9367 66.8557C57.4507 64.0384 62.8657 59.1697 66.3573 52.9909C69.8489 46.812 71.2258 39.6615 70.2785 32.6278Z" fill="#5B99A1"/>
<path d="M25.3598 19.9067C26.9214 18.9229 27.5832 17.1664 26.8379 15.9834C26.0926 14.8004 24.2225 14.6389 22.661 15.6226C21.0994 16.6064 20.4377 18.3629 21.1829 19.5459C21.9282 20.7289 23.7983 20.8904 25.3598 19.9067Z" fill="#D7F0EE"/>
<path d="M25.0909 19.5239C26.6525 18.5401 27.3384 16.822 26.6229 15.6863C25.9075 14.5506 24.0616 14.4274 22.5 15.4112C20.9384 16.3949 20.2525 18.1131 20.968 19.2488C21.6834 20.3844 23.5293 20.5076 25.0909 19.5239Z" fill="#1B403D"/>
<path d="M25.1596 19.6411C26.7212 18.6573 27.4071 16.9392 26.6917 15.8035C25.9762 14.6678 24.1303 14.5446 22.5687 15.5284C21.0072 16.5121 20.3212 18.2303 21.0367 19.366C21.7522 20.5017 23.5981 20.6248 25.1596 19.6411Z" fill="#1C5955"/>
<path d="M25.0276 19.396C26.4039 18.5379 27.0639 17.1113 26.5018 16.2096C25.9396 15.3079 24.3682 15.2724 22.9918 16.1305C21.6155 16.9885 20.9554 18.4151 21.5176 19.3168C22.0798 20.2186 23.6512 20.254 25.0276 19.396Z" fill="#2A867F"/>
<path d="M18.7583 55.5034C20.3037 54.302 19.5531 50.7509 17.0817 47.5717C14.6103 44.3925 11.3541 42.7891 9.80861 43.9905C8.26317 45.1919 9.01378 48.743 11.4852 51.9222C13.9565 55.1014 17.2128 56.7048 18.7583 55.5034Z" fill="#D7F0EE"/>
<path d="M18.3698 55.8334C19.8269 54.7007 19.0047 51.2052 16.5333 48.026C14.062 44.8468 10.8773 43.1878 9.42013 44.3205C7.963 45.4532 8.78521 48.9487 11.2566 52.1279C13.728 55.3071 16.9126 56.9661 18.3698 55.8334Z" fill="#1B403D"/>
<path d="M18.5395 55.6366C19.9966 54.5039 19.1744 51.0084 16.7031 47.8292C14.2317 44.65 11.047 42.991 9.58986 44.1237C8.13273 45.2564 8.95494 48.7519 11.4263 51.9311C13.8977 55.1103 17.0824 56.7693 18.5395 55.6366Z" fill="#1C5955"/>
<path d="M18.6521 54.3608C19.756 53.5027 18.8978 50.5519 16.7354 47.7701C14.5729 44.9883 11.925 43.4289 10.8211 44.287C9.71725 45.1451 10.5754 48.0959 12.7378 50.8777C14.9003 53.6594 17.5482 55.2189 18.6521 54.3608Z" fill="#2A867F"/>
<path d="M25.2658 30.1671C26.664 30.1671 27.7975 28.9838 27.7975 27.5241C27.7975 26.0643 26.664 24.881 25.2658 24.881C23.8676 24.881 22.7342 26.0643 22.7342 27.5241C22.7342 28.9838 23.8676 30.1671 25.2658 30.1671Z" fill="white"/>
<path d="M25.3671 30.6532C26.7653 30.6532 27.8987 29.3973 27.8987 27.8481C27.8987 26.2989 26.7653 25.043 25.3671 25.043C23.9689 25.043 22.8354 26.2989 22.8354 27.8481C22.8354 29.3973 23.9689 30.6532 25.3671 30.6532Z" fill="#1B403D"/>
<path d="M25.3671 30.4101C26.7653 30.4101 27.8987 29.2268 27.8987 27.7671C27.8987 26.3074 26.7653 25.1241 25.3671 25.1241C23.9689 25.1241 22.8354 26.3074 22.8354 27.7671C22.8354 29.2268 23.9689 30.4101 25.3671 30.4101Z" fill="#1C5955"/>
<path d="M25.3671 30.0861C26.7653 30.0861 27.8987 28.9753 27.8987 27.6051C27.8987 26.2348 26.7653 25.1241 25.3671 25.1241C23.9689 25.1241 22.8354 26.2348 22.8354 27.6051C22.8354 28.9753 23.9689 30.0861 25.3671 30.0861Z" fill="#2A867F"/>
<path d="M25.2658 39.038C26.664 39.038 27.7975 37.8546 27.7975 36.3949C27.7975 34.9352 26.664 33.7519 25.2658 33.7519C23.8676 33.7519 22.7342 34.9352 22.7342 36.3949C22.7342 37.8546 23.8676 39.038 25.2658 39.038Z" fill="white"/>
<path d="M25.3671 39.524C26.7653 39.524 27.8987 38.2682 27.8987 36.719C27.8987 35.1698 26.7653 33.9139 25.3671 33.9139C23.9689 33.9139 22.8354 35.1698 22.8354 36.719C22.8354 38.2682 23.9689 39.524 25.3671 39.524Z" fill="#1B403D"/>
<path d="M25.3671 39.281C26.7653 39.281 27.8987 38.0977 27.8987 36.638C27.8987 35.1783 26.7653 33.9949 25.3671 33.9949C23.9689 33.9949 22.8354 35.1783 22.8354 36.638C22.8354 38.0977 23.9689 39.281 25.3671 39.281Z" fill="#1C5955"/>
<path d="M25.3671 38.957C26.7653 38.957 27.8987 37.8462 27.8987 36.476C27.8987 35.1057 26.7653 33.9949 25.3671 33.9949C23.9689 33.9949 22.8354 35.1057 22.8354 36.476C22.8354 37.8462 23.9689 38.957 25.3671 38.957Z" fill="#2A867F"/>
<path d="M25.2658 48.5975C26.664 48.5975 27.7975 47.4142 27.7975 45.9544C27.7975 44.4947 26.664 43.3114 25.2658 43.3114C23.8676 43.3114 22.7342 44.4947 22.7342 45.9544C22.7342 47.4142 23.8676 48.5975 25.2658 48.5975Z" fill="white"/>
<path d="M25.3671 49.0835C26.7653 49.0835 27.8987 47.8277 27.8987 46.2785C27.8987 44.7293 26.7653 43.4734 25.3671 43.4734C23.9689 43.4734 22.8354 44.7293 22.8354 46.2785C22.8354 47.8277 23.9689 49.0835 25.3671 49.0835Z" fill="#1B403D"/>
<path d="M25.3671 48.8405C26.7653 48.8405 27.8987 47.6572 27.8987 46.1975C27.8987 44.7378 26.7653 43.5544 25.3671 43.5544C23.9689 43.5544 22.8354 44.7378 22.8354 46.1975C22.8354 47.6572 23.9689 48.8405 25.3671 48.8405Z" fill="#1C5955"/>
<path d="M25.3671 48.5165C26.7653 48.5165 27.8987 47.4057 27.8987 46.0354C27.8987 44.6652 26.7653 43.5544 25.3671 43.5544C23.9689 43.5544 22.8354 44.6652 22.8354 46.0354C22.8354 47.4057 23.9689 48.5165 25.3671 48.5165Z" fill="#2A867F"/>
<path d="M32.9114 24.5266H49.924C50.7298 24.5266 51.5025 24.8467 52.0722 25.4164C52.642 25.9861 52.962 26.7588 52.962 27.5646C52.962 28.3703 52.642 29.143 52.0722 29.7127C51.5025 30.2825 50.7298 30.6025 49.924 30.6025H32.9114C32.1057 30.6025 31.3329 30.2825 30.7632 29.7127C30.1935 29.143 29.8734 28.3703 29.8734 27.5646C29.8734 26.7588 30.1935 25.9861 30.7632 25.4164C31.3329 24.8467 32.1057 24.5266 32.9114 24.5266Z" fill="white"/>
<path d="M33.0127 25.438H50.0253C50.831 25.438 51.6038 25.758 52.1735 26.3278C52.7432 26.8975 53.0633 27.6702 53.0633 28.4759C53.0633 29.2817 52.7432 30.0544 52.1735 30.6241C51.6038 31.1939 50.831 31.5139 50.0253 31.5139H33.0127C32.2069 31.5139 31.4342 31.1939 30.8645 30.6241C30.2948 30.0544 29.9747 29.2817 29.9747 28.4759C29.9747 27.6702 30.2948 26.8975 30.8645 26.3278C31.4342 25.758 32.2069 25.438 33.0127 25.438Z" fill="#1B403D"/>
<path d="M33.0127 25.1342H50.0253C50.831 25.1342 51.6038 25.4542 52.1735 26.024C52.7432 26.5937 53.0633 27.3664 53.0633 28.1722C53.0633 28.9779 52.7432 29.7506 52.1735 30.3203C51.6038 30.8901 50.831 31.2101 50.0253 31.2101H33.0127C32.2069 31.2101 31.4342 30.8901 30.8645 30.3203C30.2948 29.7506 29.9747 28.9779 29.9747 28.1722C29.9747 27.3664 30.2948 26.5937 30.8645 26.024C31.4342 25.4542 32.2069 25.1342 33.0127 25.1342Z" fill="#1C5955"/>
<path d="M33.0127 24.7291H50.0253C50.831 24.7291 51.6038 25.0492 52.1735 25.6189C52.7432 26.1886 53.0633 26.9614 53.0633 27.7671C53.0633 28.5728 52.7432 29.3455 52.1735 29.9153C51.6038 30.485 50.831 30.8051 50.0253 30.8051H33.0127C32.2069 30.8051 31.4342 30.485 30.8645 29.9153C30.2948 29.3455 29.9747 28.5728 29.9747 27.7671C29.9747 26.9614 30.2948 26.1886 30.8645 25.6189C31.4342 25.0492 32.2069 24.7291 33.0127 24.7291Z" fill="#2A867F"/>
<path d="M32.9114 33.2354H49.924C50.7298 33.2354 51.5025 33.5555 52.0722 34.1252C52.642 34.695 52.962 35.4677 52.962 36.2734C52.962 37.0791 52.642 37.8519 52.0722 38.4216C51.5025 38.9913 50.7298 39.3114 49.924 39.3114H32.9114C32.1057 39.3114 31.3329 38.9913 30.7632 38.4216C30.1935 37.8519 29.8734 37.0791 29.8734 36.2734C29.8734 35.4677 30.1935 34.695 30.7632 34.1252C31.3329 33.5555 32.1057 33.2354 32.9114 33.2354Z" fill="white"/>
<path d="M33.0127 34.1468H50.0253C50.831 34.1468 51.6038 34.4669 52.1735 35.0366C52.7432 35.6064 53.0633 36.3791 53.0633 37.1848C53.0633 37.9905 52.7432 38.7633 52.1735 39.333C51.6038 39.9027 50.831 40.2228 50.0253 40.2228H33.0127C32.2069 40.2228 31.4342 39.9027 30.8645 39.333C30.2948 38.7633 29.9747 37.9905 29.9747 37.1848C29.9747 36.3791 30.2948 35.6064 30.8645 35.0366C31.4342 34.4669 32.2069 34.1468 33.0127 34.1468Z" fill="#1B403D"/>
<path d="M33.0127 33.843H50.0253C50.831 33.843 51.6038 34.1631 52.1735 34.7328C52.7432 35.3026 53.0633 36.0753 53.0633 36.881C53.0633 37.6867 52.7432 38.4595 52.1735 39.0292C51.6038 39.5989 50.831 39.919 50.0253 39.919H33.0127C32.2069 39.919 31.4342 39.5989 30.8645 39.0292C30.2948 38.4595 29.9747 37.6867 29.9747 36.881C29.9747 36.0753 30.2948 35.3026 30.8645 34.7328C31.4342 34.1631 32.2069 33.843 33.0127 33.843Z" fill="#1C5955"/>
<path d="M33.0127 33.4177H50.0253C50.831 33.4177 51.6038 33.7378 52.1735 34.3075C52.7432 34.8773 53.0633 35.65 53.0633 36.4557C53.0633 37.2614 52.7432 38.0341 52.1735 38.6039C51.6038 39.1736 50.831 39.4937 50.0253 39.4937H33.0127C32.2069 39.4937 31.4342 39.1736 30.8645 38.6039C30.2948 38.0341 29.9747 37.2614 29.9747 36.4557C29.9747 35.65 30.2948 34.8773 30.8645 34.3075C31.4342 33.7378 32.2069 33.4177 33.0127 33.4177Z" fill="#2A867F"/>
<path d="M32.9114 42.5316H49.924C50.7298 42.5316 51.5025 42.8517 52.0722 43.4215C52.642 43.9912 52.962 44.7639 52.962 45.5696C52.962 46.3753 52.642 47.1481 52.0722 47.7178C51.5025 48.2875 50.7298 48.6076 49.924 48.6076H32.9114C32.1057 48.6076 31.3329 48.2875 30.7632 47.7178C30.1935 47.1481 29.8734 46.3753 29.8734 45.5696C29.8734 44.7639 30.1935 43.9912 30.7632 43.4215C31.3329 42.8517 32.1057 42.5316 32.9114 42.5316Z" fill="white"/>
<path d="M33.0127 43.4633H50.0253C50.831 43.4633 51.6038 43.7834 52.1735 44.3531C52.7432 44.9228 53.0633 45.6955 53.0633 46.5013C53.0633 47.307 52.7432 48.0797 52.1735 48.6494C51.6038 49.2192 50.831 49.5392 50.0253 49.5392H33.0127C32.2069 49.5392 31.4342 49.2192 30.8645 48.6494C30.2948 48.0797 29.9747 47.307 29.9747 46.5013C29.9747 45.6955 30.2948 44.9228 30.8645 44.3531C31.4342 43.7834 32.2069 43.4633 33.0127 43.4633Z" fill="#1B403D"/>
<path d="M33.0127 43.1595H50.0253C50.831 43.1595 51.6038 43.4796 52.1735 44.0493C52.7432 44.619 53.0633 45.3918 53.0633 46.1975C53.0633 47.0032 52.7432 47.7759 52.1735 48.3456C51.6038 48.9154 50.831 49.2354 50.0253 49.2354H33.0127C32.2069 49.2354 31.4342 48.9154 30.8645 48.3456C30.2948 47.7759 29.9747 47.0032 29.9747 46.1975C29.9747 45.3918 30.2948 44.619 30.8645 44.0493C31.4342 43.4796 32.2069 43.1595 33.0127 43.1595Z" fill="#1C5955"/>
<path d="M33.0127 42.7544H50.0253C50.831 42.7544 51.6038 43.0745 52.1735 43.6442C52.7432 44.214 53.0633 44.9867 53.0633 45.7924C53.0633 46.5981 52.7432 47.3709 52.1735 47.9406C51.6038 48.5103 50.831 48.8304 50.0253 48.8304H33.0127C32.2069 48.8304 31.4342 48.5103 30.8645 47.9406C30.2948 47.3709 29.9747 46.5981 29.9747 45.7924C29.9747 44.9867 30.2948 44.214 30.8645 43.6442C31.4342 43.0745 32.2069 42.7544 33.0127 42.7544Z" fill="#2A867F"/>
</svg>
