<svg width="80" height="80" viewBox="0 0 80 80" fill="none" xmlns="http://www.w3.org/2000/svg">
<path d="M70.9873 36.9823C70.9967 41.3819 70.1354 45.74 68.453 49.8052C66.7706 53.8705 64.3004 57.5627 61.1847 60.669C58.0689 63.7753 54.3693 66.2344 50.2989 67.9045C46.2286 69.5746 41.868 70.4227 37.4683 70.4C33.8887 70.3884 30.3337 69.8073 26.9367 68.6785C25.8125 66.9552 24.0746 65.7242 22.0759 65.2354C21.1292 64.9292 20.1286 64.8257 19.1392 64.9316V64.9316C12.9394 60.8519 8.2653 54.8336 5.84701 47.8169C3.42871 40.8002 3.40239 33.1801 5.77214 26.1468C8.10126 25.6405 9.72151 24.2228 9.62025 22.8051C9.56768 22.3641 9.41192 21.9418 9.1656 21.5723C8.91928 21.2028 8.58933 20.8966 8.20252 20.6785C11.1802 15.3104 15.5765 10.8643 20.9107 7.82639C26.2449 4.78847 32.3118 3.27566 38.4478 3.45337C44.5839 3.63107 50.553 5.49245 55.7025 8.83398C60.852 12.1755 64.9836 16.8686 67.6456 22.4L67.443 22.6025C66.2895 23.5434 65.5563 24.9035 65.4044 26.3844C65.2526 27.8652 65.6944 29.3458 66.6329 30.5013C67.3558 31.3998 68.3508 32.0394 69.4683 32.324C69.7721 32.4253 69.9747 32.4253 70.2785 32.5266H70.5823C70.8676 33.9943 71.0033 35.4872 70.9873 36.9823Z" fill="#FFECE1"/>
<path d="M70.481 36.9823C70.4756 45.7074 67.0058 54.0733 60.8343 60.241C54.6628 66.4087 46.2947 69.8734 37.5696 69.8734C34.0561 69.8617 30.5678 69.2803 27.2405 68.1519V68.1519C26.7056 67.3095 26.0099 66.5808 25.1933 66.0074C24.3766 65.434 23.455 65.0272 22.481 64.8101C21.5679 64.5097 20.6015 64.4062 19.6456 64.5063V64.5063C13.5511 60.5075 8.95353 54.6019 6.57166 47.7128C4.18979 40.8237 4.15791 33.3395 6.481 26.4304V26.4304C8.70885 25.924 10.3291 24.6076 10.2278 23.0886C10.1872 22.6571 10.0352 22.2436 9.78668 21.8885C9.53815 21.5335 9.20163 21.2491 8.81011 21.0633V21.0633C11.7437 15.7777 16.0743 11.4006 21.3283 8.41073C26.5823 5.42091 32.5573 3.93352 38.5998 4.11124C44.6423 4.28896 50.5196 6.12495 55.5888 9.4184C60.658 12.7118 64.7239 17.3359 67.3417 22.7848V22.7848L67.1392 22.9873C66.0127 23.9015 65.2947 25.2251 65.1428 26.6679C64.991 28.1107 65.4176 29.5549 66.3291 30.6835C67.052 31.582 68.047 32.2217 69.1645 32.5063C69.4683 32.6076 69.6709 32.6076 69.9747 32.7088H70.2785C70.3797 34.1468 70.481 35.5645 70.481 36.9823Z" fill="#6FBBC4"/>
<path d="M54.5317 63.0589C57.4132 61.3391 58.6802 58.1541 57.3618 55.945C56.0433 53.7359 52.6386 53.3392 49.7571 55.0589C46.8756 56.7787 45.6086 59.9636 46.927 62.1728C48.2455 64.3819 51.6502 64.7786 54.5317 63.0589Z" fill="#D7F0EE"/>
<path d="M54.7717 63.4935C57.6531 61.7738 58.9667 58.6667 57.7055 56.5536C56.4444 54.4405 53.0861 54.1216 50.2046 55.8414C47.3232 57.5611 46.0096 60.6682 47.2708 62.7813C48.5319 64.8944 51.8902 65.2133 54.7717 63.4935Z" fill="#1B403D"/>
<path d="M54.5638 63.202C57.4453 61.4822 58.7588 58.3751 57.4977 56.262C56.2365 54.1489 52.8783 53.8301 49.9968 55.5498C47.1153 57.2696 45.8018 60.3767 47.0629 62.4898C48.3241 64.6028 51.6823 64.9217 54.5638 63.202Z" fill="#1C5955"/>
<path d="M53.0052 62.9315C55.5066 61.4481 56.7481 58.9196 55.7782 57.284C54.8082 55.6485 51.9941 55.5252 49.4927 57.0087C46.9912 58.4921 45.7497 61.0206 46.7197 62.6562C47.6897 64.2917 50.5038 64.415 53.0052 62.9315Z" fill="#2A867F"/>
<path d="M69.7721 32.6278C69.4923 32.6086 69.218 32.54 68.962 32.4253C67.5525 32.0351 66.3556 31.1013 65.634 29.8292C64.9125 28.557 64.7254 27.0505 65.1139 25.6405C65.3985 24.523 66.0382 23.528 66.9367 22.8051C63.5269 15.6085 57.6277 9.88924 50.3291 6.7038C55.2072 16.009 57.7118 26.375 57.6202 36.881C57.6247 42.6518 56.9103 48.4007 55.4937 53.9949C56.4377 54.2415 57.2633 54.8158 57.8228 55.6152C57.8228 55.7165 57.924 55.7165 57.924 55.8177L58.0253 55.919L58.1266 56.0203L58.2278 56.1215C59.5443 58.3494 58.3291 61.5899 55.3924 63.2101C54.2974 63.9126 53.0443 64.3303 51.7468 64.4253C51.2405 65.3367 50.9367 66.1468 50.4304 66.957C56.9619 64.1336 62.3891 59.2488 65.882 53.0494C69.3749 46.85 70.7412 39.6772 69.7721 32.6278V32.6278Z" fill="#5B99A1"/>
<path d="M24.9424 19.8966C26.5039 18.9129 27.1657 17.1564 26.4204 15.9734C25.6752 14.7904 23.8051 14.6288 22.2435 15.6126C20.6819 16.5963 20.0202 18.3528 20.7655 19.5359C21.5107 20.7189 23.3808 20.8804 24.9424 19.8966Z" fill="#D7F0EE"/>
<path d="M24.6921 19.5084C26.2537 18.5247 26.9396 16.8065 26.2242 15.6708C25.5087 14.5351 23.6628 14.412 22.1012 15.3957C20.5397 16.3795 19.8538 18.0976 20.5692 19.2333C21.2847 20.369 23.1306 20.4922 24.6921 19.5084Z" fill="#1B403D"/>
<path d="M24.7978 19.703C26.3594 18.7192 27.0453 17.0011 26.3298 15.8654C25.6144 14.7297 23.7685 14.6065 22.2069 15.5903C20.6453 16.574 19.9594 18.2922 20.6749 19.4279C21.3903 20.5636 23.2362 20.6867 24.7978 19.703Z" fill="#1C5955"/>
<path d="M24.7983 19.6928C26.1706 18.8283 26.8239 17.3986 26.2575 16.4995C25.6911 15.6004 24.1195 15.5724 22.7472 16.4369C21.3749 17.3014 20.7216 18.7311 21.288 19.6302C21.8544 20.5293 23.426 20.5573 24.7983 19.6928Z" fill="#2A867F"/>
<path d="M18.3409 55.4811C19.8864 54.2797 19.1357 50.7286 16.6644 47.5494C14.193 44.3702 10.9367 42.7668 9.39128 43.9682C7.84583 45.1695 8.59645 48.7207 11.0678 51.8999C13.5392 55.0791 16.7955 56.6824 18.3409 55.4811Z" fill="#D7F0EE"/>
<path d="M17.9524 55.8009C19.4096 54.6682 18.5874 51.1727 16.116 47.9935C13.6446 44.8143 10.4599 43.1553 9.0028 44.288C7.54567 45.4207 8.36787 48.9162 10.8392 52.0954C13.3106 55.2746 16.4953 56.9336 17.9524 55.8009Z" fill="#1B403D"/>
<path d="M18.1403 55.608C19.5974 54.4753 18.7752 50.9798 16.3038 47.8006C13.8325 44.6214 10.6478 42.9624 9.19065 44.0951C7.73352 45.2278 8.55572 48.7233 11.0271 51.9025C13.4985 55.0817 16.6832 56.7407 18.1403 55.608Z" fill="#1C5955"/>
<path d="M18.1574 54.3956C19.2613 53.5375 18.4032 50.5868 16.2407 47.805C14.0783 45.0232 11.4304 43.4637 10.3265 44.3219C9.22261 45.18 10.0807 48.1307 12.2432 50.9125C14.4057 53.6943 17.0535 55.2538 18.1574 54.3956Z" fill="#2A867F"/>
<path d="M36.5008 23.1796C36.869 23.1745 37.2344 23.2432 37.5756 23.3817C37.9167 23.5203 38.2266 23.7258 38.4869 23.9861C38.7473 24.2465 38.9528 24.5564 39.0913 24.8975C39.2299 25.2387 39.2986 25.6041 39.2934 25.9723V49.0293C39.2986 49.3975 39.2299 49.7629 39.0913 50.1041C38.9528 50.4452 38.7473 50.7551 38.4869 51.0155C38.2266 51.2758 37.9167 51.4813 37.5756 51.6198C37.2344 51.7584 36.869 51.8271 36.5008 51.8219V51.8219C36.1326 51.8271 35.7672 51.7584 35.4261 51.6198C35.0849 51.4813 34.775 51.2758 34.5147 51.0155C34.2543 50.7551 34.0488 50.4452 33.9103 50.1041C33.7718 49.7629 33.703 49.3975 33.7082 49.0293V25.9723C33.703 25.6041 33.7718 25.2387 33.9103 24.8975C34.0488 24.5564 34.2543 24.2465 34.5147 23.9861C34.775 23.7258 35.0849 23.5203 35.4261 23.3817C35.7672 23.2432 36.1326 23.1745 36.5008 23.1796V23.1796Z" fill="white"/>
<path d="M36.8605 22.4645C37.6192 22.4676 38.3459 22.7703 38.8824 23.3068C39.4189 23.8433 39.7216 24.57 39.7247 25.3287L39.7247 48.2426C39.7216 49.0013 39.4189 49.728 38.8824 50.2645C38.3459 50.801 37.6192 51.1037 36.8605 51.1068V51.1068C36.1018 51.1037 35.375 50.801 34.8386 50.2645C34.3021 49.728 33.9993 49.0013 33.9962 48.2426L33.9962 25.3287C33.9993 24.57 34.3021 23.8433 34.8386 23.3068C35.375 22.7703 36.1018 22.4676 36.8605 22.4645V22.4645Z" fill="#1B403D"/>
<path d="M37.0689 22.4584C37.437 22.4532 37.8025 22.522 38.1436 22.6605C38.4848 22.799 38.7947 23.0045 39.055 23.2649C39.3154 23.5252 39.5209 23.8351 39.6594 24.1763C39.7979 24.5174 39.8666 24.8829 39.8615 25.251V48.3081C39.8666 48.6762 39.7979 49.0417 39.6594 49.3828C39.5209 49.724 39.3154 50.0339 39.055 50.2942C38.7947 50.5546 38.4848 50.7601 38.1436 50.8986C37.8025 51.0371 37.437 51.1058 37.0689 51.1007C36.7007 51.1058 36.3353 51.0371 35.9941 50.8986C35.653 50.7601 35.3431 50.5546 35.0827 50.2942C34.8224 50.0339 34.6169 49.724 34.4784 49.3828C34.3398 49.0417 34.2711 48.6762 34.2762 48.3081V25.251C34.2711 24.8829 34.3398 24.5174 34.4784 24.1763C34.6169 23.8351 34.8224 23.5252 35.0827 23.2649C35.3431 23.0045 35.653 22.799 35.9941 22.6605C36.3353 22.522 36.7007 22.4532 37.0689 22.4584Z" fill="#1C5955"/>
<path d="M38.0479 22.6257C38.7471 22.6371 39.4143 22.9199 39.9088 23.4143C40.4032 23.9087 40.686 24.576 40.6974 25.2751L40.6974 48.6186C40.686 49.3177 40.4032 49.985 39.9088 50.4794C39.4143 50.9738 38.7471 51.2566 38.0479 51.268C37.3488 51.2566 36.6815 50.9738 36.1871 50.4794C35.6927 49.985 35.4099 49.3177 35.3985 48.6186L35.3985 25.2751C35.3801 24.9223 35.4361 24.5696 35.5627 24.2399C35.6893 23.9101 35.8839 23.6106 36.1336 23.3608C36.3834 23.111 36.6829 22.9165 37.0127 22.7899C37.3425 22.6632 37.6952 22.6073 38.0479 22.6257Z" fill="#24706B"/>
<path d="M23.3589 36.1734C23.3703 35.4743 23.6531 34.807 24.1475 34.3126C24.6419 33.8182 25.3092 33.5354 26.0083 33.524L49.3518 33.524C50.0509 33.5354 50.7182 33.8182 51.2126 34.3126C51.707 34.807 51.9898 35.4743 52.0012 36.1734V36.1734C51.9898 36.8725 51.707 37.5398 51.2126 38.0342C50.7182 38.5286 50.0509 38.8114 49.3518 38.8228L26.0226 38.8371C25.3186 38.8293 24.6455 38.5462 24.1477 38.0483C23.6498 37.5505 23.3667 36.8774 23.3589 36.1734Z" fill="white"/>
<path d="M22.9599 37.6589C22.9713 36.9598 23.2541 36.2925 23.7485 35.7981C24.2429 35.3037 24.9102 35.0209 25.6093 35.0095L48.9528 35.0095C49.6519 35.0209 50.3192 35.3037 50.8136 35.7981C51.308 36.2925 51.5908 36.9598 51.6022 37.6589V37.6589C51.5908 38.3581 51.308 39.0253 50.8136 39.5198C50.3192 40.0142 49.6519 40.297 48.9528 40.3084L25.6093 40.3084C25.2565 40.3268 24.9038 40.2708 24.574 40.1442C24.2443 40.0175 23.9448 39.823 23.695 39.5732C23.4452 39.3235 23.2507 39.024 23.1241 38.6942C22.9974 38.3644 22.9415 38.0117 22.9599 37.6589V37.6589Z" fill="#1B403D"/>
<path d="M23.0304 37.3813C23.0418 36.6822 23.3246 36.0149 23.819 35.5205C24.3134 35.0261 24.9807 34.7433 25.6798 34.7319L49.0233 34.7319C49.7224 34.7433 50.3897 35.0261 50.8841 35.5205C51.3785 36.0149 51.6613 36.6822 51.6727 37.3813V37.3813C51.6613 38.0804 51.3785 38.7477 50.8841 39.2421C50.3897 39.7366 49.7224 40.0193 49.0233 40.0307L25.6798 40.0307C25.3271 40.0491 24.9744 39.9932 24.6446 39.8666C24.3148 39.7399 24.0153 39.5454 23.7655 39.2956C23.5157 39.0458 23.3212 38.7464 23.1946 38.4166C23.068 38.0868 23.012 37.7341 23.0304 37.3813Z" fill="#1C5955"/>
<path d="M23.182 36.5284C23.1934 35.8293 23.4762 35.162 23.9706 34.6676C24.465 34.1732 25.1323 33.8904 25.8314 33.879L49.1749 33.879C49.874 33.8904 50.5413 34.1732 51.0357 34.6676C51.5301 35.162 51.8129 35.8293 51.8243 36.5284C51.8129 37.2276 51.5301 37.8948 51.0357 38.3893C50.5413 38.8837 49.874 39.1665 49.1749 39.1779L25.8171 39.1635C25.1229 39.1486 24.4613 38.8662 23.9703 38.3752C23.4793 37.8842 23.1969 37.2226 23.182 36.5284V36.5284Z" fill="#24706B"/>
</svg>
