<svg width="80" height="80" viewBox="0 0 80 80" fill="none" xmlns="http://www.w3.org/2000/svg">
<path d="M70.9873 36.9823C70.9967 41.3819 70.1354 45.74 68.453 49.8052C66.7706 53.8705 64.3004 57.5627 61.1847 60.669C58.0689 63.7753 54.3693 66.2344 50.2989 67.9045C46.2286 69.5746 41.868 70.4227 37.4683 70.4C33.8887 70.3884 30.3337 69.8073 26.9367 68.6785C25.8125 66.9552 24.0746 65.7242 22.0759 65.2354C21.1292 64.9292 20.1286 64.8257 19.1392 64.9316C12.9394 60.8519 8.2653 54.8336 5.84701 47.8169C3.42871 40.8002 3.40239 33.1801 5.77214 26.1468C8.10126 25.6405 9.72151 24.2228 9.62024 22.8051C9.56768 22.3641 9.41192 21.9418 9.1656 21.5723C8.91928 21.2028 8.58933 20.8966 8.20252 20.6785C11.1802 15.3104 15.5765 10.8643 20.9107 7.82639C26.2449 4.78847 32.3118 3.27566 38.4478 3.45337C44.5839 3.63107 50.553 5.49245 55.7025 8.83398C60.852 12.1755 64.9836 16.8686 67.6456 22.4L67.443 22.6025C66.2895 23.5434 65.5563 24.9035 65.4044 26.3844C65.2526 27.8652 65.6944 29.3458 66.6329 30.5013C67.3558 31.3998 68.3508 32.0394 69.4683 32.324C69.7721 32.4253 69.9747 32.4253 70.2785 32.5266H70.5823C70.8631 33.9949 70.9988 35.4874 70.9873 36.9823Z" fill="#FFECE1"/>
<path d="M70.481 36.9823C70.4756 45.7074 67.0058 54.0733 60.8343 60.2411C54.6628 66.4088 46.2948 69.8734 37.5696 69.8734C34.0562 69.8617 30.5678 69.2804 27.2405 68.1519C26.7056 67.3095 26.0099 66.5808 25.1933 66.0074C24.3766 65.434 23.455 65.0272 22.481 64.8101C21.5679 64.5097 20.6016 64.4062 19.6456 64.5063C13.5511 60.5075 8.95354 54.6019 6.57168 47.7128C4.18981 40.8237 4.15793 33.3395 6.48101 26.4304C8.70886 25.924 10.3291 24.6076 10.2278 23.0886C10.1872 22.6571 10.0352 22.2436 9.7867 21.8885C9.53817 21.5335 9.20165 21.2491 8.81013 21.0633C11.7437 15.7777 16.0743 11.4006 21.3283 8.41075C26.5823 5.42092 32.5573 3.93353 38.5998 4.11125C44.6424 4.28897 50.5196 6.12496 55.5888 9.41841C60.658 12.7119 64.7239 17.3359 67.3418 22.7848L67.1392 22.9873C66.0127 23.9015 65.2947 25.2251 65.1429 26.6679C64.991 28.1107 65.4176 29.5549 66.3291 30.6835C67.052 31.5821 68.047 32.2217 69.1646 32.5063C69.4684 32.6076 69.6709 32.6076 69.9747 32.7089H70.2785C70.3797 34.1468 70.481 35.5646 70.481 36.9823Z" fill="#6FBBC4"/>
<path d="M54.5678 63.1554C57.4492 61.4357 58.7163 58.2507 57.3978 56.0416C56.0793 53.8324 52.6746 53.4357 49.7931 55.1555C46.9117 56.8752 45.6446 60.0602 46.9631 62.2693C48.2816 64.4785 51.6863 64.8752 54.5678 63.1554Z" fill="#D7F0EE"/>
<path d="M54.7493 63.5025C57.6308 61.7827 58.9443 58.6756 57.6832 56.5625C56.422 54.4495 53.0638 54.1306 50.1823 55.8504C47.3008 57.5701 45.9873 60.6772 47.2484 62.7903C48.5096 64.9034 51.8679 65.2222 54.7493 63.5025Z" fill="#1B403D"/>
<path d="M54.5464 63.2123C57.4279 61.4926 58.7414 58.3855 57.4803 56.2724C56.2192 54.1593 52.8609 53.8404 49.9794 55.5602C47.0979 57.2799 45.7844 60.3871 47.0456 62.5001C48.3067 64.6132 51.665 64.9321 54.5464 63.2123Z" fill="#1C5955"/>
<path d="M53.5707 62.6066C56.0721 61.1231 57.3136 58.5946 56.3437 56.9591C55.3737 55.3235 52.5596 55.2003 50.0582 56.6837C47.5567 58.1672 46.3152 60.6957 47.2852 62.3312C48.2552 63.9668 51.0693 64.09 53.5707 62.6066Z" fill="#2A867F"/>
<path d="M69.7721 32.7291C69.4923 32.7099 69.218 32.6413 68.962 32.5266C67.5525 32.1363 66.3556 31.2026 65.634 29.9304C64.9125 28.6583 64.7255 27.1517 65.1139 25.7418C65.3986 24.6242 66.0382 23.6292 66.9367 22.9063C63.5269 15.7098 57.6277 9.99049 50.3291 6.80505C55.2072 16.1103 57.7118 26.4763 57.6202 36.9823C57.6246 42.7531 56.9102 48.5019 55.4937 54.0962C56.4347 54.3376 57.2598 54.9044 57.8228 55.6962C57.8228 55.7975 57.924 55.7975 57.924 55.8987L58.0253 56L58.1266 56.1013L58.2278 56.2025C59.5443 58.4304 58.3291 61.6709 55.3924 63.2911C54.2974 63.9936 53.0443 64.4113 51.7468 64.5063C51.2405 65.4177 50.9367 66.2278 50.4304 67.038C56.9473 64.1955 62.3606 59.307 65.8506 53.1127C69.3406 46.9184 70.7173 39.7556 69.7721 32.7089V32.7291Z" fill="#5B99A1"/>
<path d="M24.9792 19.983C26.5408 18.9992 27.1784 17.2044 26.4033 15.974C25.6282 14.7437 23.734 14.5438 22.1724 15.5276C20.6108 16.5113 19.9733 18.3062 20.7483 19.5365C21.5234 20.7668 23.4177 20.9667 24.9792 19.983Z" fill="#D7F0EE"/>
<path d="M24.6649 19.5091C26.2265 18.5253 26.9124 16.8072 26.1969 15.6715C25.4815 14.5358 23.6356 14.4126 22.074 15.3964C20.5124 16.3801 19.8265 18.0983 20.542 19.234C21.2574 20.3697 23.1033 20.4928 24.6649 19.5091Z" fill="#1B403D"/>
<path d="M24.7807 19.7036C26.3423 18.7199 27.0282 17.0017 26.3127 15.866C25.5972 14.7304 23.7514 14.6072 22.1898 15.5909C20.6282 16.5747 19.9423 18.2929 20.6578 19.4285C21.3732 20.5642 23.2191 20.6874 24.7807 19.7036Z" fill="#1C5955"/>
<path d="M24.8267 19.7755C26.199 18.911 26.8523 17.4813 26.2859 16.5822C25.7195 15.6831 24.1478 15.6551 22.7756 16.5196C21.4033 17.3841 20.75 18.8138 21.3164 19.7129C21.8828 20.612 23.4544 20.64 24.8267 19.7755Z" fill="#2A867F"/>
<path d="M18.329 55.4851C19.8744 54.2838 19.1238 50.7326 16.6525 47.5534C14.1811 44.3742 10.9248 42.7709 9.37936 43.9722C7.83391 45.1736 8.58453 48.7248 11.0559 51.904C13.5273 55.0832 16.7836 56.6865 18.329 55.4851Z" fill="#D7F0EE"/>
<path d="M17.9388 55.8192C19.3959 54.6865 18.5737 51.191 16.1023 48.0118C13.6309 44.8326 10.4462 43.1736 8.98911 44.3063C7.53198 45.439 8.35418 48.9345 10.8256 52.1137C13.2969 55.2929 16.4816 56.9519 17.9388 55.8192Z" fill="#1B403D"/>
<path d="M18.1204 55.6183C19.5775 54.4856 18.7553 50.9901 16.2839 47.8109C13.8126 44.6317 10.6279 42.9727 9.17075 44.1054C7.71362 45.2382 8.53583 48.7337 11.0072 51.9128C13.4786 55.092 16.6633 56.751 18.1204 55.6183Z" fill="#1C5955"/>
<path d="M18.2027 54.4871C19.3066 53.629 18.4485 50.6783 16.286 47.8965C14.1236 45.1147 11.4757 43.5552 10.3718 44.4133C9.26789 45.2715 10.126 48.2222 12.2885 51.004C14.4509 53.7858 17.0988 55.3452 18.2027 54.4871Z" fill="#2A867F"/>
<path d="M37.5696 26.4506C35.7762 26.4905 34.0344 27.0587 32.5625 28.0841C31.0906 29.1094 29.9541 30.5464 29.2952 32.2149C28.6363 33.8833 28.4845 35.7091 28.8587 37.4635C29.2329 39.2179 30.1165 40.8228 31.3988 42.0772C32.6811 43.3317 34.3051 44.1798 36.0673 44.5153C37.8294 44.8509 39.6515 44.659 41.305 43.9636C42.9586 43.2682 44.3702 42.1004 45.363 40.6063C46.3558 39.1122 46.8856 37.3584 46.8861 35.5645C46.8331 33.1289 45.8282 30.811 44.0867 29.1074C42.3453 27.4037 40.0058 26.45 37.5696 26.4506ZM41.924 35.5645V36.0709V36.3747C41.8353 37.279 41.3998 38.1137 40.7088 38.7038C40.6076 38.8051 40.5063 38.805 40.405 38.9063L40.3038 39.0076C39.9934 39.306 39.6088 39.5158 39.1899 39.6152C38.4519 39.9075 37.6488 39.9959 36.8649 39.8712C36.081 39.7465 35.345 39.4132 34.7342 38.9063L34.6329 38.8051L34.5316 38.7038L34.3291 38.5013C33.7943 37.9044 33.4427 37.1661 33.3164 36.3747V35.2607C33.4006 34.2679 33.8306 33.336 34.5316 32.6278C34.9356 32.2194 35.4166 31.8951 35.9468 31.6738C36.477 31.4526 37.0457 31.3386 37.6202 31.3386C38.1947 31.3386 38.7635 31.4526 39.2937 31.6738C39.8238 31.8951 40.3048 32.2194 40.7088 32.6278C41.3888 33.3098 41.8173 34.2024 41.924 35.1595V35.5645Z" fill="#1B403D"/>
<path d="M48.6076 33.0329C48.5063 32.6278 48.3038 32.2228 48.2025 31.8177C48.2025 31.7164 48.1013 31.6152 48.1013 31.5139C48.1013 31.4127 48.1013 31.4126 48 31.3114C47.8987 31.2101 47.8987 31.0076 47.7975 30.9063V30.8051C47.7975 30.7038 47.6962 30.7038 47.6962 30.6025L49.8228 28.5772L50.2278 28.4759H50.4304L50.6329 28.2734L47.5949 25.3164L45.8734 23.5949L43.2405 26.1266C42.5088 25.7191 41.7253 25.4126 40.9114 25.2152V21.5696H34.5316V25.2152C33.7177 25.4126 32.9342 25.7191 32.2025 26.1266L29.5696 23.5949L24.9114 28.2532L25.1139 28.4557L25.8228 29.0633L27.6456 30.6835C27.6456 30.7848 27.5443 30.7848 27.5443 30.8861V30.9873C27.4377 31.099 27.3671 31.2401 27.3418 31.3924C27.3418 31.4937 27.2405 31.4937 27.2405 31.5949C27.2022 31.6349 27.1733 31.6829 27.1558 31.7355C27.1383 31.788 27.1326 31.8438 27.1392 31.8987C27.0269 32.0835 26.9577 32.2911 26.9367 32.5063C26.8244 32.691 26.7551 32.8987 26.7342 33.1139H22.9873V39.3924H26.7342C26.932 40.1741 27.2388 40.924 27.6456 41.6202L27.5443 41.7215L24.9114 44.3544L25.1139 44.557L25.2152 44.6582L25.8228 45.1645L26.5316 45.7721L29.6709 48.6076L32.3038 46.0759C33.0355 46.4834 33.819 46.79 34.6329 46.9873V50.6329H41.0127V46.9873C41.3164 46.8861 41.7215 46.7848 42.0253 46.6835C42.4304 46.481 42.9367 46.2785 43.3418 46.0759L45.9747 48.6076L49.2152 45.6709L50.5316 44.4557L50.7342 44.2532L48 41.519C48.4204 40.8169 48.7602 40.0695 49.0127 39.2911H52.6582V33.0126L48.6076 33.0329ZM41.924 36.3747V37.3873C41.9088 38.4558 41.4721 39.4749 40.7089 40.2228C40.6076 40.324 40.5063 40.324 40.4051 40.4253L40.3038 40.5266C39.9934 40.825 39.6088 41.0348 39.1899 41.1342C38.4519 41.4265 37.6488 41.5149 36.8649 41.3902C36.081 41.2655 35.345 40.9322 34.7342 40.4253L34.6329 40.324L34.5316 40.2228L34.3291 40.0202C33.7483 39.3344 33.3945 38.4852 33.3165 37.5899V36.1721C33.4006 35.1793 33.8307 34.2474 34.5316 33.5392C34.9356 33.1308 35.4166 32.8065 35.9468 32.5852C36.477 32.3639 37.0458 32.25 37.6202 32.25C38.1947 32.25 38.7635 32.3639 39.2937 32.5852C39.8238 32.8065 40.3048 33.1308 40.7089 33.5392C41.3889 34.2212 41.8173 35.1138 41.924 36.0709V36.3747ZM40.6076 33.1342C40.2036 32.7257 39.7226 32.4015 39.1924 32.1802C38.6623 31.9589 38.0935 31.8449 37.519 31.8449C36.9445 31.8449 36.3757 31.9589 35.8455 32.1802C35.3154 32.4015 34.8344 32.7257 34.4304 33.1342C33.6393 33.9461 33.2023 35.0386 33.2152 36.1721V36.0709C33.2947 35.0709 33.7251 34.1311 34.4304 33.4177C34.8344 33.0093 35.3154 32.685 35.8455 32.4637C36.3757 32.2424 36.9445 32.1285 37.519 32.1285C38.0935 32.1285 38.6623 32.2424 39.1924 32.4637C39.7226 32.685 40.2036 33.0093 40.6076 33.4177C41.2876 34.0997 41.716 34.9922 41.8228 35.9494V35.8481C41.792 34.8126 41.3556 33.8307 40.6076 33.1139V33.1342Z" fill="white"/>
<path d="M48.6076 34.6532C48.3765 33.8603 48.0356 33.1036 47.5949 32.4051L48 32L48.1013 31.8987L50.7342 29.2658L50.5316 29.0633L50.2278 28.7595L50.0253 28.6582L47.3924 27.1392L45.6709 25.4177L43.038 27.9494C42.3062 27.5419 41.5228 27.2353 40.7089 27.038V23.4937H34.3291V27.1392C33.5152 27.3366 32.7317 27.6432 32 28.0506L29.3671 25.5392L25.0127 28.5772L24.5063 28.9823L24.3038 29.1848L27.6456 32.4051C27.3488 32.9521 27.1112 33.5292 26.9367 34.1266C26.8244 34.3113 26.7551 34.519 26.7342 34.7342H22.9873V41.0127H26.7342C26.8354 41.4177 27.038 41.8228 27.1392 42.1266L27.2405 42.3291V42.4304C27.2405 42.5316 27.3418 42.5316 27.3418 42.6329C27.3671 42.7852 27.4377 42.9263 27.5443 43.038L27.6456 43.2405L25.7215 45.1645L25.6202 45.2658L24.6076 44.8608L24.4051 45.0633L29.5696 50.1266L32.2025 47.5949C32.9342 48.0024 33.7177 48.3089 34.5316 48.5063V52.1519H40.9114V48.5063C41.2152 48.4051 41.6202 48.3038 41.924 48.2025C42.3291 48 42.8354 47.7975 43.2405 47.5949L45.8734 50.1266L51.038 45.0633L50.8354 44.8608L50.3291 44.3544L48.4051 42.4304L47.8987 42.8354C48.0053 42.7238 48.0759 42.5827 48.1013 42.4304C48.1013 42.3291 48.2025 42.3291 48.2025 42.2278C48.2025 42.1266 48.2025 42.1266 48.3038 42.0253C48.484 41.6367 48.6198 41.2291 48.7089 40.8101H52.3544V34.6329L48.6076 34.6532ZM40.6076 40.8304C40.5063 40.9316 40.4051 40.9316 40.3038 41.0329L40.2025 41.1342C39.8922 41.4326 39.5075 41.6424 39.0886 41.7418C38.3506 42.0341 37.5476 42.1225 36.7636 41.9978C35.9797 41.8731 35.2438 41.5398 34.6329 41.0329L34.5316 40.9316L34.4304 40.8304L34.2278 40.6278C33.647 39.942 33.2932 39.0928 33.2152 38.1975V36.1721C33.2993 35.1793 33.7294 34.2474 34.4304 33.5392C34.8344 33.1308 35.3154 32.8065 35.8455 32.5852C36.3757 32.364 36.9445 32.25 37.519 32.25C38.0935 32.25 38.6623 32.364 39.1924 32.5852C39.7226 32.8065 40.2036 33.1308 40.6076 33.5392C41.2876 34.2212 41.716 35.1138 41.8228 36.0709V36.881V38.2987C41.8147 38.7834 41.7019 39.2605 41.4922 39.6975C41.2824 40.1345 40.9807 40.5209 40.6076 40.8304Z" fill="#1B403D"/>
<path d="M48.6076 34.2481C48.3992 33.5499 48.1281 32.872 47.7975 32.2228C47.7975 32.1215 47.6962 32.0202 47.6962 31.919L48.1013 31.5139L50.7342 28.9823L50.4304 28.6785L50.3291 28.5772L47.5949 26.7544L45.8734 25.0329L43.2405 27.5645C42.5088 27.1571 41.7253 26.8505 40.9114 26.6532V23.0076H34.5316V26.6532C33.7177 26.8505 32.9343 27.1571 32.2025 27.5645L29.5696 25.0329L25.2152 28.4759L25.1139 28.5772H25.0127L24.5063 28.9823L27.5443 32.0202C27.506 32.0603 27.4771 32.1082 27.4596 32.1608C27.4421 32.2133 27.4364 32.2691 27.443 32.324C27.2405 32.7291 27.038 33.2354 26.8354 33.7418C26.7231 33.9265 26.6539 34.1342 26.6329 34.3494H22.8861V40.6278H26.6329C26.74 41.1202 26.9101 41.5968 27.1392 42.0456L27.2405 42.2481V42.3494C27.2405 42.4506 27.3418 42.5519 27.443 42.7544L27.5443 42.9569L27.443 43.0582L25.519 44.9823L25.4177 44.881L25.0127 44.5772L24.5063 44.9823L29.4684 49.9443L32.1013 47.4126C32.833 47.8201 33.6165 48.1267 34.4304 48.324V51.9696H40.8101V48.324C41.1139 48.2228 41.519 48.1215 41.8228 48.0202C42.2278 47.8177 42.7342 47.6152 43.1392 47.4126L45.7722 49.9443L50.7342 45.0835L50.2278 44.5772L48.3038 42.6532L48.1013 42.4506L47.7975 42.7544C47.8987 42.6532 47.8987 42.5519 48 42.3494V42.2481C48 42.1468 48.1013 42.1468 48.1013 42.0456C48.3038 41.5392 48.5063 41.1342 48.7089 40.6278H52.3544V34.3494L48.6076 34.2481ZM33.2152 37.7924V36.0709C33.2947 35.0709 33.7251 34.1311 34.4304 33.4177C34.8344 33.0093 35.3154 32.685 35.8455 32.4637C36.3757 32.2424 36.9445 32.1285 37.519 32.1285C38.0935 32.1285 38.6623 32.2424 39.1924 32.4637C39.7226 32.685 40.2036 33.0093 40.6076 33.4177C41.2876 34.0997 41.716 34.9922 41.8228 35.9494V36.7595V37.1645V37.7721C41.7449 38.7881 41.2723 39.7332 40.5063 40.4051C40.4051 40.5063 40.3038 40.5063 40.2025 40.6076L40.1013 40.7089C39.7909 41.0072 39.4063 41.217 38.9873 41.3164C38.2493 41.6088 37.4463 41.6972 36.6624 41.5725C35.8784 41.4478 35.1425 41.1145 34.5316 40.6076L34.4304 40.5063L34.3291 40.4051L34.1266 40.2025C33.6168 39.4853 33.3026 38.6477 33.2152 37.7721V37.7924Z" fill="#1C5955"/>
<path d="M37.5696 26.1468C35.7762 26.1867 34.0344 26.7549 32.5625 27.7803C31.0906 28.8057 29.9541 30.2426 29.2952 31.9111C28.6363 33.5795 28.4845 35.4053 28.8587 37.1597C29.2329 38.9141 30.1165 40.519 31.3988 41.7735C32.6811 43.0279 34.3051 43.876 36.0673 44.2116C37.8294 44.5471 39.6515 44.3552 41.305 43.6598C42.9586 42.9645 44.3702 41.7966 45.363 40.3025C46.3558 38.8084 46.8856 37.0546 46.8861 35.2608C46.8331 32.8252 45.8282 30.5072 44.0867 28.8036C42.3453 27.1 40.0058 26.1463 37.5696 26.1468ZM41.924 35.2608V35.7671V36.0709C41.8353 36.9752 41.3998 37.8099 40.7088 38.4C40.6076 38.5013 40.5063 38.5013 40.405 38.6025L40.3038 38.7038C39.9934 39.0022 39.6088 39.212 39.1899 39.3114C38.4519 39.6037 37.6488 39.6922 36.8649 39.5674C36.081 39.4427 35.345 39.1094 34.7342 38.6025L34.6329 38.5013L34.5316 38.4L34.3291 38.1975C33.7943 37.6006 33.4427 36.8623 33.3164 36.0709V34.957C33.4006 33.9641 33.8306 33.0322 34.5316 32.3241C34.9356 31.9156 35.4166 31.5914 35.9468 31.3701C36.477 31.1488 37.0457 31.0348 37.6202 31.0348C38.1947 31.0348 38.7635 31.1488 39.2937 31.3701C39.8238 31.5914 40.3048 31.9156 40.7088 32.3241C41.3888 33.006 41.8173 33.8986 41.924 34.8557V35.2608Z" fill="#1B403D"/>
<path d="M37.5696 26.8557C35.7762 26.8955 34.0344 27.4638 32.5625 28.4891C31.0906 29.5145 29.9541 30.9514 29.2952 32.6199C28.6363 34.2884 28.4845 36.1142 28.8587 37.8686C29.2329 39.6229 30.1165 41.2279 31.3988 42.4823C32.6811 43.7367 34.3051 44.5848 36.0673 44.9204C37.8294 45.256 39.6515 45.064 41.305 44.3687C42.9586 43.6733 44.3702 42.5054 45.363 41.0114C46.3558 39.5173 46.8856 37.7635 46.8861 35.9696C46.8331 33.534 45.8282 31.216 44.0867 29.5124C42.3453 27.8088 40.0058 26.8551 37.5696 26.8557ZM41.924 35.9696V36.4557V36.7595C41.8353 37.6638 41.3998 38.4985 40.7088 39.0886C40.6076 39.1899 40.5063 39.1899 40.405 39.2911L40.3038 39.3924C39.9934 39.6908 39.6088 39.9006 39.1899 40C38.4519 40.2923 37.6488 40.3807 36.8649 40.256C36.081 40.1313 35.345 39.798 34.7342 39.2911L34.6329 39.1899L34.5316 39.0886L34.3291 38.8861C33.7943 38.2892 33.4427 37.5509 33.3164 36.7595V35.6456C33.4006 34.6527 33.8306 33.7208 34.5316 33.0126C34.9356 32.6042 35.4166 32.28 35.9468 32.0587C36.477 31.8374 37.0457 31.7234 37.6202 31.7234C38.1947 31.7234 38.7635 31.8374 39.2937 32.0587C39.8238 32.28 40.3048 32.6042 40.7088 33.0126C41.3888 33.6946 41.8173 34.5872 41.924 35.5443V35.9494V35.9696Z" fill="#1C5955"/>
<path d="M37.5696 27.5645C35.7762 27.6044 34.0344 28.1726 32.5625 29.198C31.0906 30.2234 29.9541 31.6603 29.2952 33.3288C28.6363 34.9972 28.4845 36.823 28.8587 38.5774C29.2329 40.3318 30.1165 41.9367 31.3988 43.1912C32.6811 44.4456 34.3051 45.2937 36.0673 45.6293C37.8294 45.9648 39.6515 45.7729 41.305 45.0775C42.9586 44.3822 44.3702 43.2143 45.363 41.7202C46.3558 40.2261 46.8856 38.4723 46.8861 36.6785C46.8331 34.2429 45.8282 31.9249 44.0867 30.2213C42.3453 28.5177 40.0058 27.564 37.5696 27.5645ZM41.924 36.6785V37.1848V37.4683C41.8353 38.3726 41.3998 39.2074 40.7088 39.7975C40.6076 39.8987 40.5063 39.8987 40.405 40L40.3038 40.1013C39.9723 40.395 39.5964 40.6343 39.1899 40.8101C38.4519 41.1024 37.6488 41.1909 36.8649 41.0662C36.081 40.9414 35.345 40.6082 34.7342 40.1013L34.6329 40L34.5316 39.8987L34.3291 39.6962C33.7943 39.0993 33.4427 38.361 33.3164 37.5696V36.4557C33.4006 35.4628 33.8306 34.531 34.5316 33.8228C34.9356 33.4143 35.4166 33.0901 35.9468 32.8688C36.477 32.6475 37.0457 32.5335 37.6202 32.5335C38.1947 32.5335 38.7635 32.6475 39.2937 32.8688C39.8238 33.0901 40.3048 33.4143 40.7088 33.8228C41.3888 34.5047 41.8173 35.3973 41.924 36.3544V36.4557C42.0253 36.4557 42.0253 36.4557 41.924 36.6582V36.6785Z" fill="white"/>
<path d="M48.6076 33.4177C48.5005 32.9253 48.3303 32.4488 48.1012 32C48.1012 31.8987 48 31.7975 48 31.6962L47.6962 31.0886L50.2278 28.557L49.8228 28.1519L47.4937 25.9241L45.7721 24.2025L43.1392 26.7342C42.4075 26.3267 41.624 26.0202 40.8101 25.8228V22.1772H34.4304V25.8228C33.6164 26.0202 32.833 26.3267 32.1012 26.7342L29.4683 24.2025L25.1139 28.4557L25.0126 28.557H24.9114L27.1392 30.7848L27.3418 30.9873L27.443 31.0886L27.1392 31.6962C27.038 31.8987 27.038 31.8987 27.038 32C26.9535 32.2761 26.8521 32.5466 26.7342 32.8101C26.6218 32.9949 26.5526 33.2025 26.5316 33.4177H22.7848V39.6962H26.5316C26.7342 40.2025 26.9367 40.8101 27.1392 41.3165C27.2405 41.4177 27.2405 41.6203 27.3418 41.7215C27.443 41.8228 27.443 41.8228 27.443 41.9241V42.0253L27.038 42.4304L25.3164 44.0709L25.0126 44.3747L24.9114 44.4759H24.8101L24.9114 44.5772L25.519 45.1848L29.3671 49.0329L32 46.5013C32.7317 46.9087 33.5152 47.2153 34.3291 47.4127V51.0582H40.7088V47.4127C41.0126 47.3114 41.4177 47.2101 41.7215 47.1089C42.1266 46.9063 42.6329 46.7038 43.038 46.5013L45.6709 49.0329L50.2278 44.557L48.3038 42.6329L47.6962 42.0253V41.9241C47.6962 41.8228 47.7974 41.8228 47.7974 41.7215C47.9041 41.6099 47.9746 41.4687 48 41.3165C48.306 40.821 48.5124 40.2707 48.6076 39.6962H52.2531V33.4177H48.6076ZM41.924 37.0633V37.2658C41.789 38.1556 41.3614 38.9751 40.7088 39.5949C40.6076 39.6962 40.5063 39.6962 40.405 39.7975L40.3038 39.8987C39.9934 40.1971 39.6088 40.4069 39.1899 40.5063C38.4519 40.7987 37.6488 40.8871 36.8649 40.7624C36.081 40.6377 35.345 40.3044 34.7342 39.7975L34.6329 39.6962L34.5316 39.5949L34.3291 39.3924C33.7943 38.7955 33.4427 38.0572 33.3164 37.2658V36.1519C33.4006 35.159 33.8306 34.2272 34.5316 33.519C34.9356 33.1105 35.4166 32.7863 35.9468 32.565C36.477 32.3437 37.0457 32.2298 37.6202 32.2298C38.1947 32.2298 38.7635 32.3437 39.2937 32.565C39.8238 32.7863 40.3048 33.1105 40.7088 33.519C41.3888 34.2009 41.8173 35.0935 41.924 36.0506V37.0633Z" fill="#2A867F"/>
</svg>
