<svg width="80" height="80" viewBox="0 0 80 80" fill="none" xmlns="http://www.w3.org/2000/svg">
<path d="M71.3924 36.4557C71.4018 40.8554 70.5405 45.2134 68.8581 49.2787C67.1757 53.344 64.7055 57.0361 61.5897 60.1425C58.474 63.2488 54.7744 65.7078 50.704 67.3779C46.6336 69.048 42.273 69.8962 37.8734 69.8734C34.2949 69.8684 30.7399 69.2941 27.3418 68.1722C26.2176 66.4489 24.4797 65.2179 22.481 64.7291C21.5343 64.4229 20.5337 64.3194 19.5443 64.4253C13.3445 60.3456 8.67038 54.3273 6.25208 47.3106C3.83379 40.2939 3.80746 32.6738 6.17722 25.6405C8.50633 25.1342 10.1266 23.8177 10.0253 22.2987C9.97276 21.8578 9.81699 21.4355 9.57067 21.066C9.32435 20.6965 8.9944 20.3903 8.6076 20.1722C11.5853 14.8041 15.9815 10.358 21.3158 7.32007C26.65 4.28215 32.7168 2.76934 38.8529 2.94705C44.989 3.12475 50.9581 4.98613 56.1075 8.32767C61.257 11.6692 65.3886 16.3622 68.0506 21.8937L67.8481 22.0962C66.6946 23.0371 65.9614 24.3972 65.8095 25.878C65.6576 27.3589 66.0994 28.8395 67.038 29.9949C67.7609 30.8935 68.7559 31.5331 69.8734 31.8177C70.1772 31.919 70.3798 31.919 70.6835 32.0203H70.9873C71.2625 33.4826 71.3981 34.9677 71.3924 36.4557Z" fill="#FFECE1"/>
<path d="M70.8861 36.4557C70.8861 40.7777 70.0348 45.0574 68.3808 49.0503C66.7269 53.0433 64.3027 56.6715 61.2466 59.7276C58.1904 62.7837 54.5623 65.2079 50.5693 66.8619C46.5763 68.5158 42.2967 69.3671 37.9747 69.3671C34.4612 69.3554 30.9729 68.774 27.6456 67.6456C27.1107 66.8032 26.415 66.0745 25.5983 65.5011C24.7817 64.9277 23.86 64.5209 22.8861 64.3038C21.9682 64.0202 21.0112 63.8835 20.0506 63.8987C13.9562 59.8999 9.3586 53.9943 6.97674 47.1052C4.59487 40.2161 4.56299 32.7319 6.88607 25.8228C9.11392 25.3165 10.7342 24 10.6329 22.481C10.5923 22.0495 10.4403 21.636 10.1918 21.281C9.94323 20.9259 9.60671 20.6415 9.21519 20.4557C12.1488 15.1701 16.4794 10.793 21.7334 7.80316C26.9874 4.81334 32.9624 3.32594 39.0049 3.50366C45.0474 3.68138 50.9247 5.51737 55.9939 8.81082C61.0631 12.1043 65.129 16.7283 67.7468 22.1772L67.5443 22.3797C66.4178 23.2939 65.6998 24.6175 65.5479 26.0603C65.396 27.5031 65.8227 28.9473 66.7342 30.076C67.4571 30.9745 68.4521 31.6141 69.5696 31.8987C69.8734 32 70.076 32 70.3797 32.1013H70.6835C70.7848 33.6405 70.8861 35.0582 70.8861 36.4557Z" fill="#6FBBC4"/>
<path d="M54.9578 62.6638C57.8393 60.944 59.1063 57.7591 57.7879 55.5499C56.4694 53.3408 53.0647 52.9441 50.1832 54.6638C47.3017 56.3836 46.0347 59.5686 47.3531 61.7777C48.6716 63.9868 52.0763 64.3835 54.9578 62.6638Z" fill="#D7F0EE"/>
<path d="M55.1481 63.0057C58.0296 61.2859 59.3431 58.1788 58.082 56.0657C56.8208 53.9526 53.4625 53.6338 50.5811 55.3535C47.6996 57.0733 46.3861 60.1804 47.6472 62.2935C48.9084 64.4066 52.2666 64.7254 55.1481 63.0057Z" fill="#1B403D"/>
<path d="M55.0331 62.6745C57.9145 60.9548 59.2281 57.8477 57.9669 55.7346C56.7058 53.6215 53.3475 53.3026 50.4661 55.0224C47.5846 56.7421 46.2711 59.8493 47.5322 61.9623C48.7933 64.0754 52.1516 64.3943 55.0331 62.6745Z" fill="#1C5955"/>
<path d="M53.9415 61.021C56.4387 59.5305 57.6732 56.9986 56.6986 55.3658C55.7241 53.7329 52.9097 53.6175 50.4124 55.1079C47.9151 56.5984 46.6807 59.1303 47.6552 60.7631C48.6297 62.396 51.4442 62.5114 53.9415 61.021Z" fill="#2A867F"/>
<path d="M70.2785 32.2228C69.9986 32.2036 69.7244 32.135 69.4684 32.0203C68.0589 31.63 66.8619 30.6963 66.1404 29.4241C65.4189 28.152 65.2318 26.6454 65.6203 25.2355C65.9049 24.1179 66.5445 23.1229 67.443 22.4C64.0082 15.1975 58.1206 9.45351 50.8354 6.19748C55.7136 15.5027 58.2181 25.8687 58.1266 36.3747C58.1309 42.1455 57.4165 47.8944 56 53.4886C56.944 53.7352 57.7696 54.3095 58.3291 55.1089C58.3291 55.2101 58.4304 55.2101 58.4304 55.3114L58.5317 55.4127L58.6329 55.5139L58.7342 55.6152C60.0506 57.843 58.8355 60.9823 55.8987 62.7038C54.8038 63.4063 53.5506 63.824 52.2532 63.919C51.7468 64.8304 51.443 65.6405 50.9367 66.4506C57.4424 63.6225 62.8495 58.7517 66.3395 52.5757C69.8294 46.3998 71.2122 39.2549 70.2785 32.2228Z" fill="#5B99A1"/>
<path d="M25.3282 19.4205C26.8898 18.4367 27.5515 16.6802 26.8063 15.4972C26.061 14.3142 24.1909 14.1527 22.6294 15.1364C21.0678 16.1202 20.406 17.8767 21.1513 19.0597C21.8966 20.2427 23.7666 20.4042 25.3282 19.4205Z" fill="#D7F0EE"/>
<path d="M25.1546 18.9782C26.7162 17.9944 27.4021 16.2763 26.6867 15.1406C25.9712 14.0049 24.1253 13.8817 22.5637 14.8655C21.0022 15.8492 20.3163 17.5674 21.0317 18.7031C21.7472 19.8387 23.5931 19.9619 25.1546 18.9782Z" fill="#1B403D"/>
<path d="M25.2743 19.186C26.8358 18.2023 27.5218 16.4841 26.8063 15.3484C26.0908 14.2127 24.2449 14.0896 22.6834 15.0733C21.1218 16.0571 20.4359 17.7752 21.1513 18.9109C21.8668 20.0466 23.7127 20.1698 25.2743 19.186Z" fill="#1C5955"/>
<path d="M25.2764 19.1621C26.6487 18.2976 27.3262 16.9063 26.7896 16.0545C26.253 15.2027 24.7055 15.2131 23.3332 16.0776C21.961 16.9421 21.2835 18.3334 21.8201 19.1852C22.3567 20.0369 23.9041 20.0266 25.2764 19.1621Z" fill="#2A867F"/>
<path d="M18.7154 55.015C20.2609 53.8136 19.5102 50.2625 17.0389 47.0833C14.5675 43.9041 11.3112 42.3007 9.76577 43.5021C8.22033 44.7035 8.97094 48.2546 11.4423 51.4338C13.9137 54.613 17.17 56.2164 18.7154 55.015Z" fill="#D7F0EE"/>
<path d="M18.3308 55.3269C19.788 54.1941 18.9658 50.6986 16.4944 47.5194C14.023 44.3402 10.8383 42.6812 9.3812 43.814C7.92407 44.9467 8.74627 48.4422 11.2177 51.6214C13.689 54.8006 16.8737 56.4596 18.3308 55.3269Z" fill="#1B403D"/>
<path d="M18.5578 55.2175C20.0149 54.0848 19.1927 50.5893 16.7213 47.4101C14.2499 44.2309 11.0652 42.5719 9.60811 43.7046C8.15098 44.8373 8.97319 48.3328 11.4446 51.512C13.9159 54.6912 17.1006 56.3502 18.5578 55.2175Z" fill="#1C5955"/>
<path d="M18.601 53.9927C19.7049 53.1345 18.8468 50.1838 16.6843 47.402C14.5219 44.6202 11.874 43.0608 10.7701 43.9189C9.66619 44.777 10.5243 47.7277 12.6868 50.5095C14.8492 53.2913 17.4971 54.8508 18.601 53.9927Z" fill="#2A867F"/>
<path d="M28.8608 42.8557C31.0979 42.8557 32.9114 40.9515 32.9114 38.6025C32.9114 36.2536 31.0979 34.3494 28.8608 34.3494C26.6237 34.3494 24.8101 36.2536 24.8101 38.6025C24.8101 40.9515 26.6237 42.8557 28.8608 42.8557Z" fill="#1B403D"/>
<path d="M46.2785 48.6279L28.8608 40.2228L29.9747 37.9949L47.2911 46.2987L46.2785 48.6279Z" fill="#1B403D"/>
<path d="M45.7722 27.8684L30.5823 39.7165L29.0633 37.6911L44.2532 25.9443L45.7722 27.8684Z" fill="#1B403D"/>
<path d="M46.3797 48.1215L29.0633 39.8177L30.076 37.5899L47.4937 45.8937L46.3797 48.1215Z" fill="#1C5955"/>
<path d="M46.7848 47.3114L29.3671 39.0076L30.481 36.7798L47.8987 45.0836L46.7848 47.3114Z" fill="white"/>
<path d="M45.9747 30.1975C48.1559 30.1975 49.9241 28.2933 49.9241 25.9443C49.9241 23.5954 48.1559 21.6911 45.9747 21.6911C43.7935 21.6911 42.0253 23.5954 42.0253 25.9443C42.0253 28.2933 43.7935 30.1975 45.9747 30.1975Z" fill="#1B403D"/>
<path d="M45.4684 27.5646L30.2785 39.4127L28.6582 37.3873L43.9494 25.5392L45.4684 27.5646Z" fill="#1C5955"/>
<path d="M44.8608 27.0582L29.6709 38.9063L28.0506 36.881L43.3418 25.0329L44.8608 27.0582Z" fill="white"/>
<path d="M28.8608 42.5519C31.0979 42.5519 32.9114 40.7384 32.9114 38.5013C32.9114 36.2642 31.0979 34.4506 28.8608 34.4506C26.6237 34.4506 24.8101 36.2642 24.8101 38.5013C24.8101 40.7384 26.6237 42.5519 28.8608 42.5519Z" fill="#1C5955"/>
<path d="M45.8734 29.7924C48.1105 29.7924 49.9241 27.9789 49.9241 25.7418C49.9241 23.5047 48.1105 21.6911 45.8734 21.6911C43.6363 21.6911 41.8228 23.5047 41.8228 25.7418C41.8228 27.9789 43.6363 29.7924 45.8734 29.7924Z" fill="#1C5955"/>
<path d="M28.8608 41.843C31.0419 41.843 32.8101 40.0748 32.8101 37.8937C32.8101 35.7125 31.0419 33.9443 28.8608 33.9443C26.6796 33.9443 24.9114 35.7125 24.9114 37.8937C24.9114 40.0748 26.6796 41.843 28.8608 41.843Z" fill="white"/>
<path d="M45.5696 29.0835C47.8067 29.0835 49.6203 27.3607 49.6203 25.2354C49.6203 23.1102 47.8067 21.3873 45.5696 21.3873C43.3325 21.3873 41.519 23.1102 41.519 25.2354C41.519 27.3607 43.3325 29.0835 45.5696 29.0835Z" fill="white"/>
<path d="M46.8861 51.6658C49.1791 51.6658 51.038 49.7616 51.038 47.4127C51.038 45.0637 49.1791 43.1595 46.8861 43.1595C44.593 43.1595 42.7342 45.0637 42.7342 47.4127C42.7342 49.7616 44.593 51.6658 46.8861 51.6658Z" fill="#1B403D"/>
<path d="M46.8861 51.4633C49.235 51.4633 51.1393 49.5591 51.1393 47.2101C51.1393 44.8612 49.235 42.957 46.8861 42.957C44.5371 42.957 42.6329 44.8612 42.6329 47.2101C42.6329 49.5591 44.5371 51.4633 46.8861 51.4633Z" fill="#1C5955"/>
<path d="M47.0886 50.6532C49.3257 50.6532 51.1392 48.8396 51.1392 46.6025C51.1392 44.3654 49.3257 42.5519 47.0886 42.5519C44.8515 42.5519 43.038 44.3654 43.038 46.6025C43.038 48.8396 44.8515 50.6532 47.0886 50.6532Z" fill="white"/>
<path d="M51.038 46.8051C51.0454 47.2946 50.9416 47.7793 50.7342 48.2228C50.2416 49.2079 49.3828 49.961 48.3418 50.3207C47.3007 50.6803 46.1602 50.6179 45.1646 50.1468C44.3366 49.724 43.6633 49.0507 43.2405 48.2228C43.1267 48.0022 43.0579 47.7613 43.038 47.5139C42.9549 47.2873 42.9204 47.0458 42.9367 46.8051V46.2987L42.7342 46.1975L31.7975 40.8304C30.9882 41.5491 29.9431 41.9455 28.8608 41.9443C28.0807 41.9462 27.3158 41.7289 26.6534 41.317C25.9909 40.9052 25.4575 40.3155 25.1139 39.6152C25.0001 39.3946 24.9313 39.1537 24.9114 38.9063C24.8283 38.6798 24.7938 38.4382 24.8101 38.1975C24.8621 37.1587 25.3117 36.1797 26.0658 35.4633C26.8199 34.7469 27.8207 34.3481 28.8608 34.3494C29.6127 34.3475 30.3499 34.5581 30.9873 34.957L41.7215 26.6532C41.6053 26.2924 41.5372 25.9178 41.519 25.5392C41.5784 24.6131 41.9494 23.7344 42.5716 23.0459C43.1938 22.3574 44.0307 21.8996 44.946 21.7471C45.8614 21.5945 46.8015 21.7561 47.6133 22.2056C48.4252 22.6551 49.0612 23.366 49.4177 24.2228C49.5911 24.6387 49.6606 25.0905 49.6203 25.5392C49.6177 26.0604 49.5145 26.5762 49.3165 27.0582C48.9701 27.7548 48.4355 28.3403 47.7732 28.7484C47.1109 29.1565 46.3475 29.3708 45.5696 29.3671C44.8177 29.369 44.0805 29.1584 43.443 28.7595L32.7089 36.962C32.7089 37.0633 32.8101 37.2658 32.8101 37.3671C32.8339 37.5377 32.8677 37.7068 32.9114 37.8734V38.3797L44.2532 43.8481C45.0287 43.2196 45.9895 42.8637 46.9873 42.8354C47.8082 42.825 48.6134 43.0606 49.2992 43.5118C49.985 43.963 50.5201 44.6091 50.8354 45.3671C50.9538 45.8379 51.0217 46.3199 51.038 46.8051Z" fill="#24706B"/>
</svg>
